<?xml version="1.0" encoding="utf-8"?>
<!-- Generator: Adobe Illustrator 15.1.0, SVG Export Plug-In  -->
<!DOCTYPE svg PUBLIC "-//W3C//DTD SVG 1.1//EN" "http://www.w3.org/Graphics/SVG/1.1/DTD/svg11.dtd" [
	<!ENTITY ns_flows "http://ns.adobe.com/Flows/1.0/">
]>
<svg version="1.1"
	 xmlns="http://www.w3.org/2000/svg" xmlns:xlink="http://www.w3.org/1999/xlink" xmlns:a="http://ns.adobe.com/AdobeSVGViewerExtensions/3.0/"
	 x="0px" y="0px" width="25px" height="28px" viewBox="-6.403 -4.585 25 28"
	 overflow="visible" enable-background="new -6.403 -4.585 25 28" xml:space="preserve">
<defs>
</defs>
<path fill="#B6B6B6" d="M10.049,5.869c2.566-0.067,1.938,3.07,1.938,5.717c0,1.521,0.331,4.271-0.828,4.705
	c-1.188,0.443-4.127,0.093-5.72,0.093c-1.764,0-4.582,0.397-5.165-0.554c-0.44-0.714-0.185-2.96-0.185-4.521
	c0-2.583-0.718-5.601,1.937-5.351C1.791,3.248,2.381,1.516,3.871,0.61C7.021-1.309,10.912,1.535,10.049,5.869z M5.897,1.533
	C4.042,1.588,3.129,3.417,3.5,5.96c1.691,0,3.38,0,5.074,0C8.921,3.328,7.938,1.472,5.897,1.533z M7.604,10.358
	c0.703-2.853-3.558-2.682-3.237-0.216c0.084,0.646,0.441,0.632,0.865,1.295c-0.088,0.918-0.329,1.686-0.326,2.694
	c0.756,0,1.511,0,2.266,0c-0.179-0.899-0.255-1.9-0.434-2.804C7.105,10.967,7.501,10.771,7.604,10.358z"/>
</svg>
