
<svg xmlns="http://www.w3.org/2000/svg" version="1.1" xmlns:xlink="http://www.w3.org/1999/xlink" preserveAspectRatio="none" x="0px" y="0px" width="102px" height="34px" viewBox="0 0 102 34">
<defs>
<g id="Layer0_0_FILL">
<path fill="#03A9F4" stroke="none" d="
M 49 29.5
L 49 22.7 11.2 22.7 11.2 29.5 49 29.5
M 89.85 12.3
Q 86.25 14.75 82.75 20.45 79.95 16.55 76.3 14.5 72.65 12.4 69.3 12.4 64.6 12.4 61.3 16.1 58 19.75 58 26.1 58 32.5 61.3 36.2 61.5345703125 36.459375 61.75 36.7 62.32421875 37.24765625 62.9 37.7 63.6955078125 38.3123046875 64.55 38.75 66.066796875 39.51875 67.75 39.75 68.5232421875 39.85 69.3 39.85 70.0388671875 39.85 70.8 39.75 72.54296875 39.51875 74.35 38.75 75.3234375 38.3484375 76.3 37.8 76.3857421875 37.7505859375 76.45 37.7 77.247265625 37.2416015625 77.95 36.7 80.6154296875 34.773046875 82.75 31.8 84.525 34.65 86.3 36.7 86.780859375 37.2263671875 87.25 37.7 87.78828125 38.2623046875 88.3 38.75 88.9373046875 39.296875 89.55 39.75 89.72578125 39.87890625 89.9 40 90.5458984375 40.439453125 91.2 40.8 92.3630859375 41.41484375 93.55 41.8 93.9244140625 41.909375 94.25 42 96.0150390625 42.45 97.9 42.45 99.893359375 42.45 101.65 42 102.0345703125 41.909375 102.35 41.8 103.623828125 41.41484375 104.75 40.8 105.6099609375 40.3396484375 106.4 39.75 107.01875 39.289453125 107.6 38.75 107.9271484375 38.4384765625 108.25 38.1 108.4310546875 37.9033203125 108.6 37.7 109.0130859375 37.2181640625 109.35 36.7 112.3 32.55390625 112.3 26.1 112.3 18.5 108.25 14.15 104.1 9.75 97.9 9.75 93.45 9.75 89.85 12.3
M 93.4 18.35
Q 95.8 16.65 98.2 16.65 101.25 16.65 103.35 19.1 105.45 21.5 105.45 25.9 105.45 30 103.55 32.75 101.6 35.55 98.05 35.55 95.15 35.55 92.65 33.4 91.05 32.05 87.15 26 91 20 93.4 18.35
M 66.15 21.05
Q 67.7 19.3 69.85 19.3 74.05 19.3 78.75 25.9 75.65 29.95 73.1 31.65 71.65 32.6 69.85 32.6 67.65 32.6 66.1 30.85 64.55 29.05 64.55 25.85 64.55 22.8 66.15 21.05 Z"/>
</g>
</defs>

<g transform="matrix( 1, 0, 0, 1, -11.2,-9.75) ">
<use xlink:href="#Layer0_0_FILL"/>
</g>
</svg>
