<?xml version="1.0" standalone="no"?>
<!DOCTYPE svg PUBLIC "-//W3C//DTD SVG 1.1//EN" "http://www.w3.org/Graphics/SVG/1.1/DTD/svg11.dtd" >
<svg xmlns="http://www.w3.org/2000/svg" xmlns:xlink="http://www.w3.org/1999/xlink" version="1.1">
<metadata></metadata>
<defs>
<font id="uni_neuebold" horiz-adv-x="1228" >
<font-face units-per-em="2048" ascent="1536" descent="-512" />
<missing-glyph horiz-adv-x="442" />
<glyph horiz-adv-x="0" />
<glyph horiz-adv-x="682" />
<glyph unicode=" "  horiz-adv-x="442" />
<glyph unicode="&#x09;" horiz-adv-x="442" />
<glyph unicode="&#xa0;" horiz-adv-x="442" />
<glyph unicode="!" horiz-adv-x="548" d="M119 135q0 66 44 111t111 45q66 0 111 -45t45 -111t-45 -110.5t-111 -44.5q-67 0 -111 44.5t-44 110.5zM150 1061v373q0 30 28 30h191q30 0 30 -30v-373l-16 -631q0 -13 -8.5 -21t-22.5 -8h-155q-31 0 -31 29z" />
<glyph unicode="&#x22;" horiz-adv-x="755" d="M113 983l16 451q0 30 33 30h164q29 0 26 -32l-53 -451q-1 -13 -11 -21t-22 -8h-127q-26 0 -26 31zM424 983l16 451q0 30 33 30h164q33 0 27 -32l-54 -451q-1 -13 -10.5 -21t-21.5 -8h-125q-29 0 -29 31z" />
<glyph unicode="#" horiz-adv-x="1554" d="M57 432l37 123q6 25 31 25h266l80 294h-258q-17 0 -23.5 9.5t-1.5 23.5l35 121q6 27 33 27h266l109 383q6 26 33 26h145q15 0 23 -9.5t4 -24.5l-109 -375h281l110 383q6 26 33 26h145q15 0 22 -9.5t3 -24.5l-107 -375h256q17 0 23.5 -10t1.5 -25l-35 -121q-9 -25 -33 -25 h-264l-80 -294h256q17 0 23.5 -9.5t1.5 -23.5l-35 -123q-6 -25 -33 -25h-264l-106 -372q-6 -27 -33 -27h-145q-15 0 -22 10t-3 25l104 364h-280l-109 -372q-6 -27 -32 -27h-146q-15 0 -22 10t-2 25l104 364h-258q-15 0 -22.5 9.5t-2.5 23.5zM596 580h283l79 294h-282z" />
<glyph unicode="$" horiz-adv-x="1216" d="M82 217l100 139q8 11 19 13t22 -7q198 -147 383 -153q74 0 137 20.5t106.5 68t43.5 114.5q0 30 -9.5 55.5t-23.5 44t-41 35.5t-49 27t-62 22t-66.5 18t-74.5 17q-60 13 -109 27.5t-107.5 38.5t-102.5 57t-82 76t-58 103t-20 132q0 183 115 288t303 130v145q0 14 9 22.5 t22 8.5h139q13 0 21 -8.5t8 -22.5v-143q101 -10 193 -49t194 -113q24 -15 8 -41l-96 -139q-17 -22 -43 -6q-166 114 -361 120q-125 0 -196.5 -53t-71.5 -145q0 -27 8.5 -50t21 -39.5t36.5 -31.5t44.5 -25t57 -21t62.5 -17.5t71 -16.5q49 -11 78 -18.5t77 -22t78 -27 t71.5 -34t67 -43.5t54.5 -54t45 -68t26.5 -83t10.5 -100q0 -95 -35 -172t-96 -128t-138 -82.5t-167 -43.5v-158q0 -14 -8 -22.5t-21 -8.5h-139q-13 0 -22 8.5t-9 22.5v156q-115 12 -215 59t-205 135q-24 20 -4 43z" />
<glyph unicode="%" horiz-adv-x="1572" d="M84 977v231q0 132 80.5 199.5t195.5 67.5q116 0 197.5 -67.5t81.5 -199.5v-231q0 -67 -24 -120t-64 -84.5t-88.5 -47.5t-102.5 -16q-112 0 -194 69t-82 199zM226 11q-6 11 3 26l901 1395q12 20 37 20h150q17 0 23 -12t-5 -25l-901 -1397q-10 -18 -37 -18h-147 q-18 0 -24 11zM256 989q0 -63 31 -93t73 -30q44 0 75.5 29.5t31.5 93.5v203q0 65 -31.5 95t-75.5 30q-43 0 -73.5 -30t-30.5 -95v-203zM938 250v231q0 131 81 199t195 68q116 0 196.5 -68t80.5 -199v-231q0 -54 -15.5 -99t-42.5 -76t-62.5 -52t-75 -31t-81.5 -10 q-72 0 -132.5 27t-102 89.5t-41.5 151.5zM1108 262q0 -64 31 -93.5t75 -29.5q43 0 75 30t32 93v203q0 63 -32 93t-75 30q-44 0 -75 -29.5t-31 -93.5v-203z" />
<glyph unicode="&#x26;" horiz-adv-x="1261" d="M78 403q0 72 21 135t61 113t83.5 88t102.5 76q-135 175 -135 328q0 147 109.5 246.5t269.5 99.5q158 0 259 -99t99 -253q-1 -68 -23 -126t-64.5 -105t-87 -82t-105.5 -72q80 -104 200 -256q61 101 88 159q12 27 37 15l142 -64q25 -11 16 -41q-45 -115 -135 -258l211 -270 q10 -15 4 -26t-25 -11h-211q-26 0 -37 16l-86 117q-162 -158 -356 -158q-183 0 -310.5 119.5t-127.5 308.5zM305 406q0 -93 65.5 -154.5t161.5 -61.5q114 0 207 115l-258 336q-84 -53 -130 -108.5t-46 -126.5zM430 1139q0 -49 26.5 -100t75.5 -115q98 56 147.5 104t49.5 111 q0 66 -37.5 108.5t-105.5 42.5t-112 -43.5t-44 -107.5z" />
<glyph unicode="'" horiz-adv-x="444" d="M113 983l16 451q0 30 33 30h164q31 0 28 -32l-55 -451q-3 -29 -33 -29h-125q-28 0 -28 31z" />
<glyph unicode="(" horiz-adv-x="626" d="M90 729q0 476 268 946q12 21 37 21h172q39 0 23 -37q-128 -214 -200.5 -457t-72.5 -473q0 -229 72.5 -471.5t200.5 -458.5q16 -37 -23 -37h-172q-25 0 -37 21q-268 470 -268 946z" />
<glyph unicode=")" horiz-adv-x="626" d="M37 -201q128 216 200 458t72 472t-72 473t-200 457q-16 37 22 37h172q25 0 37 -21q269 -472 269 -946t-269 -946q-12 -21 -37 -21h-172q-38 0 -22 37z" />
<glyph unicode="*" horiz-adv-x="935" d="M80 1126l45 142q11 29 37 20l205 -67v213q0 30 28 30h146q30 0 30 -30v-213l203 65q27 9 37 -18l45 -140q10 -26 -16 -36l-205 -66l125 -172q15 -24 -6 -43l-117 -86q-24 -21 -41 6l-129 172l-123 -170q-16 -26 -41 -8l-119 86q-23 17 -8 41l125 172l-201 66 q-29 13 -20 36z" />
<glyph unicode="+" d="M147 604v162q0 29 29 29h326v327q0 29 28 29h166q31 0 31 -29v-327h326q28 0 28 -29v-162q0 -31 -28 -31h-326v-327q0 -29 -31 -29h-166q-28 0 -28 29v327h-326q-29 0 -29 31z" />
<glyph unicode="," horiz-adv-x="487" d="M29 -221l116 450q6 27 33 27h180q15 0 22 -10t3 -25l-150 -452q-6 -25 -34 -25h-144q-33 0 -26 35z" />
<glyph unicode="-" horiz-adv-x="827" d="M127 530v160q0 31 31 31h512q30 0 30 -31v-160q0 -28 -30 -28h-512q-31 0 -31 28z" />
<glyph unicode="." horiz-adv-x="487" d="M94 139q0 68 41.5 110t108.5 42q66 0 108.5 -42.5t42.5 -109.5q0 -65 -42.5 -107t-108.5 -42q-67 0 -108.5 42t-41.5 107z" />
<glyph unicode="/" horiz-adv-x="909" d="M53 35l570 1407q8 22 32 22h179q17 0 22.5 -9.5t-0.5 -24.5l-565 -1407q-9 -23 -35 -23h-180q-15 0 -22 10t-1 25z" />
<glyph unicode="0" horiz-adv-x="1259" d="M125 477v518q0 102 29 186t77.5 140.5t114.5 95t137 55.5t148 17q97 0 184 -28.5t160 -85.5t116.5 -155t43.5 -225v-518q0 -129 -43.5 -228.5t-116.5 -157.5t-160 -87t-184 -29q-77 0 -148 17.5t-137 56.5t-114.5 96t-77.5 142.5t-29 189.5zM365 469q0 -74 23.5 -127.5 t64 -81.5t84.5 -40.5t94 -12.5t93.5 12.5t83.5 40.5t63.5 81.5t23.5 127.5v522q0 75 -23.5 129.5t-63.5 83t-83.5 41t-93.5 12.5t-94 -12.5t-84.5 -41t-64 -83t-23.5 -129.5v-522z" />
<glyph unicode="1" horiz-adv-x="776" d="M29 1174q-16 22 8 43l350 237q12 10 37 10h158q28 0 28 -30v-1403q0 -31 -28 -31h-181q-30 0 -30 31v1147l-217 -150q-23 -17 -41 10z" />
<glyph unicode="2" horiz-adv-x="1150" d="M76 31v123q0 22 14 36l416 433q70 73 112.5 121t86 107.5t63.5 112.5t20 105q0 82 -53 138.5t-162 56.5q-101 0 -177.5 -44.5t-149.5 -119.5q-9 -11 -20.5 -10.5t-20.5 12.5l-96 131q-16 20 2 41q198 215 462 215q131 0 233.5 -46t164 -141.5t61.5 -228.5 q0 -93 -37.5 -184.5t-92.5 -166.5t-154 -187q-126 -145 -306 -314h582q31 0 31 -31v-159q0 -31 -31 -31h-920q-28 0 -28 31z" />
<glyph unicode="3" horiz-adv-x="1165" d="M66 168q-18 22 0 43l100 117q20 20 43 0q90 -65 166.5 -96t189.5 -31q120 0 193 71t73 201q0 122 -74 185t-214 63q-63 0 -129 -14q-23 -6 -37 18l-39 84q-10 22 8 43l201 219q131 138 174 172h-555q-29 0 -29 31v160q0 30 29 30h835q29 0 29 -30v-119q0 -19 -14 -37 l-371 -393l2 -4q82 2 158.5 -25t137 -78t96.5 -132t36 -179q0 -225 -143 -358.5t-367 -133.5q-159 0 -276 50.5t-223 142.5z" />
<glyph unicode="4" horiz-adv-x="1179" d="M53 332v133q0 22 10 37l502 940q11 22 35 22h207q18 0 24 -11t-2 -26l-483 -907h383l4 285q3 29 31 29h174q31 0 31 -29v-285h125q30 0 30 -28v-160q0 -31 -30 -31h-125v-270q0 -31 -31 -31h-178q-31 0 -31 31v270h-645q-31 0 -31 31z" />
<glyph unicode="5" horiz-adv-x="1191" d="M111 166q-17 20 0 43l112 123q17 20 43 -2q159 -125 334 -125q129 0 197.5 74.5t68.5 205.5t-64.5 194.5t-199.5 63.5q-161 0 -262 -88q-21 -18 -41 -10l-139 47q-27 7 -27 35l27 707q0 30 30 30h807q31 0 31 -30v-164q0 -31 -31 -31h-606l-10 -340q106 64 250 64 q221 0 349 -126t128 -352q0 -232 -137.5 -371t-372.5 -139q-280 0 -487 191z" />
<glyph unicode="6" horiz-adv-x="1224" d="M125 461v534q0 119 39.5 214t109 155.5t160 92.5t195.5 32q116 0 231 -38t207 -108q22 -18 4 -43l-92 -131q-19 -25 -41 -6q-138 101 -307 101q-115 0 -189.5 -66.5t-74.5 -191.5v-158q63 47 130 70.5t162 23.5q223 0 352.5 -122t129.5 -345q0 -222 -142 -361t-366 -139 t-366 135.5t-142 350.5zM367 461q0 -117 72.5 -186.5t195.5 -69.5q122 0 192 71.5t70 198.5q0 250 -254 250q-123 0 -199.5 -61t-76.5 -185v-18z" />
<glyph unicode="7" horiz-adv-x="1093" d="M53 1264v170q0 30 31 30h938q31 0 31 -30v-109q0 -15 -11 -37l-600 -1265q-9 -23 -34 -23h-209q-15 0 -21.5 11t0.5 26l567 1196h-661q-31 0 -31 31z" />
<glyph unicode="8" horiz-adv-x="1269" d="M102 430q0 110 51.5 203t149.5 141q-164 107 -164 311q0 170 139 287t357 117q215 0 355 -117t140 -287q0 -203 -165 -311q99 -48 149.5 -140.5t50.5 -203.5q0 -214 -145 -334.5t-385 -120.5t-386.5 120.5t-146.5 334.5zM346 432q0 -105 79 -169t210 -64t210 64t79 169 q0 101 -78 159t-211 58t-211 -58t-78 -159zM379 1073q0 -100 67.5 -155.5t188.5 -55.5q120 0 188 55.5t68 155.5q0 91 -68 143t-188 52q-121 0 -188.5 -52t-67.5 -143z" />
<glyph unicode="9" horiz-adv-x="1226" d="M86 989q0 222 142 361t366 139q223 0 365.5 -135t142.5 -350v-535q0 -119 -39.5 -214t-109 -155.5t-160 -92.5t-195.5 -32q-117 0 -234 42t-212 118q-23 20 -5 41l93 137q19 25 43 4q144 -112 313 -112q115 0 188.5 65.5t73.5 190.5v155q-61 -47 -128.5 -70.5 t-162.5 -23.5q-222 0 -351.5 122.5t-129.5 344.5zM330 991q0 -252 262 -252q115 0 190.5 64t75.5 184v19q0 117 -72.5 187.5t-193.5 70.5q-123 0 -192.5 -72.5t-69.5 -200.5z" />
<glyph unicode=":" horiz-adv-x="552" d="M127 139q0 67 40.5 108.5t106.5 41.5q68 0 110 -41.5t42 -108.5q0 -69 -42 -110t-110 -41q-66 0 -106.5 41t-40.5 110zM127 936q0 68 40.5 109.5t106.5 41.5q68 0 110 -42t42 -109t-42 -108.5t-110 -41.5q-66 0 -106.5 41.5t-40.5 108.5z" />
<glyph unicode=";" horiz-adv-x="557" d="M55 -221l117 469q6 26 33 26h180q15 0 23 -9.5t2 -24.5l-150 -469q-7 -27 -35 -27h-143q-33 0 -27 35zM137 936q0 66 41 108.5t107 42.5q67 0 109 -42.5t42 -108.5t-42 -108t-109 -42q-66 0 -107 42t-41 108z" />
<glyph unicode="&#x3c;" d="M111 618v115q0 22 20 33l877 430q15 8 25.5 1.5t10.5 -23.5v-195q0 -28 -22 -37l-608 -266l608 -266q22 -9 22 -37v-195q0 -17 -10.5 -23.5t-25.5 1.5l-877 430q-20 11 -20 32z" />
<glyph unicode="=" d="M147 406v161q0 29 29 29h877q28 0 28 -29v-161q0 -31 -28 -31h-877q-29 0 -29 31zM147 795v161q0 14 8 22.5t21 8.5h877q28 0 28 -31v-161q0 -31 -28 -31h-877q-13 0 -21 8.5t-8 22.5z" />
<glyph unicode="&#x3e;" d="M184 178v195q0 26 25 37l606 266l-606 266q-25 11 -25 37v195q0 17 12 23.5t25 -1.5l879 -430q20 -11 20 -33v-115q0 -21 -20 -32l-879 -430q-13 -8 -25 -1.5t-12 23.5z" />
<glyph unicode="?" horiz-adv-x="1013" d="M59 1294q-14 20 4 41q67 63 176 108.5t238 45.5q74 0 141.5 -16.5t127 -51.5t103.5 -85t69.5 -120.5t25.5 -154.5q0 -72 -20.5 -130t-53 -95.5t-71.5 -68.5t-78.5 -58.5t-72 -56.5t-53 -70.5t-20.5 -92.5v-61q0 -29 -30 -29h-174q-14 0 -22.5 8t-8.5 21v107 q0 58 20.5 106t53 80.5t71.5 61.5t78.5 56.5t72 57t53 71t20.5 91.5q0 94 -58.5 156.5t-179.5 62.5q-154 0 -278 -117q-10 -11 -23 -10t-20 14zM311 139q0 66 41 109t107 43q67 0 109 -43t42 -109q0 -65 -42 -107t-109 -42q-66 0 -107 42t-41 107z" />
<glyph unicode="@" horiz-adv-x="1875" d="M111 520v287q0 93 18 176t56.5 160.5t103 139.5t151 109t208 72t267.5 25q304 0 505 -94.5t321 -274.5q10 -15 10 -37v-532q0 -187 -90.5 -287t-237.5 -100q-152 0 -239 74q-100 -78 -254 -78q-166 0 -270.5 109t-104.5 272v153q0 168 101.5 270.5t281.5 102.5 q101 0 195 -23t155 -57q19 -16 19 -37v-491q0 -122 127 -119q129 3 129 174v539q-205 262 -639 262q-161 0 -282 -39t-193.5 -109t-108 -160.5t-35.5 -201.5v-285q0 -268 144.5 -419.5t404.5 -151.5q197 0 346 69q30 13 39 -18l27 -113q6 -28 -17 -37q-69 -36 -187.5 -58.5 t-207.5 -22.5q-186 0 -329 55.5t-233 156t-135.5 237t-45.5 302.5zM756 551q0 -106 49 -157.5t131 -51.5q110 0 172 55v455q-23 14 -69.5 24.5t-96.5 10.5q-86 0 -136 -53.5t-50 -141.5v-141z" />
<glyph unicode="A" horiz-adv-x="1310" d="M14 35l492 1405q9 24 33 24h233q24 0 33 -24l491 -1405q9 -35 -24 -35h-201q-29 0 -35 25l-100 309h-561l-101 -309q-9 -25 -34 -25h-201q-34 0 -25 35zM444 557h422l-207 637h-8z" />
<glyph unicode="B" horiz-adv-x="1320" d="M168 31v1403q0 30 29 30h532q207 0 322.5 -105.5t115.5 -295.5q0 -95 -38 -170.5t-107 -116.5q102 -44 155.5 -132t53.5 -206q0 -206 -133 -322t-369 -116h-532q-29 0 -29 31zM414 221h313q117 0 184.5 53t67.5 166q0 101 -63 159t-191 58h-311v-436zM414 872h307 q90 0 143.5 47t53.5 140q0 90 -54 137t-143 47h-307v-371z" />
<glyph unicode="C" horiz-adv-x="1214" d="M123 498v467q0 131 45 233t123.5 164.5t178 94.5t214.5 32q242 0 438 -137q22 -16 6 -41l-96 -140q-14 -24 -43 -8q-134 92 -305 92q-149 0 -231 -77.5t-82 -214.5v-459q0 -140 83 -217.5t232 -77.5q90 0 180 27.5t160 78.5q26 19 41 -8l96 -139q16 -26 -4 -43 q-95 -74 -218 -112t-253 -38q-117 0 -217.5 32t-179 94t-123.5 164t-45 233z" />
<glyph unicode="D" horiz-adv-x="1378" d="M168 31v1403q0 30 29 30h508q260 0 406 -138t146 -402v-389q0 -261 -146 -398t-406 -137h-508q-29 0 -29 31zM416 231h289q149 0 222.5 74t73.5 227v394q0 311 -296 311h-289v-1006z" />
<glyph unicode="E" horiz-adv-x="1200" d="M168 31v1403q0 30 29 30h847q31 0 31 -30v-166q0 -29 -31 -29h-628v-383h575q31 0 31 -31v-163q0 -31 -31 -31h-575v-406h657q31 0 31 -28v-166q0 -31 -31 -31h-876q-29 0 -29 31z" />
<glyph unicode="F" horiz-adv-x="1157" d="M168 31v1403q0 30 29 30h870q31 0 31 -30v-168q0 -29 -31 -29h-653v-426h567q29 0 29 -31v-164q0 -30 -29 -30h-567v-555q0 -31 -29 -31h-188q-29 0 -29 31z" />
<glyph unicode="G" horiz-adv-x="1337" d="M123 500v467q0 130 45 232t122.5 164t176.5 94t213 32q130 0 259 -36t232 -101q28 -19 11 -43l-103 -142q-14 -22 -41 -8q-162 96 -360 96q-138 0 -222.5 -74.5t-84.5 -219.5v-459q0 -145 91 -219t232 -74q88 0 163 24t124 62v311h-274q-29 0 -29 31v160q0 30 29 30h487 q29 0 29 -30v-576q0 -25 -11 -33q-91 -98 -223.5 -155.5t-294.5 -57.5q-115 0 -216.5 32.5t-181.5 95t-126.5 165t-46.5 232.5z" />
<glyph unicode="H" horiz-adv-x="1404" d="M168 31v1403q0 30 29 30h188q29 0 29 -30v-580h577v580q0 30 29 30h188q29 0 29 -30v-1403q0 -31 -29 -31h-188q-29 0 -29 31v596h-577v-596q0 -31 -29 -31h-188q-29 0 -29 31z" />
<glyph unicode="I" horiz-adv-x="581" d="M168 31v1403q0 30 29 30h188q29 0 29 -30v-1403q0 -31 -29 -31h-188q-29 0 -29 31z" />
<glyph unicode="J" horiz-adv-x="1056" d="M16 172l84 139q18 24 43 6q76 -53 143 -80.5t148 -27.5q100 0 157.5 72t57.5 219v934q0 30 31 30h188q29 0 29 -30v-936q0 -244 -130 -383.5t-331 -139.5q-121 0 -218.5 38.5t-194.5 117.5q-20 14 -7 41z" />
<glyph unicode="K" horiz-adv-x="1275" d="M168 31v1403q0 30 29 30h188q29 0 29 -30v-594l512 606q18 18 37 18h239q20 0 25.5 -11t-6.5 -26l-543 -616l588 -774q11 -15 5 -26t-24 -11h-239q-27 0 -37 18l-455 613l-102 -111v-489q0 -31 -29 -31h-188q-29 0 -29 31z" />
<glyph unicode="L" horiz-adv-x="1073" d="M168 31v1403q0 30 29 30h190q29 0 29 -30v-1207h602q31 0 31 -28v-168q0 -31 -31 -31h-821q-29 0 -29 31z" />
<glyph unicode="M" horiz-adv-x="1761" d="M168 31v1403q0 30 29 30h223q25 0 33 -22l249 -465q81 -150 175 -361h8q99 221 174 361l248 465q11 22 34 22h222q30 0 30 -30v-1403q0 -31 -30 -31h-187q-28 0 -28 31v411q0 241 16 643l-6 2q-71 -154 -184 -378l-181 -351q-9 -22 -35 -22h-155q-26 0 -35 22l-180 351 q-125 248 -185 378l-6 -2q17 -427 17 -643v-411q0 -31 -31 -31h-186q-29 0 -29 31z" />
<glyph unicode="N" horiz-adv-x="1445" d="M168 31v1403q0 30 29 30h206q24 0 37 -20l400 -696q138 -243 204 -371l7 2q-19 276 -19 555v500q0 30 31 30h184q31 0 31 -30v-1403q0 -31 -31 -31h-207q-23 0 -34 20l-388 642q-123 199 -219 403l-6 -2q19 -334 19 -563v-469q0 -31 -29 -31h-186q-29 0 -29 31z" />
<glyph unicode="O" horiz-adv-x="1388" d="M119 545v377q0 268 151.5 417.5t423.5 149.5t424 -149.5t152 -417.5v-377q0 -269 -152.5 -419.5t-423.5 -150.5t-423 150.5t-152 419.5zM371 545q0 -165 82 -250.5t241 -85.5t241.5 85.5t82.5 250.5v375q0 166 -82 251.5t-242 85.5t-241.5 -85.5t-81.5 -251.5v-375z" />
<glyph unicode="P" horiz-adv-x="1294" d="M168 31v1403q0 30 29 30h518q242 0 378 -132.5t136 -366.5q0 -237 -135.5 -369.5t-378.5 -132.5h-301v-432q0 -31 -29 -31h-188q-29 0 -29 31zM414 692h272q149 0 220 66.5t71 206.5q0 138 -71 204t-220 66h-272v-543z" />
<glyph unicode="Q" horiz-adv-x="1392" d="M119 545v377q0 269 151 418t424 149q272 0 424 -149.5t152 -417.5v-377q0 -222 -107 -363l119 -123q20 -23 0 -43l-100 -98q-25 -25 -43 0l-127 133q-136 -76 -318 -76q-273 0 -424 150.5t-151 419.5zM371 545q0 -162 81 -248.5t238 -87.5q68 0 139 29l-143 151 q-18 21 0 43l98 98q25 21 43 0l156 -159q35 82 35 174v375q0 165 -82.5 251t-241.5 86q-160 0 -241.5 -85.5t-81.5 -251.5v-375z" />
<glyph unicode="R" horiz-adv-x="1304" d="M168 31v1403q0 30 29 30h475q252 0 392 -123.5t140 -343.5q0 -168 -89 -280.5t-251 -155.5l375 -524q10 -17 5 -27t-23 -10h-232q-24 0 -35 20l-358 515h-182v-504q0 -31 -29 -31h-188q-29 0 -29 31zM414 756h258q143 0 211.5 58t68.5 181q0 124 -68.5 183t-211.5 59 h-258v-481z" />
<glyph unicode="S" horiz-adv-x="1263" d="M96 215l103 143q16 23 41 7q209 -151 395 -156q78 0 143.5 21t109.5 68.5t44 113.5q0 31 -9.5 57t-24.5 44.5t-41.5 35.5t-50.5 28t-63 22t-68 17.5t-75 16.5q-74 16 -135 34.5t-132 55t-119 82t-80 117t-32 159.5q0 104 43.5 183.5t120 128t173.5 72.5t210 24 q131 0 243 -38t238 -124q26 -17 9 -41l-99 -141q-15 -24 -43 -6q-173 112 -366 118q-131 0 -205 -48t-74 -132q0 -38 16.5 -68t40 -49.5t69.5 -37t83 -27.5t103 -25q62 -14 105 -25t102.5 -31.5t99.5 -42.5t84 -57t70.5 -76t43.5 -98t17 -124q0 -111 -45 -197.5 t-123.5 -138.5t-178 -78.5t-214.5 -26.5q-149 0 -271.5 47.5t-251.5 149.5q-20 20 -6 43z" />
<glyph unicode="T" horiz-adv-x="1181" d="M25 1266v168q0 30 30 30h1071q31 0 31 -30v-168q0 -13 -8.5 -21t-22.5 -8h-411v-1206q0 -31 -29 -31h-188q-29 0 -29 31v1206h-414q-30 0 -30 29z" />
<glyph unicode="U" horiz-adv-x="1429" d="M158 510v924q0 30 30 30h191q31 0 31 -30v-910q0 -153 79 -236t224 -83q146 0 226.5 83t80.5 236v910q0 30 31 30h190q31 0 31 -30v-924q0 -243 -152 -389t-407 -146q-252 0 -403.5 146t-151.5 389z" />
<glyph unicode="V" horiz-adv-x="1331" d="M12 1430q-9 34 25 34h205q26 0 32 -24l269 -793q37 -108 119 -373h8q23 69 65 200t56 173l266 793q6 24 35 24h204q35 0 23 -34l-496 -1405q-9 -25 -32 -25h-248q-23 0 -35 25z" />
<glyph unicode="W" horiz-adv-x="1982" d="M23 1430q-5 15 2 24.5t24 9.5h201q28 0 33 -26l170 -680q40 -158 98 -463h6q50 231 125 498l176 624q6 27 33 27h201q26 0 32 -27l179 -624q63 -223 122 -498h7q45 251 98 463l170 680q5 26 31 26h202q15 0 23 -9.5t4 -24.5l-387 -1403q-6 -27 -33 -27h-215q-27 0 -33 27 l-190 645q-64 219 -107 458h-8q-43 -241 -104 -458l-193 -645q-6 -27 -33 -27h-215q-26 0 -32 27z" />
<glyph unicode="X" horiz-adv-x="1236" d="M33.5 11q-5.5 11 3.5 26l436 696l-412 694q-9 15 -2.5 26t25.5 11h221q22 0 35 -22l278 -514l281 514q13 22 35 22h221q17 0 23.5 -11t-2.5 -26l-412 -694l436 -696q9 -15 4 -26t-22 -11h-230q-24 0 -37 23l-297 520l-296 -520q-13 -23 -37 -23h-228q-18 0 -23.5 11z" />
<glyph unicode="Y" horiz-adv-x="1212" d="M8.5 1453q6.5 11 24.5 11h215q25 0 33 -22l325 -674l324 674q8 22 35 22h215q17 0 22.5 -11t-2.5 -26l-469 -890v-506q0 -31 -31 -31h-188q-31 0 -31 31v510l-471 886q-8 15 -1.5 26z" />
<glyph unicode="Z" horiz-adv-x="1241" d="M74 31v116q0 24 10 39l727 1051h-672q-30 0 -30 31v166q0 30 30 30h975q29 0 29 -30v-113q0 -25 -10 -37l-723 -1057h725q28 0 28 -28v-168q0 -31 -28 -31h-1031q-30 0 -30 31z" />
<glyph unicode="[" horiz-adv-x="624" d="M154 -209v1874q0 31 28 31h344q31 0 31 -31v-149q0 -31 -31 -31h-145v-1514h145q31 0 31 -28v-152q0 -31 -31 -31h-344q-28 0 -28 31z" />
<glyph unicode="\" horiz-adv-x="909" d="M51 1430q-6 15 0 24.5t23 9.5h178q25 0 33 -22l569 -1407q6 -15 -1 -25t-22 -10h-180q-26 0 -35 23z" />
<glyph unicode="]" horiz-adv-x="624" d="M68 -57q0 28 30 28h146v1514h-146q-30 0 -30 31v149q0 31 30 31h344q29 0 29 -31v-1874q0 -31 -29 -31h-344q-30 0 -30 31v152z" />
<glyph unicode="^" d="M73 1156q-5 11 7 26l416 485q16 16 36 16h164q19 0 35 -16l416 -485q12 -15 7 -26t-24 -11h-212q-22 0 -35 16l-269 322l-268 -322q-13 -16 -37 -16h-211q-20 0 -25 11z" />
<glyph unicode="_" horiz-adv-x="1155" d="M63 -55q0 30 31 30h967q31 0 31 -30v-156q0 -29 -31 -29h-967q-31 0 -31 29v156z" />
<glyph unicode="`" horiz-adv-x="526" d="M-7.5 1525q4.5 11 23.5 11h181q25 0 36 -20l164 -269q11 -15 5 -26t-25 -11h-135q-24 0 -37 19l-205 270q-12 15 -7.5 26z" />
<glyph unicode="a" horiz-adv-x="1064" d="M57 317q0 162 122 245t327 83q83 0 205 -16v39q0 110 -46 158t-159 48q-152 0 -262 -65q-25 -18 -41 8l-82 125q-15 23 0 35q156 108 401 108q199 0 312.5 -103t113.5 -312v-598q0 -26 -22 -35q-199 -62 -412 -62q-74 0 -139 11t-124.5 36t-101.5 63.5t-67 97.5t-25 134z M297 319q0 -69 59 -103t158 -34q91 0 197 25v231q-117 17 -199 17q-215 0 -215 -136z" />
<glyph unicode="b" horiz-adv-x="1126" d="M127 84v1350q0 30 31 30h176q31 0 31 -30v-394q105 45 221 45q196 0 322 -118.5t126 -315.5v-225q0 -114 -35.5 -201.5t-99 -141.5t-148.5 -81t-188 -27q-212 0 -411 74q-25 8 -25 35zM365 217q71 -29 192 -29q116 0 176 55t60 181v227q0 223 -232 223q-114 0 -196 -53 v-604z" />
<glyph unicode="c" horiz-adv-x="966" d="M94 389v285q0 188 123 299.5t334 111.5q182 0 336 -98q25 -16 8 -43l-80 -123q-16 -23 -43 -8q-100 59 -215 59q-109 0 -167 -51.5t-58 -146.5v-287q0 -95 58.5 -147t164.5 -52q123 0 238 74q29 16 43 -8l86 -123q15 -24 -7 -41q-162 -115 -362 -115q-213 0 -336 112.5 t-123 301.5z" />
<glyph unicode="d" horiz-adv-x="1124" d="M92 426v225q0 197 125.5 315.5t321.5 118.5q119 0 221 -45v394q0 30 31 30h176q30 0 30 -30v-1350q0 -27 -22 -35q-202 -74 -414 -74q-213 0 -341 113.5t-128 337.5zM332 424q0 -127 60 -183.5t175 -56.5q114 0 193 29v608q-79 53 -197 53q-231 0 -231 -223v-227z" />
<glyph unicode="e" horiz-adv-x="1073" d="M96 375v291q0 87 25.5 158.5t68.5 119t101.5 80t122 47t133.5 14.5q69 0 132 -14.5t120 -46.5t99 -80t66.5 -119t24.5 -159v-207q0 -29 -31 -29h-622v-57q0 -92 58 -140.5t159 -48.5q87 0 154.5 25t134.5 70q24 17 41 -7l84 -112q20 -23 -6 -43q-180 -142 -416 -142 q-89 0 -168 25t-142.5 72.5t-101 125.5t-37.5 177zM336 614h422v54q0 106 -59 157.5t-152 51.5q-97 0 -154 -50.5t-57 -158.5v-54z" />
<glyph unicode="f" horiz-adv-x="671" d="M131 31v1063q0 190 104 292.5t263 102.5q78 0 125 -8q28 -3 28 -33v-141q0 -31 -24 -31q-38 6 -92 6q-81 0 -123.5 -49.5t-42.5 -138.5v-47h235q31 0 31 -31v-148q0 -30 -31 -30h-235v-807q0 -31 -31 -31h-176q-31 0 -31 31z" />
<glyph unicode="g" horiz-adv-x="1124" d="M92 455v192q0 117 36.5 203.5t103 136.5t149.5 74t184 24q223 0 410 -79q22 -8 22 -35v-903q0 -235 -109 -356.5t-345 -121.5q-235 0 -400 127q-21 13 -6 41l86 127q17 27 41 9q129 -93 277 -93q119 0 172 62q49 58 49 192v21q-102 -45 -227 -45q-92 0 -171.5 26 t-140.5 77t-96 133.5t-35 187.5zM332 455q0 -114 61 -164.5t164 -50.5q61 0 118 13.5t85 37.5v559q-68 22 -191 22q-115 0 -176 -50t-61 -175v-192z" />
<glyph unicode="h" horiz-adv-x="1155" d="M131 31v1403q0 30 31 30h176q31 0 31 -30v-383q100 34 221 34q96 0 175.5 -26.5t141 -80.5t95.5 -144.5t34 -210.5v-592q0 -31 -28 -31h-179q-30 0 -30 31v585q0 142 -57 199t-177 57q-125 0 -196 -36v-805q0 -31 -31 -31h-176q-31 0 -31 31z" />
<glyph unicode="i" horiz-adv-x="495" d="M115 1339q0 58 39 96t96 38q58 0 95.5 -37.5t37.5 -96.5q0 -58 -37.5 -96.5t-95.5 -38.5q-57 0 -96 39t-39 96zM129 31v1001q0 13 8.5 21t22.5 8h178q29 0 29 -29v-1001q0 -31 -29 -31h-178q-31 0 -31 31z" />
<glyph unicode="j" horiz-adv-x="512" d="M-90 -223q0 14 9 22t24 8q50 -4 67 -4q70 0 102.5 44t32.5 143v1042q0 29 29 29h178q14 0 22.5 -8t8.5 -21v-1048q0 -189 -88.5 -293.5t-253.5 -104.5q-55 0 -102 6q-13 1 -21 11t-8 22v152zM131 1337q0 58 38 95.5t95 37.5q59 0 97 -37.5t38 -95.5q0 -57 -38.5 -96 t-96.5 -39q-57 0 -95 39t-38 96z" />
<glyph unicode="k" horiz-adv-x="1042" d="M131 31v1403q0 30 31 30h176q31 0 31 -30v-779l360 392q12 14 37 14h211q20 0 24 -10.5t-8 -24.5l-395 -420l438 -569q11 -15 6.5 -26t-24.5 -11h-217q-29 0 -39 18l-322 422l-71 -73v-336q0 -31 -31 -31h-176q-31 0 -31 31z" />
<glyph unicode="l" horiz-adv-x="620" d="M123 373v1061q0 30 31 30h176q30 0 30 -30v-1053q0 -100 33 -144t103 -44q23 0 77 4q31 0 31 -31v-152q0 -29 -22 -32q-61 -7 -117 -7q-165 0 -253.5 104.5t-88.5 293.5z" />
<glyph unicode="m" horiz-adv-x="1687" d="M127 31v938q0 26 25 37q182 79 370 79q176 0 297 -94q79 49 150.5 71.5t158.5 22.5q198 0 319.5 -113.5t121.5 -322.5v-618q0 -31 -29 -31h-178q-29 0 -29 31v626q0 213 -211 213q-103 0 -180 -51q27 -83 27 -166v-622q0 -31 -31 -31h-176q-31 0 -31 31v626 q0 111 -51 163t-152 52q-88 0 -163 -22v-819q0 -31 -31 -31h-176q-31 0 -31 31z" />
<glyph unicode="n" horiz-adv-x="1150" d="M127 31v938q0 25 23 37q184 79 407 79t349 -111t126 -347v-596q0 -31 -28 -31h-179q-30 0 -30 31v592q0 138 -59 193.5t-179 55.5q-106 0 -192 -22v-819q0 -31 -31 -31h-176q-31 0 -31 31z" />
<glyph unicode="o" horiz-adv-x="1122" d="M94 389v275q0 193 127 307t340 114t340 -114t127 -307v-275q0 -190 -127 -302t-340 -112t-340 112t-127 302zM334 389q0 -98 58.5 -149.5t168.5 -51.5q109 0 168 51.5t59 149.5v275q0 101 -59 154.5t-168 53.5q-110 0 -168.5 -53.5t-58.5 -154.5v-275z" />
<glyph unicode="p" horiz-adv-x="1126" d="M127 -358v1337q0 24 23 33q188 73 413 73q103 0 188 -27t148.5 -80.5t99 -140.5t35.5 -200v-225q0 -198 -127 -317.5t-325 -119.5q-115 0 -217 45v-378q0 -31 -31 -31h-176q-31 0 -31 31zM365 242q85 -58 196 -58q112 0 172 56t60 170v229q0 127 -60 182.5t-176 55.5 q-121 0 -192 -29v-606z" />
<glyph unicode="q" horiz-adv-x="1124" d="M92 412v225q0 113 35 200t98.5 140.5t148 80.5t187.5 27q220 0 414 -71q22 -11 22 -35v-1337q0 -31 -30 -31h-176q-31 0 -31 31v378q-102 -45 -217 -45q-198 0 -324.5 119.5t-126.5 317.5zM332 410q0 -226 231 -226q116 0 197 58v606q-71 29 -193 29q-116 0 -175.5 -55.5 t-59.5 -182.5v-229z" />
<glyph unicode="r" horiz-adv-x="776" d="M127 31v942q0 26 23 35q157 77 358 77q105 0 209 -16q26 -3 26 -31v-147q0 -14 -8.5 -21t-23.5 -4q-51 8 -166 8q-112 0 -180 -28v-815q0 -31 -31 -31h-176q-31 0 -31 31z" />
<glyph unicode="s" horiz-adv-x="991" d="M70 150l77 133q14 26 41 8q142 -105 310 -105q83 0 136.5 31.5t53.5 87.5q0 29 -15.5 50.5t-46 35t-58.5 21t-70 14.5q-59 11 -103.5 22.5t-107 38.5t-103.5 60.5t-70.5 90.5t-29.5 128q0 82 36.5 145.5t99 100.5t138 56t160.5 19q184 0 356 -94q12 -6 15 -17.5t-4 -23.5 l-78 -131q-16 -22 -41 -10q-126 68 -260 68q-89 0 -138 -30.5t-49 -82.5q0 -25 12 -43.5t28 -30.5t50.5 -23.5t60.5 -17.5t77 -16q43 -8 74.5 -15t74 -20.5t72.5 -29t62 -40t52 -54t33 -71t13 -90.5q0 -165 -120.5 -252.5t-313.5 -87.5q-232 0 -416 134q-25 14 -8 41z" />
<glyph unicode="t" horiz-adv-x="681" d="M123 354v936q0 29 31 29h155q12 0 21 -7.5t10 -19.5l18 -245h220q30 0 30 -29v-150q0 -28 -30 -28h-218v-469q0 -85 42 -131.5t120 -46.5q18 0 84 4q33 0 33 -29v-156q0 -29 -29 -32q-88 -5 -108 -5q-82 0 -149.5 21.5t-119.5 66t-81 119t-29 172.5z" />
<glyph unicode="u" horiz-adv-x="1138" d="M119 436v596q0 29 31 29h178q28 0 28 -29v-592q0 -138 58.5 -195t173.5 -57q113 0 186 25v819q0 29 29 29h178q14 0 22.5 -8t8.5 -21v-938q0 -27 -23 -37q-188 -82 -401 -82q-220 0 -344.5 112.5t-124.5 348.5z" />
<glyph unicode="v" horiz-adv-x="1056" d="M27 1028q-6 14 0.5 23.5t21.5 9.5h191q27 0 34 -23l252 -792h4l252 792q7 23 33 23h193q15 0 21 -9.5t1 -23.5l-360 -1003q-9 -25 -35 -25h-215q-26 0 -35 25z" />
<glyph unicode="w" horiz-adv-x="1568" d="M29 1028q-5 14 1 23.5t21 9.5h185q26 0 32 -25l78 -336q7 -30 105 -440h4q32 141 100 406l98 356q6 25 33 25h191q26 0 32 -25l101 -356q51 -198 98 -406h6q16 77 105 440l75 336q6 25 35 25h182q17 0 23.5 -9.5t1.5 -23.5l-289 -1001q-6 -27 -33 -27h-204q-27 0 -33 27 l-115 415q-54 204 -76 318h-8q-27 -128 -78 -318l-112 -415q-6 -27 -33 -27h-205q-27 0 -33 27z" />
<glyph unicode="x" horiz-adv-x="1028" d="M37 37l330 495l-312 494q-9 14 -2.5 24.5t23.5 10.5h207q22 0 36 -21l195 -342l195 342q14 21 36 21h207q17 0 23.5 -10.5t-2.5 -24.5l-311 -494l329 -495q19 -37 -18 -37h-217q-26 0 -37 20l-205 349l-205 -349q-11 -20 -37 -20h-215q-39 0 -20 37z" />
<glyph unicode="y" horiz-adv-x="1142" d="M119 449v583q0 13 8.5 21t22.5 8h178q28 0 28 -29v-573q0 -111 66 -162t168 -51h13q97 0 171 41v745q0 29 31 29h176q31 0 31 -29v-964q0 -239 -112 -358.5t-345 -119.5q-129 0 -225 31t-176 98q-22 17 -7 41l89 125q16 26 38 11q140 -95 279 -95q114 0 171 61 q53 54 53 179q0 13 -1 27q-122 -37 -219 -37q-82 0 -158.5 26t-140 76t-101.5 132t-38 184z" />
<glyph unicode="z" horiz-adv-x="983" d="M63 31v88q0 21 13 37l499 696h-450q-31 0 -31 29v151q0 29 31 29h747q31 0 31 -29v-82q0 -24 -12 -39l-502 -700h494q28 0 28 -31v-149q0 -31 -28 -31h-789q-31 0 -31 31z" />
<glyph unicode="{" horiz-adv-x="663" d="M63 653v152q0 26 29 29q67 13 96 72.5t29 144.5v360q0 152 64 219.5t202 67.5h84q29 0 29 -31v-151q0 -14 -8 -22.5t-21 -8.5h-59q-74 0 -74 -92v-381q0 -98 -47 -177.5t-113 -105.5q66 -26 113 -105.5t47 -177.5v-380q0 -93 74 -93h59q29 0 29 -30v-152q0 -31 -29 -31 h-84q-138 0 -202 67.5t-64 219.5v361q0 85 -29 144.5t-96 72.5q-29 3 -29 28z" />
<glyph unicode="|" horiz-adv-x="528" d="M154 -254v1987q0 30 28 30h162q31 0 31 -30v-1987q0 -31 -31 -31h-162q-28 0 -28 31z" />
<glyph unicode="}" horiz-adv-x="663" d="M68 -57q0 30 28 30h60q73 0 73 93v380q0 98 47 177.5t113 105.5q-66 26 -113 105.5t-47 177.5v381q0 49 -18 70.5t-55 21.5h-60q-28 0 -28 31v151q0 31 28 31h84q138 0 202 -67.5t64 -219.5v-360q0 -85 29 -144.5t96 -72.5q29 -3 29 -29v-152q0 -25 -29 -28 q-67 -13 -96 -72.5t-29 -144.5v-361q0 -152 -64 -219.5t-202 -67.5h-84q-28 0 -28 31v152z" />
<glyph unicode="~" d="M147 700q44 65 108 97t161 32q83 0 207 -53q107 -43 155 -43q94 0 150 53q21 18 43 2l104 -90q23 -16 8 -39q-46 -67 -110.5 -101t-159.5 -34q-34 0 -75 9.5t-64.5 18.5t-69.5 28q-103 43 -153 43q-95 0 -150 -52q-22 -22 -43 -4l-104 90q-24 20 -7 43z" />
<glyph unicode="&#xa1;" horiz-adv-x="528" d="M109 930q0 66 44.5 110.5t110.5 44.5q67 0 111.5 -44.5t44.5 -110.5t-44.5 -111t-111.5 -45q-66 0 -110.5 45t-44.5 111zM139 4l17 631q0 29 30 29h156q31 0 31 -29l16 -631v-373q0 -30 -29 -30h-190q-31 0 -31 30v373z" />
<glyph unicode="&#xa2;" horiz-adv-x="1019" d="M111 389v285q0 160 90 267t250 136v152q0 31 28 31h109q28 0 28 -31v-146q149 -12 287 -96q25 -16 8 -43l-80 -123q-16 -23 -43 -8q-104 61 -215 61q-108 0 -166.5 -52t-58.5 -148v-287q0 -95 58.5 -147t164.5 -52q123 0 238 74q29 16 43 -8l86 -123q15 -24 -8 -41 q-145 -102 -314 -113v-151q0 -31 -28 -31h-109q-28 0 -28 31v160q-161 29 -250.5 136t-89.5 267z" />
<glyph unicode="&#xa3;" horiz-adv-x="1136" d="M96 31v141q0 26 29 29q44 8 72.5 38.5t40 74t10.5 100.5v248h-123q-29 0 -29 30v139q0 29 29 29h123v219q0 186 114.5 298t305.5 112q219 0 362 -115q21 -19 6 -43l-82 -114q-16 -26 -41 -7q-103 74 -243 74q-100 0 -155.5 -54t-55.5 -151v-219h354q14 0 22.5 -8t8.5 -21 v-139q0 -30 -31 -30h-354v-248q0 -153 -82 -215h647q29 0 29 -29v-139q0 -31 -29 -31h-899q-29 0 -29 31z" />
<glyph unicode="&#xa4;" horiz-adv-x="1306" d="M129 279q-20 20 0 43l107 104q-78 124 -78 283q0 152 75 276l-104 105q-21 22 0 43l96 96q9 9 20.5 9t20.5 -9l107 -107q121 78 276 78q157 0 281 -78l106 107q22 21 43 0l95 -96q23 -20 0 -43l-107 -107q76 -123 76 -274q0 -152 -76 -281l107 -109q23 -20 0 -40l-95 -97 q-21 -22 -43 0l-108 109q-123 -76 -279 -76q-154 0 -274 74l-109 -107q-20 -20 -41 0zM356 709q0 -132 82 -213.5t211 -81.5q130 0 213 82.5t82 212.5q-2 128 -85 210t-210 82q-129 0 -211 -81.5t-82 -210.5z" />
<glyph unicode="&#xa5;" horiz-adv-x="1249" d="M53 1453q6 11 23 11h205q26 0 34 -22l310 -674l307 674q8 22 37 22h202q18 0 24.5 -11t-1.5 -26l-379 -743h180q31 0 31 -31v-116q0 -29 -31 -29h-250v-117h250q31 0 31 -31v-114q0 -31 -31 -31h-250v-184q0 -31 -30 -31h-180q-29 0 -29 31v184h-254q-31 0 -31 31v114 q0 31 31 31h254v117h-254q-31 0 -31 29v116q0 31 31 31h182l-379 743q-8 15 -2 26z" />
<glyph unicode="&#xa6;" horiz-adv-x="536" d="M158 -254v852q0 31 28 31h162q31 0 31 -31v-852q0 -31 -31 -31h-162q-28 0 -28 31zM158 881v852q0 30 28 30h162q31 0 31 -30v-852q0 -29 -31 -29h-162q-28 0 -28 29z" />
<glyph unicode="&#xa7;" horiz-adv-x="1054" d="M94 575q0 100 45 167.5t137 119.5q-133 109 -133 281q0 72 24 131.5t64 98.5t93.5 66t110 38.5t116.5 11.5q166 0 315 -103q23 -17 6 -40l-79 -115q-15 -27 -43 -6q-88 57 -197 57q-87 0 -133.5 -36t-46.5 -105q0 -35 14 -63.5t32.5 -47t55 -37.5t63.5 -29.5t76 -27.5 q47 -17 72.5 -26.5t69.5 -30t68.5 -38.5t56 -47.5t48 -62t28.5 -78t12 -98.5q0 -196 -156 -283q62 -47 94.5 -107.5t32.5 -152.5t-33 -167t-90 -123t-130.5 -73.5t-156.5 -25.5q-117 0 -228.5 51t-182.5 133q-21 21 -2 43l90 119q9 12 20.5 12.5t20.5 -10.5 q60 -62 134 -96.5t146 -34.5q90 0 136.5 46t46.5 112q0 32 -14.5 58.5t-33.5 44.5t-57.5 37.5t-65 30t-77.5 28.5q-41 15 -58.5 21.5t-56 23t-57.5 27.5t-51 31t-49 38t-38.5 44.5t-32 54t-18.5 63t-8 75.5zM322 612q0 -80 72.5 -127.5t236.5 -91.5q53 21 83.5 63.5 t30.5 102.5q0 33 -11.5 58.5t-30 44.5t-57.5 39.5t-78 36t-107 40.5q-139 -50 -139 -166z" />
<glyph unicode="&#xa8;" horiz-adv-x="602" d="M0 1337q0 59 36 93t91 34q56 0 90.5 -34t34.5 -93q0 -58 -34.5 -91.5t-90.5 -33.5q-55 0 -91 34t-36 91zM420 1337q0 59 35 93t92 34q55 0 90 -34t35 -93q0 -57 -35 -91t-90 -34q-56 0 -91.5 33.5t-35.5 91.5z" />
<glyph unicode="&#xa9;" horiz-adv-x="1677" d="M98 733q0 175 58.5 319t160 238.5t236.5 146.5t289 52q153 0 286.5 -52t234 -146.5t158.5 -238.5t58 -319q0 -176 -58 -320.5t-158.5 -239.5t-234 -146.5t-286.5 -51.5q-154 0 -289 51.5t-236.5 146.5t-160 239.5t-58.5 320.5zM209 733q0 -156 49.5 -281.5t136 -205.5 t200.5 -122t247 -42q104 0 197.5 26.5t171.5 80t135.5 130t89.5 182.5t32 232t-32 231.5t-89 181.5t-136 129t-172 79t-197 26q-133 0 -247 -41.5t-200.5 -120.5t-136 -204t-49.5 -281zM524 618v236q0 144 92.5 219.5t223.5 75.5q77 0 150.5 -30.5t125.5 -80.5q18 -18 2 -41 l-63 -82q-19 -26 -41 -4q-77 74 -168 74q-59 0 -102.5 -33.5t-43.5 -95.5v-238q0 -64 41.5 -97.5t104.5 -33.5q107 0 186 64q10 11 22 9t19 -15l53 -80q13 -24 -2 -39q-99 -102 -280 -102q-62 0 -118 17.5t-102 52t-73 92.5t-27 132z" />
<glyph unicode="&#xab;" horiz-adv-x="1107" d="M78 575q-12 21 0 41l276 412q11 19 35 19h186q18 0 23.5 -10t-4.5 -27l-281 -414l281 -414q10 -17 4.5 -27t-23.5 -10h-186q-24 0 -35 19zM506 575q-12 21 0 41l276 412q11 19 35 19h187q18 0 23 -10t-5 -27l-281 -414l281 -414q10 -17 5 -27t-23 -10h-187q-24 0 -35 19z " />
<glyph unicode="&#xac;" d="M135 657v162q0 29 29 29h876q29 0 29 -29v-461q0 -30 -29 -30h-157q-31 0 -31 30v269h-688q-29 0 -29 30z" />
<glyph unicode="&#xad;" horiz-adv-x="827" d="M127 530v160q0 31 31 31h512q30 0 30 -31v-160q0 -28 -30 -28h-512q-31 0 -31 28z" />
<glyph unicode="&#xae;" horiz-adv-x="1036" d="M92 1063q0 195 122.5 310.5t303.5 115.5t303.5 -115.5t122.5 -310.5q0 -131 -58.5 -229.5t-154 -147.5t-213.5 -49t-213.5 49t-154 147.5t-58.5 229.5zM178 1063q0 -160 97.5 -251t244.5 -91q144 0 241 91t97 251q0 162 -96.5 252t-241.5 90q-148 0 -245 -90t-97 -252z M375 891v352q0 31 31 31h135q68 0 109.5 -33t41.5 -98q0 -107 -96 -127l88 -119q10 -17 5.5 -27t-21.5 -10h-29q-24 0 -37 19l-92 131h-55v-119q0 -31 -31 -31h-18q-31 0 -31 31zM455 1081h84q73 0 73 62q0 57 -73 57h-84v-119z" />
<glyph unicode="&#xaf;" horiz-adv-x="624" d="M0 1255v123q0 29 31 29h538q29 0 29 -29v-123q0 -30 -29 -30h-538q-31 0 -31 30z" />
<glyph unicode="&#xb0;" horiz-adv-x="780" d="M80 1182q0 142 86.5 224.5t224.5 82.5q135 0 222 -82.5t87 -224.5q0 -140 -87.5 -226t-221.5 -86q-138 0 -224.5 84t-86.5 228zM238 1180q0 -78 42.5 -119t110.5 -41t110 40.5t42 119.5q0 76 -42.5 117.5t-109.5 41.5t-110 -42t-43 -117z" />
<glyph unicode="&#xb1;" d="M147 104v158q0 14 8 22.5t21 8.5h877q28 0 28 -31v-158q0 -28 -28 -28h-877q-29 0 -29 28zM147 764v162q0 28 29 28h326v291q0 31 30 31h164q14 0 22.5 -9t8.5 -22v-291h326q28 0 28 -28v-162q0 -29 -28 -29h-326v-291q0 -13 -8.5 -21.5t-22.5 -8.5h-164q-30 0 -30 30 v291h-326q-29 0 -29 29z" />
<glyph unicode="&#xb2;" horiz-adv-x="669" d="M49 870v86q0 23 17 37l237 224q44 44 64.5 66.5t41.5 59t21 68.5q0 38 -25 58t-71 20q-86 0 -158 -68q-26 -22 -43 2l-55 76q-15 24 2 41q113 105 264 105q115 0 183.5 -62.5t68.5 -165.5q0 -82 -41.5 -150t-144.5 -167q-30 -28 -115 -101h285q30 0 30 -28v-101 q0 -30 -30 -30h-500q-31 0 -31 30z" />
<glyph unicode="&#xb3;" horiz-adv-x="673" d="M45 979l57 70q18 21 41 2q74 -64 185 -64q58 0 92.5 31.5t34.5 93.5q0 51 -36 81t-97 30q-34 0 -64 -6q-28 -3 -37 20l-16 37q-9 23 8 43l111 123q8 9 26 25.5t21 19.5h-260q-13 0 -21 8.5t-8 22.5v88q0 30 29 30h452q31 0 31 -30v-56q0 -18 -16 -37l-175 -188h17 q89 -1 143.5 -66.5t54.5 -162.5q0 -122 -81 -194.5t-205 -70.5q-161 2 -283 109q-19 19 -4 41z" />
<glyph unicode="&#xb4;" horiz-adv-x="583" d="M18 1221q-6 11 5 26l163 269q11 20 37 20h180q19 0 24 -11t-7 -26l-205 -270q-13 -19 -37 -19h-135q-19 0 -25 11z" />
<glyph unicode="&#xb6;" horiz-adv-x="1398" d="M57 977q0 95 31.5 181.5t91.5 155.5t155.5 109.5t213.5 40.5h649q31 0 31 -30v-1688q0 -31 -31 -31h-162q-30 0 -30 31v1499h-248v-1499q0 -31 -31 -31h-162q-30 0 -30 31v741q-113 0 -205.5 41t-151 110.5t-90 156.5t-31.5 182z" />
<glyph unicode="&#xb7;" horiz-adv-x="518" d="M109 639q0 68 41 110t108 42q66 0 109 -42.5t43 -109.5q0 -65 -43 -107.5t-109 -42.5q-67 0 -108 42.5t-41 107.5z" />
<glyph unicode="&#xb8;" horiz-adv-x="380" d="M25 -309q0 31 34 24q45 -10 78 -10q109 0 109 64q0 57 -103 63q-25 0 -37 21q-4 11 5 28l45 105q8 22 34 22h70q17 0 24 -10t1 -25l-31 -67q78 -6 125 -47t47 -105q0 -87 -70.5 -132.5t-189.5 -45.5q-65 0 -117 18q-24 6 -24 35v62z" />
<glyph unicode="&#xb9;" horiz-adv-x="460" d="M31 1462q-17 24 6 41l170 119q15 12 37 12h88q30 0 30 -30v-734q0 -30 -30 -30h-107q-30 0 -30 30v566l-74 -54q-23 -17 -39 9z" />
<glyph unicode="&#xbb;" horiz-adv-x="1107" d="M81 155q-5 10 5 27l281 414l-281 414q-10 17 -5 27t23 10h187q24 0 35 -19l276 -412q12 -20 0 -41l-276 -411q-11 -19 -35 -19h-187q-18 0 -23 10zM509 155q-5 10 5 27l281 414l-281 414q-10 17 -5 27t23 10h187q24 0 35 -19l276 -412q12 -20 0 -41l-276 -411 q-11 -19 -35 -19h-187q-18 0 -23 10z" />
<glyph unicode="&#xbc;" horiz-adv-x="1724" d="M61 1292q-17 23 7 41l170 119q15 12 36 12h88q31 0 31 -30v-734q0 -30 -31 -30h-106q-31 0 -31 30v566l-73 -54q-23 -17 -39 9zM191.5 11q-5.5 11 3.5 26l1015 1409q12 18 35 18h123q19 0 24 -11t-6 -26l-1013 -1409q-12 -18 -37 -18h-121q-18 0 -23.5 11zM1042 182v70 q0 18 11 37l262 485q17 21 35 21h110q17 0 23 -11t-2 -26l-242 -447h176l2 123q3 31 31 31h104q31 0 31 -31v-123h51q31 0 31 -30v-99q0 -30 -31 -30h-51v-121q0 -31 -31 -31h-106q-31 0 -31 31v121h-342q-31 0 -31 30z" />
<glyph unicode="&#xbd;" horiz-adv-x="1742" d="M61 1292q-17 23 7 41l170 119q15 12 36 12h88q31 0 31 -30v-734q0 -30 -31 -30h-106q-31 0 -31 30v566l-73 -54q-23 -17 -39 9zM166.5 11q-5.5 11 3.5 26l1016 1409q12 18 35 18h122q19 0 24.5 -11t-5.5 -26l-1014 -1409q-12 -18 -37 -18h-121q-18 0 -23.5 11zM1102 31 v86q0 24 16 37l238 223q44 44 64.5 66.5t41.5 59t21 68.5q0 38 -25.5 58t-71.5 20q-86 0 -157 -67q-26 -22 -43 2l-56 75q-15 23 3 41q113 105 264 105q115 0 183.5 -62t68.5 -165q0 -82 -42 -150t-145 -168q-28 -27 -114 -100h284q31 0 31 -29v-100q0 -31 -31 -31h-499 q-31 0 -31 31z" />
<glyph unicode="&#xbe;" horiz-adv-x="1761" d="M70 809l57 70q18 21 41 2q74 -64 184 -64q58 0 92.5 31.5t34.5 93.5q0 51 -36 81t-97 30q-33 0 -63 -6q-28 -3 -37 20l-17 37q-8 23 9 43l110 123q8 9 26 25.5t21 19.5h-260q-13 0 -21 8.5t-8 22.5v88q0 30 29 30h453q30 0 30 -30v-56q0 -18 -16 -37l-174 -188h16 q89 -1 144 -66.5t55 -162.5q0 -122 -81.5 -194.5t-205.5 -70.5q-95 1 -160 30t-122 79q-19 19 -4 41zM304 11q-6 11 3 26l1016 1409q12 18 35 18h123q19 0 24 -11t-6 -26l-1014 -1409q-12 -18 -36 -18h-121q-18 0 -24 11zM1081 182v70q0 18 11 37l262 485q18 21 35 21h110 q17 0 23 -11t-2 -26l-242 -447h176l2 123q3 31 31 31h104q31 0 31 -31v-123h51q31 0 31 -30v-99q0 -30 -31 -30h-51v-121q0 -31 -31 -31h-106q-31 0 -31 31v121h-342q-31 0 -31 30z" />
<glyph unicode="&#xbf;" horiz-adv-x="1003" d="M66 16q0 72 20.5 130t53 95.5t71.5 68.5t78 58.5t71.5 56.5t53 70.5t20.5 92.5v61q0 29 31 29h174q14 0 22.5 -8t8.5 -21v-106q0 -58 -20.5 -106t-53 -81t-71.5 -62t-78.5 -56.5t-72 -57t-53 -71t-20.5 -91.5q0 -94 58.5 -156.5t179.5 -62.5q154 0 278 117q10 11 23 10 t20 -14l90 -129q14 -20 -4 -41q-67 -63 -176 -108.5t-238 -45.5q-92 0 -175 27t-148.5 78.5t-104 135t-38.5 187.5zM399 938q0 65 42.5 107t109.5 42q65 0 106 -42t41 -107q0 -67 -41 -109.5t-106 -42.5q-67 0 -109.5 43t-42.5 109z" />
<glyph unicode="&#xc0;" horiz-adv-x="1310" d="M14 35l492 1405q9 24 33 24h233q24 0 33 -24l491 -1405q9 -35 -24 -35h-201q-29 0 -35 25l-100 309h-561l-101 -309q-9 -25 -34 -25h-201q-34 0 -25 35zM288 1907.5q5 11.5 25 11.5h197q24 0 37 -18l211 -271q10 -17 4 -27t-25 -10h-149q-23 0 -37 17l-256 272 q-12 14 -7 25.5zM444 557h422l-207 637h-8z" />
<glyph unicode="&#xc1;" horiz-adv-x="1310" d="M14 35l492 1405q9 24 33 24h233q24 0 33 -24l491 -1405q9 -35 -24 -35h-201q-29 0 -35 25l-100 309h-561l-101 -309q-9 -25 -34 -25h-201q-34 0 -25 35zM444 557h422l-207 637h-8zM516 1603q-6 10 4 27l211 271q13 18 37 18h197q20 0 25 -11.5t-7 -25.5l-256 -272 q-14 -17 -37 -17h-149q-19 0 -25 10z" />
<glyph unicode="&#xc2;" horiz-adv-x="1310" d="M14 35l492 1405q9 24 33 24h233q24 0 33 -24l491 -1405q9 -35 -24 -35h-201q-29 0 -35 25l-100 309h-561l-101 -309q-9 -25 -34 -25h-201q-34 0 -25 35zM296 1604q-4 11 9 26l244 273q13 16 37 16h141q24 0 37 -16l244 -273q12 -15 7.5 -26t-24.5 -11h-166q-23 0 -37 17 l-133 145l-131 -145q-14 -17 -37 -17h-168q-19 0 -23 11zM444 557h422l-207 637h-8z" />
<glyph unicode="&#xc3;" horiz-adv-x="1310" d="M14 35l492 1405q9 24 33 24h233q24 0 33 -24l491 -1405q9 -35 -24 -35h-201q-29 0 -35 25l-100 309h-561l-101 -309q-9 -25 -34 -25h-201q-34 0 -25 35zM309 1712q24 67 74.5 118.5t118.5 51.5q64 0 153 -51q87 -49 125 -49q23 0 37 14.5t33 52.5q17 25 41 13l98 -56 q25 -14 15 -30q-21 -67 -73 -123t-122 -56q-56 0 -154 54q-3 2 -14.5 8t-14.5 8t-13 7l-14 7t-12 5.5t-12.5 5t-11.5 3.5t-12.5 2.5t-11.5 0.5q-46 0 -78 -66q-14 -27 -41 -12l-98 53q-24 13 -13 39zM444 557h422l-207 637h-8z" />
<glyph unicode="&#xc4;" horiz-adv-x="1310" d="M14 35l492 1405q9 24 33 24h233q24 0 33 -24l491 -1405q9 -35 -24 -35h-201q-29 0 -35 25l-100 309h-561l-101 -309q-9 -25 -34 -25h-201q-34 0 -25 35zM311 1741q0 57 37 94t94 37t94 -37t37 -94t-37 -94t-94 -37t-94 37t-37 94zM444 557h422l-207 637h-8zM737 1741 q0 57 36.5 94t94.5 37t95.5 -37t37.5 -94t-37.5 -94t-95.5 -37t-94.5 37t-36.5 94z" />
<glyph unicode="&#xc5;" horiz-adv-x="1310" d="M14 35l492 1405q9 24 33 24h233q24 0 33 -24l491 -1405q9 -35 -24 -35h-201q-29 0 -35 25l-100 309h-561l-101 -309q-9 -25 -34 -25h-201q-34 0 -25 35zM410 1788q0 103 69.5 167t177.5 64q104 0 172 -64.5t68 -168.5q0 -105 -67.5 -168.5t-172.5 -63.5q-109 0 -178 64 t-69 170zM444 557h422l-207 637h-8zM551 1786q0 -44 28.5 -71t75.5 -27q46 0 73.5 27t27.5 71q0 46 -27.5 73t-73.5 27q-47 0 -75.5 -27t-28.5 -73z" />
<glyph unicode="&#xc6;" horiz-adv-x="1814" d="M3.5 11q-6.5 11 0.5 26l670 1405q11 22 35 22h948q29 0 29 -30v-166q0 -29 -29 -29h-590v-389h537q30 0 30 -31v-164q0 -30 -30 -30h-537v-398h619q30 0 30 -30v-166q0 -31 -30 -31h-834q-31 0 -31 31v309h-407l-148 -317q-9 -23 -35 -23h-206q-15 0 -21.5 11zM514 563 h307v666h-4z" />
<glyph unicode="&#xc7;" horiz-adv-x="1214" d="M123 498v467q0 131 45 233t123.5 164.5t178 94.5t214.5 32q242 0 438 -137q22 -16 6 -41l-96 -140q-14 -24 -43 -8q-134 92 -305 92q-149 0 -231 -77.5t-82 -214.5v-459q0 -140 83 -218.5t232 -78.5q89 0 179 28t161 80q26 19 41 -8l96 -139q16 -26 -4 -43 q-178 -137 -414 -150l-30 -71q79 -6 127.5 -46.5t48.5 -101.5q0 -90 -72 -138t-194 -48q-65 0 -117 18q-25 6 -25 35v66q0 15 10 21t25 3q45 -10 78 -10q106 0 109 64q0 57 -107 63q-26 0 -37 20q-4 13 4 29l43 98q-104 10 -191 47t-153.5 100t-103.5 158.5t-37 215.5z" />
<glyph unicode="&#xc8;" horiz-adv-x="1200" d="M168 31v1403q0 30 29 30h847q31 0 31 -30v-166q0 -29 -31 -29h-628v-383h575q31 0 31 -31v-163q0 -31 -31 -31h-575v-406h657q31 0 31 -28v-166q0 -31 -31 -31h-876q-29 0 -29 31zM294 1907.5q5 11.5 25 11.5h197q24 0 37 -18l211 -271q10 -17 4 -27t-25 -10h-149 q-23 0 -37 17l-256 272q-12 14 -7 25.5z" />
<glyph unicode="&#xc9;" horiz-adv-x="1200" d="M168 31v1403q0 30 29 30h847q31 0 31 -30v-166q0 -29 -31 -29h-628v-383h575q31 0 31 -31v-163q0 -31 -31 -31h-575v-406h657q31 0 31 -28v-166q0 -31 -31 -31h-876q-29 0 -29 31zM483 1603q-6 10 4 27l211 271q13 18 37 18h197q20 0 25 -11.5t-7 -25.5l-256 -272 q-14 -17 -37 -17h-149q-19 0 -25 10z" />
<glyph unicode="&#xca;" horiz-adv-x="1200" d="M168 31v1403q0 30 29 30h847q31 0 31 -30v-166q0 -29 -31 -29h-628v-383h575q31 0 31 -31v-163q0 -31 -31 -31h-575v-406h657q31 0 31 -28v-166q0 -31 -31 -31h-876q-29 0 -29 31zM276 1604q-4 11 9 26l243 273q13 16 37 16h142q23 0 36 -16l244 -273q12 -15 8 -26 t-24 -11h-166q-23 0 -37 17l-133 145l-131 -145q-14 -17 -37 -17h-168q-19 0 -23 11z" />
<glyph unicode="&#xcb;" horiz-adv-x="1200" d="M168 31v1403q0 30 29 30h847q31 0 31 -30v-166q0 -29 -31 -29h-628v-383h575q31 0 31 -31v-163q0 -31 -31 -31h-575v-406h657q31 0 31 -28v-166q0 -31 -31 -31h-876q-29 0 -29 31zM293 1741q0 57 37 94t94 37t94 -37t37 -94t-37 -94t-94 -37t-94 37t-37 94zM719 1741 q0 57 36.5 94t94.5 37t95.5 -37t37.5 -94t-37.5 -94t-95.5 -37t-94.5 37t-36.5 94z" />
<glyph unicode="&#xcc;" horiz-adv-x="581" d="M-66 1907.5q5 11.5 25 11.5h197q24 0 37 -18l210 -271q10 -17 4.5 -27t-24.5 -10h-150q-22 0 -36 17l-256 272q-12 14 -7 25.5zM168 31v1403q0 30 29 30h188q29 0 29 -30v-1403q0 -31 -29 -31h-188q-29 0 -29 31z" />
<glyph unicode="&#xcd;" horiz-adv-x="581" d="M153.5 1603q-5.5 10 4.5 27l211 271q13 18 37 18h196q20 0 25.5 -11.5t-6.5 -25.5l-256 -272q-14 -17 -37 -17h-150q-19 0 -24.5 10zM168 31v1403q0 30 29 30h188q29 0 29 -30v-1403q0 -31 -29 -31h-188q-29 0 -29 31z" />
<glyph unicode="&#xce;" horiz-adv-x="583" d="M-22 1604q-5 11 6 26l204 271q12 18 35 18h129q22 0 37 -18l203 -271q11 -15 5.5 -26t-24.5 -11h-155q-23 0 -37 19l-92 137l-94 -137q-14 -19 -37 -19h-156q-19 0 -24 11zM168 31v1403q0 30 31 30h186q31 0 31 -30v-1403q0 -31 -31 -31h-186q-31 0 -31 31z" />
<glyph unicode="&#xcf;" horiz-adv-x="581" d="M-29 1741q0 57 37 94t94 37q56 0 92.5 -37t36.5 -94t-36.5 -94t-92.5 -37q-57 0 -94 37t-37 94zM168 31v1403q0 30 29 30h188q29 0 29 -30v-1403q0 -31 -29 -31h-188q-29 0 -29 31zM350 1741q0 57 36.5 94t94.5 37q57 0 95 -37t38 -94t-38 -94t-95 -37q-58 0 -94.5 37 t-36.5 94z" />
<glyph unicode="&#xd0;" horiz-adv-x="1398" d="M27 702v103q0 29 30 29h129v600q0 30 31 30h508q261 0 407 -138t146 -402v-389q0 -261 -146 -398t-407 -137h-508q-31 0 -31 31v641h-129q-30 0 -30 30zM436 231h289q299 0 299 301v394q0 311 -299 311h-289v-403h289q31 0 31 -29v-103q0 -30 -31 -30h-289v-441z" />
<glyph unicode="&#xd1;" horiz-adv-x="1445" d="M168 31v1403q0 30 29 30h206q24 0 37 -20l400 -696q138 -243 204 -371l7 2q-19 276 -19 555v500q0 30 31 30h184q31 0 31 -30v-1403q0 -31 -31 -31h-207q-23 0 -34 20l-388 642q-123 199 -219 403l-6 -2q19 -334 19 -563v-469q0 -31 -29 -31h-186q-29 0 -29 31zM377 1712 q24 67 74 118.5t118 51.5q65 0 154 -51q87 -49 125 -49q23 0 37 14.5t33 52.5q16 25 40 13l99 -56q24 -13 14 -30q-21 -67 -73 -123t-121 -56q-56 0 -154 54q-3 2 -9 5q-77 40 -108 42q-46 0 -78 -66q-14 -27 -41 -12l-98 53q-23 13 -12 39z" />
<glyph unicode="&#xd2;" horiz-adv-x="1388" d="M119 545v377q0 268 151.5 417.5t423.5 149.5t424 -149.5t152 -417.5v-377q0 -269 -152.5 -419.5t-423.5 -150.5t-423 150.5t-152 419.5zM364 1907.5q5 11.5 25 11.5h197q24 0 37 -18l211 -271q10 -17 4 -27t-25 -10h-149q-23 0 -37 17l-256 272q-12 14 -7 25.5zM371 545 q0 -165 82 -250.5t241 -85.5t241.5 85.5t82.5 250.5v375q0 166 -82 251.5t-242 85.5t-241.5 -85.5t-81.5 -251.5v-375z" />
<glyph unicode="&#xd3;" horiz-adv-x="1388" d="M119 545v377q0 268 151.5 417.5t423.5 149.5t424 -149.5t152 -417.5v-377q0 -269 -152.5 -419.5t-423.5 -150.5t-423 150.5t-152 419.5zM371 545q0 -165 82 -250.5t241 -85.5t241.5 85.5t82.5 250.5v375q0 166 -82 251.5t-242 85.5t-241.5 -85.5t-81.5 -251.5v-375z M524 1603q-6 10 4 27l211 271q13 18 37 18h197q20 0 25 -11.5t-7 -25.5l-256 -272q-14 -17 -37 -17h-149q-19 0 -25 10z" />
<glyph unicode="&#xd4;" horiz-adv-x="1388" d="M119 545v377q0 268 151.5 417.5t423.5 149.5t424 -149.5t152 -417.5v-377q0 -269 -152.5 -419.5t-423.5 -150.5t-423 150.5t-152 419.5zM335 1604q-4 11 9 26l244 273q13 16 37 16h141q24 0 37 -16l244 -273q12 -15 7.5 -26t-24.5 -11h-166q-23 0 -37 17l-133 145 l-131 -145q-14 -17 -37 -17h-168q-19 0 -23 11zM371 545q0 -165 82 -250.5t241 -85.5t241.5 85.5t82.5 250.5v375q0 166 -82 251.5t-242 85.5t-241.5 -85.5t-81.5 -251.5v-375z" />
<glyph unicode="&#xd5;" horiz-adv-x="1388" d="M119 545v377q0 268 151.5 417.5t423.5 149.5t424 -149.5t152 -417.5v-377q0 -269 -152.5 -419.5t-423.5 -150.5t-423 150.5t-152 419.5zM348 1712q24 67 74.5 118.5t118.5 51.5q64 0 153 -51q87 -49 125 -49q23 0 37 14.5t33 52.5q17 25 41 13l98 -56q24 -13 14 -30 q-21 -67 -73 -123t-121 -56q-56 0 -154 54q-3 2 -14.5 8t-14.5 8t-13 7l-14 7t-12 5.5t-12.5 5t-11.5 3.5t-12.5 2.5t-11.5 0.5q-46 0 -78 -66q-14 -27 -41 -12l-99 53q-23 13 -12 39zM371 545q0 -165 82 -250.5t241 -85.5t241.5 85.5t82.5 250.5v375q0 166 -82 251.5 t-242 85.5t-241.5 -85.5t-81.5 -251.5v-375z" />
<glyph unicode="&#xd6;" horiz-adv-x="1388" d="M119 545v377q0 268 151.5 417.5t423.5 149.5t424 -149.5t152 -417.5v-377q0 -269 -152.5 -419.5t-423.5 -150.5t-423 150.5t-152 419.5zM350 1741q0 57 37 94t94 37t94 -37t37 -94t-37 -94t-94 -37t-94 37t-37 94zM371 545q0 -165 82 -250.5t241 -85.5t241.5 85.5 t82.5 250.5v375q0 166 -82 251.5t-242 85.5t-241.5 -85.5t-81.5 -251.5v-375zM776 1741q0 57 36.5 94t94.5 37t95.5 -37t37.5 -94t-37.5 -94t-95.5 -37t-94.5 37t-36.5 94z" />
<glyph unicode="&#xd7;" d="M141 313q-20 23 0 43l316 318l-316 313q-20 20 0 43l117 115q20 20 43 0l313 -314l314 314q23 20 43 0l114 -115q23 -23 0 -43l-313 -313l313 -318q23 -20 0 -43l-114 -114q-21 -21 -43 0l-314 315l-313 -315q-23 -20 -43 0z" />
<glyph unicode="&#xd8;" horiz-adv-x="1423" d="M119 541v381q0 268 156 417.5t436 149.5q160 0 276 -49l53 100q12 21 35 21h146q17 0 22.5 -10.5t-2.5 -24.5l-96 -185q160 -148 160 -419v-381q0 -267 -157 -416.5t-437 -149.5q-145 0 -260 41l-58 -108q-10 -23 -35 -23h-143q-17 0 -23.5 11.5t1.5 25.5l98 187 q-172 149 -172 432zM377 549q0 -121 45 -189l455 865q-66 28 -166 28q-165 0 -249.5 -84t-84.5 -249v-371zM565 236q59 -23 146 -23q164 0 248.5 83.5t84.5 244.5v368q0 111 -34 172z" />
<glyph unicode="&#xd9;" horiz-adv-x="1429" d="M158 510v924q0 30 30 30h191q31 0 31 -30v-910q0 -153 79 -236t224 -83q146 0 226.5 83t80.5 236v910q0 30 31 30h190q31 0 31 -30v-924q0 -243 -152 -389t-407 -146q-252 0 -403.5 146t-151.5 389zM376 1907.5q5 11.5 25 11.5h197q24 0 37 -18l211 -271q10 -17 4 -27 t-25 -10h-149q-23 0 -37 17l-256 272q-12 14 -7 25.5z" />
<glyph unicode="&#xda;" horiz-adv-x="1429" d="M158 510v924q0 30 30 30h191q31 0 31 -30v-910q0 -153 79 -236t224 -83q146 0 226.5 83t80.5 236v910q0 30 31 30h190q31 0 31 -30v-924q0 -243 -152 -389t-407 -146q-252 0 -403.5 146t-151.5 389zM553 1603q-6 10 4 27l211 271q13 18 37 18h196q20 0 25.5 -11.5 t-6.5 -25.5l-256 -272q-14 -17 -37 -17h-149q-19 0 -25 10z" />
<glyph unicode="&#xdb;" horiz-adv-x="1429" d="M158 510v924q0 30 30 30h191q31 0 31 -30v-910q0 -153 79 -236t224 -83q146 0 226.5 83t80.5 236v910q0 30 31 30h190q31 0 31 -30v-924q0 -243 -152 -389t-407 -146q-252 0 -403.5 146t-151.5 389zM356 1604q-4 11 9 26l243 273q13 16 37 16h141q24 0 37 -16l244 -273 q12 -15 8 -26t-24 -11h-166q-23 0 -37 17l-133 145l-131 -145q-14 -17 -37 -17h-168q-19 0 -23 11z" />
<glyph unicode="&#xdc;" horiz-adv-x="1429" d="M158 510v924q0 30 30 30h191q31 0 31 -30v-910q0 -153 79 -236t224 -83q146 0 226.5 83t80.5 236v910q0 30 31 30h190q31 0 31 -30v-924q0 -243 -152 -389t-407 -146q-252 0 -403.5 146t-151.5 389zM371 1741q0 57 37 94t94 37t94 -37t37 -94t-37 -94t-94 -37t-94 37 t-37 94zM797 1741q0 57 36.5 94t94.5 37t95.5 -37t37.5 -94t-37.5 -94t-95.5 -37t-94.5 37t-36.5 94z" />
<glyph unicode="&#xdd;" horiz-adv-x="1212" d="M8.5 1453q6.5 11 24.5 11h215q25 0 33 -22l325 -674l324 674q8 22 35 22h215q17 0 22.5 -11t-2.5 -26l-469 -890v-506q0 -31 -31 -31h-188q-31 0 -31 31v510l-471 886q-8 15 -1.5 26zM467 1603q-6 10 4 27l211 271q13 18 37 18h196q20 0 25.5 -11.5t-6.5 -25.5l-256 -272 q-14 -17 -37 -17h-149q-19 0 -25 10z" />
<glyph unicode="&#xde;" horiz-adv-x="1331" d="M168 31v1403q0 30 29 30h192q31 0 31 -30v-174h297q243 0 383.5 -132.5t140.5 -363.5q0 -233 -140 -365.5t-384 -132.5h-297v-235q0 -31 -31 -31h-192q-29 0 -29 31zM420 500h287q145 0 209.5 65.5t64.5 198.5q0 262 -274 262h-287v-526z" />
<glyph unicode="&#xdf;" horiz-adv-x="1177" d="M131 31v1018q0 143 62.5 244t163.5 148.5t229 47.5q96 0 178 -26.5t143.5 -77.5t96 -132t34.5 -184q0 -89 -39 -170t-118 -119q107 -50 162 -141t55 -207q0 -133 -62.5 -234t-162.5 -151.5t-218 -50.5q-93 0 -178 27q-24 9 -24 32v164q0 31 32 25q71 -19 142 -19 q97 0 164 58.5t67 158.5q0 108 -63 160.5t-166 52.5h-146q-30 0 -30 29v154q0 28 30 28h138q77 0 127.5 55.5t50.5 147.5q0 104 -54.5 158.5t-160.5 54.5q-215 0 -215 -233v-1018q0 -31 -31 -31h-176q-31 0 -31 31z" />
<glyph unicode="&#xe0;" horiz-adv-x="1064" d="M57 317q0 162 122 245t327 83q83 0 205 -16v39q0 110 -46 158t-159 48q-152 0 -262 -65q-25 -18 -41 8l-82 125q-15 23 0 35q156 108 401 108q199 0 312.5 -103t113.5 -312v-598q0 -26 -22 -35q-199 -62 -412 -62q-74 0 -139 11t-124.5 36t-101.5 63.5t-67 97.5t-25 134z M265 1525q5 11 24 11h180q26 0 37 -20l164 -269q10 -15 4 -26t-25 -11h-135q-24 0 -37 19l-205 270q-12 15 -7 26zM297 319q0 -69 59 -103t158 -34q91 0 197 25v231q-117 17 -199 17q-215 0 -215 -136z" />
<glyph unicode="&#xe1;" horiz-adv-x="1064" d="M57 317q0 162 122 245t327 83q83 0 205 -16v39q0 110 -46 158t-159 48q-152 0 -262 -65q-25 -18 -41 8l-82 125q-15 23 0 35q156 108 401 108q199 0 312.5 -103t113.5 -312v-598q0 -26 -22 -35q-199 -62 -412 -62q-74 0 -139 11t-124.5 36t-101.5 63.5t-67 97.5t-25 134z M297 319q0 -69 59 -103t158 -34q91 0 197 25v231q-117 17 -199 17q-215 0 -215 -136zM370 1221q-6 11 5 26l164 269q11 20 36 20h181q19 0 23.5 -11t-7.5 -26l-205 -270q-13 -19 -37 -19h-135q-19 0 -25 11z" />
<glyph unicode="&#xe2;" horiz-adv-x="1064" d="M57 317q0 162 122 245t327 83q83 0 205 -16v39q0 110 -46 158t-159 48q-152 0 -262 -65q-25 -18 -41 8l-82 125q-15 23 0 35q156 108 401 108q199 0 312.5 -103t113.5 -312v-598q0 -26 -22 -35q-199 -62 -412 -62q-74 0 -139 11t-124.5 36t-101.5 63.5t-67 97.5t-25 134z M189.5 1220q-4.5 10 7.5 27l231 271q15 18 37 18h121q25 0 37 -18l229 -271q12 -17 8.5 -27t-22.5 -10h-146q-23 0 -37 17l-129 153l-133 -153q-17 -17 -35 -17h-145q-19 0 -23.5 10zM297 319q0 -69 59 -103t158 -34q91 0 197 25v231q-117 17 -199 17q-215 0 -215 -136z" />
<glyph unicode="&#xe3;" horiz-adv-x="1064" d="M57 317q0 162 122 245t327 83q83 0 205 -16v39q0 110 -46 158t-159 48q-152 0 -262 -65q-25 -18 -41 8l-82 125q-15 23 0 35q156 108 401 108q199 0 312.5 -103t113.5 -312v-598q0 -26 -22 -35q-199 -62 -412 -62q-74 0 -139 11t-124.5 36t-101.5 63.5t-67 97.5t-25 134z M172 1296q26 67 76 118.5t117 51.5q61 0 153 -53q4 -2 20.5 -10t23 -11t21 -9.5t23 -9t19.5 -5t20 -2.5q22 0 35.5 14t34.5 52q13 26 41 14l96 -55q23 -13 16 -33q-23 -66 -75 -121t-121 -55q-58 0 -154 53q-74 41 -102 46q-8 1 -15 1q-26 0 -43 -17t-34 -48 q-14 -27 -41 -15l-97 55q-24 12 -14 39zM297 319q0 -69 59 -103t158 -34q91 0 197 25v231q-117 17 -199 17q-215 0 -215 -136z" />
<glyph unicode="&#xe4;" horiz-adv-x="1064" d="M57 317q0 162 122 245t327 83q83 0 205 -16v39q0 110 -46 158t-159 48q-152 0 -262 -65q-25 -18 -41 8l-82 125q-15 23 0 35q156 108 401 108q199 0 312.5 -103t113.5 -312v-598q0 -26 -22 -35q-199 -62 -412 -62q-74 0 -139 11t-124.5 36t-101.5 63.5t-67 97.5t-25 134z M188 1337q0 59 36 93t91 34q56 0 90.5 -34t34.5 -93q0 -58 -34.5 -91.5t-90.5 -33.5q-55 0 -91 34t-36 91zM297 319q0 -69 59 -103t158 -34q91 0 197 25v231q-117 17 -199 17q-215 0 -215 -136zM608 1337q0 59 35 93t92 34q55 0 90 -34t35 -93q0 -57 -35 -91t-90 -34 q-56 0 -91.5 33.5t-35.5 91.5z" />
<glyph unicode="&#xe5;" horiz-adv-x="1064" d="M57 317q0 162 122 245t327 83q83 0 205 -16v39q0 110 -46 158t-159 48q-152 0 -262 -65q-25 -18 -41 8l-82 125q-15 23 0 35q156 108 401 108q199 0 312.5 -103t113.5 -312v-598q0 -26 -22 -35q-199 -62 -412 -62q-74 0 -139 11t-124.5 36t-101.5 63.5t-67 97.5t-25 134z M279 1382q0 103 67.5 165.5t173.5 62.5q101 0 165.5 -63.5t64.5 -166.5q0 -102 -64 -162.5t-166 -60.5q-106 0 -173.5 62t-67.5 163zM297 319q0 -69 59 -103t158 -34q91 0 197 25v231q-117 17 -199 17q-215 0 -215 -136zM416 1380q0 -41 28 -67.5t74 -26.5q44 0 70 26t26 68 q0 46 -26 73.5t-70 27.5q-46 0 -74 -27.5t-28 -73.5z" />
<glyph unicode="&#xe6;" horiz-adv-x="1656" d="M57 317q0 159 121.5 242.5t315.5 83.5q102 0 202 -14v73q0 170 -204 170q-140 0 -267 -65q-25 -16 -41 10l-71 121q-14 25 8 41q76 47 176.5 76.5t202.5 29.5t177.5 -32.5t141.5 -98.5q131 131 328 131q81 0 155.5 -24.5t135.5 -71.5t97 -124t36 -175v-225q0 -31 -31 -31 h-610v-55q0 -191 211 -191q167 0 278 97q23 19 43 -4l88 -117q15 -24 -2 -41q-77 -71 -187 -109.5t-226 -38.5q-165 0 -285 93q-64 -41 -157.5 -67t-192.5 -26q-68 0 -131 12.5t-120 39.5t-99.5 66t-67.5 96.5t-25 127.5zM295 322q0 -69 59 -104.5t144 -35.5q57 0 120 14 t103 33q-25 57 -25 129v86q-115 13 -180 13q-112 0 -166.5 -35.5t-54.5 -99.5zM930 616h413v64q0 98 -56.5 148.5t-147.5 50.5q-92 0 -150.5 -50.5t-58.5 -152.5v-60z" />
<glyph unicode="&#xe7;" horiz-adv-x="966" d="M94 389v285q0 188 123 299.5t334 111.5q182 0 336 -98q25 -16 8 -43l-80 -123q-16 -23 -43 -8q-100 59 -215 59q-109 0 -167 -51.5t-58 -146.5v-287q0 -95 58.5 -147t164.5 -52q123 0 238 74q29 16 43 -8l86 -123q15 -24 -7 -41q-145 -102 -317 -113v-4l-31 -67 q78 -6 125 -47t47 -105q0 -87 -70.5 -132.5t-189.5 -45.5q-65 0 -117 18q-24 6 -24 35v62q0 15 10 21t25 3q45 -10 78 -10q108 0 108 64q0 57 -102 63q-25 0 -37 21q-4 12 4 28l43 101q-176 22 -274.5 130t-98.5 277z" />
<glyph unicode="&#xe8;" horiz-adv-x="1073" d="M96 375v291q0 87 25.5 158.5t68.5 119t101.5 80t122 47t133.5 14.5q69 0 132 -14.5t120 -46.5t99 -80t66.5 -119t24.5 -159v-207q0 -29 -31 -29h-622v-57q0 -92 58 -140.5t159 -48.5q87 0 154.5 25t134.5 70q24 17 41 -7l84 -112q20 -23 -6 -43q-180 -142 -416 -142 q-89 0 -168 25t-142.5 72.5t-101 125.5t-37.5 177zM267 1525q5 11 24 11h180q26 0 37 -20l164 -269q10 -15 4 -26t-25 -11h-135q-24 0 -37 19l-205 270q-12 15 -7 26zM336 614h422v54q0 106 -59 157.5t-152 51.5q-97 0 -154 -50.5t-57 -158.5v-54z" />
<glyph unicode="&#xe9;" horiz-adv-x="1073" d="M96 375v291q0 87 25.5 158.5t68.5 119t101.5 80t122 47t133.5 14.5q69 0 132 -14.5t120 -46.5t99 -80t66.5 -119t24.5 -159v-207q0 -29 -31 -29h-622v-57q0 -92 58 -140.5t159 -48.5q87 0 154.5 25t134.5 70q24 17 41 -7l84 -112q20 -23 -6 -43q-180 -142 -416 -142 q-89 0 -168 25t-142.5 72.5t-101 125.5t-37.5 177zM336 614h422v54q0 106 -59 157.5t-152 51.5q-97 0 -154 -50.5t-57 -158.5v-54zM395 1221q-6 11 4 26l164 269q11 20 37 20h180q19 0 24 -11t-7 -26l-205 -270q-13 -19 -37 -19h-135q-19 0 -25 11z" />
<glyph unicode="&#xea;" horiz-adv-x="1073" d="M96 375v291q0 87 25.5 158.5t68.5 119t101.5 80t122 47t133.5 14.5q69 0 132 -14.5t120 -46.5t99 -80t66.5 -119t24.5 -159v-207q0 -29 -31 -29h-622v-57q0 -92 58 -140.5t159 -48.5q87 0 154.5 25t134.5 70q24 17 41 -7l84 -112q20 -23 -6 -43q-180 -142 -416 -142 q-89 0 -168 25t-142.5 72.5t-101 125.5t-37.5 177zM209.5 1220q-4.5 10 7.5 27l232 271q15 18 36 18h121q25 0 37 -18l229 -271q12 -17 8.5 -27t-22.5 -10h-145q-23 0 -37 17l-129 153l-133 -153q-17 -17 -35 -17h-146q-19 0 -23.5 10zM336 614h422v54q0 106 -59 157.5 t-152 51.5q-97 0 -154 -50.5t-57 -158.5v-54z" />
<glyph unicode="&#xeb;" horiz-adv-x="1073" d="M96 375v291q0 87 25.5 158.5t68.5 119t101.5 80t122 47t133.5 14.5q69 0 132 -14.5t120 -46.5t99 -80t66.5 -119t24.5 -159v-207q0 -29 -31 -29h-622v-57q0 -92 58 -140.5t159 -48.5q87 0 154.5 25t134.5 70q24 17 41 -7l84 -112q20 -23 -6 -43q-180 -142 -416 -142 q-89 0 -168 25t-142.5 72.5t-101 125.5t-37.5 177zM205 1337q0 59 36 93t91 34q56 0 90.5 -34t34.5 -93q0 -58 -34.5 -91.5t-90.5 -33.5q-55 0 -91 34t-36 91zM336 614h422v54q0 106 -59 157.5t-152 51.5q-97 0 -154 -50.5t-57 -158.5v-54zM625 1337q0 59 35 93t92 34 q55 0 90 -34t35 -93q0 -57 -35 -91t-90 -34q-56 0 -91.5 33.5t-35.5 91.5z" />
<glyph unicode="&#xec;" horiz-adv-x="495" d="M-27.5 1525q4.5 11 23.5 11h180q26 0 37 -20l164 -269q10 -15 4 -26t-25 -11h-135q-24 0 -37 19l-204 270q-12 15 -7.5 26zM129 31v1001q0 29 31 29h176q31 0 31 -29v-1001q0 -31 -31 -31h-176q-31 0 -31 31z" />
<glyph unicode="&#xed;" horiz-adv-x="495" d="M102 1221q-6 11 4 26l164 269q11 20 37 20h180q19 0 24 -11t-7 -26l-205 -270q-13 -19 -37 -19h-135q-19 0 -25 11zM129 31v1001q0 29 31 29h176q31 0 31 -29v-1001q0 -31 -31 -31h-176q-31 0 -31 31z" />
<glyph unicode="&#xee;" horiz-adv-x="495" d="M-47 1221q-5 11 6 26l193 269q11 20 36 20h121q23 0 37 -20l193 -269q11 -15 5.5 -26t-24.5 -11h-141q-21 0 -37 19l-94 155l-92 -153q-17 -21 -37 -21h-142q-19 0 -24 11zM129 31v1001q0 13 8.5 21t22.5 8h178q29 0 29 -29v-1001q0 -31 -29 -31h-178q-31 0 -31 31z" />
<glyph unicode="&#xef;" horiz-adv-x="495" d="M-35 1339q0 54 35 89.5t88 35.5q52 0 86.5 -35.5t34.5 -89.5q0 -53 -34.5 -87.5t-86.5 -34.5q-53 0 -88 35t-35 87zM129 31v1001q0 29 29 29h178q14 0 22.5 -8t8.5 -21v-1001q0 -31 -31 -31h-178q-29 0 -29 31zM283 1339q0 54 34 89.5t86 35.5q54 0 89.5 -35.5 t35.5 -89.5q0 -53 -35.5 -87.5t-89.5 -34.5q-52 0 -86 34.5t-34 87.5z" />
<glyph unicode="&#xf0;" horiz-adv-x="1134" d="M90 391v199q0 188 123.5 303t321.5 115q157 0 260 -93q-23 160 -172 273l-172 -127q-25 -16 -43 8l-43 57q-16 22 8 43l123 91q-106 47 -215 47q-31 0 -31 30v140q0 28 31 28q221 0 403 -108l127 94q23 20 45 -6l41 -60q17 -24 -8 -43l-94 -69q224 -208 227 -555v-365 q0 -193 -126.5 -305.5t-338.5 -112.5q-213 0 -340 112.5t-127 303.5zM330 389q0 -98 58.5 -149.5t168.5 -51.5q108 0 167 51.5t60 149.5v199q1 101 -59 156t-168 55q-110 0 -168.5 -54.5t-58.5 -156.5v-199z" />
<glyph unicode="&#xf1;" horiz-adv-x="1150" d="M127 31v938q0 25 23 37q184 79 407 79t349 -111t126 -347v-596q0 -31 -28 -31h-179q-30 0 -30 31v592q0 138 -59 193.5t-179 55.5q-106 0 -192 -22v-819q0 -31 -31 -31h-176q-31 0 -31 31zM215 1296q26 67 76 118.5t117 51.5q61 0 153 -53q4 -2 20.5 -10t23 -11t21 -9.5 t23 -9t19.5 -5t20 -2.5q22 0 35.5 14t34.5 52q13 26 41 14l96 -55q23 -13 16 -33q-23 -66 -75 -121t-121 -55q-58 0 -154 53q-74 41 -102 46q-8 1 -15 1q-26 0 -43 -17t-34 -48q-14 -27 -41 -15l-97 55q-24 12 -14 39z" />
<glyph unicode="&#xf2;" horiz-adv-x="1122" d="M94 389v275q0 193 127 307t340 114t340 -114t127 -307v-275q0 -190 -127 -302t-340 -112t-340 112t-127 302zM300 1525q5 11 24 11h180q26 0 37 -20l164 -269q10 -15 4 -26t-25 -11h-135q-24 0 -37 19l-205 270q-12 15 -7 26zM334 389q0 -98 58.5 -149.5t168.5 -51.5 q109 0 168 51.5t59 149.5v275q0 101 -59 154.5t-168 53.5q-110 0 -168.5 -53.5t-58.5 -154.5v-275z" />
<glyph unicode="&#xf3;" horiz-adv-x="1122" d="M94 389v275q0 193 127 307t340 114t340 -114t127 -307v-275q0 -190 -127 -302t-340 -112t-340 112t-127 302zM334 389q0 -98 58.5 -149.5t168.5 -51.5q109 0 168 51.5t59 149.5v275q0 101 -59 154.5t-168 53.5q-110 0 -168.5 -53.5t-58.5 -154.5v-275zM399 1221 q-6 11 4 26l164 269q11 20 37 20h180q19 0 24 -11t-7 -26l-205 -270q-13 -19 -37 -19h-135q-19 0 -25 11z" />
<glyph unicode="&#xf4;" horiz-adv-x="1122" d="M94 389v275q0 193 127 307t340 114t340 -114t127 -307v-275q0 -190 -127 -302t-340 -112t-340 112t-127 302zM226 1220q-5 10 7 27l232 271q15 18 37 18h121q24 0 36 -18l230 -271q12 -17 8 -27t-23 -10h-145q-23 0 -37 17l-129 153l-133 -153q-17 -17 -35 -17h-145 q-19 0 -24 10zM334 389q0 -98 58.5 -149.5t168.5 -51.5q109 0 168 51.5t59 149.5v275q0 101 -59 154.5t-168 53.5q-110 0 -168.5 -53.5t-58.5 -154.5v-275z" />
<glyph unicode="&#xf5;" horiz-adv-x="1122" d="M94 389v275q0 193 127 307t340 114t340 -114t127 -307v-275q0 -190 -127 -302t-340 -112t-340 112t-127 302zM211 1296q12 30 29 58t40.5 54.5t55.5 42t67 15.5q62 0 154 -53q4 -2 20.5 -10t23 -11t21 -9.5t23 -9t19.5 -5t20 -2.5q22 0 35.5 14t34.5 52q13 26 41 14 l96 -55q23 -13 16 -33q-23 -66 -75 -121t-121 -55q-58 0 -154 53q-74 41 -102 46q-8 1 -15 1q-43 0 -78 -65q-14 -26 -40 -15l-97 55q-24 12 -14 39zM334 389q0 -98 58.5 -149.5t168.5 -51.5q109 0 168 51.5t59 149.5v275q0 101 -59 154.5t-168 53.5q-110 0 -168.5 -53.5 t-58.5 -154.5v-275z" />
<glyph unicode="&#xf6;" horiz-adv-x="1122" d="M94 389v275q0 193 127 307t340 114t340 -114t127 -307v-275q0 -190 -127 -302t-340 -112t-340 112t-127 302zM225 1337q0 59 36 93t91 34q56 0 90.5 -34t34.5 -93q0 -58 -34.5 -91.5t-90.5 -33.5q-55 0 -91 34t-36 91zM334 389q0 -98 58.5 -149.5t168.5 -51.5 q109 0 168 51.5t59 149.5v275q0 101 -59 154.5t-168 53.5q-110 0 -168.5 -53.5t-58.5 -154.5v-275zM645 1337q0 59 35 93t92 34q55 0 90 -34t35 -93q0 -57 -35 -91t-90 -34q-56 0 -91.5 33.5t-35.5 91.5z" />
<glyph unicode="&#xf7;" d="M147 606v160q0 31 29 31h877q28 0 28 -31v-160q0 -31 -28 -31h-877q-29 0 -29 31zM467 305q0 68 41 111t108 43q68 0 111 -43.5t43 -110.5q0 -66 -43.5 -108.5t-110.5 -42.5t-108 42t-41 109zM467 1059q0 67 41 109t108 42t110.5 -42.5t43.5 -108.5q0 -67 -43 -109.5 t-111 -42.5q-67 0 -108 42t-41 110z" />
<glyph unicode="&#xf8;" horiz-adv-x="1122" d="M94 389v275q0 193 127 307t340 114q113 0 193 -28l63 117q13 20 37 20h137q18 0 24.5 -10t-1.5 -25l-109 -190q123 -120 123 -305v-275q0 -190 -127 -302t-340 -112q-105 0 -196 31l-62 -106q-13 -23 -35 -23h-137q-18 0 -24 11t2 26l102 182q-117 111 -117 293zM334 408 q0 -38 10 -76l301 532q-33 8 -84 8q-109 0 -168 -54t-59 -156v-254zM473 199q44 -13 88 -13q110 0 168.5 52.5t58.5 152.5v256q0 41 -14 88z" />
<glyph unicode="&#xf9;" horiz-adv-x="1138" d="M119 436v596q0 29 31 29h178q28 0 28 -29v-592q0 -138 58.5 -195t173.5 -57q113 0 186 25v819q0 29 29 29h178q14 0 22.5 -8t8.5 -21v-938q0 -27 -23 -37q-188 -82 -401 -82q-220 0 -344.5 112.5t-124.5 348.5zM293.5 1525q4.5 11 23.5 11h181q26 0 37 -20l163 -269 q11 -15 5 -26t-25 -11h-135q-24 0 -37 19l-205 270q-12 15 -7.5 26z" />
<glyph unicode="&#xfa;" horiz-adv-x="1138" d="M119 436v596q0 29 31 29h178q28 0 28 -29v-592q0 -138 58.5 -195t173.5 -57q113 0 186 25v819q0 29 29 29h178q14 0 22.5 -8t8.5 -21v-938q0 -27 -23 -37q-188 -82 -401 -82q-220 0 -344.5 112.5t-124.5 348.5zM426 1221q-6 11 4 26l164 269q11 20 37 20h180 q19 0 23.5 -11t-7.5 -26l-204 -270q-13 -19 -37 -19h-135q-19 0 -25 11z" />
<glyph unicode="&#xfb;" horiz-adv-x="1138" d="M119 436v596q0 29 31 29h178q28 0 28 -29v-592q0 -138 58.5 -195t173.5 -57q113 0 186 25v819q0 29 29 29h178q14 0 22.5 -8t8.5 -21v-938q0 -27 -23 -37q-188 -82 -401 -82q-220 0 -344.5 112.5t-124.5 348.5zM238.5 1220q-4.5 10 7.5 27l231 271q15 18 37 18h121 q25 0 37 -18l229 -271q12 -17 8.5 -27t-22.5 -10h-146q-22 0 -36 17l-130 153l-133 -153q-17 -17 -34 -17h-146q-19 0 -23.5 10z" />
<glyph unicode="&#xfc;" horiz-adv-x="1138" d="M119 436v596q0 29 31 29h178q28 0 28 -29v-592q0 -138 58.5 -195t173.5 -57q113 0 186 25v819q0 29 29 29h178q14 0 22.5 -8t8.5 -21v-938q0 -27 -23 -37q-188 -82 -401 -82q-220 0 -344.5 112.5t-124.5 348.5zM242 1337q0 59 36 93t91 34q56 0 90.5 -34t34.5 -93 q0 -58 -34.5 -91.5t-90.5 -33.5q-55 0 -91 34t-36 91zM662 1337q0 59 35 93t91 34q55 0 90 -34t35 -93q0 -57 -35 -91t-90 -34q-56 0 -91 33.5t-35 91.5z" />
<glyph unicode="&#xfd;" horiz-adv-x="1142" d="M119 449v583q0 13 8.5 21t22.5 8h178q28 0 28 -29v-573q0 -111 66 -162t168 -51q105 -3 184 41v745q0 29 31 29h176q31 0 31 -29v-964q0 -239 -112 -358.5t-345 -119.5q-129 0 -225 31t-176 98q-22 17 -7 41l89 125q16 26 38 11q140 -95 279 -95q114 0 171.5 60.5 t51.5 206.5q-122 -37 -219 -37q-82 0 -158.5 26t-140 76t-101.5 132t-38 184zM421 1221q-6 11 5 26l164 269q11 20 37 20h180q19 0 23.5 -11t-7.5 -26l-205 -270q-13 -19 -36 -19h-136q-19 0 -25 11z" />
<glyph unicode="&#xfe;" horiz-adv-x="1128" d="M131 -356v1777q0 31 31 31h176q31 0 31 -31v-374q89 38 211 38q91 0 170.5 -24.5t144.5 -73.5t103 -133.5t38 -194.5v-258q0 -101 -38 -183.5t-102.5 -134.5t-146 -80t-171.5 -28q-117 0 -209 50v-381q0 -31 -31 -31h-176q-31 0 -31 31zM369 233q79 -45 188 -45 q47 0 87.5 10.5t76 33t56 65t20.5 100.5v265q0 61 -20.5 104.5t-56.5 66t-75.5 32t-87.5 9.5q-114 0 -188 -36v-605z" />
<glyph unicode="&#xff;" horiz-adv-x="1142" d="M119 449v583q0 13 8.5 21t22.5 8h178q28 0 28 -29v-573q0 -111 66 -162t168 -51q105 -3 184 41v745q0 29 31 29h176q31 0 31 -29v-964q0 -239 -112 -358.5t-345 -119.5q-129 0 -225 31t-176 98q-22 17 -7 41l89 125q16 26 38 11q140 -95 279 -95q114 0 171.5 60.5 t51.5 206.5q-122 -37 -219 -37q-82 0 -158.5 26t-140 76t-101.5 132t-38 184zM238 1337q0 59 36 93t91 34q56 0 90 -34t34 -93q0 -58 -34 -91.5t-90 -33.5q-55 0 -91 34t-36 91zM657 1337q0 59 35 93t92 34q55 0 90 -34t35 -93q0 -57 -35 -91t-90 -34q-56 0 -91.5 33.5 t-35.5 91.5z" />
<glyph unicode="&#x100;" horiz-adv-x="1310" d="M14 35l492 1405q9 24 33 24h233q24 0 33 -24l491 -1405q9 -35 -24 -35h-201q-29 0 -35 25l-100 309h-561l-101 -309q-9 -25 -34 -25h-201q-34 0 -25 35zM334 1651v127q0 28 31 28h581q29 0 29 -28v-127q0 -31 -29 -31h-581q-31 0 -31 31zM444 557h422l-207 637h-8z" />
<glyph unicode="&#x101;" horiz-adv-x="1064" d="M57 317q0 162 122 245t327 83q83 0 205 -16v39q0 110 -46 158t-159 48q-152 0 -262 -65q-25 -18 -41 8l-82 125q-15 23 0 35q156 108 401 108q199 0 312.5 -103t113.5 -312v-598q0 -26 -22 -35q-199 -62 -412 -62q-74 0 -139 11t-124.5 36t-101.5 63.5t-67 97.5t-25 134z M219 1255v123q0 29 31 29h538q29 0 29 -29v-123q0 -30 -29 -30h-538q-31 0 -31 30zM297 319q0 -69 59 -103t158 -34q91 0 197 25v231q-117 17 -199 17q-215 0 -215 -136z" />
<glyph unicode="&#x102;" horiz-adv-x="1310" d="M14 35l492 1405q9 24 33 24h233q24 0 33 -24l491 -1405q9 -35 -24 -35h-201q-29 0 -35 25l-100 309h-561l-101 -309q-9 -25 -34 -25h-201q-34 0 -25 35zM305 1851q-6 25 25 33l129 31q26 6 35 -23q27 -125 161 -125q138 0 162 125q9 29 35 23l129 -31q28 -7 25 -29 q-15 -128 -106.5 -203t-244.5 -75t-242.5 73.5t-107.5 200.5zM444 557h422l-207 637h-8z" />
<glyph unicode="&#x103;" horiz-adv-x="1064" d="M57 317q0 162 122 245t327 83q83 0 205 -16v39q0 110 -46 158t-159 48q-152 0 -262 -65q-25 -18 -41 8l-82 125q-15 23 0 35q156 108 401 108q199 0 312.5 -103t113.5 -312v-598q0 -26 -22 -35q-199 -62 -412 -62q-74 0 -139 11t-124.5 36t-101.5 63.5t-67 97.5t-25 134z M190 1470q-1 14 6.5 23.5t20.5 11.5l115 17q27 3 33 -25q27 -123 153 -123q127 0 154 123q6 28 35 25l112 -17q32 -4 29 -30q-15 -127 -100.5 -202t-229.5 -75t-228.5 73.5t-99.5 198.5zM297 319q0 -69 59 -103t158 -34q91 0 197 25v231q-117 17 -199 17q-215 0 -215 -136z " />
<glyph unicode="&#x104;" horiz-adv-x="1310" d="M14 35l492 1405q9 24 33 24h233q24 0 33 -24l491 -1405q9 -35 -20 -35q-72 -30 -115 -76t-43 -88q0 -53 74 -53q44 0 88 12q31 10 37 -20l24 -113q6 -28 -20 -37q-86 -39 -186 -39q-104 0 -163 48t-59 133q0 66 45.5 127.5t128.5 105.5h-16q-29 0 -35 25l-100 311h-561 l-101 -311q-9 -25 -34 -25h-201q-34 0 -25 35zM444 555h422l-207 639h-8z" />
<glyph unicode="&#x105;" horiz-adv-x="1064" d="M57 324q0 159 121 240t326 81q81 0 207 -16v53q0 99 -47.5 144.5t-157.5 45.5q-155 0 -262 -63q-25 -18 -41 8l-82 125q-15 26 6 41q155 102 393 102q197 0 311.5 -101.5t114.5 -299.5v-608q0 -24 -22 -37q-105 -43 -168.5 -100t-63.5 -103q0 -28 18 -40.5t62 -12.5 t84 12q31 13 37 -20l25 -109q6 -25 -19 -37q-90 -41 -184 -41q-215 0 -215 176q0 56 38.5 117t106.5 105q-79 -11 -133 -11q-74 0 -138 10t-123.5 35t-101.5 64t-67 100t-25 140zM295 326q0 -142 217 -142q97 0 199 23v235q-89 13 -199 13q-217 0 -217 -129z" />
<glyph unicode="&#x106;" horiz-adv-x="1214" d="M123 498v467q0 131 45 233t123.5 164.5t178 94.5t214.5 32q242 0 438 -137q22 -16 6 -41l-96 -140q-14 -24 -43 -8q-134 92 -305 92q-149 0 -231 -77.5t-82 -214.5v-459q0 -140 83 -217.5t232 -77.5q90 0 180 27.5t160 78.5q26 19 41 -8l96 -139q16 -26 -4 -43 q-95 -74 -218 -112t-253 -38q-117 0 -217.5 32t-179 94t-123.5 164t-45 233zM522 1603q-6 10 4 27l211 271q13 18 37 18h197q20 0 25 -11.5t-7 -25.5l-256 -272q-14 -17 -37 -17h-149q-19 0 -25 10z" />
<glyph unicode="&#x107;" horiz-adv-x="966" d="M94 389v285q0 188 123 299.5t334 111.5q182 0 336 -98q25 -16 8 -43l-80 -123q-16 -23 -43 -8q-100 59 -215 59q-109 0 -167 -51.5t-58 -146.5v-287q0 -95 58.5 -147t164.5 -52q123 0 238 74q29 16 43 -8l86 -123q15 -24 -7 -41q-162 -115 -362 -115q-213 0 -336 112.5 t-123 301.5zM374 1221q-6 11 5 26l164 269q11 20 37 20h180q19 0 23.5 -11t-7.5 -26l-205 -270q-13 -19 -36 -19h-136q-19 0 -25 11z" />
<glyph unicode="&#x10a;" horiz-adv-x="1214" d="M123 498v467q0 131 45 233t123.5 164.5t178 94.5t214.5 32q242 0 438 -137q22 -16 6 -41l-96 -140q-14 -24 -43 -8q-134 92 -305 92q-149 0 -231 -77.5t-82 -214.5v-459q0 -140 83 -217.5t232 -77.5q90 0 180 27.5t160 78.5q26 19 41 -8l96 -139q16 -26 -4 -43 q-95 -74 -218 -112t-253 -38q-117 0 -217.5 32t-179 94t-123.5 164t-45 233zM522 1731q0 60 43.5 102.5t104.5 42.5t103 -42.5t42 -102.5t-42 -103t-103 -43t-104.5 43t-43.5 103z" />
<glyph unicode="&#x10b;" horiz-adv-x="966" d="M94 389v285q0 188 123 299.5t334 111.5q182 0 336 -98q25 -16 8 -43l-80 -123q-16 -23 -43 -8q-100 59 -215 59q-109 0 -167 -51.5t-58 -146.5v-287q0 -95 58.5 -147t164.5 -52q123 0 238 74q29 16 43 -8l86 -123q15 -24 -7 -41q-162 -115 -362 -115q-213 0 -336 112.5 t-123 301.5zM391 1339q0 57 38 94t95 37t94 -37t37 -94q0 -56 -37 -93.5t-94 -37.5t-95 37.5t-38 93.5z" />
<glyph unicode="&#x10c;" horiz-adv-x="1214" d="M123 498v467q0 131 45 233t123.5 164.5t178 94.5t214.5 32q242 0 438 -137q22 -16 6 -41l-96 -140q-14 -24 -43 -8q-134 92 -305 92q-149 0 -231 -77.5t-82 -214.5v-459q0 -140 83 -217.5t232 -77.5q90 0 180 27.5t160 78.5q26 19 41 -8l96 -139q16 -26 -4 -43 q-95 -74 -218 -112t-253 -38q-117 0 -217.5 32t-179 94t-123.5 164t-45 233zM304.5 1928.5q4.5 10.5 23.5 10.5h168q23 0 36 -16l132 -145l133 145q13 16 37 16h165q20 0 24.5 -10.5t-7.5 -25.5l-244 -273q-13 -16 -37 -16h-141q-24 0 -37 16l-244 273q-13 15 -8.5 25.5z " />
<glyph unicode="&#x10d;" horiz-adv-x="966" d="M94 389v285q0 188 123 299.5t334 111.5q182 0 336 -98q25 -16 8 -43l-80 -123q-16 -23 -43 -8q-100 59 -215 59q-109 0 -167 -51.5t-58 -146.5v-287q0 -95 58.5 -147t164.5 -52q123 0 238 74q29 16 43 -8l86 -123q15 -24 -7 -41q-162 -115 -362 -115q-213 0 -336 112.5 t-123 301.5zM199.5 1544.5q4.5 9.5 23.5 9.5h146q18 0 34 -16l134 -154l129 154q13 16 36 16h146q39 0 14 -36l-229 -271q-12 -18 -37 -18h-121q-22 0 -37 18l-231 271q-12 17 -7.5 26.5z" />
<glyph unicode="&#x10e;" horiz-adv-x="1378" d="M168 31v1403q0 30 29 30h508q260 0 406 -138t146 -402v-389q0 -261 -146 -398t-406 -137h-508q-29 0 -29 31zM298.5 1928.5q4.5 10.5 23.5 10.5h167q24 0 37 -16l131 -145l134 145q13 16 36 16h166q20 0 24.5 -10.5t-7.5 -25.5l-244 -273q-13 -16 -37 -16h-141 q-24 0 -37 16l-244 273q-13 15 -8.5 25.5zM416 231h289q149 0 222.5 74t73.5 227v394q0 311 -296 311h-289v-1006z" />
<glyph unicode="&#x10f;" horiz-adv-x="1165" d="M92 426v225q0 197 125.5 316.5t321.5 119.5q115 0 221 -47v394q0 30 31 30h176q30 0 30 -30v-1350q0 -27 -22 -35q-202 -74 -414 -74q-213 0 -341 113.5t-128 337.5zM332 424q0 -127 60 -183.5t175 -56.5q114 0 193 29v608q-83 56 -197 56q-231 0 -231 -226v-227z M1083 1133l70 305q5 26 35 26h143q34 0 25 -34l-107 -306q-9 -24 -35 -24h-106q-32 0 -25 33z" />
<glyph unicode="&#x110;" horiz-adv-x="1398" d="M27 702v103q0 29 30 29h129v600q0 30 31 30h508q261 0 407 -138t146 -402v-389q0 -261 -146 -398t-407 -137h-508q-31 0 -31 31v641h-129q-30 0 -30 30zM436 231h289q299 0 299 301v394q0 311 -299 311h-289v-403h289q31 0 31 -29v-103q0 -30 -31 -30h-289v-441z" />
<glyph unicode="&#x111;" horiz-adv-x="1124" d="M92 426v188q0 198 125.5 317.5t321.5 119.5q119 0 221 -45v174h-238q-30 0 -30 28v92q0 31 30 31h238v103q0 30 31 30h176q30 0 30 -30v-103h127q31 0 31 -31v-92q0 -28 -31 -28h-127v-1096q0 -27 -22 -35q-202 -74 -414 -74q-213 0 -341 113.5t-128 337.5zM332 424 q0 -127 60 -183.5t175 -56.5q114 0 193 29v573q-83 56 -197 56q-231 0 -231 -226v-192z" />
<glyph unicode="&#x112;" horiz-adv-x="1200" d="M168 31v1403q0 30 29 30h847q31 0 31 -30v-166q0 -29 -31 -29h-628v-383h575q31 0 31 -31v-163q0 -31 -31 -31h-575v-406h657q31 0 31 -28v-166q0 -31 -31 -31h-876q-29 0 -29 31zM313 1651v127q0 28 31 28h582q28 0 28 -28v-127q0 -31 -28 -31h-582q-31 0 -31 31z" />
<glyph unicode="&#x113;" horiz-adv-x="1073" d="M96 375v291q0 87 25.5 158.5t68.5 119t101.5 80t122 47t133.5 14.5q69 0 132 -14.5t120 -46.5t99 -80t66.5 -119t24.5 -159v-207q0 -29 -31 -29h-622v-57q0 -92 58 -140.5t159 -48.5q87 0 154.5 25t134.5 70q24 17 41 -7l84 -112q20 -23 -6 -43q-180 -142 -416 -142 q-89 0 -168 25t-142.5 72.5t-101 125.5t-37.5 177zM246 1255v123q0 29 30 29h539q29 0 29 -29v-123q0 -30 -29 -30h-539q-30 0 -30 30zM336 614h422v54q0 106 -59 157.5t-152 51.5q-97 0 -154 -50.5t-57 -158.5v-54z" />
<glyph unicode="&#x116;" horiz-adv-x="1200" d="M168 31v1403q0 30 29 30h847q31 0 31 -30v-166q0 -29 -31 -29h-628v-383h575q31 0 31 -31v-163q0 -31 -31 -31h-575v-406h657q31 0 31 -28v-166q0 -31 -31 -31h-876q-29 0 -29 31zM481 1731q0 60 43.5 102.5t104.5 42.5t103 -42.5t42 -102.5t-42 -103t-103 -43t-104.5 43 t-43.5 103z" />
<glyph unicode="&#x117;" horiz-adv-x="1073" d="M96 375v291q0 87 25.5 158.5t68.5 119t101.5 80t122 47t133.5 14.5q69 0 132 -14.5t120 -46.5t99 -80t66.5 -119t24.5 -159v-207q0 -29 -31 -29h-622v-57q0 -92 58 -140.5t159 -48.5q87 0 154.5 25t134.5 70q24 17 41 -7l84 -112q20 -23 -6 -43q-180 -142 -416 -142 q-89 0 -168 25t-142.5 72.5t-101 125.5t-37.5 177zM336 614h422v54q0 106 -59 157.5t-152 51.5q-97 0 -154 -50.5t-57 -158.5v-54zM410 1339q0 57 38 94t95 37t94 -37t37 -94q0 -56 -37 -93.5t-94 -37.5t-95 37.5t-38 93.5z" />
<glyph unicode="&#x118;" horiz-adv-x="1198" d="M168 31v1403q0 30 29 30h845q31 0 31 -30v-166q0 -29 -31 -29h-628v-385h575q31 0 31 -31v-164q0 -30 -31 -30h-575v-404h659q29 0 29 -28v-172q0 -22 -23 -35q-66 -30 -104.5 -73t-38.5 -81q0 -53 74 -53q44 0 88 12q28 9 37 -20l22 -113q6 -28 -18 -37 q-89 -39 -187 -39q-105 0 -163 48t-58 133q0 65 46 127t130 106h-710q-29 0 -29 31z" />
<glyph unicode="&#x119;" horiz-adv-x="1064" d="M94 371v305q0 85 25.5 154.5t68 116.5t100.5 79t121.5 46.5t131.5 14.5q88 0 164.5 -23.5t139 -71.5t98.5 -129t36 -187v-215q0 -31 -29 -31h-616v-57q0 -95 56 -143t159 -48q81 0 156 24.5t126 67.5q23 17 41 -4l86 -112q18 -25 -4 -43q-50 -36 -159 -97 q-74 -47 -119 -96.5t-45 -83.5q0 -57 67 -57q32 0 78 16q12 6 23 1t16 -17l39 -109q10 -27 -14 -39q-89 -47 -191 -47q-99 0 -155 44.5t-56 131.5q0 107 131 213h-26q-88 0 -167 25t-143 72t-101.5 124.5t-37.5 174.5zM334 616h420v62q0 103 -62 153t-155 50 q-91 0 -147 -49.5t-56 -155.5v-60z" />
<glyph unicode="&#x11a;" horiz-adv-x="1200" d="M168 31v1403q0 30 29 30h847q31 0 31 -30v-166q0 -29 -31 -29h-628v-383h575q31 0 31 -31v-163q0 -31 -31 -31h-575v-406h657q31 0 31 -28v-166q0 -31 -31 -31h-876q-29 0 -29 31zM276 1928.5q4 10.5 23 10.5h168q24 0 37 -16l131 -145l133 145q13 16 37 16h166 q20 0 24 -10.5t-8 -25.5l-244 -273q-13 -16 -36 -16h-142q-24 0 -37 16l-243 273q-13 15 -9 25.5z" />
<glyph unicode="&#x11b;" horiz-adv-x="1073" d="M96 375v291q0 87 25.5 158.5t68.5 119t101.5 80t122 47t133.5 14.5q69 0 132 -14.5t120 -46.5t99 -80t66.5 -119t24.5 -159v-207q0 -29 -31 -29h-622v-57q0 -92 58 -140.5t159 -48.5q87 0 154.5 25t134.5 70q24 17 41 -7l84 -112q20 -23 -6 -43q-180 -142 -416 -142 q-89 0 -168 25t-142.5 72.5t-101 125.5t-37.5 177zM218 1526q5 10 24 10h145q19 0 35 -16l133 -154l129 154q13 16 37 16h145q19 0 23 -10t-8 -27l-230 -270q-13 -19 -37 -19h-120q-21 0 -37 19l-232 270q-12 17 -7 27zM336 614h422v54q0 106 -59 157.5t-152 51.5 q-97 0 -154 -50.5t-57 -158.5v-54z" />
<glyph unicode="&#x11e;" horiz-adv-x="1337" d="M123 500v467q0 130 45 232t122.5 164t176.5 94t213 32q130 0 259 -36t232 -101q28 -19 11 -43l-103 -142q-14 -22 -41 -8q-162 96 -360 96q-138 0 -222.5 -74.5t-84.5 -219.5v-459q0 -145 91 -219t232 -74q88 0 163 24t124 62v311h-274q-29 0 -29 31v160q0 30 29 30h487 q29 0 29 -30v-576q0 -25 -11 -33q-91 -98 -223.5 -155.5t-294.5 -57.5q-115 0 -216.5 32.5t-181.5 95t-126.5 165t-46.5 232.5zM324 1851q-6 26 24 33l129 31q26 6 35 -23q27 -125 162 -125q138 0 162 125q9 29 34 23l129 -31q28 -7 25 -29q-15 -128 -106 -203t-244 -75 t-242.5 73.5t-107.5 200.5z" />
<glyph unicode="&#x11f;" horiz-adv-x="1124" d="M92 455v192q0 117 36.5 203.5t103 136.5t149.5 74t184 24q223 0 410 -79q22 -8 22 -35v-903q0 -235 -109 -356.5t-345 -121.5q-235 0 -400 127q-21 13 -6 41l86 127q17 27 41 9q129 -93 277 -93q119 0 172 62t49 213q-102 -45 -227 -45q-92 0 -171.5 26t-140.5 77 t-96 133.5t-35 187.5zM233 1470q-1 14 6.5 23.5t20.5 11.5l115 17q27 3 33 -25q27 -123 153 -123q127 0 154 123q6 28 35 25l112 -17q32 -4 29 -30q-15 -127 -100.5 -202t-229.5 -75t-228.5 73.5t-99.5 198.5zM332 455q0 -114 61 -164.5t164 -50.5q61 0 118 13.5t85 37.5 v559q-68 22 -191 22q-115 0 -176 -50t-61 -175v-192z" />
<glyph unicode="&#x120;" horiz-adv-x="1337" d="M123 500v467q0 130 45 232t122.5 164t176.5 94t213 32q130 0 259 -36t232 -101q28 -19 11 -43l-103 -142q-14 -22 -41 -8q-162 96 -360 96q-138 0 -222.5 -74.5t-84.5 -219.5v-459q0 -145 91 -219t232 -74q88 0 163 24t124 62v311h-274q-29 0 -29 31v160q0 30 29 30h487 q29 0 29 -30v-576q0 -25 -11 -33q-91 -98 -223.5 -155.5t-294.5 -57.5q-115 0 -216.5 32.5t-181.5 95t-126.5 165t-46.5 232.5zM526 1731q0 60 43.5 102.5t104.5 42.5t103 -42.5t42 -102.5t-42 -103t-103 -43t-104.5 43t-43.5 103z" />
<glyph unicode="&#x121;" horiz-adv-x="1124" d="M92 455v192q0 117 36.5 203.5t103 136.5t149.5 74t184 24q223 0 410 -79q22 -8 22 -35v-903q0 -235 -109 -356.5t-345 -121.5q-235 0 -400 127q-21 13 -6 41l86 127q17 27 41 9q129 -93 277 -93q119 0 172 62t49 213q-102 -45 -227 -45q-92 0 -171.5 26t-140.5 77 t-96 133.5t-35 187.5zM332 455q0 -114 61 -164.5t164 -50.5q61 0 118 13.5t85 37.5v559q-68 22 -191 22q-115 0 -176 -50t-61 -175v-192zM430 1339q0 57 38 94t95 37t94 -37t37 -94q0 -56 -37 -93.5t-94 -37.5t-95 37.5t-38 93.5z" />
<glyph unicode="&#x122;" horiz-adv-x="1337" d="M123 500v467q0 130 45 232t122.5 164t176.5 94t213 32q130 0 259 -36t232 -101q28 -19 11 -43l-103 -142q-14 -22 -41 -8q-162 96 -360 96q-138 0 -222.5 -74.5t-84.5 -219.5v-459q0 -145 91 -219t232 -74q88 0 163 24t124 62v311h-274q-29 0 -29 31v160q0 30 29 30h487 q29 0 29 -30v-576q0 -25 -11 -33q-91 -98 -223.5 -155.5t-294.5 -57.5q-115 0 -216.5 32.5t-181.5 95t-126.5 165t-46.5 232.5zM535 -467l71 297q6 27 35 27h156q15 0 22 -10.5t2 -24.5l-110 -297q-9 -25 -35 -25h-113q-15 0 -23 9.5t-5 23.5z" />
<glyph unicode="&#x123;" horiz-adv-x="1124" d="M92 455v192q0 117 36.5 203.5t103 136.5t149.5 74t184 24q223 0 410 -79q22 -8 22 -35v-903q0 -235 -109 -356.5t-345 -121.5q-235 0 -400 127q-21 13 -6 41l86 127q17 27 41 9q129 -93 277 -93q119 0 172 62t49 213q-102 -45 -227 -45q-92 0 -171.5 26t-140.5 77 t-96 133.5t-35 187.5zM332 455q0 -114 61 -164.5t164 -50.5q61 0 118 13.5t85 37.5v559q-68 22 -191 22q-115 0 -176 -50t-61 -175v-192zM430 1245l121 287q11 24 37 24h110q15 0 22 -9.5t3 -24.5l-80 -287q-6 -25 -33 -25h-157q-15 0 -22 10t-1 25z" />
<glyph unicode="&#x126;" horiz-adv-x="1439" d="M43 1151v100q0 31 31 31h112v152q0 30 31 30h186q31 0 31 -30v-152h572v152q0 30 30 30h187q30 0 30 -30v-152h113q29 0 29 -31v-100q0 -31 -29 -31h-113v-1089q0 -31 -30 -31h-187q-30 0 -30 31v598h-572v-598q0 -31 -31 -31h-186q-31 0 -31 31v1089h-112q-31 0 -31 31z M434 854h572v266h-572v-266z" />
<glyph unicode="&#x127;" horiz-adv-x="1157" d="M-25 1208v92q0 14 8 22.5t21 8.5h127v103q0 30 31 30h178q29 0 29 -30v-103h239q14 0 22.5 -8.5t8.5 -22.5v-92q0 -28 -31 -28h-239v-166q107 35 223 35q96 0 175 -26.5t140.5 -81t96 -145.5t34.5 -212v-553q0 -31 -30 -31h-179q-28 0 -28 31v547q0 142 -58 201t-176 59 q-112 0 -198 -39v-768q0 -31 -29 -31h-178q-31 0 -31 31v1149h-127q-29 0 -29 28z" />
<glyph unicode="&#x12a;" horiz-adv-x="583" d="M20 1659v123q0 30 31 30h484q28 0 28 -30v-123q0 -31 -28 -31h-484q-31 0 -31 31zM168 31v1403q0 30 31 30h186q31 0 31 -30v-1403q0 -31 -31 -31h-186q-31 0 -31 31z" />
<glyph unicode="&#x12b;" horiz-adv-x="495" d="M8 1255v123q0 14 9 22.5t22 8.5h418q28 0 28 -31v-123q0 -28 -28 -28h-418q-31 0 -31 28zM129 31v1001q0 29 31 29h176q31 0 31 -29v-1001q0 -31 -31 -31h-176q-31 0 -31 31z" />
<glyph unicode="&#x12e;" horiz-adv-x="581" d="M74 -233q0 66 33 127.5t94 105.5q-33 0 -33 31v1403q0 30 29 30h188q29 0 29 -30v-1403q0 -31 -25 -31q-51 -31 -82 -77.5t-31 -86.5q0 -53 76 -53q44 0 88 12q31 10 37 -20l25 -113q5 -27 -21 -37q-89 -39 -186 -39q-105 0 -163 48.5t-58 132.5z" />
<glyph unicode="&#x12f;" horiz-adv-x="495" d="M35 -215q0 56 36.5 113.5t96.5 101.5h-10q-29 0 -29 31v1001q0 29 29 29h178q14 0 22.5 -8t8.5 -21v-1001q0 -31 -35 -31q-53 -37 -81 -77.5t-28 -74.5q0 -63 84 -63q40 0 99 16q30 10 36 -18l27 -113q6 -29 -14 -37q-87 -43 -201 -43q-106 0 -162.5 49t-56.5 146z M113 1331q0 58 38.5 95.5t96.5 37.5q59 0 97 -37.5t38 -95.5q0 -57 -38.5 -96t-96.5 -39q-57 0 -96 39t-39 96z" />
<glyph unicode="&#x130;" horiz-adv-x="581" d="M145 1731q0 60 43.5 102.5t104.5 42.5t103 -42.5t42 -102.5t-42 -103t-103 -43t-104.5 43t-43.5 103zM168 31v1403q0 30 29 30h188q29 0 29 -30v-1403q0 -31 -29 -31h-188q-29 0 -29 31z" />
<glyph unicode="&#x131;" horiz-adv-x="495" d="M129 31v1001q0 29 31 29h176q31 0 31 -29v-1001q0 -31 -31 -31h-176q-31 0 -31 31z" />
<glyph unicode="&#x132;" horiz-adv-x="1646" d="M168 31v1403q0 30 29 30h188q29 0 29 -30v-1403q0 -31 -29 -31h-188q-29 0 -29 31zM608 172l84 139q18 24 43 6q76 -53 143 -80.5t148 -27.5q100 0 157.5 72t57.5 219v934q0 30 31 30h188q29 0 29 -30v-936q0 -244 -130 -383.5t-331 -139.5q-121 0 -219 38.5t-195 117.5 q-20 14 -6 41z" />
<glyph unicode="&#x133;" horiz-adv-x="1091" d="M115 1339q0 58 39 96t96 38q58 0 95.5 -37.5t37.5 -96.5q0 -58 -37.5 -96.5t-95.5 -38.5q-57 0 -96 39t-39 96zM129 31v1001q0 13 8.5 21t22.5 8h178q29 0 29 -29v-1001q0 -31 -29 -31h-178q-31 0 -31 31zM489 -223q0 14 9 22t24 8q50 -4 68 -4q70 0 102.5 44t32.5 143 v1042q0 29 29 29h178q14 0 22.5 -8t8.5 -21v-1048q0 -189 -88.5 -293.5t-253.5 -104.5q-57 0 -103 6q-13 1 -21 11t-8 22v152zM711 1337q0 58 38 95.5t95 37.5q59 0 97 -37.5t38 -95.5q0 -57 -38.5 -96t-96.5 -39q-57 0 -95 39t-38 96z" />
<glyph unicode="&#x136;" horiz-adv-x="1275" d="M168 31v1403q0 30 29 30h188q29 0 29 -30v-594l512 606q18 18 37 18h239q20 0 25.5 -11t-6.5 -26l-543 -616l588 -774q11 -15 5 -26t-24 -11h-239q-27 0 -37 18l-455 613l-102 -111v-489q0 -31 -29 -31h-188q-29 0 -29 31zM524 -467l72 297q6 27 35 27h155 q15 0 22.5 -10.5t2.5 -24.5l-111 -297q-9 -25 -34 -25h-113q-15 0 -23.5 9.5t-5.5 23.5z" />
<glyph unicode="&#x137;" horiz-adv-x="1042" d="M131 31v1403q0 30 31 30h176q31 0 31 -30v-779l360 392q12 14 37 14h211q20 0 24 -10.5t-8 -24.5l-395 -420l438 -569q11 -15 6.5 -26t-24.5 -11h-217q-29 0 -39 18l-322 422l-71 -73v-336q0 -31 -31 -31h-176q-31 0 -31 31zM406 -469l71 287q6 26 33 26h145 q15 0 22 -9.5t1 -24.5l-105 -287q-13 -23 -34 -23h-107q-15 0 -22 8.5t-4 22.5z" />
<glyph unicode="&#x139;" horiz-adv-x="1073" d="M168 31v1403q0 30 29 30h190q29 0 29 -30v-1207h602q31 0 31 -28v-168q0 -31 -31 -31h-821q-29 0 -29 31zM172 1603q-6 10 4 27l211 271q13 18 37 18h197q20 0 25 -11.5t-7 -25.5l-256 -272q-14 -17 -37 -17h-149q-19 0 -25 10z" />
<glyph unicode="&#x13a;" horiz-adv-x="620" d="M123 373v1061q0 30 31 30h176q30 0 30 -30v-1053q0 -100 33 -144t103 -44q23 0 77 4q31 0 31 -31v-152q0 -29 -22 -32q-61 -7 -117 -7q-165 0 -253.5 104.5t-88.5 293.5zM127 1603q-6 10 4 27l211 271q13 18 37 18h196q20 0 25.5 -11.5t-6.5 -25.5l-256 -272 q-14 -17 -37 -17h-149q-19 0 -25 10z" />
<glyph unicode="&#x13b;" horiz-adv-x="1073" d="M168 31v1403q0 30 29 30h190q29 0 29 -30v-1207h602q31 0 31 -28v-168q0 -31 -31 -31h-821q-29 0 -29 31zM473 -467l72 297q6 27 35 27h155q15 0 22.5 -10.5t2.5 -24.5l-111 -297q-9 -25 -35 -25h-112q-15 0 -23.5 9.5t-5.5 23.5z" />
<glyph unicode="&#x13c;" horiz-adv-x="620" d="M123 373v1061q0 30 31 30h176q30 0 30 -30v-1053q0 -100 33 -144t103 -44q23 0 77 4q31 0 31 -31v-152q0 -29 -22 -32q-61 -7 -117 -7q-165 0 -253.5 104.5t-88.5 293.5zM238 -469l71 287q6 26 33 26h145q15 0 22 -9.5t1 -24.5l-104 -287q-13 -23 -35 -23h-107 q-15 0 -22 8.5t-4 22.5z" />
<glyph unicode="&#x13d;" horiz-adv-x="1073" d="M168 31v1403q0 30 29 30h190q29 0 29 -30v-1207h602q31 0 31 -28v-168q0 -31 -31 -31h-821q-29 0 -29 31zM582 1128l82 310q6 26 30 26h158q15 0 22 -9.5t3 -24.5l-107 -312q-6 -24 -35 -24h-129q-31 0 -24 34z" />
<glyph unicode="&#x13e;" horiz-adv-x="655" d="M123 373v1061q0 30 31 30h178q28 0 28 -30v-1055q0 -98 33 -142t103 -44q21 0 67 4q33 0 33 -29v-154q0 -29 -23 -32q-61 -7 -108 -7q-165 0 -253.5 104.5t-88.5 293.5zM457 1153l71 285q5 26 33 26h150q15 0 21 -9.5t1 -24.5l-104 -287q-10 -23 -35 -23h-111 q-33 0 -26 33z" />
<glyph unicode="&#x13f;" horiz-adv-x="1073" d="M168 31v1403q0 30 29 30h190q29 0 29 -30v-1207h602q31 0 31 -28v-168q0 -31 -31 -31h-821q-29 0 -29 31zM596 723q0 68 41 109.5t108 41.5q66 0 109 -42t43 -109q0 -65 -43 -107.5t-109 -42.5q-67 0 -108 42.5t-41 107.5z" />
<glyph unicode="&#x140;" horiz-adv-x="690" d="M123 373v1061q0 30 29 30h178q30 0 30 -30v-1055q0 -99 32.5 -142.5t103.5 -43.5q17 0 63 4q33 0 33 -31v-152q0 -29 -25 -32q-58 -7 -102 -7q-165 0 -253.5 104.5t-88.5 293.5zM451 776q0 62 37.5 100.5t99.5 38.5q61 0 98 -38.5t37 -100.5q0 -59 -37 -97t-98 -38 q-62 0 -99.5 38t-37.5 97z" />
<glyph unicode="&#x141;" horiz-adv-x="1132" d="M25 453v153q0 24 20 37l182 117v674q0 30 31 30h186q31 0 31 -30v-514l244 153q13 11 25 5t12 -23v-154q0 -23 -21 -37l-260 -166v-471h602q31 0 31 -28v-168q0 -31 -31 -31h-819q-31 0 -31 31v510l-166 -107q-13 -10 -24.5 -4t-11.5 23z" />
<glyph unicode="&#x142;" horiz-adv-x="747" d="M51 440v152q0 19 19 35l127 88v719q0 30 28 30h178q31 0 31 -30v-555l187 131q13 10 24.5 4t11.5 -23v-151q0 -20 -20 -37l-203 -144v-280q0 -99 32 -142.5t103 -43.5q18 0 64 4q33 0 33 -31v-152q0 -29 -25 -32q-58 -7 -102 -7q-166 0 -254 104.5t-88 293.5v123 l-111 -76q-14 -11 -24.5 -5t-10.5 25z" />
<glyph unicode="&#x143;" horiz-adv-x="1445" d="M168 31v1403q0 30 29 30h206q24 0 37 -20l400 -696q138 -243 204 -371l7 2q-19 276 -19 555v500q0 30 31 30h184q31 0 31 -30v-1403q0 -31 -31 -31h-207q-23 0 -34 20l-388 642q-123 199 -219 403l-6 -2q19 -334 19 -563v-469q0 -31 -29 -31h-186q-29 0 -29 31z M575.5 1603q-5.5 10 4.5 27l211 271q13 18 36 18h197q20 0 25 -11.5t-7 -25.5l-256 -272q-14 -17 -36 -17h-150q-19 0 -24.5 10z" />
<glyph unicode="&#x144;" horiz-adv-x="1150" d="M127 31v938q0 25 23 37q184 79 407 79t349 -111t126 -347v-596q0 -31 -28 -31h-179q-30 0 -30 31v592q0 138 -59 193.5t-179 55.5q-106 0 -192 -22v-819q0 -31 -31 -31h-176q-31 0 -31 31zM413 1221q-6 11 5 26l164 269q11 20 36 20h181q19 0 23.5 -11t-7.5 -26 l-205 -270q-13 -19 -37 -19h-135q-19 0 -25 11z" />
<glyph unicode="&#x145;" horiz-adv-x="1445" d="M168 31v1403q0 30 29 30h206q24 0 37 -20l400 -696q138 -243 204 -371l7 2q-19 276 -19 555v500q0 30 31 30h184q31 0 31 -30v-1403q0 -31 -31 -31h-207q-23 0 -34 20l-388 642q-123 199 -219 403l-6 -2q19 -334 19 -563v-469q0 -31 -29 -31h-186q-29 0 -29 31zM567 -467 l72 297q6 27 35 27h155q15 0 22.5 -10.5t2.5 -24.5l-111 -297q-9 -25 -34 -25h-113q-15 0 -23.5 9.5t-5.5 23.5z" />
<glyph unicode="&#x146;" horiz-adv-x="1150" d="M127 31v938q0 25 23 37q184 79 407 79t349 -111t126 -347v-596q0 -31 -28 -31h-179q-30 0 -30 31v592q0 138 -59 193.5t-179 55.5q-106 0 -192 -22v-819q0 -31 -31 -31h-176q-31 0 -31 31zM426 -469l72 287q6 26 32 26h146q15 0 21.5 -9.5t0.5 -24.5l-104 -287 q-13 -23 -35 -23h-106q-15 0 -22.5 8.5t-4.5 22.5z" />
<glyph unicode="&#x147;" horiz-adv-x="1445" d="M168 31v1403q0 30 29 30h206q24 0 37 -20l400 -696q138 -243 204 -371l7 2q-19 276 -19 555v500q0 30 31 30h184q31 0 31 -30v-1403q0 -31 -31 -31h-207q-23 0 -34 20l-388 642q-123 199 -219 403l-6 -2q19 -334 19 -563v-469q0 -31 -29 -31h-186q-29 0 -29 31z M368 1928.5q4 10.5 23 10.5h168q24 0 37 -16l131 -145l133 145q13 16 37 16h166q20 0 24 -10.5t-8 -25.5l-243 -273q-13 -16 -37 -16h-142q-23 0 -36 16l-244 273q-13 15 -9 25.5z" />
<glyph unicode="&#x148;" horiz-adv-x="1150" d="M127 31v938q0 25 23 37q184 79 407 79t349 -111t126 -347v-596q0 -31 -28 -31h-179q-30 0 -30 31v592q0 138 -59 193.5t-179 55.5q-106 0 -192 -22v-819q0 -31 -31 -31h-176q-31 0 -31 31zM232.5 1544.5q4.5 9.5 23.5 9.5h145q19 0 35 -16l133 -154l129 154q13 16 37 16 h146q39 0 14 -36l-229 -271q-12 -18 -37 -18h-121q-22 0 -37 18l-231 271q-12 17 -7.5 26.5z" />
<glyph unicode="&#x14a;" horiz-adv-x="1445" d="M168 31v1403q0 30 29 30h206q24 0 37 -20l400 -696q138 -243 204 -371l7 2q-19 276 -19 555v500q0 30 31 30h184q31 0 31 -30v-1444q0 -207 -85 -305.5t-255 -98.5q-50 0 -96 6q-27 3 -27 33v154q0 31 33 31q58 -5 59 -5q65 0 96.5 44.5t36.5 134.5l-422 680 q-127 205 -219 401l-6 -2q19 -334 19 -563v-469q0 -31 -29 -31h-186q-29 0 -29 31z" />
<glyph unicode="&#x14b;" horiz-adv-x="1150" d="M127 31v938q0 26 20 35q186 83 410 83q223 0 349 -112t126 -348v-629q0 -209 -83.5 -308.5t-250.5 -99.5q-41 0 -92 7q-28 3 -28 32v150q0 31 30 28q25 -2 60 -2q65 0 96 49t31 150v619q0 138 -59.5 194.5t-178.5 56.5q-111 0 -192 -24v-819q0 -31 -31 -31h-176 q-31 0 -31 31z" />
<glyph unicode="&#x14c;" horiz-adv-x="1388" d="M119 545v377q0 268 151.5 417.5t423.5 149.5t424 -149.5t152 -417.5v-377q0 -269 -152.5 -419.5t-423.5 -150.5t-423 150.5t-152 419.5zM371 545q0 -165 82 -250.5t241 -85.5t241.5 85.5t82.5 250.5v375q0 166 -82 251.5t-242 85.5t-241.5 -85.5t-81.5 -251.5v-375z M373 1651v127q0 28 30 28h582q29 0 29 -28v-127q0 -31 -29 -31h-582q-30 0 -30 31z" />
<glyph unicode="&#x14d;" horiz-adv-x="1122" d="M94 389v275q0 193 127 307t340 114t340 -114t127 -307v-275q0 -190 -127 -302t-340 -112t-340 112t-127 302zM262 1255v123q0 29 31 29h538q29 0 29 -29v-123q0 -30 -29 -30h-538q-31 0 -31 30zM334 389q0 -98 58.5 -149.5t168.5 -51.5q109 0 168 51.5t59 149.5v275 q0 101 -59 154.5t-168 53.5q-110 0 -168.5 -53.5t-58.5 -154.5v-275z" />
<glyph unicode="&#x150;" horiz-adv-x="1388" d="M119 545v377q0 268 151.5 417.5t423.5 149.5t424 -149.5t152 -417.5v-377q0 -269 -152.5 -419.5t-423.5 -150.5t-423 150.5t-152 419.5zM350.5 1603q-4.5 10 5.5 27l199 268q12 21 37 21h186q19 0 24 -11.5t-7 -25.5l-236 -272q-17 -17 -35 -17h-151q-18 0 -22.5 10z M371 545q0 -165 82 -250.5t241 -85.5t241.5 85.5t82.5 250.5v375q0 166 -82 251.5t-242 85.5t-241.5 -85.5t-81.5 -251.5v-375zM758 1604q-4 11 8 26l213 271q12 18 39 18h186q20 0 25.5 -11.5t-6.5 -25.5l-258 -274q-13 -15 -37 -15h-146q-20 0 -24 11z" />
<glyph unicode="&#x151;" horiz-adv-x="1122" d="M94 389v275q0 193 127 307t340 114t340 -114t127 -307v-275q0 -190 -127 -302t-340 -112t-340 112t-127 302zM282.5 1221q-5.5 11 2.5 26l141 266q12 23 35 23h141q17 0 22.5 -12t-3.5 -25l-177 -270q-14 -19 -36 -19h-103q-17 0 -22.5 11zM334 389q0 -98 58.5 -149.5 t168.5 -51.5q109 0 168 51.5t59 149.5v275q0 101 -59 154.5t-168 53.5q-110 0 -168.5 -53.5t-58.5 -154.5v-275zM611.5 1221q-6.5 11 2.5 26l162 269q11 20 35 20h141q18 0 24 -11t-5 -26l-199 -270q-13 -19 -35 -19h-102q-17 0 -23.5 11z" />
<glyph unicode="&#x152;" horiz-adv-x="1980" d="M121 530v412q0 112 30 204t82 155t123.5 106t152 62.5t169.5 19.5q180 0 315 -117v62q0 30 31 30h801q30 0 30 -30v-172q0 -31 -30 -31h-588v-379h537q28 0 28 -31v-170q0 -30 -28 -30h-537v-388h618q29 0 29 -30v-172q0 -31 -29 -31h-831q-31 0 -31 31v57 q-133 -113 -315 -113q-112 0 -210 33t-177 98t-124.5 174t-45.5 250zM375 530q0 -86 25 -151t68.5 -102.5t97.5 -55.5t118 -18q62 0 114.5 18t95 55.5t67 102.5t24.5 151v410q0 88 -24.5 152.5t-67.5 100.5t-95 52.5t-114 16.5q-65 0 -118 -16.5t-97.5 -52.5t-69 -100.5 t-24.5 -152.5v-410z" />
<glyph unicode="&#x153;" horiz-adv-x="1765" d="M94 389v275q0 193 127 308t340 115q214 0 344 -139q61 69 149.5 104t186.5 35q86 0 162.5 -24t140 -73t100.5 -132t37 -192v-207q0 -29 -28 -29h-625v-57q0 -90 58.5 -138.5t158.5 -48.5q153 0 285 97q27 17 43 -9l90 -114q17 -23 -6 -43q-183 -142 -420 -142 q-96 0 -184 34.5t-148 99.5q-125 -134 -344 -134q-213 0 -340 112t-127 302zM334 389q0 -98 58.5 -149.5t168.5 -51.5q109 0 168 51.5t59 149.5v275q0 101 -59 155.5t-168 54.5q-110 0 -168.5 -54.5t-58.5 -155.5v-275zM1028 614h424v54q0 107 -59.5 159t-153.5 52 q-97 0 -154 -51t-57 -160v-54z" />
<glyph unicode="&#x154;" horiz-adv-x="1304" d="M168 31v1403q0 30 29 30h475q252 0 392 -123.5t140 -343.5q0 -168 -89 -280.5t-251 -155.5l375 -524q10 -17 5 -27t-23 -10h-232q-24 0 -35 20l-358 515h-182v-504q0 -31 -29 -31h-188q-29 0 -29 31zM414 756h258q143 0 211.5 58t68.5 181q0 124 -68.5 183t-211.5 59 h-258v-481zM491.5 1603q-5.5 10 4.5 27l211 271q13 18 36 18h197q20 0 25 -11.5t-7 -25.5l-256 -272q-14 -17 -36 -17h-150q-19 0 -24.5 10z" />
<glyph unicode="&#x155;" horiz-adv-x="776" d="M127 31v942q0 26 23 35q157 77 358 77q105 0 209 -16q26 -3 26 -31v-147q0 -14 -8.5 -21t-23.5 -4q-51 8 -166 8q-112 0 -180 -28v-815q0 -31 -31 -31h-176q-31 0 -31 31zM286 1221q-6 11 5 26l164 269q11 20 37 20h180q19 0 23.5 -11t-7.5 -26l-205 -270 q-13 -19 -37 -19h-135q-19 0 -25 11z" />
<glyph unicode="&#x156;" horiz-adv-x="1304" d="M168 31v1403q0 30 29 30h475q252 0 392 -123.5t140 -343.5q0 -168 -89 -280.5t-251 -155.5l375 -524q10 -17 5 -27t-23 -10h-232q-24 0 -35 20l-358 515h-182v-504q0 -31 -29 -31h-188q-29 0 -29 31zM414 756h258q143 0 211.5 58t68.5 181q0 124 -68.5 183t-211.5 59 h-258v-481zM510 -467l72 297q6 27 34 27h156q15 0 22.5 -10.5t2.5 -24.5l-111 -297q-9 -25 -35 -25h-112q-15 0 -23.5 9.5t-5.5 23.5z" />
<glyph unicode="&#x157;" horiz-adv-x="776" d="M106 -469l72 287q6 26 33 26h145q15 0 22 -9.5t1 -24.5l-105 -287q-13 -23 -34 -23h-107q-15 0 -22.5 8.5t-4.5 22.5zM127 31v942q0 26 23 35q157 77 358 77q105 0 209 -16q26 -3 26 -31v-147q0 -14 -8.5 -21t-23.5 -4q-51 8 -166 8q-112 0 -180 -28v-815q0 -31 -31 -31 h-176q-31 0 -31 31z" />
<glyph unicode="&#x158;" horiz-adv-x="1304" d="M168 31v1403q0 30 29 30h475q252 0 392 -123.5t140 -343.5q0 -168 -89 -280.5t-251 -155.5l375 -524q10 -17 5 -27t-23 -10h-232q-24 0 -35 20l-358 515h-182v-504q0 -31 -29 -31h-188q-29 0 -29 31zM282 1908q4 11 23 11h168q24 0 37 -16l131 -146l133 146q13 16 37 16 h166q20 0 24 -11t-8 -26l-243 -272q-14 -17 -37 -17h-142q-22 0 -36 17l-244 272q-13 15 -9 26zM414 756h258q143 0 211.5 58t68.5 181q0 124 -68.5 183t-211.5 59h-258v-481z" />
<glyph unicode="&#x159;" horiz-adv-x="776" d="M111.5 1526q4.5 10 23.5 10h146q18 0 34 -16l134 -154l129 154q13 16 36 16h146q19 0 22.5 -10t-8.5 -27l-229 -270q-13 -19 -37 -19h-121q-21 0 -37 19l-231 270q-12 17 -7.5 27zM127 31v942q0 26 23 35q157 77 358 77q105 0 209 -16q26 -3 26 -31v-147q0 -14 -8.5 -21 t-23.5 -4q-51 8 -166 8q-112 0 -180 -28v-815q0 -31 -31 -31h-176q-31 0 -31 31z" />
<glyph unicode="&#x15a;" horiz-adv-x="1263" d="M96 215l103 143q16 23 41 7q209 -151 395 -156q78 0 143.5 21t109.5 68.5t44 113.5q0 31 -9.5 57t-24.5 44.5t-41.5 35.5t-50.5 28t-63 22t-68 17.5t-75 16.5q-74 16 -135 34.5t-132 55t-119 82t-80 117t-32 159.5q0 104 43.5 183.5t120 128t173.5 72.5t210 24 q131 0 243 -38t238 -124q26 -17 9 -41l-99 -141q-15 -24 -43 -6q-173 112 -366 118q-131 0 -205 -48t-74 -132q0 -38 16.5 -68t40 -49.5t69.5 -37t83 -27.5t103 -25q62 -14 105 -25t102.5 -31.5t99.5 -42.5t84 -57t70.5 -76t43.5 -98t17 -124q0 -111 -45 -197.5 t-123.5 -138.5t-178 -78.5t-214.5 -26.5q-149 0 -271.5 47.5t-251.5 149.5q-20 20 -6 43zM479 1603q-6 10 4 27l211 271q13 18 37 18h197q20 0 25 -11.5t-7 -25.5l-256 -272q-14 -17 -37 -17h-149q-19 0 -25 10z" />
<glyph unicode="&#x15b;" horiz-adv-x="991" d="M70 150l77 133q14 26 41 8q142 -105 310 -105q83 0 136.5 31.5t53.5 87.5q0 29 -15.5 50.5t-46 35t-58.5 21t-70 14.5q-59 11 -103.5 22.5t-107 38.5t-103.5 60.5t-70.5 90.5t-29.5 128q0 82 36.5 145.5t99 100.5t138 56t160.5 19q184 0 356 -94q12 -6 15 -17.5t-4 -23.5 l-78 -131q-16 -22 -41 -10q-126 68 -260 68q-89 0 -138 -30.5t-49 -82.5q0 -25 12 -43.5t28 -30.5t50.5 -23.5t60.5 -17.5t77 -16q43 -8 74.5 -15t74 -20.5t72.5 -29t62 -40t52 -54t33 -71t13 -90.5q0 -165 -120.5 -252.5t-313.5 -87.5q-232 0 -416 134q-25 14 -8 41z M348 1221q-6 11 4 26l164 269q11 20 37 20h180q19 0 24 -11t-7 -26l-205 -270q-13 -19 -37 -19h-135q-19 0 -25 11z" />
<glyph unicode="&#x15e;" horiz-adv-x="1263" d="M96 215l103 143q16 23 41 7q203 -146 395 -152q79 0 144 20t109 66.5t44 112.5q0 31 -9.5 57t-24.5 44.5t-41.5 35.5t-50.5 28t-63 22t-68 17.5t-75 16.5q-74 16 -135 34.5t-132 55t-119 82t-80 117t-32 159.5q0 104 43.5 183.5t120 128t173.5 72.5t210 24q131 0 243 -38 t238 -124q26 -17 9 -41l-99 -141q-15 -24 -43 -6q-173 112 -366 118q-131 0 -205 -48t-74 -132q0 -38 16.5 -68t40 -49.5t69.5 -37t83 -27.5t103 -25q62 -14 105 -25t102.5 -31.5t99.5 -42.5t84 -57t70.5 -76t43.5 -98t17 -124q0 -99 -36 -178.5t-100 -131.5t-146.5 -83 t-180.5 -41l-33 -78q79 -6 127.5 -46.5t48.5 -101.5q0 -90 -72 -138t-194 -48q-64 0 -117 18q-24 6 -24 35v66q0 15 10 21t25 3q45 -10 77 -10q106 0 109 64q0 57 -107 63q-25 0 -36 20q-4 13 4 29l43 98q-134 4 -248.5 52t-233.5 143q-20 20 -6 43z" />
<glyph unicode="&#x15f;" horiz-adv-x="991" d="M70 150l77 133q14 26 41 8q142 -105 310 -105q83 0 136.5 31.5t53.5 87.5q0 29 -15.5 50.5t-46 35t-58.5 21t-70 14.5q-59 11 -103.5 22.5t-107 38.5t-103.5 60.5t-70.5 90.5t-29.5 128q0 82 36.5 145.5t99 100.5t138 56t160.5 19q184 0 356 -94q12 -6 15 -17.5t-4 -23.5 l-78 -131q-16 -22 -41 -10q-126 68 -260 68q-89 0 -138 -30.5t-49 -82.5q0 -25 12 -43.5t28 -30.5t50.5 -23.5t60.5 -17.5t77 -16q43 -8 74.5 -15t74 -20.5t72.5 -29t62 -40t52 -54t33 -71t13 -90.5q0 -148 -96.5 -232.5t-258.5 -102.5q0 -1 -1 -3.5t-1 -3.5l-30 -67 q78 -6 125 -47t47 -105q0 -87 -70.5 -132.5t-189.5 -45.5q-65 0 -117 18q-25 6 -25 35v62q0 15 10 21t25 3q45 -10 78 -10q108 0 108 64q0 57 -102 63q-25 0 -37 21q-4 12 4 28l41 96q-201 16 -360 132q-25 14 -8 41z" />
<glyph unicode="&#x160;" horiz-adv-x="1263" d="M96 215l103 143q16 23 41 7q209 -151 395 -156q78 0 143.5 21t109.5 68.5t44 113.5q0 31 -9.5 57t-24.5 44.5t-41.5 35.5t-50.5 28t-63 22t-68 17.5t-75 16.5q-74 16 -135 34.5t-132 55t-119 82t-80 117t-32 159.5q0 104 43.5 183.5t120 128t173.5 72.5t210 24 q131 0 243 -38t238 -124q26 -17 9 -41l-99 -141q-15 -24 -43 -6q-173 112 -366 118q-131 0 -205 -48t-74 -132q0 -38 16.5 -68t40 -49.5t69.5 -37t83 -27.5t103 -25q62 -14 105 -25t102.5 -31.5t99.5 -42.5t84 -57t70.5 -76t43.5 -98t17 -124q0 -111 -45 -197.5 t-123.5 -138.5t-178 -78.5t-214.5 -26.5q-149 0 -271.5 47.5t-251.5 149.5q-20 20 -6 43zM272 1928.5q4 10.5 23 10.5h168q24 0 37 -16l131 -145l133 145q13 16 37 16h166q20 0 24 -10.5t-8 -25.5l-244 -273q-13 -16 -37 -16h-141q-24 0 -37 16l-243 273q-13 15 -9 25.5z " />
<glyph unicode="&#x161;" horiz-adv-x="991" d="M70 150l77 133q14 26 41 8q142 -105 310 -105q83 0 136.5 31.5t53.5 87.5q0 29 -15.5 50.5t-46 35t-58.5 21t-70 14.5q-59 11 -103.5 22.5t-107 38.5t-103.5 60.5t-70.5 90.5t-29.5 128q0 82 36.5 145.5t99 100.5t138 56t160.5 19q184 0 356 -94q12 -6 15 -17.5t-4 -23.5 l-78 -131q-16 -22 -41 -10q-126 68 -260 68q-89 0 -138 -30.5t-49 -82.5q0 -25 12 -43.5t28 -30.5t50.5 -23.5t60.5 -17.5t77 -16q43 -8 74.5 -15t74 -20.5t72.5 -29t62 -40t52 -54t33 -71t13 -90.5q0 -165 -120.5 -252.5t-313.5 -87.5q-232 0 -416 134q-25 14 -8 41z M158.5 1526q4.5 10 23.5 10h146q18 0 34 -16l134 -154l129 154q13 16 37 16h145q19 0 22.5 -10t-8.5 -27l-229 -270q-13 -19 -37 -19h-121q-21 0 -37 19l-231 270q-12 17 -7.5 27z" />
<glyph unicode="&#x162;" horiz-adv-x="1181" d="M25 1266v168q0 30 30 30h1071q31 0 31 -30v-168q0 -13 -8.5 -21t-22.5 -8h-411v-1206q0 -31 -29 -31h-188q-29 0 -29 31v1206h-414q-30 0 -30 29zM418 -467l71 297q6 27 35 27h156q15 0 22.5 -10.5t2.5 -24.5l-111 -297q-9 -25 -35 -25h-113q-15 0 -23 9.5t-5 23.5z" />
<glyph unicode="&#x163;" horiz-adv-x="681" d="M123 354v936q0 29 31 29h155q12 0 21 -7.5t10 -19.5l18 -245h220q30 0 30 -29v-150q0 -28 -30 -28h-218v-469q0 -85 42 -131.5t120 -46.5q18 0 84 4q33 0 33 -29v-156q0 -29 -29 -32q-88 -5 -108 -5q-82 0 -149.5 21.5t-119.5 66t-81 119t-29 172.5zM219 -469l72 287 q6 26 33 26h145q15 0 22 -9.5t1 -24.5l-105 -287q-13 -23 -35 -23h-106q-15 0 -22.5 8.5t-4.5 22.5z" />
<glyph unicode="&#x164;" horiz-adv-x="1181" d="M25 1266v168q0 30 30 30h1071q31 0 31 -30v-168q0 -13 -8.5 -21t-22.5 -8h-411v-1206q0 -31 -29 -31h-188q-29 0 -29 31v1206h-414q-30 0 -30 29zM233 1908q4 11 23 11h168q24 0 37 -16l131 -146l133 146q13 16 37 16h166q20 0 24 -11t-8 -26l-244 -272q-14 -17 -36 -17 h-142q-23 0 -37 17l-243 272q-13 15 -9 26z" />
<glyph unicode="&#x165;" horiz-adv-x="681" d="M123 354v936q0 29 31 29h155q12 0 21 -7.5t10 -19.5l18 -245h220q30 0 30 -29v-150q0 -28 -30 -28h-218v-469q0 -85 42 -129.5t120 -44.5q18 0 84 4q33 0 33 -29v-156q0 -12 -7.5 -20t-19.5 -10q-52 -6 -110 -6q-82 0 -149.5 21t-119.5 64.5t-81 117t-29 171.5zM459 1219 l69 286q5 27 35 27h144q17 0 23.5 -10t0.5 -25l-106 -287q-10 -24 -35 -24h-107q-15 0 -21 9.5t-3 23.5z" />
<glyph unicode="&#x166;" horiz-adv-x="1198" d="M37 1266v168q0 30 31 30h1062q31 0 31 -30v-168q0 -29 -31 -29h-405v-477h203q28 0 28 -31v-100q0 -31 -28 -31h-203v-567q0 -31 -31 -31h-188q-31 0 -31 31v567h-203q-28 0 -28 31v100q0 31 28 31h203v477h-407q-14 0 -22.5 8t-8.5 21z" />
<glyph unicode="&#x167;" horiz-adv-x="700" d="M35 518v92q0 29 28 29h78v651q0 13 8.5 21t22.5 8h156q12 0 20 -7.5t10 -19.5l19 -245h219q31 0 31 -29v-150q0 -28 -31 -28h-217v-201h133q31 0 31 -29v-92q0 -29 -31 -29h-133v-118q0 -85 42 -129.5t120 -44.5q18 0 84 4q32 0 32 -29v-156q0 -29 -26 -32 q-70 -4 -109 -4q-82 0 -149.5 21t-120.5 64.5t-82 117t-29 171.5v135h-78q-28 0 -28 29z" />
<glyph unicode="&#x16a;" horiz-adv-x="1429" d="M158 510v924q0 30 30 30h191q31 0 31 -30v-910q0 -153 79 -236t224 -83q146 0 226.5 83t80.5 236v910q0 30 31 30h190q31 0 31 -30v-924q0 -243 -152 -389t-407 -146q-252 0 -403.5 146t-151.5 389zM393 1651v127q0 28 31 28h582q28 0 28 -28v-127q0 -31 -28 -31h-582 q-31 0 -31 31z" />
<glyph unicode="&#x16b;" horiz-adv-x="1138" d="M119 436v596q0 29 31 29h178q28 0 28 -29v-592q0 -138 58.5 -195t173.5 -57q113 0 186 25v819q0 29 29 29h178q14 0 22.5 -8t8.5 -21v-938q0 -27 -23 -37q-188 -82 -401 -82q-220 0 -344.5 112.5t-124.5 348.5zM274 1255v123q0 29 31 29h539q28 0 28 -29v-123 q0 -30 -28 -30h-539q-31 0 -31 30z" />
<glyph unicode="&#x16e;" horiz-adv-x="1429" d="M158 510v924q0 30 30 30h191q31 0 31 -30v-910q0 -153 79 -236t224 -83q146 0 226.5 83t80.5 236v910q0 30 31 30h190q31 0 31 -30v-924q0 -243 -152 -389t-407 -146q-252 0 -403.5 146t-151.5 389zM469 1788q0 103 70 167t178 64q104 0 171.5 -64.5t67.5 -168.5 q0 -105 -67 -168.5t-172 -63.5q-109 0 -178.5 64t-69.5 170zM610 1786q0 -44 29 -71t76 -27q46 0 73 27t27 71q0 46 -27 73t-73 27q-47 0 -76 -27t-29 -73z" />
<glyph unicode="&#x16f;" horiz-adv-x="1138" d="M119 436v596q0 29 31 29h178q28 0 28 -29v-592q0 -138 58.5 -195t173.5 -57q113 0 186 25v819q0 29 29 29h178q14 0 22.5 -8t8.5 -21v-938q0 -27 -23 -37q-188 -82 -401 -82q-220 0 -344.5 112.5t-124.5 348.5zM334 1382q0 103 67.5 165.5t173.5 62.5q101 0 165.5 -63.5 t64.5 -166.5q0 -102 -64 -162.5t-166 -60.5q-106 0 -173.5 62t-67.5 163zM471 1380q0 -41 28 -67.5t74 -26.5q44 0 70.5 26t26.5 68q0 46 -26.5 73.5t-70.5 27.5q-46 0 -74 -27.5t-28 -73.5z" />
<glyph unicode="&#x170;" horiz-adv-x="1429" d="M158 510v924q0 30 30 30h191q31 0 31 -30v-910q0 -153 79 -236t224 -83q146 0 226.5 83t80.5 236v910q0 30 31 30h190q31 0 31 -30v-924q0 -243 -152 -389t-407 -146q-252 0 -403.5 146t-151.5 389zM363.5 1603q-4.5 10 5.5 27l198 268q12 21 37 21h187q19 0 23.5 -11.5 t-7.5 -25.5l-236 -272q-17 -17 -34 -17h-152q-17 0 -21.5 10zM770.5 1604q-4.5 11 7.5 26l213 271q12 18 39 18h187q20 0 25 -11.5t-7 -25.5l-258 -274q-13 -15 -37 -15h-145q-20 0 -24.5 11z" />
<glyph unicode="&#x171;" horiz-adv-x="1138" d="M119 436v596q0 29 31 29h178q28 0 28 -29v-592q0 -138 58.5 -195t173.5 -57q113 0 186 25v819q0 29 29 29h178q14 0 22.5 -8t8.5 -21v-938q0 -27 -23 -37q-188 -82 -401 -82q-220 0 -344.5 112.5t-124.5 348.5zM301 1221q-6 11 2 26l141 266q12 23 35 23h142q17 0 22 -12 t-4 -25l-176 -270q-14 -19 -37 -19h-102q-17 0 -23 11zM630 1221q-6 11 3 26l162 269q11 20 34 20h142q18 0 24 -11t-6 -26l-198 -270q-13 -19 -35 -19h-103q-17 0 -23 11z" />
<glyph unicode="&#x172;" horiz-adv-x="1435" d="M158 510v924q0 30 30 30h193q29 0 29 -30v-924q0 -150 87 -223.5t220 -73.5q134 0 221.5 73.5t87.5 223.5v924q0 30 31 30h192q29 0 29 -30v-924q0 -102 -22.5 -182t-63 -133t-78 -83.5t-86.5 -58.5q-213 -117 -213 -213q0 -32 19 -45.5t61 -13.5q47 0 96 14 q29 13 35 -18l27 -109q6 -26 -13 -35q-95 -45 -229 -45q-95 0 -154 44.5t-59 113.5q0 135 150 234v2q-2 0 -14 -1t-17 -1q-90 0 -171.5 19.5t-152.5 61.5t-123 103t-82 149.5t-30 196.5z" />
<glyph unicode="&#x173;" horiz-adv-x="1138" d="M119 395v637q0 29 31 29h178q28 0 28 -29v-639q0 -205 242 -205q107 0 176 29v815q0 29 29 29h178q14 0 22.5 -8t8.5 -21v-940q0 -24 -25 -35q-133 -48 -202.5 -99.5t-69.5 -111.5q0 -33 19.5 -47t64.5 -14q51 0 92 16q31 10 37 -20l33 -115q6 -29 -19 -37 q-79 -39 -186 -39q-113 0 -175.5 48.5t-62.5 132.5q0 117 127 204h-33q-228 0 -360.5 106.5t-132.5 313.5z" />
<glyph unicode="&#x174;" horiz-adv-x="1982" d="M23 1430q-5 15 2 24.5t24 9.5h201q28 0 33 -26l170 -680q40 -158 98 -463h6q50 231 125 498l176 624q6 27 33 27h201q26 0 32 -27l179 -624q63 -223 122 -498h7q45 251 98 463l170 680q5 26 31 26h202q15 0 23 -9.5t4 -24.5l-387 -1403q-6 -27 -33 -27h-215q-27 0 -33 27 l-190 645q-64 219 -107 458h-8q-43 -241 -104 -458l-193 -645q-6 -27 -33 -27h-215q-26 0 -32 27zM632 1604q-4 11 9 26l244 273q13 16 37 16h141q24 0 37 -16l243 -273q12 -15 8 -26t-24 -11h-166q-23 0 -37 17l-133 145l-131 -145q-14 -17 -37 -17h-168q-19 0 -23 11z" />
<glyph unicode="&#x175;" horiz-adv-x="1568" d="M29 1028q-5 14 1 23.5t21 9.5h185q26 0 32 -25l78 -336q7 -30 105 -440h4q32 141 100 406l98 356q6 25 33 25h191q26 0 32 -25l101 -356q51 -198 98 -406h6q16 77 105 440l75 336q6 25 35 25h182q17 0 23.5 -9.5t1.5 -23.5l-289 -1001q-6 -27 -33 -27h-204q-27 0 -33 27 l-115 415q-54 204 -76 318h-8q-27 -128 -78 -318l-112 -415q-6 -27 -33 -27h-205q-27 0 -33 27zM447.5 1220q-4.5 10 7.5 27l231 271q15 18 37 18h121q25 0 37 -18l229 -271q12 -17 8.5 -27t-22.5 -10h-146q-23 0 -37 17l-129 153l-133 -153q-17 -17 -35 -17h-145 q-19 0 -23.5 10z" />
<glyph unicode="&#x176;" horiz-adv-x="1212" d="M8.5 1453q6.5 11 24.5 11h215q25 0 33 -22l325 -674l324 674q8 22 35 22h215q17 0 22.5 -11t-2.5 -26l-469 -890v-506q0 -31 -31 -31h-188q-31 0 -31 31v510l-471 886q-8 15 -1.5 26zM247 1604q-4 11 9 26l244 273q13 16 37 16h141q24 0 37 -16l243 -273q12 -15 8 -26 t-24 -11h-166q-23 0 -37 17l-133 145l-131 -145q-14 -17 -37 -17h-168q-19 0 -23 11z" />
<glyph unicode="&#x177;" horiz-adv-x="1142" d="M119 449v583q0 13 8.5 21t22.5 8h178q28 0 28 -29v-573q0 -111 66 -162t168 -51q105 -3 184 41v745q0 29 31 29h176q31 0 31 -29v-964q0 -239 -112 -358.5t-345 -119.5q-129 0 -225 31t-176 98q-22 17 -7 41l89 125q16 26 38 11q140 -95 279 -95q114 0 171.5 60.5 t51.5 206.5q-122 -37 -219 -37q-82 0 -158.5 26t-140 76t-101.5 132t-38 184zM230.5 1220q-4.5 10 7.5 27l231 271q15 18 37 18h121q25 0 37 -18l229 -271q12 -17 8.5 -27t-22.5 -10h-146q-23 0 -37 17l-129 153l-133 -153q-17 -17 -35 -17h-145q-19 0 -23.5 10z" />
<glyph unicode="&#x178;" horiz-adv-x="1212" d="M8.5 1453q6.5 11 24.5 11h215q25 0 33 -22l325 -674l324 674q8 22 35 22h215q17 0 22.5 -11t-2.5 -26l-469 -890v-506q0 -31 -31 -31h-188q-31 0 -31 31v510l-471 886q-8 15 -1.5 26zM262 1741q0 57 37 94t94 37t94 -37t37 -94t-37 -94t-94 -37t-94 37t-37 94zM688 1741 q0 57 36.5 94t94.5 37t95.5 -37t37.5 -94t-37.5 -94t-95.5 -37t-94.5 37t-36.5 94z" />
<glyph unicode="&#x179;" horiz-adv-x="1241" d="M74 31v116q0 24 10 39l727 1051h-672q-30 0 -30 31v166q0 30 30 30h975q29 0 29 -30v-113q0 -25 -10 -37l-723 -1057h725q28 0 28 -28v-168q0 -31 -28 -31h-1031q-30 0 -30 31zM481 1603q-6 10 4 27l211 271q13 18 37 18h197q20 0 25 -11.5t-7 -25.5l-256 -272 q-14 -17 -37 -17h-149q-19 0 -25 10z" />
<glyph unicode="&#x17a;" horiz-adv-x="983" d="M63 31v88q0 21 13 37l499 696h-450q-31 0 -31 29v151q0 29 31 29h747q31 0 31 -29v-82q0 -24 -12 -39l-502 -700h494q28 0 28 -31v-149q0 -31 -28 -31h-789q-31 0 -31 31zM344 1221q-6 11 4 26l164 269q11 20 37 20h180q19 0 23.5 -11t-7.5 -26l-204 -270 q-13 -19 -37 -19h-135q-19 0 -25 11z" />
<glyph unicode="&#x17b;" horiz-adv-x="1241" d="M74 31v116q0 24 10 39l727 1051h-672q-30 0 -30 31v166q0 30 30 30h975q29 0 29 -30v-113q0 -25 -10 -37l-723 -1057h725q28 0 28 -28v-168q0 -31 -28 -31h-1031q-30 0 -30 31zM473 1731q0 60 43.5 102.5t104.5 42.5t103 -42.5t42 -102.5t-42 -103t-103 -43t-104.5 43 t-43.5 103z" />
<glyph unicode="&#x17c;" horiz-adv-x="983" d="M63 31v88q0 21 13 37l499 696h-450q-31 0 -31 29v151q0 29 31 29h747q31 0 31 -29v-82q0 -24 -12 -39l-502 -700h494q28 0 28 -31v-149q0 -31 -28 -31h-789q-31 0 -31 31zM356 1339q0 57 38 94t95 37t94.5 -37t37.5 -94q0 -56 -37.5 -93.5t-94.5 -37.5t-95 37.5t-38 93.5 z" />
<glyph unicode="&#x17d;" horiz-adv-x="1241" d="M74 31v116q0 24 10 39l727 1051h-672q-30 0 -30 31v166q0 30 30 30h975q29 0 29 -30v-113q0 -25 -10 -37l-723 -1057h725q28 0 28 -28v-168q0 -31 -28 -31h-1031q-30 0 -30 31zM263.5 1928.5q4.5 10.5 23.5 10.5h168q24 0 37 -16l131 -145l133 145q13 16 37 16h165 q20 0 24.5 -10.5t-7.5 -25.5l-244 -273q-13 -16 -37 -16h-141q-24 0 -37 16l-244 273q-13 15 -8.5 25.5z" />
<glyph unicode="&#x17e;" horiz-adv-x="983" d="M63 31v88q0 21 13 37l499 696h-450q-31 0 -31 29v151q0 29 31 29h747q31 0 31 -29v-82q0 -24 -12 -39l-502 -700h494q28 0 28 -31v-149q0 -31 -28 -31h-789q-31 0 -31 31zM171 1544.5q5 9.5 24 9.5h145q19 0 35 -16l133 -154l129 154q13 16 37 16h145q40 0 15 -36 l-230 -271q-12 -18 -37 -18h-121q-21 0 -36 18l-232 271q-12 17 -7 26.5z" />
<glyph unicode="&#x192;" horiz-adv-x="956" d="M-29 -201l33 129q3 12 13.5 18t23.5 3q40 -4 57 -4q51 0 78 33t39 108l100 530h-147q-31 0 -31 31v156q0 28 31 28h184l72 363q11 57 32 105.5t57 93.5t94.5 70.5t133.5 25.5q86 0 170 -23q28 -6 21 -34l-27 -125q-6 -27 -35 -21q-46 8 -77 8q-63 0 -96 -38.5t-46 -112.5 l-59 -312h180q31 0 31 -28v-156q0 -31 -31 -31h-219l-104 -575q-12 -64 -32.5 -114t-56 -95t-95.5 -69.5t-140 -24.5q-70 0 -135 22q-28 10 -19 39z" />
<glyph unicode="&#x218;" horiz-adv-x="1263" d="M96 215l103 143q16 23 41 7q209 -151 395 -156q78 0 143.5 21t109.5 68.5t44 113.5q0 31 -9.5 57t-24.5 44.5t-41.5 35.5t-50.5 28t-63 22t-68 17.5t-75 16.5q-74 16 -135 34.5t-132 55t-119 82t-80 117t-32 159.5q0 104 43.5 183.5t120 128t173.5 72.5t210 24 q131 0 243 -38t238 -124q26 -17 9 -41l-99 -141q-15 -24 -43 -6q-173 112 -366 118q-131 0 -205 -48t-74 -132q0 -38 16.5 -68t40 -49.5t69.5 -37t83 -27.5t103 -25q62 -14 105 -25t102.5 -31.5t99.5 -42.5t84 -57t70.5 -76t43.5 -98t17 -124q0 -111 -45 -197.5 t-123.5 -138.5t-178 -78.5t-214.5 -26.5q-149 0 -271.5 47.5t-251.5 149.5q-20 20 -6 43zM494 -467l71 297q6 27 35 27h156q15 0 22 -10.5t2 -24.5l-110 -297q-9 -25 -35 -25h-113q-15 0 -23 9.5t-5 23.5z" />
<glyph unicode="&#x219;" horiz-adv-x="991" d="M70 150l77 133q14 26 41 8q142 -105 310 -105q83 0 136.5 31.5t53.5 87.5q0 29 -15.5 50.5t-46 35t-58.5 21t-70 14.5q-59 11 -103.5 22.5t-107 38.5t-103.5 60.5t-70.5 90.5t-29.5 128q0 82 36.5 145.5t99 100.5t138 56t160.5 19q184 0 356 -94q12 -6 15 -17.5t-4 -23.5 l-78 -131q-16 -22 -41 -10q-126 68 -260 68q-89 0 -138 -30.5t-49 -82.5q0 -25 12 -43.5t28 -30.5t50.5 -23.5t60.5 -17.5t77 -16q43 -8 74.5 -15t74 -20.5t72.5 -29t62 -40t52 -54t33 -71t13 -90.5q0 -165 -120.5 -252.5t-313.5 -87.5q-232 0 -416 134q-25 14 -8 41z M338 -469l72 287q6 26 32 26h146q15 0 21.5 -9.5t0.5 -24.5l-104 -287q-13 -23 -35 -23h-106q-15 0 -22.5 8.5t-4.5 22.5z" />
<glyph unicode="&#x21a;" horiz-adv-x="1181" d="M25 1266v168q0 30 30 30h1071q31 0 31 -30v-168q0 -13 -8.5 -21t-22.5 -8h-411v-1206q0 -31 -29 -31h-188q-29 0 -29 31v1206h-414q-30 0 -30 29zM418 -467l71 297q6 27 35 27h156q15 0 22.5 -10.5t2.5 -24.5l-111 -297q-9 -25 -35 -25h-113q-15 0 -23 9.5t-5 23.5z" />
<glyph unicode="&#x21b;" horiz-adv-x="681" d="M123 354v936q0 29 31 29h155q12 0 21 -7.5t10 -19.5l18 -245h220q30 0 30 -29v-150q0 -28 -30 -28h-218v-469q0 -85 42 -131.5t120 -46.5q18 0 84 4q33 0 33 -29v-156q0 -29 -29 -32q-88 -5 -108 -5q-82 0 -149.5 21.5t-119.5 66t-81 119t-29 172.5zM233 -469l72 287 q6 26 33 26h145q15 0 22 -9.5t1 -24.5l-105 -287q-13 -23 -34 -23h-107q-15 0 -22.5 8.5t-4.5 22.5z" />
<glyph unicode="&#x2c6;" horiz-adv-x="718" d="M31.5 1220q-4.5 10 7.5 27l231 271q15 18 37 18h121q25 0 37 -18l229 -271q12 -17 8.5 -27t-22.5 -10h-145q-23 0 -37 17l-129 153l-133 -153q-17 -17 -35 -17h-146q-19 0 -23.5 10z" />
<glyph unicode="&#x2c7;" horiz-adv-x="591" d="M31.5 1544.5q4.5 9.5 23.5 9.5h146q19 0 35 -16l133 -154l129 154q13 16 37 16h145q39 0 14 -36l-229 -271q-12 -18 -37 -18h-121q-22 0 -37 18l-231 271q-12 17 -7.5 26.5z" />
<glyph unicode="&#x2d8;" horiz-adv-x="516" d="M2 1470q-1 14 6.5 23.5t20.5 11.5l114 17q27 3 33 -25q27 -123 154 -123q126 0 153 123q6 28 35 25l113 -17q31 -3 28 -30q-15 -127 -100 -202t-229 -75t-228.5 73.5t-99.5 198.5z" />
<glyph unicode="&#x2d9;" horiz-adv-x="249" d="M4 1339q0 57 38 94t95 37t94 -37t37 -94q0 -56 -37 -93.5t-94 -37.5t-95 37.5t-38 93.5z" />
<glyph unicode="&#x2da;" horiz-adv-x="491" d="M-2 1382q0 103 68 165.5t174 62.5q101 0 165 -63.5t64 -166.5t-63.5 -163t-165.5 -60q-106 0 -174 62t-68 163zM135 1380q0 -41 28.5 -67.5t74.5 -26.5q44 0 70 26t26 68q0 46 -26 73.5t-70 27.5q-46 0 -74.5 -27.5t-28.5 -73.5z" />
<glyph unicode="&#x2db;" horiz-adv-x="491" d="M41 -233q0 62 41 121.5t115 101.5q17 10 36 10h107q22 0 23.5 -9t-17.5 -20q-46 -30 -73 -67t-27 -68q0 -53 73 -53q45 0 89 12q30 10 36 -20l25 -113q6 -28 -20 -37q-86 -39 -187 -39q-104 0 -162.5 48t-58.5 133z" />
<glyph unicode="&#x2dc;" horiz-adv-x="733" d="M25 1296q12 30 29 58t40.5 54.5t55.5 42t67 15.5q62 0 154 -53q4 -2 20.5 -10t23 -11t21 -9.5t23 -9t19.5 -5t20 -2.5q22 0 35 14t34 52q13 26 41 14l97 -55q23 -13 16 -33q-23 -66 -75.5 -121t-121.5 -55q-57 0 -153 53q-74 41 -102 46q-8 1 -15 1q-43 0 -78 -65 q-14 -27 -41 -15l-96 55q-24 12 -14 39z" />
<glyph unicode="&#x2dd;" horiz-adv-x="624" d="M2 1221q-6 11 2 26l141 266q11 23 35 23h142q17 0 22 -12t-4 -25l-176 -270q-14 -19 -37 -19h-102q-17 0 -23 11zM331 1221q-6 11 3 26l162 269q11 20 34 20h142q18 0 24 -11t-6 -26l-198 -270q-13 -19 -35 -19h-103q-17 0 -23 11z" />
<glyph unicode="&#x386;" horiz-adv-x="1431" d="M47 1150q-6 11 4 26l164 268q11 20 37 20h180q19 0 24 -11t-7 -26l-205 -270q-12 -18 -37 -18h-135q-19 0 -25 11zM135 35l492 1405q9 24 32 24h234q24 0 33 -24l491 -1405q9 -35 -24 -35h-201q-29 0 -35 25l-100 309h-561l-101 -309q-9 -25 -35 -25h-200q-34 0 -25 35z M565 557h422l-207 637h-8z" />
<glyph unicode="&#x388;" horiz-adv-x="1576" d="M8 1150q-6 11 4 26l164 268q11 20 37 20h180q19 0 24 -11t-7 -26l-205 -270q-12 -18 -37 -18h-135q-19 0 -25 11zM545 31v1403q0 30 28 30h848q31 0 31 -30v-166q0 -29 -31 -29h-628v-383h575q31 0 31 -31v-163q0 -31 -31 -31h-575v-406h657q31 0 31 -28v-166 q0 -31 -31 -31h-877q-28 0 -28 31z" />
<glyph unicode="&#x389;" horiz-adv-x="1767" d="M8 1150q-6 11 4 26l164 268q11 20 37 20h180q19 0 24 -11t-7 -26l-205 -270q-12 -18 -37 -18h-135q-19 0 -25 11zM530 31v1403q0 30 29 30h189q28 0 28 -30v-580h578v580q0 30 28 30h189q28 0 28 -30v-1403q0 -31 -28 -31h-189q-28 0 -28 31v596h-578v-596q0 -31 -28 -31 h-189q-29 0 -29 31z" />
<glyph unicode="&#x38a;" horiz-adv-x="995" d="M8 1150q-6 11 4 26l164 268q11 20 37 20h180q19 0 24 -11t-7 -26l-205 -270q-12 -18 -37 -18h-135q-19 0 -25 11zM582 31v1403q0 30 28 30h189q28 0 28 -30v-1403q0 -31 -28 -31h-189q-28 0 -28 31z" />
<glyph unicode="&#x38c;" horiz-adv-x="1695" d="M12 1150q-6 11 4 26l164 268q11 20 37 20h180q19 0 24 -11t-7 -26l-205 -270q-12 -18 -37 -18h-135q-19 0 -25 11zM426 545v377q0 268 151.5 417.5t423.5 149.5t424 -149.5t152 -417.5v-377q0 -269 -152.5 -419.5t-423.5 -150.5t-423 150.5t-152 419.5zM678 545 q0 -165 82 -250.5t241 -85.5t241.5 85.5t82.5 250.5v375q0 166 -82 251.5t-242 85.5t-241.5 -85.5t-81.5 -251.5v-375z" />
<glyph unicode="&#x38e;" horiz-adv-x="1761" d="M36 1150q-6 11 5 26l164 268q11 20 37 20h180q19 0 23.5 -11t-7.5 -26l-205 -270q-12 -18 -36 -18h-136q-19 0 -25 11zM559.5 1453q6.5 11 24.5 11h215q24 0 32 -22l326 -674l324 674q8 22 35 22h215q17 0 22.5 -11t-2.5 -26l-469 -890v-506q0 -31 -31 -31h-188 q-31 0 -31 31v510l-471 886q-8 15 -1.5 26z" />
<glyph unicode="&#x38f;" horiz-adv-x="1679" d="M18 1150q-6 11 5 26l163 268q11 20 37 20h180q19 0 24 -11t-7 -26l-205 -270q-12 -18 -37 -18h-135q-19 0 -25 11zM336 31v155q0 14 8 22.5t21 8.5h118q-131 147 -131 354v347q0 270 155 420.5t433 150.5q277 0 431.5 -150.5t154.5 -420.5v-347q0 -211 -131 -354h118 q13 0 21 -8.5t8 -22.5v-155q0 -31 -29 -31h-454q-31 0 -31 31v133q0 24 25 33q101 27 159 120t58 244v357q0 167 -84 253t-246 86q-163 0 -247.5 -86t-84.5 -253v-357q0 -151 58 -244t159 -120q25 -9 25 -33v-133q0 -31 -31 -31h-454q-29 0 -29 31z" />
<glyph unicode="&#x390;" horiz-adv-x="495" d="M-100 1356q0 50 31 80t79 30q50 0 79.5 -29.5t29.5 -80.5q0 -50 -29.5 -79.5t-79.5 -29.5q-48 0 -79 30t-31 79zM129 31v1001q0 29 31 29h176q31 0 31 -29v-1001q0 -31 -31 -31h-176q-31 0 -31 31zM145 1243l76 240q6 24 35 24h131q15 0 21.5 -11t-0.5 -26l-115 -239 q-12 -21 -35 -21h-88q-15 0 -22.5 9.5t-2.5 23.5zM428 1356q0 50 30.5 80t78.5 30q50 0 79 -29.5t29 -80.5q0 -50 -29.5 -79.5t-78.5 -29.5q-48 0 -78.5 30t-30.5 79z" />
<glyph unicode="&#x391;" horiz-adv-x="1310" d="M14 35l492 1405q9 24 33 24h233q24 0 33 -24l491 -1405q9 -35 -24 -35h-201q-29 0 -35 25l-100 309h-561l-101 -309q-9 -25 -34 -25h-201q-34 0 -25 35zM444 557h422l-207 637h-8z" />
<glyph unicode="&#x392;" horiz-adv-x="1320" d="M168 31v1403q0 30 29 30h532q207 0 322.5 -105.5t115.5 -295.5q0 -95 -38 -170.5t-107 -116.5q102 -44 155.5 -132t53.5 -206q0 -206 -133 -322t-369 -116h-532q-29 0 -29 31zM414 221h313q117 0 184.5 53t67.5 166q0 101 -63 159t-191 58h-311v-436zM414 872h307 q90 0 143.5 47t53.5 140q0 90 -54 137t-143 47h-307v-371z" />
<glyph unicode="&#x393;" horiz-adv-x="1054" d="M168 31v1403q0 30 29 30h804q31 0 31 -30v-168q0 -29 -31 -29h-587v-1206q0 -31 -29 -31h-188q-29 0 -29 31z" />
<glyph unicode="&#x394;" horiz-adv-x="1323" d="M16 35l488 1405q9 24 35 24h245q26 0 35 -24l488 -1405q9 -35 -25 -35h-1241q-34 0 -25 35zM342 225h639l-195 594l-120 371h-9l-120 -369z" />
<glyph unicode="&#x395;" horiz-adv-x="1200" d="M168 31v1403q0 30 29 30h847q31 0 31 -30v-166q0 -29 -31 -29h-628v-383h575q31 0 31 -31v-163q0 -31 -31 -31h-575v-406h657q31 0 31 -28v-166q0 -31 -31 -31h-876q-29 0 -29 31z" />
<glyph unicode="&#x396;" horiz-adv-x="1241" d="M74 31v116q0 24 10 39l727 1051h-672q-30 0 -30 31v166q0 30 30 30h975q29 0 29 -30v-113q0 -25 -10 -37l-723 -1057h725q28 0 28 -28v-168q0 -31 -28 -31h-1031q-30 0 -30 31z" />
<glyph unicode="&#x397;" horiz-adv-x="1404" d="M168 31v1403q0 30 29 30h188q29 0 29 -30v-580h577v580q0 30 29 30h188q29 0 29 -30v-1403q0 -31 -29 -31h-188q-29 0 -29 31v596h-577v-596q0 -31 -29 -31h-188q-29 0 -29 31z" />
<glyph unicode="&#x398;" horiz-adv-x="1400" d="M119 545v377q0 269 153 418t428 149q274 0 428 -149.5t154 -417.5v-377q0 -268 -154 -419t-428 -151q-275 0 -428 150.5t-153 419.5zM371 545q0 -165 83.5 -250.5t245.5 -85.5t246 85.5t84 250.5v375q0 166 -83.5 251.5t-246.5 85.5t-246 -85.5t-83 -251.5v-375zM457 672 v137q0 31 30 31h426q31 0 31 -31v-137q0 -13 -8.5 -21t-22.5 -8h-426q-30 0 -30 29z" />
<glyph unicode="&#x399;" horiz-adv-x="581" d="M168 31v1403q0 30 29 30h188q29 0 29 -30v-1403q0 -31 -29 -31h-188q-29 0 -29 31z" />
<glyph unicode="&#x39a;" horiz-adv-x="1275" d="M168 31v1403q0 30 29 30h188q29 0 29 -30v-594l512 606q18 18 37 18h239q20 0 25.5 -11t-6.5 -26l-543 -616l588 -774q11 -15 5 -26t-24 -11h-239q-27 0 -37 18l-455 613l-102 -111v-489q0 -31 -29 -31h-188q-29 0 -29 31z" />
<glyph unicode="&#x39b;" horiz-adv-x="1323" d="M16 35l488 1407q9 22 35 22h245q26 0 35 -22l488 -1407q9 -35 -25 -35h-203q-26 0 -32 25l-381 1167h-9l-378 -1167q-9 -25 -35 -25h-203q-34 0 -25 35z" />
<glyph unicode="&#x39c;" horiz-adv-x="1761" d="M168 31v1403q0 30 29 30h223q25 0 33 -22l249 -465q81 -150 175 -361h8q99 221 174 361l248 465q11 22 34 22h222q30 0 30 -30v-1403q0 -31 -30 -31h-187q-28 0 -28 31v411q0 241 16 643l-6 2q-71 -154 -184 -378l-181 -351q-9 -22 -35 -22h-155q-26 0 -35 22l-180 351 q-125 248 -185 378l-6 -2q17 -427 17 -643v-411q0 -31 -31 -31h-186q-29 0 -29 31z" />
<glyph unicode="&#x39d;" horiz-adv-x="1445" d="M168 31v1403q0 30 29 30h206q24 0 37 -20l400 -696q138 -243 204 -371l7 2q-19 276 -19 555v500q0 30 31 30h184q31 0 31 -30v-1403q0 -31 -31 -31h-207q-23 0 -34 20l-388 642q-123 199 -219 403l-6 -2q19 -334 19 -563v-469q0 -31 -29 -31h-186q-29 0 -29 31z" />
<glyph unicode="&#x39e;" horiz-adv-x="1191" d="M94 31v168q0 28 31 28h942q31 0 31 -28v-168q0 -31 -31 -31h-942q-31 0 -31 31zM127 1268v166q0 30 29 30h878q31 0 31 -30v-166q0 -31 -31 -31h-878q-13 0 -21 8.5t-8 22.5zM170 662v161q0 31 31 31h790q31 0 31 -31v-161q0 -31 -31 -31h-790q-31 0 -31 31z" />
<glyph unicode="&#x39f;" horiz-adv-x="1388" d="M119 545v377q0 268 151.5 417.5t423.5 149.5t424 -149.5t152 -417.5v-377q0 -269 -152.5 -419.5t-423.5 -150.5t-423 150.5t-152 419.5zM371 545q0 -165 82 -250.5t241 -85.5t241.5 85.5t82.5 250.5v375q0 166 -82 251.5t-242 85.5t-241.5 -85.5t-81.5 -251.5v-375z" />
<glyph unicode="&#x3a0;" horiz-adv-x="1411" d="M168 31v1403q0 30 29 30h1015q31 0 31 -30v-1403q0 -31 -31 -31h-188q-29 0 -29 31v1206h-579v-1206q0 -31 -29 -31h-190q-29 0 -29 31z" />
<glyph unicode="&#x3a1;" horiz-adv-x="1294" d="M168 31v1403q0 30 29 30h518q242 0 378 -132.5t136 -366.5q0 -237 -135.5 -369.5t-378.5 -132.5h-301v-432q0 -31 -29 -31h-188q-29 0 -29 31zM414 692h272q149 0 220 66.5t71 206.5q0 138 -71 204t-220 66h-272v-543z" />
<glyph unicode="&#x3a3;" horiz-adv-x="1175" d="M80 31v98q0 25 10 37l410 590l-408 557q-12 15 -12 37v84q0 30 29 30h944q30 0 30 -30v-162q0 -31 -30 -31h-613q38 -46 127 -174l203 -289q12 -22 0 -43l-209 -313q-58 -91 -145 -197h637q30 0 30 -28v-166q0 -31 -30 -31h-944q-29 0 -29 31z" />
<glyph unicode="&#x3a4;" horiz-adv-x="1181" d="M25 1266v168q0 30 30 30h1071q31 0 31 -30v-168q0 -13 -8.5 -21t-22.5 -8h-411v-1206q0 -31 -29 -31h-188q-29 0 -29 31v1206h-414q-30 0 -30 29z" />
<glyph unicode="&#x3a5;" horiz-adv-x="1212" d="M8.5 1453q6.5 11 24.5 11h215q25 0 33 -22l325 -674l324 674q8 22 35 22h215q17 0 22.5 -11t-2.5 -26l-469 -890v-506q0 -31 -31 -31h-188q-31 0 -31 31v510l-471 886q-8 15 -1.5 26z" />
<glyph unicode="&#x3a6;" horiz-adv-x="1773" d="M117 596v266q0 114 29.5 207.5t80.5 157.5t121.5 108t150.5 64t169 20h96v135q0 29 29 29h186q31 0 31 -29v-135h96q89 0 169 -20t150.5 -64t121.5 -108t80.5 -157.5t29.5 -207.5v-266q0 -115 -29.5 -209t-80.5 -158.5t-121.5 -109t-150.5 -64.5t-169 -20h-96v-144 q0 -30 -31 -30h-186q-29 0 -29 30v144h-96q-89 0 -169 20t-150.5 64.5t-121.5 109t-80.5 158.5t-29.5 209zM371 592q0 -86 24 -150.5t67.5 -101.5t97.5 -54.5t120 -17.5h84v920h-84q-66 0 -119.5 -16.5t-97.5 -52t-68 -100.5t-24 -155v-272zM1010 268h84q66 0 120 17.5 t97.5 54.5t67.5 101.5t24 150.5v272q0 90 -24 155t-68 100.5t-97.5 52t-119.5 16.5h-84v-920z" />
<glyph unicode="&#x3a7;" horiz-adv-x="1236" d="M33.5 11q-5.5 11 3.5 26l436 696l-412 694q-9 15 -2.5 26t25.5 11h221q22 0 35 -22l278 -514l281 514q13 22 35 22h221q17 0 23.5 -11t-2.5 -26l-412 -694l436 -696q9 -15 4 -26t-22 -11h-230q-24 0 -37 23l-297 520l-296 -520q-13 -23 -37 -23h-228q-18 0 -23.5 11z" />
<glyph unicode="&#x3a8;" horiz-adv-x="1710" d="M111 825v609q0 30 30 30h193q28 0 28 -30v-609q0 -141 87 -210.5t223 -69.5h59v889q0 30 31 30h188q31 0 31 -30v-889h59q136 0 222 69.5t86 210.5v609q0 30 30 30h193q28 0 28 -30v-609q0 -125 -45 -224.5t-120.5 -161t-170 -94t-198.5 -32.5h-84v-282q0 -31 -31 -31 h-188q-31 0 -31 31v282h-84q-104 0 -199 32.5t-171 94t-121 161t-45 224.5z" />
<glyph unicode="&#x3a9;" horiz-adv-x="1480" d="M137 31v155q0 14 8 22.5t21 8.5h119q-131 147 -131 354v347q0 270 154.5 420.5t432.5 150.5q277 0 431.5 -150.5t154.5 -420.5v-347q0 -211 -131 -354h119q28 0 28 -31v-155q0 -31 -28 -31h-455q-31 0 -31 31v133q0 24 25 33q101 27 159 120t58 244v357q0 167 -84 253 t-246 86q-163 0 -247 -86t-84 -253v-357q0 -151 58 -244t159 -120q24 -9 24 -33v-133q0 -31 -30 -31h-455q-29 0 -29 31z" />
<glyph unicode="&#x3aa;" horiz-adv-x="581" d="M-29 1741q0 57 37 94t94 37q56 0 92.5 -37t36.5 -94t-36.5 -94t-92.5 -37q-57 0 -94 37t-37 94zM168 31v1403q0 30 29 30h188q29 0 29 -30v-1403q0 -31 -29 -31h-188q-29 0 -29 31zM350 1741q0 57 36.5 94t94.5 37q57 0 95 -37t38 -94t-38 -94t-95 -37q-58 0 -94.5 37 t-36.5 94z" />
<glyph unicode="&#x3ab;" horiz-adv-x="1212" d="M8.5 1453q6.5 11 24.5 11h215q25 0 33 -22l325 -674l324 674q8 22 35 22h215q17 0 22.5 -11t-2.5 -26l-469 -890v-506q0 -31 -31 -31h-188q-31 0 -31 31v510l-471 886q-8 15 -1.5 26zM262 1741q0 57 37 94t94 37t94 -37t37 -94t-37 -94t-94 -37t-94 37t-37 94zM688 1741 q0 57 36.5 94t94.5 37t95.5 -37t37.5 -94t-37.5 -94t-95.5 -37t-94.5 37t-36.5 94z" />
<glyph unicode="&#x3ac;" horiz-adv-x="1120" d="M92 414v235q0 87 25 159.5t69 123t104 85.5t129 51.5t146 16.5q199 0 406 -71q22 -9 22 -33v-950q0 -31 -28 -31h-140q-12 0 -21.5 7.5t-10.5 19.5l-13 79q-52 -62 -131.5 -96.5t-165.5 -34.5q-80 0 -148.5 25t-124 76t-87 137.5t-31.5 200.5zM332 412 q0 -123 44.5 -174.5t149.5 -51.5q56 0 121.5 29t108.5 80v559q-79 20 -197 20q-98 0 -162.5 -56.5t-64.5 -166.5v-239zM419 1221q-6 11 5 26l164 269q11 20 37 20h180q19 0 23.5 -11t-7.5 -26l-205 -270q-13 -19 -36 -19h-136q-19 0 -25 11z" />
<glyph unicode="&#x3ad;" horiz-adv-x="1009" d="M80 317q0 176 156 242q-123 71 -123 207q0 138 114 228.5t299 90.5q228 0 398 -135q19 -19 2 -43l-86 -110q-16 -26 -43 -6q-119 92 -265 92q-182 0 -182 -127q0 -60 44 -92.5t120 -32.5h176q29 0 29 -31v-113q0 -30 -29 -30h-176q-195 0 -195 -131q0 -144 207 -144 q76 0 153.5 28.5t141.5 80.5q24 18 43 -4l92 -113q16 -23 -2 -41q-103 -92 -205.5 -125t-232.5 -33q-195 0 -315.5 96t-120.5 246zM370 1221q-6 11 5 26l164 269q11 20 36 20h181q19 0 23.5 -11t-7.5 -26l-205 -270q-13 -19 -37 -19h-135q-19 0 -25 11z" />
<glyph unicode="&#x3ae;" horiz-adv-x="1150" d="M127 31v938q0 25 23 37q184 79 407 79t349 -111t126 -347v-596q0 -31 -28 -31h-179q-30 0 -30 31v592q0 138 -59 193.5t-179 55.5q-106 0 -192 -22v-819q0 -31 -31 -31h-176q-31 0 -31 31zM426 1221q-6 11 4 26l164 269q11 20 37 20h180q19 0 23.5 -11t-7.5 -26 l-204 -270q-13 -19 -37 -19h-135q-19 0 -25 11z" />
<glyph unicode="&#x3af;" horiz-adv-x="495" d="M114 1221q-6 11 5 26l164 269q11 20 36 20h181q19 0 23.5 -11t-7.5 -26l-205 -270q-13 -19 -37 -19h-135q-19 0 -25 11zM129 31v1001q0 29 31 29h176q31 0 31 -29v-1001q0 -31 -31 -31h-176q-31 0 -31 31z" />
<glyph unicode="&#x3b0;" horiz-adv-x="1153" d="M121 397v635q0 29 31 29h178q28 0 28 -29v-635q0 -106 61.5 -158.5t158.5 -52.5q96 0 156.5 52t60.5 159v635q0 29 28 29h178q31 0 31 -29v-635q0 -126 -62 -223.5t-164.5 -148t-227.5 -50.5q-194 0 -325.5 116t-131.5 306zM172 1358q0 53 32 84t83 31q52 0 83 -31 t31 -84q0 -52 -31.5 -83.5t-82.5 -31.5q-50 0 -82.5 31.5t-32.5 83.5zM440 1247l92 264q6 25 35 25h146q15 0 21 -11t-1 -24l-133 -268q-9 -21 -35 -21h-100q-17 0 -24 10t-1 25zM750 1358q0 53 32 84t84 31q50 0 81.5 -31t31.5 -84q0 -52 -31.5 -83.5t-81.5 -31.5 q-51 0 -83.5 31.5t-32.5 83.5z" />
<glyph unicode="&#x3b1;" horiz-adv-x="1120" d="M92 414v235q0 87 25 159.5t69 123t104 85.5t129 51.5t146 16.5q199 0 406 -71q22 -9 22 -33v-950q0 -31 -28 -31h-140q-12 0 -21.5 7.5t-10.5 19.5l-13 79q-52 -62 -131.5 -96.5t-165.5 -34.5q-80 0 -148.5 25t-124 76t-87 137.5t-31.5 200.5zM332 412 q0 -123 44.5 -174.5t149.5 -51.5q56 0 121.5 29t108.5 80v559q-79 20 -197 20q-98 0 -162.5 -56.5t-64.5 -166.5v-239z" />
<glyph unicode="&#x3b2;" horiz-adv-x="1120" d="M131 -360v1431q0 102 33.5 183t92.5 131.5t135 77t165 26.5q189 0 309.5 -111.5t120.5 -300.5q0 -182 -168 -307q104 -45 162.5 -135t58.5 -223q0 -208 -123.5 -321t-324.5 -116q-109 -3 -227 29v-364q0 -31 -31 -31h-174q-29 0 -29 31zM365 217q85 -31 192 -31 q125 0 186.5 55t61.5 177q0 115 -59.5 167t-192.5 52h-66q-28 0 -28 31v145q0 29 28 29h68q88 0 143.5 62t55.5 161q0 106 -55.5 158.5t-139.5 52.5q-92 0 -143 -58.5t-51 -148.5v-852z" />
<glyph unicode="&#x3b3;" horiz-adv-x="1050" d="M25 1028q-6 14 0.5 23.5t21.5 9.5h193q27 0 34 -23l121 -364q123 -399 129 -420h4q48 175 129 420l119 364q7 23 35 23h190q17 0 24 -9.5t1 -23.5l-383 -1003v-383q0 -31 -29 -31h-176q-30 0 -30 31v383z" />
<glyph unicode="&#x3b4;" horiz-adv-x="1110" d="M90 377v205q0 116 66.5 205.5t169.5 136.5q-93 58 -138 119.5t-45 140.5q0 131 110.5 218t315.5 87q194 0 355 -88q27 -15 12 -41l-72 -139q-13 -26 -43 -13q-137 70 -262 70q-84 0 -134 -30t-50 -77q0 -33 26.5 -63.5t77 -57.5t101.5 -47.5t122 -44.5 q153 -53 236.5 -149t83.5 -234v-198q0 -98 -40 -177t-106.5 -127t-148.5 -73t-172 -25q-71 0 -138 15.5t-126.5 48t-104 79t-70.5 113.5t-26 146zM330 383q0 -96 65 -145.5t162 -49.5q33 0 63.5 6t60.5 20.5t52 36t35.5 56t13.5 76.5v184q0 89 -63 150.5t-162 75.5 q-100 0 -163.5 -60t-63.5 -158v-192z" />
<glyph unicode="&#x3b5;" horiz-adv-x="1009" d="M80 317q0 176 156 242q-123 71 -123 207q0 138 114 228.5t299 90.5q228 0 398 -135q19 -19 2 -43l-86 -110q-16 -26 -43 -6q-119 92 -265 92q-182 0 -182 -127q0 -60 44 -92.5t120 -32.5h176q29 0 29 -31v-113q0 -30 -29 -30h-176q-195 0 -195 -131q0 -144 207 -144 q76 0 153.5 28.5t141.5 80.5q24 18 43 -4l92 -113q16 -23 -2 -41q-103 -92 -205.5 -125t-232.5 -33q-195 0 -315.5 96t-120.5 246z" />
<glyph unicode="&#x3b6;" horiz-adv-x="976" d="M78 455q0 208 139.5 421t388.5 375v2h-444q-31 0 -31 31v150q0 30 31 30h776q29 0 29 -30v-99q0 -22 -21 -37q-196 -119 -341 -261t-218.5 -280.5t-73.5 -260.5q0 -58 16.5 -104.5t48 -80t66 -56.5t82.5 -44q29 -13 79 -33t81 -33t70 -35t61 -44t37.5 -56.5t15.5 -75.5 q0 -138 -159 -315q-19 -25 -43 -4l-115 90q-21 18 -2 43q88 103 88 156q0 35 -39.5 57t-124.5 51q-149 53 -218 98q-179 118 -179 345z" />
<glyph unicode="&#x3b7;" horiz-adv-x="1150" d="M127 31v938q0 25 23 37q184 79 407 79t349 -111t126 -347v-596q0 -31 -28 -31h-179q-30 0 -30 31v592q0 138 -59 193.5t-179 55.5q-106 0 -192 -22v-819q0 -31 -31 -31h-176q-31 0 -31 31z" />
<glyph unicode="&#x3b8;" horiz-adv-x="1196" d="M119 438v584q0 113 38 203t104 147t152 87t185 30t185.5 -30t152 -87t103.5 -147t38 -203v-584q0 -114 -37.5 -204t-103.5 -145.5t-151.5 -84.5t-186.5 -29q-99 0 -184.5 29t-152 84.5t-104.5 145.5t-38 204zM356 430q0 -122 64.5 -181t175.5 -59q113 0 178.5 59 t65.5 181v211h-484v-211zM356 846h482v178q0 127 -68.5 189.5t-173.5 62.5q-102 0 -171 -63t-69 -189v-178z" />
<glyph unicode="&#x3b9;" horiz-adv-x="495" d="M129 31v1001q0 29 31 29h176q31 0 31 -29v-1001q0 -31 -31 -31h-176q-31 0 -31 31z" />
<glyph unicode="&#x3ba;" horiz-adv-x="1036" d="M129 31v999q0 31 31 31h170q30 0 30 -31v-395l367 409q12 17 37 17h207q20 0 25 -11t-7 -26l-387 -420l426 -567q10 -17 4.5 -27t-24.5 -10h-207q-27 0 -37 18l-320 420l-84 -90v-317q0 -31 -30 -31h-170q-31 0 -31 31z" />
<glyph unicode="&#x3bb;" horiz-adv-x="1153" d="M119 31v544q0 88 23.5 158.5t65 118t99 79.5t122.5 46t140 14q96 0 219 -30v124q0 100 -61.5 145.5t-165.5 45.5q-75 0 -146 -23t-118 -63q-28 -21 -43 4l-86 119q-15 24 4 43q70 64 172.5 98.5t220.5 34.5q92 0 171.5 -23t145 -70.5t103 -130.5t37.5 -194v-1040 q0 -31 -31 -31h-178q-29 0 -29 31v717q-95 32 -209 32q-103 0 -161 -47t-58 -162v-540q0 -31 -28 -31h-178q-31 0 -31 31z" />
<glyph unicode="&#x3bc;" horiz-adv-x="1171" d="M129 -358v1390q0 29 31 29h176q31 0 31 -29v-610q0 -105 59 -171.5t160 -66.5t160 66.5t59 171.5v610q0 29 31 29h176q30 0 30 -29v-1001q0 -31 -30 -31h-129q-27 0 -33 25l-19 84q-31 -60 -98 -97t-147 -37q-74 0 -133.5 31t-96.5 84q6 -87 6 -156v-292q0 -31 -30 -31 h-172q-31 0 -31 31z" />
<glyph unicode="&#x3bd;" horiz-adv-x="1056" d="M27 1028q-6 14 0.5 23.5t21.5 9.5h191q27 0 34 -23l252 -792h4l252 792q7 23 33 23h193q15 0 21 -9.5t1 -23.5l-360 -1003q-9 -25 -35 -25h-215q-26 0 -35 25z" />
<glyph unicode="&#x3be;" horiz-adv-x="960" d="M80 440q0 128 66 215.5t188 124.5q-115 57 -166 136t-51 188q0 171 120.5 278t317.5 107q219 0 387 -129q26 -15 10 -41l-78 -119q-17 -27 -43 -6q-124 84 -276 84q-82 0 -141.5 -46t-59.5 -138q0 -94 73 -152.5t189 -58.5h146q29 0 29 -29v-149q0 -31 -29 -31h-176 q-118 0 -192.5 -64t-74.5 -166q0 -77 49.5 -126.5t139.5 -90.5q30 -14 82.5 -35t86.5 -35t76 -37.5t66.5 -46.5t42 -57.5t17.5 -74.5q0 -142 -158 -320q-18 -27 -43 -6l-115 90q-23 17 -4 43q86 93 86 154q0 21 -21 39t-49 30.5t-78 31.5q-3 1 -5 1.5t-4.5 1.5t-4.5 2 q-48 17 -76.5 28.5t-76 34.5t-77.5 44t-66.5 55t-57 71.5t-35 88.5t-14.5 110z" />
<glyph unicode="&#x3bf;" horiz-adv-x="1122" d="M94 389v275q0 193 127 307t340 114t340 -114t127 -307v-275q0 -190 -127 -302t-340 -112t-340 112t-127 302zM334 389q0 -98 58.5 -149.5t168.5 -51.5q109 0 168 51.5t59 149.5v275q0 101 -59 154.5t-168 53.5q-110 0 -168.5 -53.5t-58.5 -154.5v-275z" />
<glyph unicode="&#x3c0;" horiz-adv-x="1130" d="M129 31v1001q0 13 8.5 21t22.5 8h811q30 0 30 -29v-1001q0 -31 -30 -31h-176q-31 0 -31 31v821h-397v-821q0 -31 -29 -31h-178q-31 0 -31 31z" />
<glyph unicode="&#x3c1;" horiz-adv-x="1130" d="M121 -358v999q0 112 36 198.5t99 139t143 79.5t172 27q91 0 172.5 -26t148 -77.5t105.5 -139t39 -199.5v-262q0 -130 -61.5 -223t-165 -138t-238.5 -45q-100 0 -217 56v-389q0 -31 -28 -31h-174q-31 0 -31 31zM354 252q98 -64 207 -64q108 0 173 50.5t65 154.5v244 q0 126 -62 181.5t-164 55.5q-219 0 -219 -239v-383z" />
<glyph unicode="&#x3c2;" horiz-adv-x="944" d="M92 426v268q0 97 37 174t98.5 123t135.5 70t155 24q225 0 377 -100q22 -16 6 -41l-82 -127q-17 -23 -41 -8q-116 63 -252 63q-81 0 -139.5 -46.5t-58.5 -135.5v-252q0 -42 17 -77.5t40 -59.5t66 -48.5t73 -38t84 -34.5q38 -15 59 -23.5t54 -23.5t52 -27.5t42 -31 t35 -37.5t20.5 -43.5t8.5 -52.5q0 -146 -160 -324q-19 -22 -43 -4l-115 92q-24 21 -2 43q38 39 64 83t26 71q0 11 -4.5 20t-17 18t-22.5 15.5t-33 16t-36 14.5t-44 16q-49 18 -75 28.5t-75 34t-77.5 43.5t-65.5 54t-57.5 70t-35 86.5t-14.5 107.5z" />
<glyph unicode="&#x3c3;" horiz-adv-x="1171" d="M92 401v224q0 201 127 318.5t340 117.5h539q30 0 30 -29v-149q0 -31 -30 -31h-148q76 -95 76 -236v-215q0 -198 -126.5 -312t-340.5 -114t-340.5 114t-126.5 312zM328 403q0 -106 59.5 -159.5t171.5 -53.5t172 53.5t60 159.5v222q0 111 -60 167t-172 56t-171.5 -56 t-59.5 -167v-222z" />
<glyph unicode="&#x3c4;" horiz-adv-x="935" d="M33 883v149q0 29 30 29h809q31 0 31 -29v-149q0 -31 -31 -31h-284v-821q0 -31 -31 -31h-176q-31 0 -31 31v821h-287q-30 0 -30 31z" />
<glyph unicode="&#x3c5;" horiz-adv-x="1153" d="M121 397v635q0 29 31 29h178q28 0 28 -29v-635q0 -106 61.5 -158.5t158.5 -52.5q96 0 156.5 52t60.5 159v635q0 29 28 29h178q31 0 31 -29v-635q0 -126 -62 -223.5t-164.5 -148t-227.5 -50.5q-194 0 -325.5 116t-131.5 306z" />
<glyph unicode="&#x3c6;" horiz-adv-x="1546" d="M94 420v223q0 198 122.5 308t311.5 110h127v373q0 30 29 30h176q29 0 29 -30v-373h145q188 0 303 -109.5t115 -308.5v-223q0 -106 -34 -188.5t-91 -132t-126.5 -74.5t-145.5 -25h-166v-358q0 -31 -29 -31h-176q-29 0 -29 31v358h-147q-84 0 -157 25t-131 74.5t-92 132 t-34 188.5zM328 424q0 -112 52.5 -162.5t168.5 -50.5h106v641h-116q-105 0 -158 -51.5t-53 -163.5v-213zM889 211h106q116 0 169 50.5t53 162.5v213q0 112 -53 163.5t-158 51.5h-117v-641z" />
<glyph unicode="&#x3c7;" horiz-adv-x="1028" d="M37 37l330 495l-312 494q-9 14 -2.5 24.5t23.5 10.5h207q22 0 36 -21l195 -342l195 342q14 21 36 21h207q17 0 23.5 -10.5t-2.5 -24.5l-311 -494l329 -495q19 -37 -18 -37h-217q-26 0 -37 20l-205 349l-205 -349q-11 -20 -37 -20h-215q-39 0 -20 37z" />
<glyph unicode="&#x3c8;" horiz-adv-x="1572" d="M119 436v596q0 29 31 29h176q28 0 28 -29v-590q0 -121 62.5 -175t193.5 -54h60v819q0 29 30 29h172q31 0 31 -29v-819h60q131 0 193.5 54t62.5 175v590q0 29 28 29h176q31 0 31 -29v-596q0 -111 -39.5 -197.5t-105.5 -137t-144.5 -76t-163.5 -25.5h-98v-358 q0 -31 -31 -31h-172q-30 0 -30 31v358h-99q-85 0 -163.5 25.5t-144 76t-105 137t-39.5 197.5z" />
<glyph unicode="&#x3c9;" horiz-adv-x="1581" d="M96 375v307q0 161 93 265t241 138q27 7 37 -22l39 -154q6 -29 -21 -35q-69 -18 -111 -69t-42 -131v-293q0 -92 52.5 -142.5t115.5 -50.5q79 0 126.5 48.5t47.5 144.5v270q0 31 31 31h172q30 0 30 -31v-270q0 -96 47.5 -144.5t126.5 -48.5q63 0 115.5 50.5t52.5 142.5v293 q0 80 -42 131t-111 69q-27 6 -21 35l39 154q3 13 14 19t23 3q148 -34 241 -138t93 -265v-307q0 -96 -36 -174.5t-94 -126.5t-126.5 -73.5t-138.5 -25.5q-203 0 -299 172q-96 -172 -299 -172q-71 0 -140 25.5t-127 73.5t-93.5 126.5t-35.5 174.5z" />
<glyph unicode="&#x3ca;" horiz-adv-x="495" d="M-35 1339q0 54 35 89.5t88 35.5q52 0 86.5 -35.5t34.5 -89.5q0 -53 -34.5 -87.5t-86.5 -34.5q-53 0 -88 35t-35 87zM129 31v1001q0 29 29 29h178q14 0 22.5 -8t8.5 -21v-1001q0 -31 -31 -31h-178q-29 0 -29 31zM283 1339q0 54 34 89.5t86 35.5q54 0 89.5 -35.5 t35.5 -89.5q0 -53 -35.5 -87.5t-89.5 -34.5q-52 0 -86 34.5t-34 87.5z" />
<glyph unicode="&#x3cb;" horiz-adv-x="1153" d="M121 397v635q0 29 31 29h178q28 0 28 -29v-635q0 -106 61.5 -158.5t158.5 -52.5q96 0 156.5 52t60.5 159v635q0 29 28 29h178q31 0 31 -29v-635q0 -126 -62 -223.5t-164.5 -148t-227.5 -50.5q-194 0 -325.5 116t-131.5 306zM242 1337q0 59 36 93t91 34q56 0 90.5 -34 t34.5 -93q0 -58 -34.5 -91.5t-90.5 -33.5q-55 0 -91 34t-36 91zM662 1337q0 59 35 93t91 34q55 0 90 -34t35 -93q0 -57 -35 -91t-90 -34q-56 0 -91 33.5t-35 91.5z" />
<glyph unicode="&#x3cc;" horiz-adv-x="1122" d="M94 389v275q0 193 127 307t340 114t340 -114t127 -307v-275q0 -190 -127 -302t-340 -112t-340 112t-127 302zM334 389q0 -98 58.5 -149.5t168.5 -51.5q109 0 168 51.5t59 149.5v275q0 101 -59 154.5t-168 53.5q-110 0 -168.5 -53.5t-58.5 -154.5v-275zM411 1221 q-6 11 5 26l164 269q11 20 36 20h181q19 0 23.5 -11t-7.5 -26l-205 -270q-13 -19 -37 -19h-135q-19 0 -25 11z" />
<glyph unicode="&#x3cd;" horiz-adv-x="1153" d="M121 397v635q0 29 31 29h178q28 0 28 -29v-635q0 -106 61.5 -158.5t158.5 -52.5q96 0 156.5 52t60.5 159v635q0 29 28 29h178q31 0 31 -29v-635q0 -126 -62 -223.5t-164.5 -148t-227.5 -50.5q-194 0 -325.5 116t-131.5 306zM428 1221q-6 11 4 26l164 269q11 20 37 20h180 q19 0 23.5 -11t-7.5 -26l-204 -270q-13 -19 -37 -19h-135q-19 0 -25 11z" />
<glyph unicode="&#x3ce;" horiz-adv-x="1581" d="M96 375v307q0 161 93 265t241 138q27 7 37 -22l39 -154q6 -29 -21 -35q-69 -18 -111 -69t-42 -131v-293q0 -92 52.5 -142.5t115.5 -50.5q79 0 126.5 48.5t47.5 144.5v270q0 31 31 31h172q30 0 30 -31v-270q0 -96 47.5 -144.5t126.5 -48.5q63 0 115.5 50.5t52.5 142.5v293 q0 80 -42 131t-111 69q-27 6 -21 35l39 154q3 13 14 19t23 3q148 -34 241 -138t93 -265v-307q0 -96 -36 -174.5t-94 -126.5t-126.5 -73.5t-138.5 -25.5q-203 0 -299 172q-96 -172 -299 -172q-71 0 -140 25.5t-127 73.5t-93.5 126.5t-35.5 174.5zM655 1221q-6 11 4 26 l164 269q11 20 37 20h180q19 0 24 -11t-7 -26l-205 -270q-13 -19 -37 -19h-135q-19 0 -25 11z" />
<glyph unicode="&#x401;" horiz-adv-x="1200" d="M168 31v1403q0 30 29 30h847q31 0 31 -30v-166q0 -29 -31 -29h-628v-383h575q31 0 31 -31v-163q0 -31 -31 -31h-575v-406h657q31 0 31 -28v-166q0 -31 -31 -31h-876q-29 0 -29 31zM297 1741q0 57 37 94t94 37t94 -37t37 -94t-37 -94t-94 -37t-94 37t-37 94zM723 1741 q0 57 36.5 94t94.5 37t95.5 -37t37.5 -94t-37.5 -94t-95.5 -37t-94.5 37t-36.5 94z" />
<glyph unicode="&#x402;" horiz-adv-x="1474" d="M25 1268v166q0 30 28 30h1071q31 0 31 -30v-166q0 -29 -31 -29h-411v-221q103 35 223 35q97 0 177 -26.5t142 -81t96.5 -145.5t34.5 -212v-215q0 -189 -90 -293.5t-256 -104.5q-44 0 -98 7q-27 3 -27 32v156q0 14 8 22t21 7q25 -2 66 -2q68 0 99.5 42.5t31.5 139.5v196 q0 142 -57 200.5t-173 58.5q-115 0 -198 -39v-764q0 -31 -31 -31h-184q-31 0 -31 31v1208h-414q-28 0 -28 29z" />
<glyph unicode="&#x403;" horiz-adv-x="1054" d="M168 31v1403q0 30 29 30h804q31 0 31 -30v-168q0 -29 -31 -29h-587v-1206q0 -31 -29 -31h-188q-29 0 -29 31zM421.5 1603q-5.5 10 4.5 27l211 271q13 18 37 18h196q20 0 25.5 -11.5t-6.5 -25.5l-256 -272q-14 -17 -37 -17h-150q-19 0 -24.5 10z" />
<glyph unicode="&#x404;" horiz-adv-x="1220" d="M123 498v467q0 131 45 233t123.5 164.5t178 94.5t214.5 32q242 0 438 -137q22 -16 6 -41l-96 -140q-14 -24 -43 -8q-134 92 -305 92q-149 0 -231 -77.5t-82 -214.5v-123h473q30 0 30 -29v-168q0 -29 -30 -29h-473v-110q0 -140 83 -218.5t232 -78.5q89 0 179 28t161 80 q26 19 41 -8l96 -139q16 -26 -4 -43q-95 -74 -218 -113t-253 -39q-93 0 -176 19.5t-154.5 61.5t-123.5 103t-81.5 148.5t-29.5 192.5z" />
<glyph unicode="&#x405;" horiz-adv-x="1271" d="M100 215l103 143q16 23 41 7q209 -151 395 -156q78 0 143.5 21t109.5 68.5t44 113.5q0 31 -9.5 57t-24.5 44.5t-41.5 35.5t-50.5 28t-63 22t-68 17.5t-75 16.5q-74 16 -135 34.5t-132 55t-119 82t-80 117t-32 159.5q0 104 43.5 183.5t120 128t173.5 72.5t210 24 q131 0 243.5 -38t238.5 -124q26 -16 8 -41l-99 -141q-15 -24 -43 -6q-173 112 -366 118q-131 0 -205 -48t-74 -132q0 -38 16.5 -68t40 -49.5t69.5 -37t83 -27.5t103 -25q62 -14 105 -25t102.5 -31.5t99.5 -42.5t84 -57t70.5 -76t43.5 -98t17 -124q0 -111 -45 -197.5 t-123.5 -138.5t-178 -78.5t-214.5 -26.5q-149 0 -271.5 47.5t-251.5 149.5q-20 20 -6 43z" />
<glyph unicode="&#x406;" horiz-adv-x="581" d="M168 31v1403q0 30 29 30h188q29 0 29 -30v-1403q0 -31 -29 -31h-188q-29 0 -29 31z" />
<glyph unicode="&#x407;" horiz-adv-x="583" d="M-29 1741q0 57 37 94t94 37q56 0 92.5 -37t36.5 -94t-36.5 -94t-92.5 -37q-57 0 -94 37t-37 94zM168 31v1403q0 30 31 30h186q31 0 31 -30v-1403q0 -31 -31 -31h-186q-31 0 -31 31zM352 1741q0 57 36.5 94t94.5 37q57 0 94 -37t37 -94t-37 -94t-94 -37q-58 0 -94.5 37 t-36.5 94z" />
<glyph unicode="&#x408;" horiz-adv-x="1056" d="M16 172l84 139q18 24 43 6q76 -53 143 -80.5t148 -27.5q100 0 157.5 72t57.5 219v934q0 30 31 30h188q29 0 29 -30v-936q0 -244 -130 -383.5t-331 -139.5q-121 0 -218.5 38.5t-194.5 117.5q-20 14 -7 41z" />
<glyph unicode="&#x409;" horiz-adv-x="2052" d="M25 25v170q0 28 28 28q82 3 131 41t78 135q38 117 61 348.5t48 684.5q3 32 30 32h799q31 0 31 -30v-498h246q245 0 379.5 -117t134.5 -350q0 -224 -137 -346.5t-365 -122.5h-477q-31 0 -31 31v1204h-373q-14 -365 -42 -591t-83 -365q-59 -154 -160.5 -219.5t-267.5 -65.5 q-30 0 -30 31zM1231 231h256q248 0 248 238t-258 238h-246v-476z" />
<glyph unicode="&#x40a;" horiz-adv-x="2025" d="M168 31v1403q0 28 29 28h188q31 0 31 -28v-537h542v537q0 28 29 28h189q30 0 30 -28v-535h246q248 0 381 -109t133 -329t-136.5 -340.5t-365.5 -120.5h-477q-29 0 -29 31v637h-542v-637q0 -31 -31 -31h-188q-29 0 -29 31zM1206 229h256q250 0 250 230q0 209 -258 209 h-248v-439z" />
<glyph unicode="&#x40b;" horiz-adv-x="1480" d="M27 1268v166q0 30 28 30h1057q31 0 31 -30v-166q0 -29 -31 -29h-405v-221q107 35 221 35q97 0 177 -26.5t142 -81t96.5 -145.5t34.5 -212v-557q0 -31 -30 -31h-183q-27 0 -30 31v544q0 142 -58 200.5t-174 58.5q-114 0 -196 -37v-766q0 -31 -29 -31h-186q-31 0 -31 31 v1208h-406q-28 0 -28 29z" />
<glyph unicode="&#x40c;" horiz-adv-x="1275" d="M168 31v1403q0 30 29 30h188q29 0 29 -30v-594l512 606q18 18 37 18h239q20 0 25.5 -11t-6.5 -26l-543 -616l588 -774q11 -15 5 -26t-24 -11h-239q-27 0 -37 18l-455 613l-102 -111v-489q0 -31 -29 -31h-188q-29 0 -29 31zM512 1603q-6 10 4 27l211 271q13 18 37 18h197 q20 0 25 -11.5t-7 -25.5l-256 -272q-14 -17 -37 -17h-149q-19 0 -25 10z" />
<glyph unicode="&#x40e;" horiz-adv-x="1165" d="M13.5 1454.5q6.5 9.5 21.5 9.5h209q29 0 37 -24l315 -717l291 717q8 24 35 24h206q16 0 23 -10t0 -24l-610 -1405q-8 -25 -37 -25h-207q-15 0 -21.5 10t0.5 25l195 428l-457 967q-7 15 -0.5 24.5zM233 1851q-6 25 25 33l129 31q26 6 35 -23q27 -125 162 -125 q137 0 161 125q9 29 35 23l129 -31q28 -7 25 -29q-15 -128 -106 -203t-244 -75t-243 73.5t-108 200.5z" />
<glyph unicode="&#x40f;" horiz-adv-x="1404" d="M168 31v1403q0 30 29 30h188q29 0 29 -30v-1207h577v1207q0 30 29 30h188q29 0 29 -30v-1403q0 -31 -29 -31h-387v-248q0 -28 -30 -28h-175q-30 0 -30 28v248h-389q-29 0 -29 31z" />
<glyph unicode="&#x410;" horiz-adv-x="1310" d="M14 35l492 1405q9 24 33 24h233q24 0 33 -24l491 -1405q9 -35 -24 -35h-201q-29 0 -35 25l-100 309h-561l-101 -309q-9 -25 -34 -25h-201q-34 0 -25 35zM444 557h422l-207 637h-8z" />
<glyph unicode="&#x411;" horiz-adv-x="1316" d="M168 31v1403q0 30 29 30h895q30 0 30 -30v-164q0 -14 -8.5 -22.5t-21.5 -8.5h-678v-344h309q263 0 389.5 -105.5t126.5 -334.5q0 -226 -136 -340.5t-370 -114.5h-536q-29 0 -29 31zM414 225h313q128 0 194 53t66 177q0 112 -61.5 164.5t-198.5 52.5h-313v-447z" />
<glyph unicode="&#x412;" horiz-adv-x="1320" d="M168 31v1403q0 30 29 30h532q207 0 322.5 -105.5t115.5 -295.5q0 -95 -38 -170.5t-107 -116.5q102 -44 155.5 -132t53.5 -206q0 -206 -133 -322t-369 -116h-532q-29 0 -29 31zM414 221h313q117 0 184.5 53t67.5 166q0 101 -63 159t-191 58h-311v-436zM414 872h307 q90 0 143.5 47t53.5 140q0 90 -54 137t-143 47h-307v-371z" />
<glyph unicode="&#x413;" horiz-adv-x="1054" d="M168 31v1403q0 30 29 30h804q31 0 31 -30v-168q0 -29 -31 -29h-587v-1206q0 -31 -29 -31h-188q-29 0 -29 31z" />
<glyph unicode="&#x414;" horiz-adv-x="1466" d="M31 199q0 30 30 30h52q72 22 117 128.5t78.5 358.5t62.5 716q3 32 32 32h811q31 0 31 -30v-1205h111q30 0 30 -30v-447q0 -28 -30 -28h-185q-30 0 -30 28v248h-867v-248q0 -28 -28 -28h-185q-30 0 -30 28v447zM449 229h546v1008h-383q-20 -426 -54.5 -658t-108.5 -350z " />
<glyph unicode="&#x415;" horiz-adv-x="1200" d="M168 31v1403q0 30 29 30h847q31 0 31 -30v-166q0 -29 -31 -29h-628v-383h575q31 0 31 -31v-163q0 -31 -31 -31h-575v-406h657q31 0 31 -28v-166q0 -31 -31 -31h-876q-29 0 -29 31z" />
<glyph unicode="&#x416;" horiz-adv-x="1904" d="M11.5 10q-5.5 10 4.5 27l562 778l-510 612q-13 17 -8 27t24 10h231q29 0 39 -18l475 -621v609q0 30 31 30h184q29 0 29 -30v-609l477 621q10 18 37 18h232q20 0 25 -10t-7 -27l-510 -612l561 -778q10 -17 4.5 -27t-24.5 -10h-238q-23 0 -37 20l-422 611l-98 -115v-485 q0 -31 -29 -31h-184q-31 0 -31 31v485l-98 115l-422 -611q-11 -20 -37 -20h-237q-18 0 -23.5 10z" />
<glyph unicode="&#x417;" horiz-adv-x="1234" d="M55 197l97 139q7 12 19 13.5t22 -7.5q155 -135 395 -135q130 0 210.5 62.5t80.5 168.5q0 97 -78.5 153t-239.5 56h-176q-13 0 -21 8.5t-8 22.5v156q0 30 29 30h174q137 0 210 57t73 146q0 84 -67 138.5t-193 54.5q-214 0 -359 -117q-24 -21 -43 4l-94 135q-16 22 6 41 q185 166 490 166q119 0 217.5 -34t162 -91t98.5 -131.5t34 -157.5q-2 -98 -50.5 -179.5t-134.5 -117.5q105 -43 165.5 -135t60.5 -209q0 -147 -73 -252.5t-194.5 -156t-277.5 -50.5q-326 0 -531 179q-19 19 -4 43z" />
<glyph unicode="&#x418;" horiz-adv-x="1445" d="M168 31v1403q0 30 31 30h184q31 0 31 -30v-500q0 -280 -19 -555l6 -2q57 110 205 371l400 696q13 20 36 20h207q29 0 29 -30v-1403q0 -31 -29 -31h-186q-29 0 -29 31v469q0 229 19 563l-6 2q-93 -198 -220 -403l-387 -642q-11 -20 -34 -20h-207q-31 0 -31 31z" />
<glyph unicode="&#x419;" horiz-adv-x="1445" d="M168 31q0 -31 31 -31h207q23 0 34 20l387 642q127 205 220 403l6 -2q-19 -334 -19 -563v-469q0 -31 29 -31h186q29 0 29 31v1403q0 30 -29 30h-207q-23 0 -36 -20l-400 -696q-148 -261 -205 -371l-6 2q19 275 19 555v500q0 30 -31 30h-184q-31 0 -31 -30v-1403zM389 1851 q-6 25 25 33l129 31q26 6 35 -23q27 -125 161 -125q138 0 162 125q9 29 35 23l129 -31q28 -7 25 -29q-15 -128 -106.5 -203t-244.5 -75t-242.5 73.5t-107.5 200.5z" />
<glyph unicode="&#x41a;" horiz-adv-x="1275" d="M168 31v1403q0 30 29 30h188q29 0 29 -30v-594l512 606q18 18 37 18h239q20 0 25.5 -11t-6.5 -26l-543 -616l588 -774q11 -15 5 -26t-24 -11h-239q-27 0 -37 18l-455 613l-102 -111v-489q0 -31 -29 -31h-188q-29 0 -29 31z" />
<glyph unicode="&#x41b;" horiz-adv-x="1404" d="M29 23v170q0 30 28 30q91 6 136 68.5t77 230.5q47 249 70 912q0 30 31 30h837q29 0 29 -30v-1403q0 -31 -29 -31h-188q-29 0 -29 31v1204h-413q-20 -496 -76 -776q-50 -250 -152 -354.5t-291 -110.5q-30 0 -30 29z" />
<glyph unicode="&#x41c;" horiz-adv-x="1761" d="M168 31v1403q0 30 29 30h223q25 0 33 -22l249 -465q81 -150 175 -361h8q99 221 174 361l248 465q11 22 34 22h222q30 0 30 -30v-1403q0 -31 -30 -31h-187q-28 0 -28 31v411q0 241 16 643l-6 2q-71 -154 -184 -378l-181 -351q-9 -22 -35 -22h-155q-26 0 -35 22l-180 351 q-125 248 -185 378l-6 -2q17 -427 17 -643v-411q0 -31 -31 -31h-186q-29 0 -29 31z" />
<glyph unicode="&#x41d;" horiz-adv-x="1404" d="M168 31v1403q0 30 29 30h188q29 0 29 -30v-580h577v580q0 30 29 30h188q29 0 29 -30v-1403q0 -31 -29 -31h-188q-29 0 -29 31v596h-577v-596q0 -31 -29 -31h-188q-29 0 -29 31z" />
<glyph unicode="&#x41e;" horiz-adv-x="1388" d="M119 545v377q0 268 151.5 417.5t423.5 149.5t424 -149.5t152 -417.5v-377q0 -269 -152.5 -419.5t-423.5 -150.5t-423 150.5t-152 419.5zM371 545q0 -165 82 -250.5t241 -85.5t241.5 85.5t82.5 250.5v375q0 166 -82 251.5t-242 85.5t-241.5 -85.5t-81.5 -251.5v-375z" />
<glyph unicode="&#x41f;" horiz-adv-x="1411" d="M168 31v1403q0 30 29 30h1015q31 0 31 -30v-1403q0 -31 -31 -31h-188q-29 0 -29 31v1206h-579v-1206q0 -31 -29 -31h-190q-29 0 -29 31z" />
<glyph unicode="&#x420;" horiz-adv-x="1294" d="M168 31v1403q0 30 29 30h518q242 0 378 -132.5t136 -366.5q0 -237 -135.5 -369.5t-378.5 -132.5h-301v-432q0 -31 -29 -31h-188q-29 0 -29 31zM414 692h272q149 0 220 66.5t71 206.5q0 138 -71 204t-220 66h-272v-543z" />
<glyph unicode="&#x421;" horiz-adv-x="1214" d="M123 498v467q0 131 45 233t123.5 164.5t178 94.5t214.5 32q242 0 438 -137q22 -16 6 -41l-96 -140q-14 -24 -43 -8q-134 92 -305 92q-149 0 -231 -77.5t-82 -214.5v-459q0 -140 83 -217.5t232 -77.5q90 0 180 27.5t160 78.5q26 19 41 -8l96 -139q16 -26 -4 -43 q-95 -74 -218 -112t-253 -38q-117 0 -217.5 32t-179 94t-123.5 164t-45 233z" />
<glyph unicode="&#x422;" horiz-adv-x="1181" d="M25 1266v168q0 30 30 30h1071q31 0 31 -30v-168q0 -13 -8.5 -21t-22.5 -8h-411v-1206q0 -31 -29 -31h-188q-29 0 -29 31v1206h-414q-30 0 -30 29z" />
<glyph unicode="&#x423;" horiz-adv-x="1165" d="M13.5 1454.5q6.5 9.5 21.5 9.5h209q29 0 37 -24l315 -717l291 717q8 24 35 24h206q16 0 23 -10t0 -24l-610 -1405q-8 -25 -37 -25h-207q-15 0 -21.5 10t0.5 25l195 428l-457 967q-7 15 -0.5 24.5z" />
<glyph unicode="&#x424;" horiz-adv-x="1773" d="M117 596v266q0 114 29.5 207.5t80.5 157.5t121.5 108t150.5 64t169 20h96v135q0 29 29 29h186q31 0 31 -29v-135h96q89 0 169 -20t150.5 -64t121.5 -108t80.5 -157.5t29.5 -207.5v-266q0 -115 -29.5 -209t-80.5 -158.5t-121.5 -109t-150.5 -64.5t-169 -20h-96v-144 q0 -30 -31 -30h-186q-29 0 -29 30v144h-96q-89 0 -169 20t-150.5 64.5t-121.5 109t-80.5 158.5t-29.5 209zM371 592q0 -86 24 -150.5t67.5 -101.5t97.5 -54.5t120 -17.5h84v920h-84q-66 0 -119.5 -16.5t-97.5 -52t-68 -100.5t-24 -155v-272zM1010 268h84q66 0 120 17.5 t97.5 54.5t67.5 101.5t24 150.5v272q0 90 -24 155t-68 100.5t-97.5 52t-119.5 16.5h-84v-920z" />
<glyph unicode="&#x425;" horiz-adv-x="1236" d="M33.5 11q-5.5 11 3.5 26l436 696l-412 694q-9 15 -2.5 26t25.5 11h221q22 0 35 -22l278 -514l281 514q13 22 35 22h221q17 0 23.5 -11t-2.5 -26l-412 -694l436 -696q9 -15 4 -26t-22 -11h-230q-24 0 -37 23l-297 520l-296 -520q-13 -23 -37 -23h-228q-18 0 -23.5 11z" />
<glyph unicode="&#x426;" horiz-adv-x="1447" d="M168 31v1403q0 30 29 30h188q29 0 29 -30v-1205h565v1205q0 30 31 30h186q31 0 31 -30v-1205h112q29 0 29 -28v-439q0 -30 -29 -30h-176q-30 0 -30 30v238h-936q-29 0 -29 31z" />
<glyph unicode="&#x427;" horiz-adv-x="1312" d="M98 987v447q0 30 29 30h190q31 0 31 -30v-437q0 -143 79 -210.5t202 -67.5q145 0 268 72v643q0 30 29 30h188q31 0 31 -30v-1403q0 -31 -31 -31h-188q-29 0 -29 31v522q-144 -64 -293 -64q-108 0 -198 29.5t-160 88.5t-109 156t-39 224z" />
<glyph unicode="&#x428;" horiz-adv-x="1959" d="M168 31v1403q0 30 29 30h188q31 0 31 -30v-1205h440v1205q0 30 31 30h186q31 0 31 -30v-1205h440v1205q0 30 31 30h186q31 0 31 -30v-1403q0 -31 -31 -31h-1564q-29 0 -29 31z" />
<glyph unicode="&#x429;" horiz-adv-x="2011" d="M168 31v1403q0 30 29 30h188q31 0 31 -30v-1205h438v1205q0 30 31 30h188q29 0 29 -30v-1205h438v1205q0 30 31 30h188q31 0 31 -30v-1205h111q30 0 30 -28v-439q0 -30 -30 -30h-175q-30 0 -30 30v238h-1499q-29 0 -29 31z" />
<glyph unicode="&#x42a;" horiz-adv-x="1445" d="M35 1264v170q0 30 28 30h490q29 0 29 -30v-476h284q245 0 381.5 -119.5t136.5 -355.5q0 -231 -137.5 -357t-367.5 -126h-517q-28 0 -28 31v1202h-271q-28 0 -28 31zM582 231h295q251 0 251 252q0 244 -262 244h-284v-496z" />
<glyph unicode="&#x42b;" horiz-adv-x="1828" d="M168 31v1403q0 30 29 30h190q29 0 29 -30v-476h284q244 0 381.5 -126.5t137.5 -350.5q0 -226 -134 -353.5t-372 -127.5h-516q-29 0 -29 31zM416 231h295q129 0 190.5 61.5t61.5 188.5q0 125 -61.5 185.5t-190.5 60.5h-295v-496zM1413 31v1403q0 30 29 30h188q31 0 31 -30 v-1403q0 -31 -31 -31h-188q-29 0 -29 31z" />
<glyph unicode="&#x42c;" horiz-adv-x="1280" d="M168 31v1403q0 30 29 30h190q29 0 29 -30v-476h284q244 0 381.5 -125t137.5 -348q0 -227 -134 -356t-372 -129h-516q-29 0 -29 31zM416 231h295q129 0 190.5 62.5t61.5 191.5q0 123 -61.5 182.5t-190.5 59.5h-295v-496z" />
<glyph unicode="&#x42d;" horiz-adv-x="1220" d="M57 168l97 139q15 27 41 8q71 -52 161 -80t179 -28q149 0 232 78.5t83 218.5v110h-473q-31 0 -31 29v168q0 29 31 29h473v123q0 137 -82 214.5t-231 77.5q-172 0 -306 -92q-29 -16 -43 8l-96 140q-16 25 6 41q93 65 207 101t232 36q115 0 214.5 -32t178 -94.5 t123.5 -164.5t45 -233v-467q0 -105 -29.5 -192.5t-81.5 -148.5t-124 -103t-155 -61.5t-176 -19.5q-130 0 -253 39t-218 113q-20 17 -4 43z" />
<glyph unicode="&#x42e;" horiz-adv-x="1873" d="M168 31v1403q0 30 29 30h186q31 0 31 -30v-568h235l2 97q0 132 45 235t122.5 165.5t175 94t208.5 31.5t208.5 -31.5t175 -94t122.5 -165.5t45 -235v-459q0 -132 -45 -235.5t-122.5 -166.5t-175 -95t-208.5 -32t-208.5 32.5t-175 95.5t-122.5 167t-45 236l-2 131h-235 v-606q0 -31 -31 -31h-186q-29 0 -29 31zM903 506q0 -148 84.5 -222.5t214.5 -74.5q128 0 212.5 74.5t84.5 222.5v455q0 79 -23.5 137.5t-66 92t-94 49t-113.5 15.5q-63 0 -115 -15.5t-94 -49t-66 -92t-24 -137.5v-455z" />
<glyph unicode="&#x42f;" horiz-adv-x="1339" d="M56 10q-6 10 5 27l373 518q-152 40 -237.5 154t-85.5 282q0 223 135.5 348t378.5 125h516q30 0 30 -30v-1403q0 -31 -30 -31h-187q-30 0 -30 31v497h-226l-344 -508q-11 -20 -37 -20h-237q-18 0 -24 10zM362 987q0 -115 68 -175t199 -60h295v481h-295q-131 0 -199 -62.5 t-68 -183.5z" />
<glyph unicode="&#x430;" horiz-adv-x="1064" d="M57 317q0 162 122 245t327 83q83 0 205 -16v39q0 110 -46 158t-159 48q-152 0 -262 -65q-25 -18 -41 8l-82 125q-15 23 0 35q156 108 401 108q199 0 312.5 -103t113.5 -312v-598q0 -26 -22 -35q-199 -62 -412 -62q-74 0 -139 11t-124.5 36t-101.5 63.5t-67 97.5t-25 134z M297 319q0 -69 59 -103t158 -34q91 0 197 25v231q-117 17 -199 17q-215 0 -215 -136z" />
<glyph unicode="&#x431;" horiz-adv-x="1124" d="M121 410v618q0 80 25.5 148t66.5 115t97 84t112.5 58t116.5 33q3 0 51.5 8.5t69 12.5t61.5 13t71.5 19.5t55.5 22.5q29 13 41 -10l76 -129q13 -29 -11 -41q-26 -15 -57.5 -27.5t-72 -23.5t-66.5 -18t-74 -17.5t-61 -13.5q-45 -11 -77 -21.5t-70.5 -30t-62 -43.5 t-39.5 -62t-16 -85v-62q106 52 238 52q195 0 315.5 -109.5t120.5 -310.5v-182q0 -110 -38 -195t-103 -136t-146 -76.5t-174 -25.5q-71 0 -136 15.5t-123 50t-100 84.5t-66.5 123t-24.5 162zM358 408q0 -112 59.5 -166t151.5 -54q96 0 159 53.5t63 164.5v180q0 108 -55 164.5 t-163 56.5q-122 0 -215 -49v-350z" />
<glyph unicode="&#x432;" horiz-adv-x="1087" d="M129 31v1001q0 29 31 29h428q176 0 279.5 -78.5t103.5 -206.5q0 -141 -125 -215q86 -37 124 -101t38 -159q0 -134 -115 -217.5t-305 -83.5h-428q-31 0 -31 31zM367 188h211q190 0 190 138q0 131 -190 131h-211v-269zM367 631h211q72 0 113.5 32t41.5 91q0 118 -158 118 h-208v-241z" />
<glyph unicode="&#x433;" horiz-adv-x="849" d="M129 29v1003q0 29 31 29h628q29 0 29 -29v-151q0 -29 -29 -29h-421v-823q0 -31 -31 -31h-176q-31 0 -31 31z" />
<glyph unicode="&#x434;" horiz-adv-x="1218" d="M37 180q0 29 29 29h45q45 32 74 106.5t54 244t48 472.5q3 29 30 29h680q31 0 31 -29v-823h105q30 0 30 -31v-426q0 -28 -30 -28h-166q-31 0 -31 28v248h-674v-248q0 -28 -31 -28h-165q-29 0 -29 28v428zM367 209h426v643h-285q-20 -254 -52 -411t-89 -232z" />
<glyph unicode="&#x435;" horiz-adv-x="1073" d="M96 375v291q0 87 25.5 158.5t68.5 119t101.5 80t122 47t133.5 14.5q69 0 132 -14.5t120 -46.5t99 -80t66.5 -119t24.5 -159v-207q0 -29 -31 -29h-622v-57q0 -92 58 -140.5t159 -48.5q87 0 154.5 25t134.5 70q24 17 41 -7l84 -112q20 -23 -6 -43q-180 -142 -416 -142 q-89 0 -168 25t-142.5 72.5t-101 125.5t-37.5 177zM336 614h422v54q0 106 -59 157.5t-152 51.5q-97 0 -154 -50.5t-57 -158.5v-54z" />
<glyph unicode="&#x436;" horiz-adv-x="1517" d="M27 37l370 569l-331 420q-11 14 -6.5 24.5t22.5 10.5h211q24 0 37 -19l162 -219q92 -126 151 -213v422q0 13 8.5 21t22.5 8h170q30 0 30 -29v-422q45 66 152 213l162 219q13 19 37 19h211q18 0 22.5 -10.5t-6.5 -24.5l-332 -420l371 -569q19 -37 -21 -37h-208 q-27 0 -37 20l-258 424l-93 -108v-305q0 -31 -30 -31h-170q-31 0 -31 31v305l-92 108l-258 -424q-10 -20 -37 -20h-209q-39 0 -20 37z" />
<glyph unicode="&#x437;" horiz-adv-x="1005" d="M49 174l92 113q19 22 43 4q64 -52 141.5 -80.5t153.5 -28.5q207 0 207 144q0 69 -49.5 100t-147.5 31h-174q-28 0 -28 30v113q0 31 28 31h174q77 0 121.5 32.5t44.5 92.5q0 64 -48 96.5t-134 32.5q-142 0 -264 -94q-27 -20 -43 6l-86 110q-19 22 2 43q172 137 397 137 q183 0 297.5 -91t114.5 -230q0 -137 -121 -207q156 -66 156 -242q0 -150 -121.5 -246t-315.5 -96q-130 0 -233.5 33t-204.5 125q-18 18 -2 41z" />
<glyph unicode="&#x438;" horiz-adv-x="1163" d="M129 31v1001q0 29 31 29h174q31 0 31 -29v-418q0 -81 -5 -276h2q20 44 90 170t105 184l205 350q16 19 37 19h205q30 0 30 -29v-1001q0 -31 -30 -31h-175q-30 0 -30 31v411q0 121 4 269h-2q-38 -87 -193 -346l-209 -345q-11 -20 -37 -20h-202q-31 0 -31 31z" />
<glyph unicode="&#x439;" horiz-adv-x="1163" d="M129 31v1001q0 29 31 29h174q31 0 31 -29v-418q0 -81 -5 -276h2q20 44 90 170t105 184l205 350q16 19 37 19h205q30 0 30 -29v-1001q0 -31 -30 -31h-175q-30 0 -30 31v411q0 121 4 269h-2q-38 -87 -193 -346l-209 -345q-11 -20 -37 -20h-202q-31 0 -31 31zM244 1470 q-3 31 26 35l115 17q27 3 33 -25q27 -123 153 -123q127 0 154 123q6 28 35 25l112 -17q32 -4 29 -30q-15 -127 -100.5 -202t-229.5 -75t-228 73.5t-99 198.5z" />
<glyph unicode="&#x43a;" horiz-adv-x="1036" d="M129 31v999q0 31 31 31h170q30 0 30 -31v-395l367 409q12 17 37 17h207q20 0 25 -11t-7 -26l-387 -420l426 -567q10 -17 4.5 -27t-24.5 -10h-207q-27 0 -37 18l-320 420l-84 -90v-317q0 -31 -30 -31h-170q-31 0 -31 31z" />
<glyph unicode="&#x43b;" horiz-adv-x="1144" d="M29 20v150q0 27 28 33q59 5 92.5 49t57.5 162q35 212 51 618q3 29 31 29h696q31 0 31 -29v-1001q0 -31 -31 -31h-176q-31 0 -31 31v821h-299q-11 -287 -49 -504q-39 -195 -119.5 -273.5t-253.5 -84.5q-28 0 -28 30z" />
<glyph unicode="&#x43c;" horiz-adv-x="1380" d="M129 31v1001q0 29 31 29h198q26 0 35 -21l295 -583h4l295 583q9 21 35 21h199q30 0 30 -29v-1001q0 -31 -30 -31h-174q-29 0 -29 31v362q0 111 4 307h-2q-73 -166 -109 -237l-133 -264q-9 -21 -35 -21h-106q-26 0 -35 21l-133 264q-52 106 -109 237h-2q0 -19 3.5 -133.5 t3.5 -173.5v-362q0 -31 -31 -31h-174q-31 0 -31 31z" />
<glyph unicode="&#x43d;" horiz-adv-x="1130" d="M129 31v1001q0 29 31 29h176q31 0 31 -29v-377h397v377q0 29 31 29h176q30 0 30 -29v-1001q0 -31 -30 -31h-176q-31 0 -31 31v413h-397v-413q0 -31 -31 -31h-176q-31 0 -31 31z" />
<glyph unicode="&#x43e;" horiz-adv-x="1122" d="M94 389v275q0 193 127 307t340 114t340 -114t127 -307v-275q0 -190 -127 -302t-340 -112t-340 112t-127 302zM334 389q0 -98 58.5 -149.5t168.5 -51.5q109 0 168 51.5t59 149.5v275q0 101 -59 154.5t-168 53.5q-110 0 -168.5 -53.5t-58.5 -154.5v-275z" />
<glyph unicode="&#x43f;" horiz-adv-x="1130" d="M129 31v1001q0 13 8.5 21t22.5 8h811q30 0 30 -29v-1001q0 -31 -30 -31h-176q-31 0 -31 31v821h-397v-821q0 -31 -29 -31h-178q-31 0 -31 31z" />
<glyph unicode="&#x440;" horiz-adv-x="1126" d="M127 -358v1337q0 24 23 33q188 73 413 73q103 0 188 -27t148.5 -80.5t99 -140.5t35.5 -200v-225q0 -198 -127 -317.5t-325 -119.5q-115 0 -217 45v-378q0 -31 -31 -31h-176q-31 0 -31 31zM365 242q85 -58 196 -58q112 0 172 56t60 170v229q0 127 -60 182.5t-176 55.5 q-121 0 -192 -29v-606z" />
<glyph unicode="&#x441;" horiz-adv-x="966" d="M94 389v285q0 188 123 299.5t334 111.5q182 0 336 -98q25 -16 8 -43l-80 -123q-16 -23 -43 -8q-100 59 -215 59q-109 0 -167 -51.5t-58 -146.5v-287q0 -95 58.5 -147t164.5 -52q123 0 238 74q29 16 43 -8l86 -123q15 -24 -7 -41q-162 -115 -362 -115q-213 0 -336 112.5 t-123 301.5z" />
<glyph unicode="&#x442;" horiz-adv-x="935" d="M33 883v149q0 29 30 29h809q31 0 31 -29v-149q0 -31 -31 -31h-284v-821q0 -31 -31 -31h-176q-31 0 -31 31v821h-287q-30 0 -30 31z" />
<glyph unicode="&#x443;" horiz-adv-x="1140" d="M119 449v583q0 13 8.5 21t22.5 8h178q28 0 28 -29v-573q0 -111 66 -162t168 -51q105 -3 184 41v745q0 29 31 29h176q31 0 31 -29v-964q0 -239 -112 -358.5t-345 -119.5q-129 0 -225 31t-176 98q-22 17 -7 41l89 125q16 26 38 11q140 -95 279 -95q114 0 171.5 60.5 t51.5 206.5q-122 -37 -219 -37q-82 0 -158.5 26t-140 76t-101.5 132t-38 184z" />
<glyph unicode="&#x444;" horiz-adv-x="1546" d="M94 420v223q0 198 122.5 308t311.5 110h127v373q0 30 29 30h176q29 0 29 -30v-373h145q188 0 303 -109.5t115 -308.5v-223q0 -106 -34 -188.5t-91 -132t-126.5 -74.5t-145.5 -25h-166v-358q0 -31 -29 -31h-176q-29 0 -29 31v358h-147q-84 0 -157 25t-131 74.5t-92 132 t-34 188.5zM328 424q0 -112 52.5 -162.5t168.5 -50.5h106v641h-116q-105 0 -158 -51.5t-53 -163.5v-213zM889 211h106q116 0 169 50.5t53 162.5v213q0 112 -53 163.5t-158 51.5h-117v-641z" />
<glyph unicode="&#x445;" horiz-adv-x="1028" d="M37 37l330 495l-312 494q-9 14 -2.5 24.5t23.5 10.5h207q22 0 36 -21l195 -342l195 342q14 21 36 21h207q17 0 23.5 -10.5t-2.5 -24.5l-311 -494l329 -495q19 -37 -18 -37h-217q-26 0 -37 20l-205 349l-205 -349q-11 -20 -37 -20h-215q-39 0 -20 37z" />
<glyph unicode="&#x446;" horiz-adv-x="1189" d="M129 31v1001q0 29 31 29h176q31 0 31 -29v-819h397v819q0 29 31 29h176q30 0 30 -29v-821h99q30 0 30 -31v-418q0 -30 -30 -30h-160q-29 0 -29 30v238h-751q-31 0 -31 31z" />
<glyph unicode="&#x447;" horiz-adv-x="1079" d="M82 754v278q0 29 29 29h178q30 0 30 -29v-270q0 -127 48 -182.5t143 -55.5q114 0 203 35v473q0 29 28 29h179q30 0 30 -29v-1001q0 -31 -30 -31h-179q-28 0 -28 31v313q-107 -35 -213 -35q-92 0 -166.5 25t-131.5 77t-88.5 139.5t-31.5 203.5z" />
<glyph unicode="&#x448;" horiz-adv-x="1601" d="M129 31v1001q0 29 31 29h174q28 0 28 -29v-819h322v819q0 29 31 29h172q31 0 31 -29v-819h321v819q0 29 29 29h174q31 0 31 -29v-1001q0 -31 -31 -31h-1282q-31 0 -31 31z" />
<glyph unicode="&#x449;" horiz-adv-x="1660" d="M129 31v1001q0 29 31 29h174q28 0 28 -29v-819h322v819q0 29 31 29h172q31 0 31 -29v-819h321v819q0 29 29 29h174q31 0 31 -29v-821h98q31 0 31 -31v-418q0 -30 -31 -30h-158q-31 0 -31 30v238h-1222q-31 0 -31 31z" />
<glyph unicode="&#x44a;" horiz-adv-x="1202" d="M37 885v147q0 29 31 29h415q29 0 29 -29v-315h217q190 0 305 -97t115 -266q0 -182 -111.5 -268t-308.5 -86h-424q-31 0 -31 31v825h-206q-31 0 -31 29zM512 197h178q111 0 165 39t54 122q1 83 -52.5 123.5t-166.5 40.5h-178v-325z" />
<glyph unicode="&#x44b;" horiz-adv-x="1482" d="M129 31v1001q0 29 31 29h176q31 0 31 -29v-315h217q189 0 304.5 -97t115.5 -266q0 -181 -112 -267.5t-308 -86.5h-424q-31 0 -31 31zM367 197h176q113 0 167 39t54 122q2 83 -52.5 123.5t-168.5 40.5h-176v-325zM1116 31v1001q0 29 31 29h176q31 0 31 -29v-1001 q0 -31 -31 -31h-176q-31 0 -31 31z" />
<glyph unicode="&#x44c;" horiz-adv-x="1056" d="M129 31v1001q0 29 31 29h176q31 0 31 -29v-315h217q189 0 304.5 -97t115.5 -266q0 -181 -112 -267.5t-308 -86.5h-424q-31 0 -31 31zM367 197h176q113 0 167 39t54 122q2 83 -52.5 123.5t-168.5 40.5h-176v-325z" />
<glyph unicode="&#x44d;" horiz-adv-x="985" d="M51 131l84 121q14 24 43 8q118 -74 248 -74q107 0 166 52t59 147v68h-358q-29 0 -29 28v119q0 31 29 31h358v45q0 94 -59 145t-168 51q-124 0 -236 -59q-26 -11 -41 10l-79 123q-21 25 8 41q165 98 358 98q206 0 330.5 -110.5t124.5 -298.5v-289q0 -190 -123.5 -301 t-333.5 -111t-375 115q-21 15 -6 41z" />
<glyph unicode="&#x44e;" horiz-adv-x="1523" d="M129 31v1001q0 29 31 29h170q30 0 30 -29v-375h172l3 15q2 186 123.5 299.5t320.5 113.5q204 0 327.5 -115t123.5 -304v-279q0 -186 -123.5 -299t-327.5 -113q-199 0 -320.5 111.5t-123.5 294.5l-3 63h-172v-413q0 -31 -30 -31h-170q-31 0 -31 31zM770 389 q0 -96 54.5 -148.5t156.5 -52.5t156.5 52.5t54.5 148.5v275q0 99 -54.5 153.5t-156.5 54.5t-156.5 -54.5t-54.5 -153.5v-275z" />
<glyph unicode="&#x44f;" horiz-adv-x="1077" d="M66.5 10q-4.5 10 5.5 27l262 364q-123 30 -188.5 115.5t-65.5 204.5q0 165 112.5 252.5t299.5 87.5h426q30 0 30 -29v-1001q0 -31 -30 -31h-177q-30 0 -30 31v350h-125l-250 -361q-11 -20 -37 -20h-211q-17 0 -21.5 10zM319 721q0 -148 179 -148h213v293h-213 q-179 0 -179 -145z" />
<glyph unicode="&#x451;" horiz-adv-x="1073" d="M96 375v291q0 87 25.5 158.5t68.5 119t101.5 80t122 47t133.5 14.5q69 0 132 -14.5t120 -46.5t99 -80t66.5 -119t24.5 -159v-207q0 -29 -31 -29h-622v-57q0 -92 58 -140.5t159 -48.5q87 0 154.5 25t134.5 70q24 17 41 -7l84 -112q20 -23 -6 -43q-180 -142 -416 -142 q-89 0 -168 25t-142.5 72.5t-101 125.5t-37.5 177zM205 1337q0 59 36 93t91 34q56 0 90.5 -34t34.5 -93q0 -58 -34.5 -91.5t-90.5 -33.5q-55 0 -91 34t-36 91zM336 614h422v54q0 106 -59 157.5t-152 51.5q-97 0 -154 -50.5t-57 -158.5v-54zM625 1337q0 59 35 93t92 34 q55 0 90 -34t35 -93q0 -57 -35 -91t-90 -34q-56 0 -91.5 33.5t-35.5 91.5z" />
<glyph unicode="&#x452;" horiz-adv-x="1157" d="M-25 1208v92q0 14 8 22.5t21 8.5h127v103q0 30 31 30h178q29 0 29 -30v-103h239q14 0 22.5 -8.5t8.5 -22.5v-92q0 -28 -31 -28h-239v-166q107 35 223 35q96 0 175 -26.5t140.5 -81t96 -145.5t34.5 -212v-586q0 -211 -82 -309.5t-249 -98.5q-39 0 -93 7q-28 3 -28 32v150 q0 28 32 28q50 -4 64 -4q119 0 119 201v574q0 142 -58 201t-176 59q-112 0 -198 -39v-768q0 -31 -29 -31h-178q-31 0 -31 31v1149h-127q-29 0 -29 28z" />
<glyph unicode="&#x453;" horiz-adv-x="849" d="M129 29v1003q0 29 31 29h628q29 0 29 -29v-151q0 -29 -29 -29h-421v-823q0 -31 -31 -31h-176q-31 0 -31 31zM309 1221q-6 11 4 26l164 269q11 20 37 20h180q19 0 24 -11t-7 -26l-205 -270q-13 -19 -37 -19h-135q-19 0 -25 11z" />
<glyph unicode="&#x454;" horiz-adv-x="983" d="M94 387v289q0 188 124.5 298.5t330.5 110.5q193 0 358 -98q29 -16 8 -41l-79 -123q-15 -21 -41 -10q-112 59 -236 59q-109 0 -168 -51t-59 -145v-45h358q29 0 29 -31v-119q0 -28 -29 -28h-358v-68q0 -95 59 -147t166 -52q130 0 248 74q29 16 43 -8l84 -121q15 -26 -6 -41 q-165 -115 -375 -115t-333.5 111t-123.5 301z" />
<glyph unicode="&#x455;" horiz-adv-x="991" d="M70 150l77 133q14 26 41 8q142 -105 310 -105q83 0 136.5 31.5t53.5 87.5q0 29 -15.5 50.5t-46 35t-58.5 21t-70 14.5q-59 11 -103.5 22.5t-107 38.5t-103.5 60.5t-70.5 90.5t-29.5 128q0 82 36.5 145.5t99 100.5t138 56t160.5 19q184 0 356 -94q12 -6 15 -17.5t-4 -23.5 l-78 -131q-16 -22 -41 -10q-126 68 -260 68q-89 0 -138 -30.5t-49 -82.5q0 -25 12 -43.5t28 -30.5t50.5 -23.5t60.5 -17.5t77 -16q43 -8 74.5 -15t74 -20.5t72.5 -29t62 -40t52 -54t33 -71t13 -90.5q0 -165 -120.5 -252.5t-313.5 -87.5q-232 0 -416 134q-25 14 -8 41z" />
<glyph unicode="&#x456;" horiz-adv-x="495" d="M115 1339q0 58 39 96t96 38q58 0 95.5 -37.5t37.5 -96.5q0 -58 -37.5 -96.5t-95.5 -38.5q-57 0 -96 39t-39 96zM129 31v1001q0 13 8.5 21t22.5 8h178q29 0 29 -29v-1001q0 -31 -29 -31h-178q-31 0 -31 31z" />
<glyph unicode="&#x457;" horiz-adv-x="495" d="M-35 1339q0 54 35 89.5t88 35.5q52 0 86.5 -35.5t34.5 -89.5q0 -53 -34.5 -87.5t-86.5 -34.5q-53 0 -88 35t-35 87zM129 31v1001q0 29 29 29h178q14 0 22.5 -8t8.5 -21v-1001q0 -31 -31 -31h-178q-29 0 -29 31zM283 1339q0 54 34 89.5t86 35.5q54 0 89.5 -35.5 t35.5 -89.5q0 -53 -35.5 -87.5t-89.5 -34.5q-52 0 -86 34.5t-34 87.5z" />
<glyph unicode="&#x458;" horiz-adv-x="512" d="M-90 -223q0 14 9 22t24 8q50 -4 67 -4q70 0 102.5 44t32.5 143v1042q0 29 29 29h178q14 0 22.5 -8t8.5 -21v-1048q0 -189 -88.5 -293.5t-253.5 -104.5q-55 0 -102 6q-13 1 -21 11t-8 22v152zM131 1337q0 58 38 95.5t95 37.5q59 0 97 -37.5t38 -95.5q0 -57 -38.5 -96 t-96.5 -39q-57 0 -95 39t-38 96z" />
<glyph unicode="&#x459;" horiz-adv-x="1708" d="M29 20v152q0 28 28 31q57 5 90.5 49t57.5 162q36 195 53 618q3 29 33 29h696q31 0 31 -29v-315h215q191 0 306.5 -97.5t115.5 -265.5q0 -182 -112 -268t-310 -86h-422q-31 0 -31 31v821h-299q-13 -281 -53 -500q-40 -198 -119.5 -276t-251.5 -84q-28 0 -28 28zM1018 197 h176q112 0 164.5 39t54.5 122q1 83 -52.5 123.5t-166.5 40.5h-176v-325z" />
<glyph unicode="&#x45a;" horiz-adv-x="1677" d="M129 31v1001q0 29 31 29h176q31 0 31 -29v-346h391v346q0 29 30 29h177q30 0 30 -29v-344h211q193 0 306.5 -91t113.5 -259t-112 -253t-308 -85h-418q-30 0 -30 31v444h-391v-444q0 -31 -31 -31h-176q-31 0 -31 31zM995 197h172q219 0 219 153q0 74 -52 108t-167 34h-172 v-295z" />
<glyph unicode="&#x45b;" horiz-adv-x="1157" d="M-25 1208v92q0 14 8 22.5t21 8.5h127v103q0 30 31 30h178q29 0 29 -30v-103h239q14 0 22.5 -8.5t8.5 -22.5v-92q0 -28 -31 -28h-239v-166q107 35 223 35q96 0 175 -26.5t140.5 -81t96 -145.5t34.5 -212v-553q0 -31 -30 -31h-179q-28 0 -28 31v547q0 142 -58 201t-176 59 q-112 0 -198 -39v-768q0 -31 -29 -31h-178q-31 0 -31 31v1149h-127q-29 0 -29 28z" />
<glyph unicode="&#x45c;" horiz-adv-x="1036" d="M129 31v999q0 31 31 31h170q30 0 30 -31v-395l367 409q12 17 37 17h207q20 0 25 -11t-7 -26l-387 -420l426 -567q10 -17 4.5 -27t-24.5 -10h-207q-27 0 -37 18l-320 420l-84 -90v-317q0 -31 -30 -31h-170q-31 0 -31 31zM399 1221q-6 11 4 26l164 269q11 20 37 20h180 q19 0 24 -11t-7 -26l-205 -270q-13 -19 -37 -19h-135q-19 0 -25 11z" />
<glyph unicode="&#x45d;" horiz-adv-x="1163" d="M129 31v1001q0 29 31 29h174q31 0 31 -29v-418q0 -81 -5 -276h2q20 44 90 170t105 184l205 350q16 19 37 19h205q30 0 30 -29v-1001q0 -31 -30 -31h-175q-30 0 -30 31v411q0 121 4 269h-2q-38 -87 -193 -346l-209 -345q-11 -20 -37 -20h-202q-31 0 -31 31zM295.5 1525 q4.5 11 23.5 11h181q26 0 37 -20l163 -269q11 -15 5 -26t-25 -11h-135q-24 0 -37 19l-205 270q-12 15 -7.5 26z" />
<glyph unicode="&#x45e;" horiz-adv-x="1140" d="M119 449v583q0 13 8.5 21t22.5 8h178q28 0 28 -29v-573q0 -111 66 -162t168 -51q105 -3 184 41v745q0 29 31 29h176q31 0 31 -29v-964q0 -239 -112 -358.5t-345 -119.5q-129 0 -225 31t-176 98q-22 17 -7 41l89 125q16 26 38 11q140 -95 279 -95q114 0 171.5 60.5 t51.5 206.5q-122 -37 -219 -37q-82 0 -158.5 26t-140 76t-101.5 132t-38 184zM236 1470q-3 31 26 35l115 17q27 3 33 -25q27 -123 153 -123q127 0 154 123q6 28 35 25l112 -17q32 -4 29 -30q-15 -127 -100.5 -202t-229.5 -75t-228 73.5t-99 198.5z" />
<glyph unicode="&#x45f;" horiz-adv-x="1130" d="M129 31v1001q0 29 31 29h176q31 0 31 -29v-819h397v819q0 29 31 29h176q30 0 30 -29v-1001q0 -31 -30 -31h-297v-238q0 -30 -31 -30h-158q-30 0 -30 30v238h-295q-31 0 -31 31z" />
<glyph unicode="&#x490;" horiz-adv-x="1030" d="M168 31v1403q0 30 29 30h573v301q0 29 31 29h174q14 0 22.5 -8t8.5 -21v-499q0 -13 -8.5 -21t-22.5 -8h-561v-1206q0 -31 -29 -31h-188q-29 0 -29 31z" />
<glyph unicode="&#x491;" horiz-adv-x="849" d="M129 29v1003q0 29 31 29h442v219q0 31 31 31h155q29 0 29 -31v-399q0 -29 -29 -29h-421v-823q0 -31 -31 -31h-176q-31 0 -31 31z" />
<glyph unicode="&#x1e80;" horiz-adv-x="1982" d="M23 1430q-5 15 2 24.5t24 9.5h201q28 0 33 -26l170 -680q40 -158 98 -463h6q50 231 125 498l176 624q6 27 33 27h201q26 0 32 -27l179 -624q63 -223 122 -498h7q45 251 98 463l170 680q5 26 31 26h202q15 0 23 -9.5t4 -24.5l-387 -1403q-6 -27 -33 -27h-215q-27 0 -33 27 l-190 645q-64 219 -107 458h-8q-43 -241 -104 -458l-193 -645q-6 -27 -33 -27h-215q-26 0 -32 27zM624 1907.5q5 11.5 25 11.5h197q24 0 37 -18l211 -271q10 -17 4 -27t-25 -10h-149q-23 0 -37 17l-256 272q-12 14 -7 25.5z" />
<glyph unicode="&#x1e81;" horiz-adv-x="1568" d="M29 1028q-5 14 1 23.5t21 9.5h185q26 0 32 -25l78 -336q7 -30 105 -440h4q32 141 100 406l98 356q6 25 33 25h191q26 0 32 -25l101 -356q51 -198 98 -406h6q16 77 105 440l75 336q6 25 35 25h182q17 0 23.5 -9.5t1.5 -23.5l-289 -1001q-6 -27 -33 -27h-204q-27 0 -33 27 l-115 415q-54 204 -76 318h-8q-27 -128 -78 -318l-112 -415q-6 -27 -33 -27h-205q-27 0 -33 27zM504.5 1525q4.5 11 23.5 11h181q25 0 36 -20l164 -269q11 -15 5 -26t-25 -11h-135q-24 0 -37 19l-205 270q-12 15 -7.5 26z" />
<glyph unicode="&#x1e82;" horiz-adv-x="1982" d="M23 1430q-5 15 2 24.5t24 9.5h201q28 0 33 -26l170 -680q40 -158 98 -463h6q50 231 125 498l176 624q6 27 33 27h201q26 0 32 -27l179 -624q63 -223 122 -498h7q45 251 98 463l170 680q5 26 31 26h202q15 0 23 -9.5t4 -24.5l-387 -1403q-6 -27 -33 -27h-215q-27 0 -33 27 l-190 645q-64 219 -107 458h-8q-43 -241 -104 -458l-193 -645q-6 -27 -33 -27h-215q-26 0 -32 27zM852 1603q-6 10 4 27l211 271q13 18 37 18h196q20 0 25.5 -11.5t-6.5 -25.5l-256 -272q-14 -17 -37 -17h-149q-19 0 -25 10z" />
<glyph unicode="&#x1e83;" horiz-adv-x="1568" d="M29 1028q-5 14 1 23.5t21 9.5h185q26 0 32 -25l78 -336q7 -30 105 -440h4q32 141 100 406l98 356q6 25 33 25h191q26 0 32 -25l101 -356q51 -198 98 -406h6q16 77 105 440l75 336q6 25 35 25h182q17 0 23.5 -9.5t1.5 -23.5l-289 -1001q-6 -27 -33 -27h-204q-27 0 -33 27 l-115 415q-54 204 -76 318h-8q-27 -128 -78 -318l-112 -415q-6 -27 -33 -27h-205q-27 0 -33 27zM634 1221q-6 11 5 26l164 269q11 20 37 20h180q19 0 23.5 -11t-7.5 -26l-205 -270q-13 -19 -36 -19h-136q-19 0 -25 11z" />
<glyph unicode="&#x1e84;" horiz-adv-x="1982" d="M23 1430q-5 15 2 24.5t24 9.5h201q28 0 33 -26l170 -680q40 -158 98 -463h6q50 231 125 498l176 624q6 27 33 27h201q26 0 32 -27l179 -624q63 -223 122 -498h7q45 251 98 463l170 680q5 26 31 26h202q15 0 23 -9.5t4 -24.5l-387 -1403q-6 -27 -33 -27h-215q-27 0 -33 27 l-190 645q-64 219 -107 458h-8q-43 -241 -104 -458l-193 -645q-6 -27 -33 -27h-215q-26 0 -32 27zM614 1782q0 57 37 94t94 37t94.5 -37t37.5 -94t-37.5 -94t-94.5 -37t-94 37t-37 94zM1104 1782q0 57 36.5 94t94.5 37t95.5 -37t37.5 -94t-37.5 -94t-95.5 -37t-94.5 37 t-36.5 94z" />
<glyph unicode="&#x1e85;" horiz-adv-x="1568" d="M29 1028q-5 14 1 23.5t21 9.5h185q26 0 32 -25l78 -336q7 -30 105 -440h4q32 141 100 406l98 356q6 25 33 25h191q26 0 32 -25l101 -356q51 -198 98 -406h6q16 77 105 440l75 336q6 25 35 25h182q17 0 23.5 -9.5t1.5 -23.5l-289 -1001q-6 -27 -33 -27h-204q-27 0 -33 27 l-115 415q-54 204 -76 318h-8q-27 -128 -78 -318l-112 -415q-6 -27 -33 -27h-205q-27 0 -33 27zM426 1368q0 59 36 93t91 34q56 0 90.5 -34t34.5 -93q0 -58 -34.5 -91.5t-90.5 -33.5q-55 0 -91 34t-36 91zM885 1368q0 59 35 93t92 34q55 0 90 -34t35 -93q0 -57 -35 -91 t-90 -34q-56 0 -91.5 33.5t-35.5 91.5z" />
<glyph unicode="&#x1ef2;" horiz-adv-x="1212" d="M8.5 1453q6.5 11 24.5 11h215q25 0 33 -22l325 -674l324 674q8 22 35 22h215q17 0 22.5 -11t-2.5 -26l-469 -890v-506q0 -31 -31 -31h-188q-31 0 -31 31v510l-471 886q-8 15 -1.5 26zM259.5 1907.5q5.5 11.5 25.5 11.5h196q24 0 37 -18l211 -271q10 -17 4.5 -27 t-24.5 -10h-150q-23 0 -37 17l-256 272q-12 14 -6.5 25.5z" />
<glyph unicode="&#x1ef3;" horiz-adv-x="1142" d="M119 449v583q0 13 8.5 21t22.5 8h178q28 0 28 -29v-573q0 -111 66 -162t168 -51q105 -3 184 41v745q0 29 31 29h176q31 0 31 -29v-964q0 -239 -112 -358.5t-345 -119.5q-129 0 -225 31t-176 98q-22 17 -7 41l89 125q16 26 38 11q140 -95 279 -95q114 0 171.5 60.5 t51.5 206.5q-122 -37 -219 -37q-82 0 -158.5 26t-140 76t-101.5 132t-38 184zM293.5 1525q4.5 11 23.5 11h181q26 0 37 -20l163 -269q11 -15 5 -26t-25 -11h-135q-24 0 -37 19l-205 270q-12 15 -7.5 26z" />
<glyph unicode="&#x2000;" horiz-adv-x="1009" />
<glyph unicode="&#x2001;" horiz-adv-x="2019" />
<glyph unicode="&#x2002;" horiz-adv-x="1009" />
<glyph unicode="&#x2003;" horiz-adv-x="2019" />
<glyph unicode="&#x2004;" horiz-adv-x="673" />
<glyph unicode="&#x2005;" horiz-adv-x="504" />
<glyph unicode="&#x2006;" horiz-adv-x="336" />
<glyph unicode="&#x2007;" horiz-adv-x="336" />
<glyph unicode="&#x2008;" horiz-adv-x="252" />
<glyph unicode="&#x2009;" horiz-adv-x="403" />
<glyph unicode="&#x200a;" horiz-adv-x="112" />
<glyph unicode="&#x2010;" horiz-adv-x="827" d="M127 530v160q0 31 31 31h512q30 0 30 -31v-160q0 -28 -30 -28h-512q-31 0 -31 28z" />
<glyph unicode="&#x2011;" horiz-adv-x="827" d="M127 530v160q0 31 31 31h512q30 0 30 -31v-160q0 -28 -30 -28h-512q-31 0 -31 28z" />
<glyph unicode="&#x2012;" horiz-adv-x="827" d="M127 530v160q0 31 31 31h512q30 0 30 -31v-160q0 -28 -30 -28h-512q-31 0 -31 28z" />
<glyph unicode="&#x2013;" horiz-adv-x="1226" d="M127 530v160q0 31 31 31h913q13 0 21 -8.5t8 -22.5v-160q0 -28 -29 -28h-913q-31 0 -31 28z" />
<glyph unicode="&#x2014;" horiz-adv-x="2015" d="M127 530v160q0 31 31 31h1700q30 0 30 -31v-160q0 -28 -30 -28h-1700q-31 0 -31 28z" />
<glyph unicode="&#x2018;" horiz-adv-x="499" d="M80 987l151 453q6 24 35 24h142q33 0 26 -34l-117 -451q-6 -27 -30 -27h-181q-17 0 -24 10t-2 25z" />
<glyph unicode="&#x2019;" horiz-adv-x="497" d="M88 987l115 451q6 26 33 26h180q17 0 24 -9.5t2 -24.5l-151 -453q-6 -25 -35 -25h-143q-15 0 -22 10t-3 25z" />
<glyph unicode="&#x201a;" horiz-adv-x="487" d="M29 -221l116 450q6 27 33 27h180q15 0 22 -10t3 -25l-150 -452q-6 -25 -34 -25h-144q-33 0 -26 35z" />
<glyph unicode="&#x201c;" horiz-adv-x="874" d="M80 987l151 451q7 26 35 26h144q35 0 26 -34l-117 -451q-5 -27 -32 -27h-181q-15 0 -22.5 10t-3.5 25zM453 987l151 451q6 26 35 26h143q34 0 25 -34l-115 -451q-5 -27 -33 -27h-180q-15 0 -22.5 10t-3.5 25z" />
<glyph unicode="&#x201d;" horiz-adv-x="868" d="M86 987l117 451q5 26 33 26h180q15 0 22.5 -9.5t3.5 -24.5l-151 -451q-7 -27 -35 -27h-143q-33 0 -27 35zM459 987l116 451q5 26 33 26h180q15 0 23 -9.5t2 -24.5l-149 -451q-7 -27 -35 -27h-144q-16 0 -23 9t-3 26z" />
<glyph unicode="&#x201e;" horiz-adv-x="860" d="M29 -223l116 452q6 27 33 27h180q15 0 23 -10t4 -25l-152 -452q-7 -25 -34 -25h-144q-15 0 -22 9t-4 24zM401 -223l117 452q6 27 33 27h180q15 0 23 -10t2 -25l-150 -452q-7 -25 -35 -25h-143q-15 0 -23 9t-4 24z" />
<glyph unicode="&#x2020;" horiz-adv-x="1155" d="M115 881v153q0 31 30 31h318v430q0 31 31 31h170q30 0 30 -31v-430h316q30 0 30 -31v-153q0 -31 -30 -31h-316v-1104q0 -31 -30 -31h-170q-31 0 -31 31v1104h-318q-30 0 -30 31z" />
<glyph unicode="&#x2021;" horiz-adv-x="1155" d="M115 209v153q0 31 30 31h318v457h-318q-30 0 -30 31v153q0 31 30 31h318v430q0 31 31 31h170q30 0 30 -31v-430h316q30 0 30 -31v-153q0 -31 -30 -31h-316v-457h316q30 0 30 -31v-153q0 -31 -30 -31h-316v-432q0 -31 -30 -31h-170q-31 0 -31 31v432h-318q-30 0 -30 31z " />
<glyph unicode="&#x2022;" horiz-adv-x="811" d="M150 684q0 112 73 184t183 72q111 0 183.5 -72t72.5 -184q0 -114 -72.5 -187t-183.5 -73q-110 0 -183 73.5t-73 186.5z" />
<glyph unicode="&#x2026;" horiz-adv-x="1357" d="M94 139q0 68 41.5 110t108.5 42q66 0 108.5 -42.5t42.5 -109.5q0 -65 -42.5 -107t-108.5 -42q-67 0 -108.5 42t-41.5 107zM530 139q0 67 42 109.5t108 42.5t108.5 -42.5t42.5 -109.5q0 -65 -42.5 -107t-108.5 -42t-108 42t-42 107zM965 139q0 67 41.5 109.5t107.5 42.5 t109 -42.5t43 -109.5q0 -65 -43 -107t-109 -42t-107.5 42t-41.5 107z" />
<glyph unicode="&#x202f;" horiz-adv-x="403" />
<glyph unicode="&#x2030;" horiz-adv-x="2222" d="M84 977v231q0 132 80.5 199.5t195.5 67.5q116 0 197.5 -67.5t81.5 -199.5v-231q0 -67 -24 -120t-64 -84.5t-88.5 -47.5t-102.5 -16q-112 0 -194 69t-82 199zM226 11q-6 11 3 26l901 1395q12 20 37 20h150q17 0 23 -12t-5 -25l-901 -1397q-10 -18 -37 -18h-147 q-18 0 -24 11zM256 989q0 -63 31 -93t73 -30q44 0 75.5 29.5t31.5 93.5v203q0 65 -31.5 95t-75.5 30q-43 0 -73.5 -30t-30.5 -95v-203zM938 250v231q0 131 81 199t195 68q116 0 196.5 -68t80.5 -199v-231q0 -54 -15.5 -99t-42.5 -76t-62.5 -52t-75 -31t-81.5 -10 q-72 0 -132.5 27t-102 89.5t-41.5 151.5zM1108 262q0 -64 31 -93.5t75 -29.5q43 0 75 30t32 93v203q0 63 -32 93t-75 30q-44 0 -75 -29.5t-31 -93.5v-203zM1597 250v231q0 89 41 151t102 89t134 27q116 0 196 -68t80 -199v-231q0 -89 -41.5 -151.5t-102 -89.5t-132.5 -27 q-112 0 -194.5 69t-82.5 199zM1767 262q0 -64 31.5 -93.5t75.5 -29.5t75 29.5t31 93.5v203q0 64 -31 93.5t-75 29.5t-75.5 -29.5t-31.5 -93.5v-203z" />
<glyph unicode="&#x2039;" horiz-adv-x="679" d="M78 575q-12 21 0 41l276 412q11 19 35 19h186q18 0 23.5 -10t-4.5 -27l-281 -414l281 -414q10 -17 4.5 -27t-23.5 -10h-186q-24 0 -35 19z" />
<glyph unicode="&#x203a;" horiz-adv-x="679" d="M81 155q-5 10 5 27l281 414l-281 414q-10 17 -5 27t23 10h187q24 0 35 -19l276 -412q12 -20 0 -41l-276 -411q-11 -19 -35 -19h-187q-18 0 -23 10z" />
<glyph unicode="&#x2044;" horiz-adv-x="419" d="M-392.5 11q-5.5 11 3.5 26l1016 1409q12 18 35 18h122q19 0 24.5 -11t-5.5 -26l-1014 -1409q-12 -18 -37 -18h-121q-18 0 -23.5 11z" />
<glyph unicode="&#x205f;" horiz-adv-x="504" />
<glyph unicode="&#x2070;" horiz-adv-x="729" d="M72 1116v242q0 138 87.5 212.5t205.5 74.5t205 -74.5t87 -212.5v-242q0 -138 -87 -212.5t-205 -74.5t-205.5 74.5t-87.5 212.5zM240 1122q0 -70 37 -101.5t88 -31.5q50 0 87 31.5t37 101.5v230q0 70 -37 101.5t-87 31.5q-51 0 -88 -31.5t-37 -101.5v-230z" />
<glyph unicode="&#x2074;" horiz-adv-x="702" d="M39 1022v70q0 18 10 36l262 486q17 20 35 20h111q17 0 22.5 -11t-2.5 -26l-241 -446h176l2 123q3 31 30 31h105q31 0 31 -31v-123h51q31 0 31 -31v-98q0 -31 -31 -31h-51v-121q0 -30 -31 -30h-107q-30 0 -30 30v121h-342q-31 0 -31 31z" />
<glyph unicode="&#x2075;" horiz-adv-x="694" d="M72 936q-18 21 4 43l53 70q17 17 43 -2q75 -60 166 -60q62 0 99 29.5t38 87.5q0 58 -35 87.5t-96 29.5q-85 0 -135 -47q-20 -17 -41 -11l-68 21q-27 7 -24 35l14 385q0 30 31 30h442q31 0 31 -30v-95q0 -13 -8.5 -21.5t-22.5 -8.5h-334l-4 -152q55 39 144 39 q114 0 194 -69t80 -197q0 -129 -83 -200t-220 -71q-165 0 -268 107z" />
<glyph unicode="&#x2076;" horiz-adv-x="702" d="M74 1104v276q0 123 84 194t209 71q140 0 251 -93q24 -18 7 -41l-56 -69q-9 -12 -20.5 -13.5t-20.5 7.5q-76 55 -155 55q-61 0 -97 -31.5t-36 -85.5v-78q57 54 139 54q113 0 190.5 -66t77.5 -184q0 -121 -79 -196t-203 -75q-130 0 -210.5 76t-80.5 199zM240 1102 q0 -51 32.5 -82t83.5 -31q57 0 91 31t34 82q0 46 -33.5 75t-89.5 29q-54 0 -86 -29t-32 -75z" />
<glyph unicode="&#x2077;" horiz-adv-x="641" d="M41 1503v101q0 30 29 30h503q31 0 31 -30v-70q0 -21 -8 -37l-299 -635q-8 -22 -35 -22h-121q-15 0 -21.5 9.5t-0.5 24.5l282 601h-331q-29 0 -29 28z" />
<glyph unicode="&#x2078;" horiz-adv-x="716" d="M63 1079q0 58 28 107t83 74q-94 56 -94 163q0 100 76 161t202 61q124 0 200.5 -61t76.5 -161q0 -107 -92 -163q55 -23 82.5 -72t27.5 -109q0 -119 -80.5 -184.5t-214.5 -65.5t-214.5 65.5t-80.5 184.5zM227 1081q0 -45 34.5 -70.5t96.5 -25.5q64 0 97.5 25.5t33.5 70.5 q0 42 -34 67.5t-97 25.5q-62 0 -96.5 -25.5t-34.5 -67.5zM242 1415q0 -40 30.5 -65t85.5 -25t86 25t31 65q0 36 -31 59t-86 23t-85.5 -22.5t-30.5 -59.5z" />
<glyph unicode="&#x2079;" horiz-adv-x="704" d="M55 1380q0 117 80.5 191t206.5 74q129 0 209 -75.5t80 -195.5v-280q0 -123 -83 -194t-208 -71q-148 0 -252 93q-24 18 -6 43l51 73q20 24 43 4q73 -55 160 -55q61 0 96 30t35 83v80q-54 -54 -145 -54q-111 0 -189 67.5t-78 186.5zM221 1380q0 -50 33 -79t90 -29t90 28.5 t33 75.5q0 50 -34 82.5t-89 32.5q-52 0 -87.5 -32t-35.5 -79z" />
<glyph unicode="&#x2080;" horiz-adv-x="729" d="M72 72v241q0 70 25.5 126.5t67.5 90.5t93.5 52t106.5 18q75 0 139.5 -30t108.5 -97t44 -160v-241q0 -138 -87 -212.5t-205 -74.5t-205.5 74.5t-87.5 212.5zM240 78q0 -70 37 -101.5t88 -31.5q50 0 87 31.5t37 101.5v229q0 70 -37 101.5t-87 31.5q-51 0 -88 -31.5 t-37 -101.5v-229z" />
<glyph unicode="&#x2081;" horiz-adv-x="460" d="M31 418q-17 24 6 41l170 119q15 12 37 12h88q30 0 30 -31v-733q0 -31 -30 -31h-107q-30 0 -30 31v565l-74 -53q-23 -17 -39 8z" />
<glyph unicode="&#x2082;" horiz-adv-x="669" d="M49 -88q0 23 17 37l237 223q43 43 64.5 66.5t42 60t20.5 68.5q0 77 -96 77q-87 0 -158 -67q-26 -22 -43 2l-55 76q-15 24 2 41q112 104 264 104q115 0 183.5 -62t68.5 -165q0 -83 -42 -151t-144 -167q-70 -66 -115 -100h285q30 0 30 -29v-100q0 -31 -30 -31h-500 q-31 0 -31 31v86z" />
<glyph unicode="&#x2083;" horiz-adv-x="673" d="M45 -66l57 70q18 21 41 2q73 -63 185 -63q58 0 92.5 31.5t34.5 93.5q0 51 -35.5 80.5t-97.5 29.5q-34 0 -64 -6q-28 -3 -37 21l-16 36q-9 23 8 43l111 123q8 9 26 25.5t21 19.5h-260q-13 0 -21 8.5t-8 22.5v88q0 31 29 31h452q31 0 31 -31v-55q0 -18 -16 -37l-175 -188 h17q89 -1 143.5 -67t54.5 -163q0 -122 -81 -194t-205 -70q-161 2 -283 109q-19 19 -4 40z" />
<glyph unicode="&#x2084;" horiz-adv-x="702" d="M39 -23v70q0 19 10 37l262 485q17 21 35 21h111q17 0 22.5 -11t-2.5 -26l-241 -447h176l2 123q3 31 30 31h105q31 0 31 -31v-123h51q31 0 31 -30v-99q0 -30 -31 -30h-51v-121q0 -31 -31 -31h-107q-30 0 -30 31v121h-342q-31 0 -31 30z" />
<glyph unicode="&#x2085;" horiz-adv-x="694" d="M72 -104q-18 21 4 43l53 65q17 17 43 -2q73 -59 166 -59q62 0 99 29t38 87q0 58 -35 87.5t-96 29.5q-85 0 -135 -47q-19 -16 -41 -10l-68 20q-27 7 -24 35l14 385q0 31 31 31h442q31 0 31 -31v-94q0 -13 -9 -22t-22 -9h-334l-4 -151q55 39 144 39q114 0 194 -69.5 t80 -197.5q0 -129 -83 -199.5t-220 -70.5q-169 0 -268 111z" />
<glyph unicode="&#x2086;" horiz-adv-x="702" d="M74 59v277q0 123 82 193.5t206 70.5q141 0 248 -92q22 -16 6 -41l-55 -70q-7 -12 -19 -13.5t-22 7.5q-73 55 -151 55q-60 0 -94.5 -31t-34.5 -85v-78q56 53 139 53q113 0 190.5 -66t77.5 -184q0 -121 -79 -195.5t-203 -74.5q-131 0 -211 75.5t-80 198.5zM240 57 q0 -51 32.5 -81.5t83.5 -30.5q57 0 91 30.5t34 81.5q0 46 -33.5 75.5t-89.5 29.5q-53 0 -85.5 -29.5t-32.5 -75.5z" />
<glyph unicode="&#x2087;" horiz-adv-x="641" d="M41 459v100q0 31 29 31h503q31 0 31 -31v-70q0 -20 -8 -36l-299 -635q-9 -23 -35 -23h-121q-15 0 -21.5 10t-0.5 25l282 600h-331q-29 0 -29 29z" />
<glyph unicode="&#x2088;" horiz-adv-x="716" d="M63 35q0 58 28 106.5t83 73.5q-94 56 -94 164q0 100 76 160.5t202 60.5q125 0 201 -60.5t76 -160.5q0 -108 -92 -164q56 -24 83 -72.5t27 -107.5q0 -119 -80.5 -184.5t-214.5 -65.5t-214.5 65.5t-80.5 184.5zM227 37q0 -45 34.5 -70.5t96.5 -25.5q64 0 97.5 25.5 t33.5 70.5q0 42 -34 67t-97 25q-62 0 -96.5 -25t-34.5 -67zM242 371q0 -40 30.5 -65t85.5 -25t86 25t31 65q0 36 -31 59t-86 23t-85.5 -23t-30.5 -59z" />
<glyph unicode="&#x2089;" horiz-adv-x="704" d="M55 330q0 121 79.5 195.5t203.5 74.5q131 0 211 -75.5t80 -198.5v-277q0 -123 -82.5 -193.5t-206.5 -70.5q-141 0 -248 92q-22 16 -6 41l55 70q7 12 19 13.5t22 -7.5q73 -55 152 -55q60 0 94.5 31t34.5 85v78q-56 -53 -139 -53q-113 0 -191 66t-78 184zM221 328 q0 -46 33.5 -75.5t89.5 -29.5q53 0 86 29.5t33 75.5q0 50 -32.5 81t-84.5 31q-56 0 -90.5 -30.5t-34.5 -81.5z" />
<glyph unicode="&#x20ac;" horiz-adv-x="1343" d="M80 524v107q0 31 29 31h90v120h-90q-29 0 -29 29v109q0 28 29 28h90v21q1 130 46 231.5t122.5 163.5t175 93.5t209.5 31.5q267 0 485 -137q25 -16 8 -43l-96 -140q-13 -21 -43 -8q-163 94 -352 94q-139 0 -217 -76t-80 -210l2 -21h434q29 0 29 -28v-109q0 -29 -29 -29 h-436v-120h436q29 0 29 -31v-107q0 -30 -29 -30h-434l-2 -5q3 -132 81.5 -206t217.5 -74q203 0 370 110q23 16 41 -8l97 -141q16 -25 -7 -41q-101 -75 -232 -114.5t-267 -39.5q-90 0 -171.5 19t-152 60t-122 100.5t-81.5 144.5t-32 188l-2 7h-88q-29 0 -29 30z" />
<glyph unicode="&#x20bd;" horiz-adv-x="1325" d="M68 203v119q0 28 30 28h121v1084q0 30 31 30h500q236 0 368.5 -131.5t132.5 -365.5q0 -223 -132.5 -348t-368.5 -125h-295v-144h344q30 0 30 -28v-119q0 -31 -30 -31h-344v-141q0 -31 -29 -31h-176q-31 0 -31 31v141h-121q-30 0 -30 31zM455 707h266q149 0 220 66t71 206 q0 138 -71 204t-220 66h-266v-542z" />
<glyph unicode="&#x2122;" horiz-adv-x="1327" d="M66 1378v70q0 16 16 16h444q15 0 15 -16v-70q0 -16 -15 -16h-166v-496q0 -16 -16 -16h-82q-14 0 -14 16v496h-166q-16 0 -16 16zM592 866v582q0 16 16 16h86q16 0 23 -14l172 -389l170 389q6 14 22 14h88q15 0 15 -16v-582q0 -16 -15 -16h-75q-17 0 -17 16v207l8 209h-4 l-53 -139l-86 -178q-6 -15 -20 -15h-68q-14 0 -20 15l-86 178l-52 139h-4l8 -209v-207q0 -16 -16 -16h-76q-16 0 -16 16z" />
<glyph unicode="&#x2153;" horiz-adv-x="1759" d="M61 1292q-17 23 7 41l170 119q15 12 36 12h88q31 0 31 -30v-734q0 -30 -31 -30h-106q-31 0 -31 30v566l-73 -54q-23 -17 -39 9zM173 11q-6 11 3 26l1016 1409q12 18 35 18h123q19 0 24 -11t-6 -26l-1014 -1409q-12 -18 -37 -18h-120q-18 0 -24 11zM1104 139l57 70 q18 21 41 2q74 -64 184 -64q58 0 92.5 31.5t34.5 93.5q0 51 -36 81t-97 30q-33 0 -63 -6q-28 -3 -37 20l-16 37q-9 23 8 43l110 123q8 9 26 25t22 20h-261q-28 0 -28 31v88q0 31 28 31h453q31 0 31 -31v-55q0 -17 -17 -37l-174 -189h17q89 -1 143.5 -66.5t54.5 -162.5 q0 -122 -81 -194t-205 -70q-162 2 -283 108q-19 19 -4 41z" />
<glyph unicode="&#x2154;" horiz-adv-x="1925" d="M76 700v86q0 24 16 37l238 224q44 44 64.5 66.5t41.5 59t21 68.5q0 38 -25.5 58t-71.5 20q-85 0 -157 -68q-26 -22 -43 2l-56 76q-15 24 2 41q113 105 265 105q115 0 183.5 -62.5t68.5 -165.5q0 -82 -42 -149.5t-145 -167.5q-78 -74 -114 -101h284q31 0 31 -28v-101 q0 -30 -31 -30h-500q-30 0 -30 30zM338.5 11q-5.5 11 3.5 26l1016 1409q12 18 35 18h123q19 0 24 -11t-6 -26l-1014 -1409q-12 -18 -37 -18h-121q-18 0 -23.5 11zM1274 139l57 70q18 21 41 2q74 -64 184 -64q58 0 92.5 31.5t34.5 93.5q0 51 -36 81t-97 30q-33 0 -63 -6 q-28 -3 -37 20l-16 37q-9 23 8 43l110 123q8 9 26 25.5t21 19.5h-260q-28 0 -28 31v88q0 31 28 31h453q31 0 31 -31v-55q0 -17 -17 -37l-174 -189h17q89 -1 143.5 -66.5t54.5 -162.5q0 -122 -81 -194t-205 -70q-162 2 -283 108q-19 19 -4 41z" />
<glyph unicode="&#x215b;" horiz-adv-x="1849" d="M61 1292q-17 23 7 41l170 119q15 12 36 12h88q31 0 31 -30v-734q0 -30 -31 -30h-106q-31 0 -31 30v566l-73 -54q-23 -17 -39 9zM187 11q-6 11 3 26l1016 1409q12 18 35 18h123q19 0 24 -11t-6 -26l-1013 -1409q-12 -18 -37 -18h-121q-18 0 -24 11zM1184 240 q0 58 27.5 106.5t82.5 73.5q-94 56 -94 164q0 100 76.5 160.5t202.5 60.5q125 0 200.5 -60.5t75.5 -160.5q0 -108 -92 -164q56 -24 83.5 -72.5t27.5 -107.5q0 -119 -80.5 -184.5t-214.5 -65.5t-214.5 65.5t-80.5 184.5zM1348 242q0 -45 34.5 -71t96.5 -26q63 0 97 26t34 71 q0 42 -34 67t-97 25q-62 0 -96.5 -25t-34.5 -67zM1362 575q0 -40 31 -65t86 -25t85.5 25t30.5 65q0 37 -30.5 59.5t-85.5 22.5t-86 -23t-31 -59z" />
<glyph unicode="&#x215c;" horiz-adv-x="1896" d="M68 809l57 70q18 21 41 2q74 -64 184 -64q58 0 92.5 31.5t34.5 93.5q0 51 -36 81t-97 30q-33 0 -63 -6q-28 -3 -37 20l-17 37q-8 23 9 43l110 123q8 9 26 25.5t21 19.5h-260q-13 0 -21 8.5t-8 22.5v88q0 30 29 30h453q30 0 30 -30v-56q0 -18 -16 -37l-174 -188h16 q89 -1 144 -66.5t55 -162.5q0 -122 -81.5 -194.5t-205.5 -70.5q-95 1 -160 30t-122 79q-19 19 -4 41zM338.5 11q-5.5 11 3.5 26l1016 1409q12 18 35 18h123q19 0 24 -11t-6 -26l-1014 -1409q-12 -18 -37 -18h-121q-18 0 -23.5 11zM1235 240q0 58 28 106.5t83 73.5 q-95 56 -95 164q0 100 76.5 160.5t202.5 60.5q125 0 200.5 -60.5t75.5 -160.5q0 -108 -92 -164q56 -24 83.5 -72.5t27.5 -107.5q0 -119 -80.5 -184.5t-214.5 -65.5t-214.5 65.5t-80.5 184.5zM1399 242q0 -45 34.5 -71t96.5 -26q63 0 97 26t34 71q0 42 -34 67t-97 25 q-62 0 -96.5 -25t-34.5 -67zM1413 575q0 -40 31 -65t86 -25t86 25t31 65q0 36 -31 59t-86 23t-86 -23t-31 -59z" />
<glyph unicode="&#x215d;" horiz-adv-x="1916" d="M88 766q-18 21 4 43l53 70q17 17 43 -2q75 -60 166 -60q62 0 99.5 29.5t38.5 87.5q0 58 -35.5 87.5t-96.5 29.5q-85 0 -135 -47q-20 -17 -41 -11l-67 21q-28 7 -25 35l14 385q0 30 31 30h443q30 0 30 -30v-95q0 -13 -8 -21.5t-22 -8.5h-334l-4 -152q55 39 143 39 q114 0 194 -69t80 -197q0 -129 -83 -200t-220 -71q-165 0 -268 107zM355 11q-6 11 3 26l1016 1409q12 18 35 18h123q19 0 24 -11t-6 -26l-1013 -1409q-12 -18 -37 -18h-121q-18 0 -24 11zM1255 240q0 58 28 106.5t83 73.5q-94 56 -94 164q0 100 76 160.5t202 60.5 q125 0 201 -60.5t76 -160.5q0 -108 -92 -164q56 -24 83 -72.5t27 -107.5q0 -119 -80.5 -184.5t-214.5 -65.5t-214.5 65.5t-80.5 184.5zM1419 242q0 -45 34.5 -71t96.5 -26q63 0 97 26t34 71q0 42 -34 67t-97 25q-62 0 -96.5 -25t-34.5 -67zM1434 575q0 -40 30.5 -65 t85.5 -25t86 25t31 65q0 36 -31 59t-86 23t-85.5 -22.5t-30.5 -59.5z" />
<glyph unicode="&#x215e;" horiz-adv-x="1710" d="M63 1333v101q0 30 29 30h504q31 0 31 -30v-70q0 -19 -9 -37l-299 -635q-8 -22 -34 -22h-121q-15 0 -22 10t-1 25l283 600h-332q-29 0 -29 28zM181 11q-6 11 3 26l1016 1409q12 18 35 18h123q19 0 24 -11t-6 -26l-1014 -1409q-12 -18 -36 -18h-121q-18 0 -24 11zM1049 240 q0 58 27.5 106.5t82.5 73.5q-94 56 -94 164q0 100 76 160.5t202 60.5q125 0 201 -60.5t76 -160.5q0 -108 -92 -164q56 -24 83 -72.5t27 -107.5q0 -119 -80.5 -184.5t-214.5 -65.5t-214 65.5t-80 184.5zM1212 242q0 -45 34.5 -71t96.5 -26q63 0 97.5 26t34.5 71 q0 42 -34.5 67t-97.5 25q-62 0 -96.5 -25t-34.5 -67zM1227 575q0 -40 30.5 -65t85.5 -25t86 25t31 65q0 36 -31 59t-86 23t-85.5 -22.5t-30.5 -59.5z" />
<glyph unicode="&#x2190;" horiz-adv-x="1347" d="M90 682v72q0 20 14 37l349 348q20 23 43 0l86 -86q22 -21 0 -43l-203 -193h848q30 0 30 -31v-137q0 -31 -30 -31h-844l197 -174q10 -9 10.5 -21.5t-8.5 -21.5l-86 -86q-24 -24 -43 -2l-349 332q-14 17 -14 37z" />
<glyph unicode="&#x2191;" horiz-adv-x="962" d="M63 924q-23 23 0 43l343 338q13 16 34 16h72q24 0 37 -16l350 -347q9 -9 9 -21.5t-9 -21.5l-84 -84q-9 -9 -21.5 -9t-21.5 9l-197 197v-844q0 -30 -28 -30h-139q-31 0 -31 30v844l-189 -186q-22 -22 -43 0z" />
<glyph unicode="&#x2192;" horiz-adv-x="1347" d="M90 666v137q0 31 31 31h842l-197 174q-10 9 -10.5 21.5t8.5 21.5l88 86q21 24 43 2l346 -332q16 -19 16 -37v-72q0 -17 -16 -36l-346 -349q-23 -23 -43 0l-88 86q-22 21 0 43l205 193h-848q-31 0 -31 31z" />
<glyph unicode="&#x2193;" horiz-adv-x="964" d="M63 530l84 84q21 22 43 0l189 -186v844q0 31 31 31h139q29 0 29 -31v-844l196 195q9 11 21.5 11t21.5 -11l84 -82q20 -24 -2 -43l-348 -348q-15 -15 -37 -15h-72q-19 0 -34 15l-342 337q-23 23 -3 43z" />
<glyph unicode="&#x2196;" horiz-adv-x="1093" d="M100 553v491q0 22 15 37l51 54q17 14 37 14h481q14 0 22.5 -8t8.5 -21v-119q0 -28 -31 -28h-266l598 -598q9 -9 9 -21.5t-9 -21.5l-96 -99q-22 -21 -43 0l-598 598v-278q0 -29 -31 -29h-117q-31 0 -31 29z" />
<glyph unicode="&#x2197;" horiz-adv-x="1095" d="M72 353.5q0 12.5 10 21.5l596 598h-266q-29 0 -29 28v119q0 29 29 29h481q23 0 37 -14l51 -54q14 -14 14 -37v-491q0 -29 -30 -29h-117q-14 0 -22.5 8t-8.5 21v278l-596 -598q-25 -21 -43 0l-96 99q-10 9 -10 21.5z" />
<glyph unicode="&#x2198;" horiz-adv-x="1097" d="M80 1012q-22 25 0 43l96 98q18 25 43 0l596 -594v262q0 29 29 29h121q28 0 28 -29v-479q0 -23 -14 -37l-51 -53q-14 -14 -37 -14h-494q-28 0 -28 30v119q0 31 28 31h279z" />
<glyph unicode="&#x2199;" horiz-adv-x="1097" d="M104 342v479q0 29 31 29h119q31 0 31 -29v-262l596 594q21 25 43 0l96 -98q20 -20 0 -43l-596 -594h276q31 0 31 -31v-119q0 -30 -31 -30h-493q-20 0 -37 14l-51 53q-15 15 -15 37z" />
<glyph unicode="&#x2202;" horiz-adv-x="1118" d="M82 494q0 219 121.5 355t308.5 136q90 0 151.5 -26.5t118.5 -77.5q-22 186 -158 295t-360 116q-28 0 -28 31v137q0 29 28 29q191 -4 328.5 -54t233 -155t142 -272t46.5 -402v-106q0 -246 -123 -383t-342 -137q-206 0 -336.5 142t-130.5 372zM313 492q0 -152 61 -228 t175 -76q115 0 174 77t59 227q0 143 -62 213.5t-179 70.5q-107 0 -167.5 -73t-60.5 -211z" />
<glyph unicode="&#x220f;" horiz-adv-x="1323" d="M166 -254v1749q0 31 29 31h933q29 0 29 -31v-1749q0 -31 -29 -31h-194q-31 0 -31 31v1550h-483v-1550q0 -31 -31 -31h-194q-29 0 -29 31z" />
<glyph unicode="&#x2211;" horiz-adv-x="1099" d="M76 -139q0 18 10 35l449 722l-449 728q-10 17 -10 34v115q0 31 30 31h883q31 0 31 -31v-154q0 -30 -31 -30h-608l360 -606q11 -22 11 -37v-99q0 -11 -11 -37l-360 -602h608q31 0 31 -30v-154q0 -31 -31 -31h-883q-30 0 -30 31v115z" />
<glyph unicode="&#x221a;" horiz-adv-x="1183" d="M37 645v158q0 31 31 31h282q26 0 33 -27l143 -549q38 -164 49 -238h7q3 15 19 100.5t28 135.5l299 1243q5 27 33 27h167q15 0 22 -10t3 -25l-451 -1749q-6 -27 -30 -27h-183q-26 0 -32 27l-254 872h-135q-31 0 -31 31z" />
<glyph unicode="&#x221e;" horiz-adv-x="1468" d="M98 682q0 164 98.5 257t235.5 93q156 0 301 -196q66 87 139 141.5t164 54.5q137 0 235.5 -93t98.5 -257t-98.5 -257t-235.5 -93q-63 0 -124 32t-98.5 68.5t-80.5 89.5q-66 -84 -138.5 -137t-162.5 -53q-137 0 -235.5 93t-98.5 257zM283 682q0 -80 43 -118t108 -38 q19 0 39.5 7.5t34.5 15.5t36 28.5t31.5 30.5t35 38t32.5 36q-7 8 -32.5 36t-35 38t-31.5 30.5t-36 28.5t-34.5 15.5t-39.5 7.5q-65 0 -108 -38.5t-43 -117.5zM825 682q7 -8 32.5 -36t35 -38t31.5 -30.5t36 -28.5t34.5 -15.5t39.5 -7.5q65 0 108.5 38t43.5 118 q0 79 -43.5 117.5t-108.5 38.5q-19 0 -39.5 -7.5t-34.5 -15.5t-36 -28.5t-31.5 -30.5t-35 -38t-32.5 -36z" />
<glyph unicode="&#x222b;" horiz-adv-x="862" d="M27 -106q0 30 32 30q58 -4 76 -4q91 0 135.5 50.5t44.5 140.5v1026q0 195 104 298t267 103q56 0 123 -6q27 -3 27 -31v-149q0 -31 -31 -31q-58 4 -76 4q-92 0 -137 -50t-45 -140v-1026q0 -195 -104.5 -298.5t-266.5 -103.5q-56 0 -121 6q-28 3 -28 31v150z" />
<glyph unicode="&#x2248;" d="M147 512q44 66 108 98.5t161 32.5q88 0 207 -55q107 -43 155 -43q94 0 150 53q21 18 43 2l104 -90q22 -15 8 -39q-46 -67 -110.5 -101t-159.5 -34q-84 0 -209 55q-103 43 -153 43q-96 0 -150 -51q-22 -22 -43 -4l-104 92q-25 18 -7 41zM147 907q44 66 108 98.5t161 32.5 q83 0 207 -53q103 -45 155 -45q94 0 150 53q23 20 43 2l104 -88q21 -18 8 -41q-46 -67 -110.5 -100t-159.5 -33q-79 0 -209 53q-103 43 -153 43q-96 0 -150 -51q-22 -22 -43 -4l-104 92q-25 18 -7 41z" />
<glyph unicode="&#x2260;" d="M147 403v162q0 31 29 31h289l98 168h-387q-29 0 -29 31v161q0 29 29 29h514l88 154q12 18 37 18h158q17 0 23 -10.5t-3 -24.5l-80 -137h140q28 0 28 -29v-161q0 -31 -28 -31h-267l-98 -168h365q28 0 28 -31v-162q0 -28 -28 -28h-494l-88 -156q-13 -20 -37 -20h-158 q-17 0 -23 11.5t3 25.5l82 139h-162q-29 0 -29 28z" />
<glyph unicode="&#x2264;" d="M133 47v154q0 30 31 30h872q31 0 31 -30v-154q0 -31 -31 -31h-872q-31 0 -31 31zM133 758v110q0 21 23 35l874 422q15 8 26 1.5t11 -23.5v-189q0 -27 -23 -37l-608 -264l608 -264q23 -10 23 -35v-190q0 -16 -11 -22.5t-26 1.5l-874 422q-23 11 -23 33z" />
<glyph unicode="&#x2265;" d="M162 47v154q0 30 28 30h875q31 0 31 -30v-154q0 -31 -31 -31h-875q-28 0 -28 31zM162 324v190q0 26 22 35l607 264l-607 264q-22 9 -22 37v189q0 17 11 23.5t24 -1.5l876 -422q23 -11 23 -35v-110q0 -22 -23 -33l-876 -422q-13 -9 -24 -1.5t-11 22.5z" />
<glyph unicode="&#x25ca;" horiz-adv-x="1138" d="M59 711q-13 20 0 43l404 690q13 20 37 20h139q24 0 37 -20l403 -690q13 -23 0 -43l-403 -691q-13 -20 -37 -20h-139q-24 0 -37 20zM291 731l278 -498l279 498l-279 500z" />
<glyph unicode="&#x25fc;" horiz-adv-x="1064" d="M0 0v1065h1065v-1065h-1065z" />
<glyph horiz-adv-x="495" d="M119 1339q0 57 38 94t95 37t94 -37t37 -94q0 -56 -37 -93.5t-94 -37.5t-95 37.5t-38 93.5zM129 31v1001q0 29 31 29h176q31 0 31 -29v-1001q0 -31 -31 -31h-176q-31 0 -31 31z" />
<glyph horiz-adv-x="1120" d="M92 414v235q0 87 25 159.5t69 123t104 85.5t129 51.5t146 16.5q199 0 406 -71q22 -9 22 -33v-950q0 -31 -28 -31h-140q-12 0 -21.5 7.5t-10.5 19.5l-13 79q-52 -62 -131.5 -96.5t-165.5 -34.5q-80 0 -148.5 25t-124 76t-87 137.5t-31.5 200.5zM332 412 q0 -123 44.5 -174.5t149.5 -51.5q56 0 121.5 29t108.5 80v559q-79 20 -197 20q-98 0 -162.5 -56.5t-64.5 -166.5v-239z" />
<glyph horiz-adv-x="1120" d="M92 414v235q0 87 25 159.5t69 123t104 85.5t129 51.5t146 16.5q199 0 406 -71q22 -9 22 -33v-950q0 -31 -28 -31h-140q-12 0 -21.5 7.5t-10.5 19.5l-13 79q-52 -62 -131.5 -96.5t-165.5 -34.5q-80 0 -148.5 25t-124 76t-87 137.5t-31.5 200.5zM332 412 q0 -123 44.5 -174.5t149.5 -51.5q56 0 121.5 29t108.5 80v559q-79 20 -197 20q-98 0 -162.5 -56.5t-64.5 -166.5v-239zM421 1221q-6 11 5 26l164 269q11 20 37 20h180q19 0 23.5 -11t-7.5 -26l-205 -270q-13 -19 -36 -19h-136q-19 0 -25 11z" />
<glyph horiz-adv-x="1120" d="M92 414v235q0 87 25 159.5t69 123t104 85.5t129 51.5t146 16.5q199 0 406 -71q22 -9 22 -33v-950q0 -31 -28 -31h-140q-12 0 -21.5 7.5t-10.5 19.5l-13 79q-52 -62 -131.5 -96.5t-165.5 -34.5q-80 0 -148.5 25t-124 76t-87 137.5t-31.5 200.5zM242 1470q-3 31 26 35 l115 17q27 3 33 -25q27 -123 153 -123q127 0 154 123q6 28 35 25l112 -17q32 -4 29 -30q-15 -127 -100.5 -202t-229.5 -75t-228 73.5t-99 198.5zM332 412q0 -123 44.5 -174.5t149.5 -51.5q56 0 121.5 29t108.5 80v559q-79 20 -197 20q-98 0 -162.5 -56.5t-64.5 -166.5v-239z " />
<glyph horiz-adv-x="1120" d="M92 414v235q0 87 25 159.5t69 123t104 85.5t129 51.5t146 16.5q199 0 406 -71q22 -9 22 -33v-950q0 -31 -28 -31h-140q-12 0 -21.5 7.5t-10.5 19.5l-13 79q-52 -62 -131.5 -96.5t-165.5 -34.5q-80 0 -148.5 25t-124 76t-87 137.5t-31.5 200.5zM234.5 1220q-4.5 10 7.5 27 l231 271q15 18 37 18h121q25 0 37 -18l229 -271q12 -17 8.5 -27t-22.5 -10h-146q-23 0 -37 17l-129 153l-133 -153q-17 -17 -35 -17h-145q-19 0 -23.5 10zM332 412q0 -123 44.5 -174.5t149.5 -51.5q56 0 121.5 29t108.5 80v559q-79 20 -197 20q-98 0 -162.5 -56.5 t-64.5 -166.5v-239z" />
<glyph horiz-adv-x="1120" d="M92 414v235q0 87 25 159.5t69 123t104 85.5t129 51.5t146 16.5q199 0 406 -71q22 -9 22 -33v-950q0 -31 -28 -31h-140q-12 0 -21.5 7.5t-10.5 19.5l-13 79q-52 -62 -131.5 -96.5t-165.5 -34.5q-80 0 -148.5 25t-124 76t-87 137.5t-31.5 200.5zM233 1337q0 59 36 93t91 34 q56 0 90.5 -34t34.5 -93q0 -58 -34.5 -91.5t-90.5 -33.5q-55 0 -91 34t-36 91zM332 412q0 -123 44.5 -174.5t149.5 -51.5q56 0 121.5 29t108.5 80v559q-79 20 -197 20q-98 0 -162.5 -56.5t-64.5 -166.5v-239zM653 1337q0 59 35 93t92 34q55 0 90 -34t35 -93q0 -57 -35 -91 t-90 -34q-56 0 -91.5 33.5t-35.5 91.5z" />
<glyph horiz-adv-x="1120" d="M92 414v235q0 87 25 159.5t69 123t104 85.5t129 51.5t146 16.5q199 0 406 -71q22 -9 22 -33v-950q0 -31 -28 -31h-140q-12 0 -21.5 7.5t-10.5 19.5l-13 79q-52 -62 -131.5 -96.5t-165.5 -34.5q-80 0 -148.5 25t-124 76t-87 137.5t-31.5 200.5zM295.5 1525q4.5 11 23.5 11 h181q26 0 37 -20l163 -269q11 -15 5 -26t-25 -11h-135q-24 0 -37 19l-205 270q-12 15 -7.5 26zM332 412q0 -123 44.5 -174.5t149.5 -51.5q56 0 121.5 29t108.5 80v559q-79 20 -197 20q-98 0 -162.5 -56.5t-64.5 -166.5v-239z" />
<glyph horiz-adv-x="1120" d="M92 414v235q0 87 25 159.5t69 123t104 85.5t129 51.5t146 16.5q199 0 406 -71q22 -9 22 -33v-950q0 -31 -28 -31h-140q-12 0 -21.5 7.5t-10.5 19.5l-13 79q-52 -62 -131.5 -96.5t-165.5 -34.5q-80 0 -148.5 25t-124 76t-87 137.5t-31.5 200.5zM270 1255v123q0 29 31 29 h539q28 0 28 -29v-123q0 -30 -28 -30h-539q-31 0 -31 30zM332 412q0 -123 44.5 -174.5t149.5 -51.5q56 0 121.5 29t108.5 80v559q-79 20 -197 20q-98 0 -162.5 -56.5t-64.5 -166.5v-239z" />
<glyph horiz-adv-x="1120" d="M92 414v235q0 109 37.5 194t104 137.5t152.5 79.5t187 27q185 0 398 -73q22 -9 22 -33v-948q0 -9 -2 -15t-11 -11t-14 -7t-24 -8q-50 -18 -77 -54t-27 -81q0 -74 77 -74q26 0 84 12q32 7 37 -20l25 -113q6 -28 -19 -37q-36 -18 -93 -28.5t-103 -10.5q-97 0 -155 48.5 t-58 127.5q0 131 172 238l-25 106q-52 -59 -131.5 -91.5t-169.5 -32.5q-77 0 -144.5 24.5t-123 74.5t-87.5 135.5t-32 197.5zM332 412q0 -114 43.5 -165.5t140.5 -51.5q71 0 133.5 26.5t106.5 73.5v559q-90 23 -185 23q-109 0 -174 -57t-65 -169v-239z" />
<glyph horiz-adv-x="1120" d="M92 414v235q0 87 25 159.5t69 123t104 85.5t129 51.5t146 16.5q199 0 406 -71q22 -9 22 -33v-950q0 -31 -28 -31h-140q-12 0 -21.5 7.5t-10.5 19.5l-13 79q-52 -62 -131.5 -96.5t-165.5 -34.5q-80 0 -148.5 25t-124 76t-87 137.5t-31.5 200.5zM330 1382q0 103 67.5 165.5 t173.5 62.5q101 0 165.5 -63.5t64.5 -166.5q0 -102 -64 -162.5t-166 -60.5q-106 0 -173.5 62t-67.5 163zM332 412q0 -123 44.5 -174.5t149.5 -51.5q56 0 121.5 29t108.5 80v559q-79 20 -197 20q-98 0 -162.5 -56.5t-64.5 -166.5v-239zM467 1380q0 -41 28 -67.5t74 -26.5 q44 0 70.5 26t26.5 68q0 46 -26.5 73.5t-70.5 27.5q-46 0 -74 -27.5t-28 -73.5z" />
<glyph horiz-adv-x="1120" d="M92 414v235q0 87 25 159.5t69 123t104 85.5t129 51.5t146 16.5q199 0 406 -71q22 -9 22 -33v-950q0 -31 -28 -31h-140q-12 0 -21.5 7.5t-10.5 19.5l-13 79q-52 -62 -131.5 -96.5t-165.5 -34.5q-80 0 -148.5 25t-124 76t-87 137.5t-31.5 200.5zM225 1296q26 67 76 118.5 t117 51.5q61 0 153 -53q4 -2 20.5 -10t23 -11t21 -9.5t23 -9t19.5 -5t20 -2.5q22 0 35.5 14t34.5 52q13 26 41 14l96 -55q24 -13 17 -33q-23 -66 -75.5 -121t-121.5 -55q-58 0 -154 53q-3 2 -14.5 8t-14.5 8t-13 7l-14 7t-12 5.5t-12.5 5t-11.5 3.5t-12.5 2.5t-11.5 0.5 q-43 0 -78 -65q-14 -27 -41 -15l-96 55q-25 12 -15 39zM332 412q0 -123 44.5 -174.5t149.5 -51.5q56 0 121.5 29t108.5 80v559q-79 20 -197 20q-98 0 -162.5 -56.5t-64.5 -166.5v-239z" />
<glyph horiz-adv-x="1722" d="M92 414v235q0 109 38 194t104 137t149 78.5t178 26.5q89 0 165.5 -19t152.5 -75q153 94 323 94q67 0 129 -14.5t118.5 -47t98 -80t66 -119t24.5 -158.5v-207q0 -29 -30 -29h-621v-127q32 -60 80.5 -89.5t138.5 -29.5q87 0 153.5 25t131.5 70q22 16 41 -7l84 -112 q17 -23 -6 -43q-165 -142 -404 -142q-131 0 -239 111l-9 -55q0 -31 -28 -31h-109q-12 0 -21 7.5t-9 19.5l-13 67q-52 -57 -131.5 -88t-169.5 -31q-80 0 -148 25t-122 76t-84.5 137.5t-30.5 200.5zM332 412q0 -122 44 -174t146 -52q56 0 119 30.5t107 84.5v502 q-25 36 -81 53.5t-114 17.5q-95 0 -158 -57t-63 -166v-239zM987 614h420v54q0 106 -58 157.5t-151 51.5q-137 0 -211 -74v-189z" />
<glyph horiz-adv-x="1425" d="M39 201q0 30 31 30h96l371 1207q6 26 32 26h289q29 0 35 -26l369 -1207h96q28 0 28 -30v-449q0 -28 -28 -28h-195q-30 0 -30 28v248h-850v-248q0 -28 -31 -28h-182q-31 0 -31 28v449zM426 231h575l-282 961h-8z" />
<glyph horiz-adv-x="1323" d="M16 35l488 1407q9 22 35 22h245q26 0 35 -22l488 -1407q9 -35 -25 -35h-203q-26 0 -32 25l-381 1167h-9l-378 -1167q-9 -25 -35 -25h-203q-34 0 -25 35z" />
<glyph horiz-adv-x="1120" d="M129 82v989q0 206 119 312t311 106q188 0 308 -108t120 -291q0 -190 -162 -310q101 -51 158 -141t57 -209q0 -226 -123 -339t-335 -116t-428 74q-25 8 -25 33zM367 221q78 -33 186 -33q124 0 186 58t62 186q0 227 -244 217q-85 -4 -190 -22v-406zM367 823q57 5 190 25 q86 13 139.5 71t53.5 156q0 102 -53.5 152.5t-137.5 50.5q-91 0 -141.5 -57t-50.5 -148v-250z" />
</font>
</defs>
</svg>
