<svg xmlns="http://www.w3.org/2000/svg" xmlns:xlink="http://www.w3.org/1999/xlink" width="50" height="50" viewBox="0 0 50 50">
  <defs>
    <style>
      .a {
        fill: none;
      }

      .b {
        clip-path: url(#a);
      }

      .c {
        fill: #fff;
      }

      .d {
        fill: #ed1c24;
      }

      .e {
        fill: #231f20;
      }
    </style>
    <clipPath id="a" transform="translate(0 0)">
      <rect class="a" width="50" height="50"/>
    </clipPath>
  </defs>
  <g class="b">
    <path class="c" d="M33.4,9.4S25.2-6,17.1,9.4L4.2,33.9s-7.1,13.5,8.2,13.5H36s17.4,0,9.3-15.4Z" transform="translate(0 0)"/>
    <path class="d" d="M36,50H12.4c-5.5,0-9.2-1.6-11.1-4.7-3.1-5.1.3-11.8.7-12.6L14.9,8.2C17.7,2.8,21.1,0,24.9,0c6.2,0,10.3,7.4,10.7,8.2L47.5,30.8c2.9,5.4,3.3,9.9,1.2,13.4C45.3,49.8,36.9,50,36,50ZM24.9,5.1h0c-1.7,0-3.7,2-5.5,5.5L6.5,35.1c-.7,1.2-2.2,5.3-.8,7.5s4.2,2.3,6.7,2.3H36c1.7,0,6.7-.6,8.3-3.4s.1-5.8-1.3-8.3L31.1,10.6C30.2,8.8,27.4,5.1,24.9,5.1Z" transform="translate(0 0)"/>
  </g>
  <path class="e" d="M27.6,16.2V9.7H22.4v6.5l1.4,18.3h2.4Zm-.2,19.6H22.6v7.1h4.8Z" transform="translate(0 0)"/>
</svg>
