<?xml version="1.0" encoding="UTF-8" standalone="no"?>
<svg
   xmlns:dc="http://purl.org/dc/elements/1.1/"
   xmlns:cc="http://creativecommons.org/ns#"
   xmlns:rdf="http://www.w3.org/1999/02/22-rdf-syntax-ns#"
   xmlns:svg="http://www.w3.org/2000/svg"
   xmlns="http://www.w3.org/2000/svg"
   xmlns:sodipodi="http://sodipodi.sourceforge.net/DTD/sodipodi-0.dtd"
   xmlns:inkscape="http://www.inkscape.org/namespaces/inkscape"
   height="24"
   viewBox="0 0 24 24"
   width="24"
   id="svg2"
   version="1.1"
   inkscape:version="0.91 r13725"
   sodipodi:docname="ic_zoom_in_white_24px.svg"
   style="fill:#ffffff">
  <metadata
     id="metadata14">
    <rdf:RDF>
      <cc:Work
         rdf:about="">
        <dc:format>image/svg+xml</dc:format>
        <dc:type
           rdf:resource="http://purl.org/dc/dcmitype/StillImage" />
        <dc:title></dc:title>
      </cc:Work>
    </rdf:RDF>
  </metadata>
  <defs
     id="defs12" />
  <sodipodi:namedview
     pagecolor="#a4a4a4"
     bordercolor="#666666"
     borderopacity="1"
     objecttolerance="10"
     gridtolerance="10"
     guidetolerance="10"
     inkscape:pageopacity="0.64313725"
     inkscape:pageshadow="2"
     inkscape:window-width="1920"
     inkscape:window-height="1017"
     id="namedview10"
     showgrid="false"
     fit-margin-top="0"
     fit-margin-left="0"
     fit-margin-right="0"
     fit-margin-bottom="0"
     inkscape:zoom="9.8333333"
     inkscape:cx="16.923729"
     inkscape:cy="12.500002"
     inkscape:window-x="1912"
     inkscape:window-y="32"
     inkscape:window-maximized="1"
     inkscape:current-layer="svg2" />
  <g
     id="g4172"
     transform="scale(1.3340745,1.3340745)">
    <g
       transform="translate(2.4915254,26.177967)"
       id="g4168">
      <path
         style="fill:#000000"
         inkscape:connector-curvature="0"
         d="m 10.008475,-14.677967 -0.7900004,0 -0.28,-0.27 c 0.98,-1.14 1.5700004,-2.62 1.5700004,-4.23 0,-3.589999 -2.9100004,-6.499999 -6.5000004,-6.499999 -3.59000003,0 -6.5,2.91 -6.5,6.499999 0,3.59 2.90999997,6.5 6.5,6.5 1.61,0 3.09,-0.59 4.23,-1.57 l 0.27,0.28 0,0.79 5.0000004,4.9900004 1.49,-1.49 -4.99,-5.0000004 z m -6.0000004,0 c -2.49,0 -4.50000003,-2.01 -4.50000003,-4.5 0,-2.489999 2.01000003,-4.499999 4.50000003,-4.499999 2.49,0 4.5,2.01 4.5,4.499999 0,2.49 -2.01,4.5 -4.5,4.5 z"
         id="path4144" />
      <path
         style="fill:#000000"
         inkscape:connector-curvature="0"
         d="m 6.5084746,-18.677967 -2,0 0,2 -1,0 0,-2 -2,0 0,-0.999999 2,0 0,-2 1,0 0,2 2,0 0,0.999999 z"
         id="path4148" />
    </g>
    <g
       transform="translate(-29.245763,11.847458)"
       id="g4164">
      <path
         d="m 42.245763,-0.84745763 -0.79,0 -0.28,-0.26999997 c 0.98,-1.14 1.57,-2.62 1.57,-4.23 0,-3.59 -2.91,-6.5000004 -6.5,-6.5000004 -3.59,0 -6.5,2.9100004 -6.5,6.5000004 0,3.59 2.91,6.5 6.5,6.5 1.61,0 3.09,-0.59000003 4.23,-1.57000003 l 0.27,0.28 0,0.79 5,4.99000003 1.49,-1.49 -4.99,-5.00000003 z m -6,0 c -2.49,0 -4.5,-2.00999997 -4.5,-4.49999997 0,-2.49 2.01,-4.5 4.5,-4.5 2.49,0 4.5,2.01 4.5,4.5 0,2.49 -2.01,4.49999997 -4.5,4.49999997 z"
         id="path4"
         inkscape:connector-curvature="0" />
      <path
         d="m 38.745763,-4.8474576 -2,0 0,2 -1,0 0,-2 -2,0 0,-1 2,0 0,-2 1,0 0,2 2,0 0,1 z"
         id="path8"
         inkscape:connector-curvature="0" />
    </g>
  </g>
</svg>
