
<svg xmlns="http://www.w3.org/2000/svg" version="1.1" xmlns:xlink="http://www.w3.org/1999/xlink" preserveAspectRatio="none" x="0px" y="0px" width="102px" height="34px" viewBox="0 0 102 34">
<defs>
<g id="Layer0_0_FILL">
<path fill="#03A9F4" stroke="none" d="
M 101.1 16.35
Q 101.1 8.75 97.05 4.4 92.9 0 86.7 0 82.25 0 78.65 2.55 75.05 5 71.55 10.7 68.75 6.8 65.1 4.75 61.45 2.65 58.1 2.65 53.4 2.65 50.1 6.35 46.8 10 46.8 16.35 46.8 22.75 50.1 26.45 50.35 26.7 50.6 26.95 51.1 27.5 51.7 27.95 52.5 28.55 53.35 29 54.85 29.75 56.6 30 57.3 30.1 58.1 30.1 58.85 30.1 59.6 30 61.35 29.75 63.2 29 64.1 28.6 65.1 28.05 65.2 28 65.3 27.95 66.05 27.5 66.8 26.95 69.4 25 71.55 22.05 73.35 24.9 75.15 26.95 75.6 27.5 76.05 27.95 76.6 28.5 77.15 29 77.75 29.55 78.35 30 78.55 30.15 78.7 30.25 79.35 30.7 80.05 31.05 81.15 31.65 82.4 32.05 82.7 32.15 83.1 32.25 84.8 32.7 86.7 32.7 88.7 32.7 90.5 32.25 90.85 32.15 91.2 32.05 92.4 31.65 93.55 31.05 94.4 30.6 95.2 30 95.8 29.55 96.4 29 96.75 28.7 97.05 28.35 97.25 28.15 97.4 27.95 97.8 27.45 98.2 26.95 101.1 22.8 101.1 16.35
M 82.2 8.6
Q 84.6 6.9 87 6.9 90.05 6.9 92.15 9.35 94.25 11.75 94.25 16.15 94.25 20.25 92.35 23 90.4 25.8 86.85 25.8 83.95 25.8 81.45 23.65 79.85 22.3 75.95 16.25 79.8 10.25 82.2 8.6
M 67.55 16.15
Q 64.45 20.2 61.9 21.9 60.45 22.85 58.65 22.85 56.45 22.85 54.9 21.1 53.35 19.3 53.35 16.1 53.35 13.05 54.95 11.3 56.5 9.55 58.65 9.55 62.85 9.55 67.55 16.15 Z"/>
</g>
</defs>

<g transform="matrix( 1, 0, 0, 1, 0,0) ">
<use xlink:href="#Layer0_0_FILL"/>
</g>
</svg>
