<?xml version="1.0" standalone="no"?>
<!DOCTYPE svg PUBLIC "-//W3C//DTD SVG 1.1//EN" "http://www.w3.org/Graphics/SVG/1.1/DTD/svg11.dtd" >
<svg xmlns="http://www.w3.org/2000/svg" xmlns:xlink="http://www.w3.org/1999/xlink" version="1.1">
<metadata></metadata>
<defs>
<font id="uni_neueblack" horiz-adv-x="1146" >
<font-face units-per-em="2048" ascent="1536" descent="-512" />
<missing-glyph horiz-adv-x="401" />
<glyph horiz-adv-x="0" />
<glyph horiz-adv-x="682" />
<glyph unicode=" "  horiz-adv-x="401" />
<glyph unicode="&#x09;" horiz-adv-x="401" />
<glyph unicode="&#xa0;" horiz-adv-x="401" />
<glyph unicode="!" horiz-adv-x="595" d="M88 178q0 91 58.5 148t152.5 57t152.5 -57t58.5 -148q0 -87 -59 -146t-152 -59t-152 59t-59 146zM115 1069v354q0 41 41 41h284q41 0 41 -41v-354l-22 -541q0 -19 -11 -30t-30 -11h-240q-19 0 -30 11t-11 30z" />
<glyph unicode="&#x22;" horiz-adv-x="882" d="M94 872l21 551q0 20 12 30.5t31 10.5h225q45 0 39 -43l-66 -551q-3 -39 -43 -39h-180q-39 0 -39 41zM485 872l21 551q0 20 12 30.5t31 10.5h225q45 0 39 -43l-65 -551q-3 -39 -43 -39h-181q-39 0 -39 41z" />
<glyph unicode="#" horiz-adv-x="1685" d="M51 393l53 187q8 34 48 34h239l66 236h-230q-22 0 -31 12.5t-3 32.5l53 186q8 35 47 35h239l89 314q8 34 47 34h221q22 0 31.5 -12.5t3.5 -32.5l-86 -303h227l88 314q8 34 47 34h221q22 0 31.5 -12.5t3.5 -32.5l-86 -303h229q22 0 31.5 -12.5t3.5 -32.5l-53 -186 q-8 -35 -47 -35h-240l-65 -236h227q22 0 31.5 -12.5t3.5 -32.5l-51 -186q-8 -35 -47 -35h-240l-88 -313q-8 -35 -47 -35h-221q-22 0 -31.5 12.5t-3.5 32.5l86 303h-227l-89 -313q-8 -35 -47 -35h-221q-22 0 -31.5 12.5t-3.5 32.5l86 303h-229q-22 0 -31.5 12.5t-3.5 32.5z M696 614h228l65 236h-227z" />
<glyph unicode="$" horiz-adv-x="1327" d="M66 236l172 243q21 34 55 10q203 -133 393 -133q66 0 110 25t44 63q0 34 -48 55.5t-163 49.5q-46 12 -78 20.5t-80.5 24.5t-82.5 31.5t-76.5 39t-72.5 48.5t-60.5 60t-49 74t-30 89t-11.5 106q0 184 105 292.5t292 142.5v151q0 41 41 41h226q41 0 41 -41v-141 q201 -23 407 -150q34 -21 12 -57l-161 -246q-22 -31 -58 -12q-157 92 -346 92q-133 0 -133 -86q0 -34 48 -56.5t163 -51.5q79 -19 121 -30.5t109.5 -34.5t104.5 -44t83.5 -56.5t69.5 -75.5t40 -97t17 -125q0 -91 -27 -166t-72 -126.5t-107.5 -90t-129 -60t-141.5 -32.5v-158 q0 -41 -41 -41h-226q-41 0 -41 41v162q-207 36 -411 192q-31 25 -8 58z" />
<glyph unicode="%" horiz-adv-x="1798" d="M57 967v202q0 143 86.5 224.5t239.5 81.5t239.5 -81.5t86.5 -224.5v-202q0 -145 -86 -226.5t-240 -81.5t-240 81.5t-86 226.5zM313 961q0 -33 18.5 -52.5t51.5 -19.5t51.5 19.5t18.5 52.5v215q0 31 -18.5 50t-51.5 19t-51.5 -19t-18.5 -50v-215zM319 14.5q-7 14.5 5 34.5 l860 1389q16 26 49 26h207q24 0 31 -14.5t-5 -34.5l-860 -1388q-16 -27 -49 -27h-207q-24 0 -31 14.5zM1090 297v203q0 143 86 224t239 81t239.5 -81t86.5 -224v-203q0 -145 -86 -226t-240 -81t-239.5 81t-85.5 226zM1346 291q0 -33 18 -52.5t51 -19.5t51.5 19.5t18.5 52.5 v215q0 31 -18.5 50t-51.5 19t-51 -19t-18 -50v-215z" />
<glyph unicode="&#x26;" horiz-adv-x="1304" d="M63 416q0 73 20 136.5t57.5 113t80 87.5t98.5 74q-122 159 -122 310q0 152 114.5 254t282.5 102q174 0 284.5 -103.5t110.5 -263.5q-2 -220 -241 -389q20 -24 60 -73t60 -74q42 57 68 121q16 40 53 22l201 -92q37 -16 22 -53q-43 -111 -135 -262q36 -46 106.5 -138.5 t106.5 -138.5q15 -20 8.5 -34.5t-32.5 -14.5h-297q-32 0 -49 25q-8 11 -26 34t-26 35q-154 -114 -348 -114q-191 0 -324 120t-133 316zM399 418q0 -60 39.5 -94.5t98.5 -34.5q86 0 145 53q-30 39 -91 115.5t-91 115.5q-50 -41 -75.5 -77.5t-25.5 -77.5zM516 1139 q0 -75 59 -158q48 36 72.5 72.5t24.5 85.5q0 32 -20.5 56t-57.5 24q-35 0 -56.5 -24t-21.5 -56z" />
<glyph unicode="'" horiz-adv-x="491" d="M94 870l21 553q0 20 12 30.5t31 10.5h225q45 0 39 -43l-66 -553q-3 -39 -43 -39h-180q-39 0 -39 41z" />
<glyph unicode="(" horiz-adv-x="677" d="M70 729q0 244 60.5 473t188.5 465q17 29 50 29h264q25 0 32 -13.5t-6 -35.5q-262 -446 -262 -918q0 -471 262 -917q13 -22 6 -36t-32 -14h-264q-33 0 -50 29q-128 236 -188.5 465t-60.5 473z" />
<glyph unicode=")" horiz-adv-x="677" d="M12.5 -224q-7.5 14 5.5 36q263 448 263 917q0 470 -263 918q-13 22 -5.5 35.5t32.5 13.5h264q32 0 49 -29q128 -237 189 -465.5t61 -472.5t-61 -472.5t-189 -465.5q-17 -29 -49 -29h-264q-25 0 -32.5 14z" />
<glyph unicode="*" horiz-adv-x="954" d="M59 1085l64 195q12 40 51 27l160 -52v168q0 41 41 41h205q41 0 41 -41v-168l159 52q39 13 51 -27l64 -195q11 -39 -27 -51l-159 -51l98 -137q11 -15 9 -31.5t-17 -26.5l-166 -118q-15 -11 -31.5 -9t-26.5 17l-98 137l-98 -137q-23 -32 -57 -8l-166 118q-15 10 -17.5 26.5 t8.5 31.5l99 135l-160 53q-38 12 -27 51z" />
<glyph unicode="+" horiz-adv-x="1331" d="M145 551v270q0 41 41 41h299v303q0 41 41 41h279q41 0 41 -41v-303h299q41 0 41 -41v-270q0 -41 -41 -41h-299v-303q0 -41 -41 -41h-279q-41 0 -41 41v303h-299q-41 0 -41 41z" />
<glyph unicode="," horiz-adv-x="540" d="M0 -258l127 557q10 37 45 37h258q22 0 31.5 -12.5t3.5 -34.5l-174 -557q-9 -35 -45 -35h-209q-22 0 -32 12.5t-5 32.5z" />
<glyph unicode="-" horiz-adv-x="819" d="M104 492v245q0 41 41 41h529q41 0 41 -41v-245q0 -41 -41 -41h-529q-41 0 -41 41z" />
<glyph unicode="." horiz-adv-x="557" d="M68 178q0 91 58.5 148t152.5 57t152 -57t58 -148q0 -88 -58.5 -146.5t-151.5 -58.5t-152 59t-59 146z" />
<glyph unicode="/" horiz-adv-x="1036" d="M50.5 12.5q-8.5 12.5 0.5 34.5l578 1387q10 30 47 30h280q23 0 31.5 -12.5t-0.5 -34.5l-573 -1386q-11 -31 -47 -31h-285q-23 0 -31.5 12.5z" />
<glyph unicode="0" horiz-adv-x="1298" d="M98 532v408q0 261 145.5 407t405.5 146t405.5 -146t145.5 -407v-408q0 -265 -145.5 -413t-405.5 -148t-405.5 148t-145.5 413zM481 514q0 -178 168 -178t168 178v442q0 177 -168 177t-168 -177v-442z" />
<glyph unicode="1" horiz-adv-x="870" d="M6 1124q-21 30 12 56l363 268q21 16 51 16h266q41 0 41 -41v-1382q0 -41 -41 -41h-303q-41 0 -41 41v967l-149 -113q-15 -13 -31.5 -10.5t-26.5 20.5z" />
<glyph unicode="2" horiz-adv-x="1202" d="M61 41v227q0 30 21 51l266 259q227 221 295 303.5t68 152.5q0 49 -33.5 78t-104.5 29q-125 0 -256 -121q-33 -33 -57 2l-154 205q-21 31 5 57q212 209 485 209q235 0 368.5 -117.5t133.5 -328.5q0 -107 -43 -195.5t-146 -208.5q-121 -143 -301 -299h473q41 0 41 -41v-262 q0 -41 -41 -41h-979q-41 0 -41 41z" />
<glyph unicode="3" horiz-adv-x="1202" d="M51 137q-23 20 0 58l142 219q9 12 24.5 11t32.5 -11q72 -43 139 -64.5t164 -21.5q94 0 139 41.5t45 128.5q0 77 -47 114t-145 37q-65 0 -142 -22q-36 -11 -51 24l-59 137q-13 33 12 58l123 115q116 117 162 155h-434q-41 0 -41 41v266q0 41 41 41h870q41 0 41 -41v-217 q0 -28 -23 -51l-299 -278v-5q164 7 273.5 -110t109.5 -287q0 -248 -147.5 -376t-427.5 -128q-302 0 -502 166z" />
<glyph unicode="4" horiz-adv-x="1271" d="M41 264v217q0 24 12 51l453 902q15 30 47 30h334q23 0 31 -13.5t-3 -35.5l-421 -856h198l45 242q6 37 43 37h254q41 0 41 -41v-238h113q41 0 41 -41v-254q0 -41 -41 -41h-113v-182q0 -41 -41 -41h-301q-41 0 -41 41v182h-610q-41 0 -41 41z" />
<glyph unicode="5" horiz-adv-x="1226" d="M76 143q-24 27 0 58l139 209q20 25 59 4q68 -41 154.5 -64.5t155.5 -23.5q105 0 153.5 44t48.5 136q0 71 -50 107t-140 36q-111 0 -211 -53q-31 -15 -55 -8l-174 55q-33 11 -33 47l27 733q0 19 12 30t31 11h831q41 0 41 -41v-270q0 -41 -41 -41h-520l-10 -215 q24 19 84 36t120 17q218 0 343.5 -127t125.5 -336q0 -239 -152.5 -377.5t-412.5 -138.5q-174 0 -307.5 47t-218.5 125z" />
<glyph unicode="6" horiz-adv-x="1251" d="M98 475v471q0 245 154.5 396t402.5 151q133 0 256.5 -36.5t212.5 -98.5q31 -22 11 -55l-138 -222q-20 -35 -57 -12q-109 72 -274 72q-92 0 -136.5 -49.5t-44.5 -139.5v-73q90 49 220 49q223 0 355 -121.5t132 -325.5q0 -231 -147 -370.5t-398 -139.5q-250 0 -399.5 139.5 t-149.5 364.5zM485 475q0 -69 41.5 -109t114.5 -40q77 0 119.5 42.5t42.5 120.5q0 68 -43 107t-119 39q-73 0 -114.5 -39t-41.5 -107v-14z" />
<glyph unicode="7" horiz-adv-x="1103" d="M41 1151v272q0 41 41 41h940q41 0 41 -41v-227q0 -21 -10 -51l-449 -1112q-13 -33 -47 -33h-334q-23 0 -31 12.5t1 34.5l438 1063h-549q-41 0 -41 41z" />
<glyph unicode="8" horiz-adv-x="1298" d="M78 451q0 113 50 200t140 135q-145 123 -145 293q0 184 142.5 299t383.5 115q242 0 384.5 -114t142.5 -300q0 -170 -144 -295q89 -48 139 -134.5t50 -198.5q0 -226 -151 -353t-421 -127t-420.5 127t-150.5 353zM471 457q0 -69 47 -108.5t131 -39.5t131 39.5t47 108.5 q0 65 -46.5 101t-131.5 36t-131.5 -36t-46.5 -101zM487 1042q0 -63 42.5 -98t119.5 -35t119.5 35t42.5 98q0 59 -43 92t-119 33t-119 -33t-43 -92z" />
<glyph unicode="9" horiz-adv-x="1261" d="M70 987q0 228 146.5 367t397.5 139q249 0 399 -139t150 -361v-475q0 -245 -154.5 -396t-402.5 -151q-142 0 -270.5 38.5t-224.5 101.5q-32 20 -13 57l140 238q21 35 57 10q133 -88 301 -88q180 0 180 196v66q-90 -49 -219 -49q-223 0 -355 120.5t-132 325.5zM459 987 q0 -73 42.5 -113t119.5 -40q74 0 114.5 39.5t40.5 111.5v14q0 68 -41 107t-114 39q-77 0 -119.5 -41.5t-42.5 -116.5z" />
<glyph unicode=":" horiz-adv-x="600" d="M94 180q0 94 56.5 150.5t148.5 56.5q94 0 150.5 -56.5t56.5 -150.5t-56.5 -150.5t-150.5 -56.5q-92 0 -148.5 56.5t-56.5 150.5zM94 891q0 94 56.5 150.5t148.5 56.5q94 0 150.5 -56.5t56.5 -150.5t-56.5 -150.5t-150.5 -56.5q-92 0 -148.5 56.5t-56.5 150.5z" />
<glyph unicode=";" horiz-adv-x="598" d="M18 -258l127 557q10 37 45 37h259q22 0 31 -12.5t3 -34.5l-174 -557q-9 -35 -45 -35h-209q-22 0 -32 12.5t-5 32.5zM104 891q0 94 56.5 150.5t148.5 56.5q94 0 150.5 -56.5t56.5 -150.5t-56.5 -150.5t-150.5 -56.5q-92 0 -148.5 56.5t-56.5 150.5z" />
<glyph unicode="&#x3c;" horiz-adv-x="1331" d="M111 594v162q0 32 30 47l961 448q22 10 35.5 1.5t13.5 -31.5v-308q0 -34 -33 -47l-516 -190l516 -193q33 -13 33 -47v-305q0 -23 -13.5 -32t-35.5 1l-961 447q-30 15 -30 47z" />
<glyph unicode="=" horiz-adv-x="1331" d="M145 305v270q0 41 41 41h959q41 0 41 -41v-270q0 -41 -41 -41h-959q-41 0 -41 41zM145 780v271q0 41 41 41h959q41 0 41 -41v-271q0 -41 -41 -41h-959q-41 0 -41 41z" />
<glyph unicode="&#x3e;" horiz-adv-x="1331" d="M180 131v305q0 34 33 47l516 193l-516 190q-33 13 -33 47v308q0 23 13.5 31.5t35.5 -1.5l961 -448q31 -15 31 -47v-162q0 -32 -31 -47l-961 -447q-22 -10 -35.5 -1t-13.5 32z" />
<glyph unicode="?" horiz-adv-x="1083" d="M57 1286q-19 32 6 57q49 45 118 78.5t145 51.5t158 19.5t159 -12t146 -48t120.5 -84.5t82 -125t30.5 -166q0 -73 -19 -129.5t-49 -91.5t-66.5 -62.5t-73 -50.5t-66.5 -48t-49 -62.5t-19 -86.5v-26q0 -17 -10 -23t-31 -6h-274q-41 0 -41 41v55q0 68 17.5 121t46 86 t62.5 59t68.5 46.5t63 42t46 51.5t17.5 69q0 53 -34.5 86t-112.5 33q-144 0 -248 -88q-36 -28 -57 6zM295 176q0 91 58.5 148t152.5 57t152.5 -57t58.5 -148q0 -87 -59 -146t-152 -59t-152 59t-59 146z" />
<glyph unicode="@" horiz-adv-x="1835" d="M86 504v270q0 340 223.5 529.5t622.5 189.5q554 0 788 -338q15 -24 15 -51v-514q0 -103 -29 -186.5t-76.5 -135t-106 -79t-120.5 -27.5q-82 0 -133 17t-88 54q-55 -45 -124 -60t-184 -15q-136 0 -229.5 95.5t-93.5 227.5v236q0 156 92 252t270 96q197 0 365 -84 q29 -17 29 -49v-426q0 -82 71 -82q37 0 57.5 22.5t20.5 63.5v534q-52 70 -195 129.5t-303 59.5q-284 0 -433.5 -122.5t-149.5 -358.5v-248q0 -240 118 -377t341 -137q196 0 358 67q42 15 51 -26l37 -162q9 -35 -29 -53q-81 -36 -190.5 -60t-179.5 -24q-392 0 -593.5 195.5 t-201.5 576.5zM842 543q0 -64 22 -92.5t68 -28.5q44 0 88 14v348q-26 15 -72 15q-54 0 -80 -25.5t-26 -81.5v-149z" />
<glyph unicode="A" horiz-adv-x="1404" d="M6 47l463 1385q11 32 45 32h377q34 0 45 -32l463 -1385q7 -22 -2 -34.5t-31 -12.5h-338q-39 0 -47 35l-55 201h-445l-57 -201q-8 -35 -47 -35h-338q-22 0 -31 12.5t-2 34.5zM578 573h251l-122 457h-9z" />
<glyph unicode="B" horiz-adv-x="1339" d="M137 41v1382q0 41 41 41h582q214 0 332 -111.5t118 -312.5q0 -169 -143 -256q99 -39 152 -119.5t53 -197.5q0 -221 -131 -344t-371 -123h-592q-41 0 -41 41zM537 350h196q60 0 94.5 34t34.5 97q0 123 -143 123h-182v-254zM537 909h149q117 0 117 109q0 106 -117 106h-149 v-215z" />
<glyph unicode="C" horiz-adv-x="1220" d="M94 535v397q0 263 165 412t460 149q252 0 438 -125q20 -12 20 -29q0 -12 -10 -26l-157 -244q-12 -20 -31 -20q-12 0 -27 8q-94 57 -219 57q-109 0 -170 -57t-61 -148v-350q0 -100 59 -154.5t164 -54.5q136 0 250 70q15 9 27 9q17 0 28 -19l160 -244q24 -34 2 -49 q-204 -146 -473 -146q-303 0 -464 148.5t-161 415.5z" />
<glyph unicode="D" horiz-adv-x="1378" d="M137 41v1382q0 41 41 41h502q83 0 154.5 -11t141.5 -36.5t124.5 -71t96.5 -109.5t64.5 -157.5t22.5 -210.5v-272q0 -142 -33.5 -249t-88 -172t-134.5 -105t-163.5 -55t-184.5 -15h-502q-41 0 -41 41zM537 375h151q94 0 140 47t46 149v324q0 100 -46.5 147.5t-139.5 47.5 h-151v-715z" />
<glyph unicode="E" horiz-adv-x="1222" d="M137 41v1382q0 41 41 41h889q41 0 41 -41v-276q0 -41 -41 -41h-530v-191h450q41 0 41 -41v-268q0 -41 -41 -41h-450v-207h565q41 0 41 -41v-276q0 -41 -41 -41h-924q-41 0 -41 41z" />
<glyph unicode="F" horiz-adv-x="1175" d="M137 41v1382q0 41 41 41h903q41 0 41 -41v-290q0 -41 -41 -41h-544v-232h458q41 0 41 -41v-274q0 -41 -41 -41h-458v-463q0 -41 -41 -41h-318q-41 0 -41 41z" />
<glyph unicode="G" horiz-adv-x="1347" d="M94 539v395q0 262 162.5 410.5t454.5 148.5q132 0 261.5 -34.5t231.5 -96.5q20 -12 20 -30q0 -12 -10 -27l-170 -244q-11 -19 -28 -19q-12 0 -27 9q-111 63 -278 63q-103 0 -156 -51t-53 -143v-367q0 -97 50 -149t150 -52q96 0 177 35v170h-170q-41 0 -41 41v236 q0 40 41 40h505q41 0 41 -40v-603q0 -29 -18 -47q-101 -99 -242.5 -156t-292.5 -57q-290 0 -449 150t-159 418z" />
<glyph unicode="H" horiz-adv-x="1435" d="M137 41v1382q0 41 41 41h318q41 0 41 -41v-499h362v499q0 41 41 41h317q41 0 41 -41v-1382q0 -41 -41 -41h-317q-41 0 -41 41v510h-362v-510q0 -41 -41 -41h-318q-41 0 -41 41z" />
<glyph unicode="I" horiz-adv-x="673" d="M137 41v1382q0 41 41 41h318q41 0 41 -41v-1382q0 -41 -41 -41h-318q-41 0 -41 41z" />
<glyph unicode="J" horiz-adv-x="1110" d="M4 164l154 239q12 21 30 21q12 0 27 -10q95 -66 209 -66q84 0 122 45t38 146v884q0 41 41 41h319q41 0 41 -41v-878q0 -275 -143.5 -424.5t-403.5 -149.5q-226 0 -424 138q-20 12 -20 29q0 12 10 26z" />
<glyph unicode="K" horiz-adv-x="1361" d="M137 41v1382q0 41 41 41h318q41 0 41 -41v-450l292 465q16 26 50 26h399q25 0 32.5 -13.5t-7.5 -35.5l-441 -579l510 -787q14 -20 6.5 -34.5t-32.5 -14.5h-381q-34 0 -50 29l-297 491l-81 -94v-385q0 -41 -41 -41h-318q-41 0 -41 41z" />
<glyph unicode="L" horiz-adv-x="1120" d="M137 41v1382q0 41 41 41h318q41 0 41 -41v-1050h520q41 0 41 -41v-291q0 -41 -41 -41h-879q-41 0 -41 41z" />
<glyph unicode="M" horiz-adv-x="1802" d="M137 41v1382q0 41 41 41h350q32 0 47 -30l132 -265q83 -168 190 -436h8q102 258 191 436l131 265q15 30 47 30h350q41 0 41 -41v-1382q0 -41 -41 -41h-311q-41 0 -41 41v149q0 312 22 666l-10 2q-57 -155 -186 -440l-35 -76q-13 -31 -47 -31h-230q-34 0 -47 31l-34 76 q-134 297 -187 440l-10 -2q22 -354 22 -666v-149q0 -41 -41 -41h-311q-41 0 -41 41z" />
<glyph unicode="N" horiz-adv-x="1464" d="M137 41v1382q0 41 41 41h330q33 0 47 -28l164 -312q178 -343 231 -495l8 2q-26 279 -26 540v252q0 41 41 41h313q41 0 41 -41v-1382q0 -41 -41 -41h-328q-33 0 -49 29l-161 270q-71 122 -145 284.5t-107 258.5l-9 -2q45 -332 45 -602v-197q0 -41 -40 -41h-314 q-41 0 -41 41z" />
<glyph unicode="O" horiz-adv-x="1413" d="M92 567v334q0 280 162.5 436t452.5 156t452 -156t162 -436v-334q0 -281 -162 -438.5t-452 -157.5t-452.5 157.5t-162.5 438.5zM502 578q0 -228 205 -228q204 0 204 228v313q0 223 -204 223q-205 0 -205 -223v-313z" />
<glyph unicode="P" horiz-adv-x="1333" d="M137 41v1382q0 41 41 41h565q239 0 385 -146.5t146 -387.5t-146.5 -388t-384.5 -147h-206v-354q0 -41 -41 -41h-318q-41 0 -41 41zM537 764h145q89 0 135.5 42t46.5 124t-46.5 124t-135.5 42h-145v-332z" />
<glyph unicode="Q" horiz-adv-x="1423" d="M92 567v334q0 280 162.5 436t452.5 156t452 -156t162 -436v-334q0 -207 -90 -346l147 -151q13 -15 13 -29q0 -16 -15 -31l-211 -190q-15 -14 -30 -14t-29 16l-168 180q-105 -31 -231 -31q-290 0 -452.5 157.5t-162.5 438.5zM502 578q0 -228 205 -228q204 0 204 228v313 q0 223 -204 223q-205 0 -205 -223v-313z" />
<glyph unicode="R" horiz-adv-x="1339" d="M137 41v1382q0 41 41 41h520q263 0 409 -139.5t146 -376.5q0 -307 -258 -430l287 -469q12 -22 5 -35.5t-32 -13.5h-362q-33 0 -47 29l-221 424h-88v-412q0 -41 -41 -41h-318q-41 0 -41 41zM537 795h141q87 0 125.5 35.5t38.5 115.5q0 76 -39 113t-125 37h-141v-301z" />
<glyph unicode="S" horiz-adv-x="1304" d="M78 236l170 243q11 15 26.5 17.5t30.5 -9.5q193 -133 369 -133q164 0 164 82q0 44 -54 70.5t-151 46.5q-70 14 -132.5 33.5t-137.5 59.5t-128.5 92.5t-89.5 135t-36 183.5q0 139 78 239.5t207 148.5t294 48q141 0 261.5 -35.5t248.5 -118.5q21 -13 21 -31q0 -12 -9 -26 l-161 -244q-14 -20 -33 -20q-12 0 -25 8q-148 88 -317 88q-158 0 -158 -70q0 -41 41.5 -63t175.5 -55q129 -32 218 -68.5t159.5 -91.5t104.5 -133.5t34 -183.5q0 -211 -156.5 -344.5t-451.5 -133.5q-160 0 -288.5 48.5t-266.5 158.5q-18 14 -18 31q0 13 10 27z" />
<glyph unicode="T" horiz-adv-x="1214" d="M25 1133v290q0 41 41 41h1083q41 0 41 -41v-290q0 -41 -41 -41h-342v-1051q0 -41 -41 -41h-317q-41 0 -41 41v1051h-342q-41 0 -41 41z" />
<glyph unicode="U" horiz-adv-x="1413" d="M125 561v862q0 41 41 41h321q41 0 41 -41v-870q0 -203 179 -203q87 0 132.5 52t45.5 151v870q0 41 41 41h321q41 0 41 -41v-862q0 -289 -148.5 -439.5t-432.5 -150.5q-286 0 -434 150.5t-148 439.5z" />
<glyph unicode="V" horiz-adv-x="1409" d="M4 1417q-7 22 2 34.5t31 12.5h342q36 0 45 -34l168 -556q45 -148 106 -419h13q61 271 106 419l168 556q9 34 45 34h342q22 0 31 -12.5t2 -34.5l-465 -1384q-11 -33 -45 -33h-381q-34 0 -45 33z" />
<glyph unicode="W" horiz-adv-x="2097" d="M8 1419q-6 20 3.5 32.5t31.5 12.5h336q39 0 45 -37l61 -284q26 -111 68.5 -330.5t62.5 -353.5h11q47 313 137 671l72 279q9 35 45 35h336q36 0 45 -35l71 -279q80 -314 137 -671h11q20 134 62.5 353.5t68.5 330.5l61 284q6 37 45 37h336q22 0 31.5 -12.5t3.5 -32.5 l-389 -1384q-8 -35 -47 -35h-361q-38 0 -47 35l-84 315q-30 113 -63.5 300t-44.5 292h-9q-11 -105 -44.5 -292t-63.5 -300l-84 -315q-9 -35 -47 -35h-361q-39 0 -47 35z" />
<glyph unicode="X" horiz-adv-x="1323" d="M15 14.5q-9 14.5 3 34.5l385 688l-346 678q-10 22 -1 35.5t32 13.5h348q37 0 47 -30l179 -424l178 424q10 30 47 30h348q23 0 32 -13.5t-1 -35.5l-346 -678l385 -688q12 -20 3 -34.5t-32 -14.5h-365q-31 0 -47 31l-202 411l-203 -411q-15 -31 -47 -31h-365 q-23 0 -32 14.5z" />
<glyph unicode="Y" horiz-adv-x="1294" d="M5 1450.5q9 13.5 32 13.5h350q34 0 47 -32l213 -537l213 537q13 32 47 32h350q23 0 32 -13.5t-1 -35.5l-440 -909v-465q0 -41 -41 -41h-320q-41 0 -41 41v465l-440 909q-10 22 -1 35.5z" />
<glyph unicode="Z" horiz-adv-x="1284" d="M66 41v197q0 25 16 51l565 805h-495q-41 0 -41 41v288q0 41 41 41h999q41 0 41 -41v-188q0 -25 -16 -51l-555 -811h548q41 0 41 -41v-291q0 -41 -41 -41h-1063q-40 0 -40 41z" />
<glyph unicode="[" horiz-adv-x="675" d="M121 -197v1852q0 41 41 41h418q41 0 41 -41v-209q0 -41 -41 -41h-131v-1352h131q41 0 41 -41v-209q0 -41 -41 -41h-418q-41 0 -41 41z" />
<glyph unicode="\" horiz-adv-x="1036" d="M48.5 1451.5q8.5 12.5 31.5 12.5h280q38 0 48 -30l577 -1387q9 -22 0.5 -34.5t-31.5 -12.5h-284q-36 0 -47 31l-574 1386q-9 22 -0.5 34.5z" />
<glyph unicode="]" horiz-adv-x="675" d="M55 12q0 41 41 41h131v1352h-131q-41 0 -41 41v209q0 41 41 41h418q41 0 41 -41v-1852q0 -41 -41 -41h-418q-41 0 -41 41v209z" />
<glyph unicode="^" horiz-adv-x="1331" d="M88 1121.5q-8 13.5 6 35.5l381 502q18 24 49 24h283q31 0 49 -24l379 -502q15 -22 7.5 -35.5t-32.5 -13.5h-278q-29 0 -49 27l-217 305l-217 -305q-20 -27 -50 -27h-278q-25 0 -33 13.5z" />
<glyph unicode="_" horiz-adv-x="1110" d="M41 -70q0 41 41 41h946q41 0 41 -41v-215q0 -41 -41 -41h-946q-41 0 -41 41v215z" />
<glyph unicode="`" horiz-adv-x="526" d="M-39 1540.5q7 15.5 33 15.5h274q32 0 49 -26l172 -264q14 -20 6.5 -34.5t-32.5 -14.5h-213q-32 0 -51 22l-228 266q-17 20 -10 35.5z" />
<glyph unicode="a" horiz-adv-x="1093" d="M37 334q0 154 112.5 232.5t331.5 78.5q81 0 146 -10v4q0 66 -30.5 100.5t-113.5 34.5q-59 0 -125 -13.5t-106 -33.5q-14 -7 -25 -7q-19 0 -30 21l-95 199q-21 34 0 49q79 47 193.5 78t243.5 31q467 0 467 -494v-532q0 -37 -35 -45q-191 -56 -430 -56q-255 0 -379.5 93 t-124.5 270zM422 348q0 -40 30 -62t87 -22q42 0 88 8v140q-48 10 -90 10q-115 0 -115 -74z" />
<glyph unicode="b" d="M98 94v1329q0 41 41 41h297q41 0 41 -41v-350q73 25 164 25q199 0 317.5 -126.5t118.5 -340.5v-182q0 -211 -136.5 -344.5t-360.5 -133.5q-110 0 -232.5 20.5t-216.5 55.5q-33 11 -33 47zM477 324q49 -17 96 -17q119 0 119 131v203q0 131 -117 131q-52 0 -98 -16v-432z " />
<glyph unicode="c" horiz-adv-x="974" d="M70 449v184q0 218 131 341.5t374 123.5q181 0 338 -92q21 -13 21 -32q0 -12 -8 -26l-133 -200q-13 -20 -34 -20q-11 0 -24 5q-65 33 -141 33q-64 0 -101.5 -35t-37.5 -98v-184q0 -73 38.5 -109.5t100.5 -36.5q83 0 156 45q13 8 25 8q18 0 32 -20l133 -201q23 -33 -6 -55 q-153 -109 -359 -109q-243 0 -374 126.5t-131 351.5z" />
<glyph unicode="d" d="M70 449v182q0 214 118.5 340.5t317.5 126.5q91 0 164 -25v350q0 41 41 41h297q41 0 41 -41v-1329q0 -36 -33 -47q-94 -35 -216.5 -55.5t-232.5 -20.5q-224 0 -360.5 133.5t-136.5 344.5zM455 438q0 -131 118 -131q48 0 97 17v432q-46 16 -99 16q-116 0 -116 -131v-203z " />
<glyph unicode="e" horiz-adv-x="1097" d="M72 422v229q0 223 133 335t360 112q219 0 344 -109.5t125 -337.5v-188q0 -41 -41 -41h-540v-10q0 -64 35.5 -97.5t103.5 -33.5q131 0 233 57q14 8 26 8q17 0 30 -18l123 -168q10 -15 10 -28q0 -17 -17 -30q-169 -131 -419 -131q-228 0 -367 117.5t-139 333.5zM453 641 h219v33q0 60 -28.5 91.5t-82.5 31.5q-108 0 -108 -123v-33z" />
<glyph unicode="f" horiz-adv-x="710" d="M100 41v1036q0 200 110 308t308 108q79 0 144 -10q34 -6 34 -45v-234q0 -42 -30 -39q-46 4 -78 4q-57 0 -83 -27.5t-26 -86.5v-23h154q41 0 41 -41v-235q0 -41 -41 -41h-154v-674q0 -41 -41 -41h-297q-41 0 -41 41z" />
<glyph unicode="g" horiz-adv-x="1142" d="M68 473v150q0 229 138 352t365 123q225 0 441 -82q32 -11 32 -47v-838q0 -291 -122 -420t-394 -129q-131 0 -226.5 23t-182.5 76q-21 14 -21 33q0 11 8 24l127 201q12 20 32 20q11 0 24 -6q100 -49 217 -49q85 0 125.5 31.5t40.5 107.5q-70 -18 -158 -18 q-209 0 -327.5 122t-118.5 326zM451 467q0 -125 120 -125q62 0 95 23v383q-32 16 -95 16q-61 0 -90.5 -31.5t-29.5 -97.5v-168z" />
<glyph unicode="h" horiz-adv-x="1163" d="M100 41v1382q0 41 41 41h297q41 0 41 -41v-352q73 27 193 27q190 0 296.5 -130.5t106.5 -349.5v-577q0 -41 -41 -41h-299q-41 0 -41 41v584q0 71 -27.5 106t-95.5 35q-46 0 -92 -16v-709q0 -41 -41 -41h-297q-41 0 -41 41z" />
<glyph unicode="i" horiz-adv-x="579" d="M82 1397q0 91 58 148t151 57q91 0 148 -57t57 -148q0 -87 -57.5 -146t-147.5 -59q-92 0 -150.5 58.5t-58.5 146.5zM100 41v987q0 41 41 41h297q41 0 41 -41v-987q0 -41 -41 -41h-297q-41 0 -41 41z" />
<glyph unicode="j" horiz-adv-x="595" d="M-76 -113q0 39 37 39h6q14 -2 43 -2q107 0 107 119v985q0 41 41 41h297q41 0 41 -41v-1046q0 -189 -108 -294.5t-300 -105.5q-67 0 -129 12q-35 8 -35 46v247zM100 1397q0 91 58 148t151 57q91 0 148 -57t57 -148q0 -87 -57.5 -146t-147.5 -59q-92 0 -150.5 58.5 t-58.5 146.5z" />
<glyph unicode="k" horiz-adv-x="1107" d="M100 41v1382q0 41 41 41h291q41 0 41 -41v-675l176 292q16 29 49 29h344q26 0 33 -14.5t-8 -34.5l-305 -393l350 -578q12 -22 5 -35.5t-32 -13.5h-350q-35 0 -49 29l-168 321l-45 -47v-262q0 -41 -41 -41h-291q-41 0 -41 41z" />
<glyph unicode="l" horiz-adv-x="688" d="M92 371v1052q0 41 41 41h297q41 0 41 -41v-987q0 -119 107 -119q37 0 53 2h6q37 0 37 -38v-250q0 -37 -19 -43q-79 -17 -155 -17q-192 0 -300 105.5t-108 294.5z" />
<glyph unicode="m" horiz-adv-x="1681" d="M98 41v926q0 33 31 49q93 37 207.5 59.5t216.5 22.5q140 0 262 -80q93 41 163 60.5t144 19.5q215 0 343 -122.5t128 -336.5v-598q0 -41 -41 -41h-290q-41 0 -41 41v608q0 55 -29 85t-84 30q-46 0 -90 -16q14 -49 14 -105v-602q0 -41 -41 -41h-291q-41 0 -41 41v608 q0 115 -102 115q-48 0 -86 -14v-709q0 -41 -41 -41h-291q-41 0 -41 41z" />
<glyph unicode="n" horiz-adv-x="1161" d="M98 41v926q0 35 31 47q97 38 217.5 61t228.5 23q247 0 372.5 -130.5t125.5 -357.5v-569q0 -41 -41 -41h-299q-41 0 -41 41v575q0 82 -28.5 115t-88.5 33q-58 0 -98 -12v-711q0 -41 -41 -41h-297q-41 0 -41 41z" />
<glyph unicode="o" d="M72 424v219q0 216 132 335.5t369 119.5t369.5 -119.5t132.5 -335.5v-219q0 -215 -132.5 -334t-369.5 -119t-369 119t-132 334zM457 424q0 -57 29.5 -88t86.5 -31t87 31t30 88v219q0 57 -30 89t-87 32q-56 0 -86 -31.5t-30 -89.5v-219z" />
<glyph unicode="p" d="M98 -348v1323q0 36 29 45q97 35 220.5 56.5t232.5 21.5q224 0 360.5 -133t136.5 -344v-183q0 -214 -118.5 -340.5t-317.5 -126.5q-91 0 -164 25v-344q0 -41 -41 -41h-297q-41 0 -41 41zM477 313q46 -16 98 -16q117 0 117 131v203q0 131 -119 131q-47 0 -96 -17v-432z" />
<glyph unicode="q" d="M70 438v183q0 211 136.5 344t360.5 133q110 0 232.5 -20.5t216.5 -55.5q33 -11 33 -47v-1323q0 -41 -41 -41h-297q-41 0 -41 41v344q-73 -25 -164 -25q-199 0 -317.5 126.5t-118.5 340.5zM455 428q0 -131 116 -131q53 0 99 16v432q-49 17 -97 17q-118 0 -118 -131v-203z " />
<glyph unicode="r" horiz-adv-x="776" d="M98 41v920q0 32 29 49q177 88 395 88q66 0 189 -21q37 -9 37 -45v-227q0 -38 -33 -38q-5 0 -10 1q-46 6 -95 6q-79 0 -133 -22v-711q0 -41 -41 -41h-297q-41 0 -41 41z" />
<glyph unicode="s" horiz-adv-x="1038" d="M53 164l115 192q13 23 31 23q11 0 24 -8q131 -82 277 -82q106 0 106 51q0 40 -108 55q-416 63 -416 353q0 168 120 259t349 91q197 0 377 -92q23 -11 23 -31q0 -12 -9 -27l-117 -186q-20 -32 -55 -14q-102 51 -221 51q-46 0 -68 -9.5t-22 -35.5t26.5 -38.5t116.5 -25.5 q190 -31 288.5 -118.5t98.5 -225.5q0 -188 -120 -281.5t-369 -93.5q-111 0 -224.5 34.5t-209.5 100.5q-21 12 -21 32q0 12 8 26z" />
<glyph unicode="t" horiz-adv-x="737" d="M92 377v905q0 41 41 41h264q40 0 43 -39l27 -246h156q41 0 41 -41v-235q0 -41 -41 -41h-152v-285q0 -67 28 -99t87 -32q19 0 51 4q6 1 11 1q34 0 34 -36v-239q0 -38 -33 -47q-59 -17 -143 -17q-195 0 -304.5 107t-109.5 299z" />
<glyph unicode="u" horiz-adv-x="1150" d="M88 459v569q0 41 41 41h299q41 0 41 -41v-575q0 -82 27.5 -115t85.5 -33q60 0 92 14v709q0 41 41 41h297q41 0 41 -41v-926q0 -35 -31 -47q-96 -38 -214.5 -61t-225.5 -23q-245 0 -369.5 130.5t-124.5 357.5z" />
<glyph unicode="v" horiz-adv-x="1128" d="M12 1022q-7 22 2 34.5t31 12.5h317q37 0 46 -35l90 -387q4 -17 16.5 -68t24.5 -103.5t20 -92.5h8q22 99 64 264l94 387q9 35 45 35h317q22 0 31 -12.5t2 -34.5l-338 -989q-11 -33 -47 -33h-346q-34 0 -45 33z" />
<glyph unicode="w" horiz-adv-x="1601" d="M14 1024q-6 20 3.5 32.5t31.5 12.5h299q38 0 43 -37l55 -340q33 -237 41 -309h9q21 186 47 317l61 318q6 37 43 37h307q37 0 43 -37l62 -318q26 -131 47 -317h8q8 72 41 309l55 340q5 37 43 37h299q22 0 31.5 -12.5t3.5 -32.5l-260 -989q-9 -35 -45 -35h-319 q-39 0 -45 37l-72 334q-38 197 -43 223h-4q-5 -26 -43 -223l-72 -334q-6 -37 -45 -37h-320q-36 0 -45 35z" />
<glyph unicode="x" horiz-adv-x="1093" d="M26 13.5q-8 13.5 3 35.5l268 490l-252 481q-10 22 -2 35.5t31 13.5h334q36 0 47 -33l92 -268l92 268q11 33 47 33h338q23 0 31 -13.5t-2 -35.5l-256 -481l268 -490q10 -22 2 -35.5t-31 -13.5h-342q-36 0 -47 31l-102 245l-99 -243q-13 -33 -47 -33h-342q-23 0 -31 13.5z " />
<glyph unicode="y" horiz-adv-x="1153" d="M90 479v549q0 41 41 41h297q41 0 41 -41v-547q0 -70 25.5 -104.5t87.5 -34.5q56 0 92 18v668q0 41 41 41h297q41 0 41 -41v-897q0 -290 -122 -419.5t-392 -129.5q-133 0 -230 23t-182 76q-22 14 -22 32q0 12 8 25l127 201q19 31 55 14q100 -49 221 -49q82 0 123 32 t41 107q-74 -18 -156 -18q-206 0 -320 122.5t-114 331.5z" />
<glyph unicode="z" horiz-adv-x="1044" d="M59 41v166q0 26 19 51l375 479h-322q-41 0 -41 41v250q0 41 41 41h793q41 0 41 -41v-158q0 -28 -17 -51l-362 -487h352q41 0 41 -41v-250q0 -41 -41 -41h-838q-41 0 -41 41z" />
<glyph unicode="{" horiz-adv-x="739" d="M49 645v168q0 34 39 43q109 26 109 197v305q0 173 77 255.5t240 82.5h127q41 0 41 -41v-217q0 -41 -41 -41h-33q-42 0 -63 -21.5t-21 -70.5v-291q0 -99 -51 -178.5t-125 -106.5q74 -27 125 -106.5t51 -178.5v-290q0 -93 84 -93h33q41 0 41 -41v-217q0 -41 -41 -41h-127 q-163 0 -240 82.5t-77 255.5v306q0 170 -109 196q-39 9 -39 43z" />
<glyph unicode="|" horiz-adv-x="589" d="M121 -244v1966q0 41 41 41h266q41 0 41 -41v-1966q0 -41 -41 -41h-266q-41 0 -41 41z" />
<glyph unicode="}" horiz-adv-x="739" d="M57 20q0 41 41 41h33q84 0 84 93v290q0 99 51 178.5t125 106.5q-74 27 -125 106.5t-51 178.5v291q0 49 -21 70.5t-63 21.5h-33q-41 0 -41 41v217q0 41 41 41h127q163 0 240.5 -82.5t77.5 -255.5v-305q0 -171 108 -197q39 -9 39 -43v-168q0 -34 -39 -43 q-108 -26 -108 -196v-306q0 -173 -77.5 -255.5t-240.5 -82.5h-127q-41 0 -41 41v217z" />
<glyph unicode="~" horiz-adv-x="1331" d="M127 723q111 162 313 162q42 0 84.5 -9t69.5 -19t70 -28q110 -47 170 -47q74 0 124 47q33 30 58 5l176 -162q27 -27 4 -64q-59 -82 -130.5 -118.5t-168.5 -36.5q-98 0 -223 55q-108 47 -168 47q-79 0 -135 -49q-32 -28 -58 -2l-178 162q-26 23 -8 57z" />
<glyph unicode="&#xa1;" horiz-adv-x="579" d="M78 893q0 87 59 146t152 59t152 -59t59 -146q0 -91 -58.5 -148t-152.5 -57t-152.5 57t-58.5 148zM106 2l23 541q0 19 11 30t30 11h240q19 0 30 -11t11 -30l22 -541v-354q0 -41 -41 -41h-285q-41 0 -41 41v354z" />
<glyph unicode="&#xa2;" horiz-adv-x="1030" d="M88 449v184q0 168 80 282t231 158v146q0 41 41 41h205q41 0 41 -41v-127q124 -18 242 -86q35 -21 12 -58l-133 -200q-19 -30 -57 -15q-65 33 -138 33q-64 0 -101.5 -35t-37.5 -98v-184q0 -73 38.5 -108.5t100.5 -35.5q87 0 160 45q36 22 57 -12l134 -201q22 -32 -9 -57 q-120 -85 -268 -100v-144q0 -41 -41 -41h-205q-41 0 -41 41v162q-152 44 -231.5 160.5t-79.5 290.5z" />
<glyph unicode="&#xa3;" horiz-adv-x="1183" d="M82 41v233q0 34 39 43q63 14 88.5 71.5t23.5 133.5v76h-110q-41 0 -41 41v231q0 41 41 41h110v133q0 215 119.5 332t347.5 117q231 0 392 -109q32 -22 8 -57l-133 -184q-20 -28 -58 -13q-94 46 -184 46q-145 0 -145 -150v-115h258q41 0 41 -41v-231q0 -41 -41 -41h-260 v-76q0 -146 -86 -209h581q41 0 41 -41v-231q0 -41 -41 -41h-950q-41 0 -41 41z" />
<glyph unicode="&#xa4;" horiz-adv-x="1316" d="M100 1059q-28 29 0 57l136 135q28 29 57 0l108 -108q108 57 244 57q148 0 260 -65l119 118q28 29 57 0l136 -135q29 -28 0 -57l-127 -127q49 -98 49 -225q0 -133 -58 -246l136 -135q29 -29 0 -58l-138 -133q-29 -29 -57 0l-133 133q-110 -55 -244 -55q-127 0 -227 47 l-125 -125q-30 -30 -57 0l-134 137q-27 31 0 58l115 114q-65 112 -65 263q0 139 57 241zM455 709q0 -86 52.5 -139.5t137.5 -53.5t138 54t53 139t-53 137.5t-138 52.5q-84 0 -137 -53t-53 -137z" />
<glyph unicode="&#xa5;" horiz-adv-x="1329" d="M54.5 1450.5q8.5 13.5 31.5 13.5h330q34 0 47 -32l201 -502l200 502q13 32 47 32h332q23 0 31.5 -13.5t-0.5 -35.5l-320 -645h131q41 0 41 -41v-172q0 -41 -41 -41h-231v-74h231q41 0 41 -41v-159q0 -41 -41 -41h-231v-160q0 -41 -41 -41h-297q-41 0 -41 41v160h-239 q-41 0 -41 41v159q0 41 41 41h239v74h-239q-41 0 -41 41v172q0 41 41 41h139l-320 645q-9 22 -0.5 35.5z" />
<glyph unicode="&#xa6;" horiz-adv-x="602" d="M125 -244v840q0 41 41 41h270q41 0 41 -41v-840q0 -41 -41 -41h-270q-41 0 -41 41zM125 887v835q0 41 41 41h270q41 0 41 -41v-835q0 -41 -41 -41h-270q-41 0 -41 41z" />
<glyph unicode="&#xa7;" horiz-adv-x="1081" d="M68 586q0 82 39.5 150t113.5 112q-110 110 -110 278q0 166 122 266.5t320 100.5q111 0 196.5 -36t161.5 -107q14 -12 15 -28t-11 -30l-135 -162q-24 -30 -57 -4q-78 58 -160 58q-100 0 -100 -76q0 -32 23.5 -56.5t62 -39.5t87.5 -33.5t100.5 -36.5t100.5 -49.5 t87.5 -71.5t62 -104.5t23.5 -145.5q0 -69 -32 -136t-89 -120q114 -82 117 -235q3 -193 -123.5 -309.5t-343.5 -116.5q-123 0 -233.5 53t-190.5 141q-24 27 -2 58l129 172q26 32 59 6q54 -45 117 -72.5t117 -27.5q53 0 80.5 20t27.5 53q0 22 -24.5 42t-65 36t-92.5 37.5 t-105.5 44.5t-105.5 58t-92.5 76.5t-65 102t-24.5 132.5zM399 616q0 -43 50 -80.5t176 -91.5q43 50 43 97q0 108 -213 166q-56 -34 -56 -91z" />
<glyph unicode="&#xa8;" horiz-adv-x="602" d="M0 1384q0 83 49 130t127 47t125 -46t47 -129q0 -82 -47 -128t-125 -46q-79 0 -127.5 45.5t-48.5 126.5zM477 1386q0 83 48.5 129t127.5 46q78 0 125 -46t47 -129q0 -82 -47 -128t-125 -46t-127 46.5t-49 127.5z" />
<glyph unicode="&#xa9;" horiz-adv-x="1622" d="M76 733q0 175 58 320t158.5 240.5t234 147.5t286.5 52q151 0 284.5 -52t233 -147.5t157.5 -240.5t58 -320q0 -177 -58 -322.5t-157.5 -240.5t-232.5 -147t-285 -52q-153 0 -286.5 52t-234 147.5t-158.5 240.5t-58 322zM262 733q0 -185 75 -318t198 -197t278 -64 q114 0 212.5 37.5t173.5 108.5t118 182.5t43 250.5q0 138 -43 249t-118 181.5t-173.5 108t-212.5 37.5q-116 0 -215 -37.5t-174.5 -108t-118.5 -181.5t-43 -249zM457 662v133q0 90 31 159.5t84.5 110.5t119.5 61.5t142 20.5q141 0 256 -74q31 -22 10 -57l-99 -139 q-19 -30 -57 -15q-52 25 -104 25q-41 0 -65.5 -25.5t-24.5 -73.5v-112q0 -53 25.5 -78t68.5 -25q54 0 108 33q36 25 58 -6l104 -145q23 -32 -2 -54q-109 -90 -278 -90q-77 0 -143.5 20.5t-119.5 61.5t-83.5 110t-30.5 159z" />
<glyph unicode="&#xab;" horiz-adv-x="1220" d="M59 567q-17 29 0 58l267 395q18 27 49 27h272q25 0 32 -14t-7 -36l-273 -401l273 -401q14 -22 7 -36t-32 -14h-272q-31 0 -49 27zM543 567q-17 29 0 58l266 395q18 27 49 27h272q25 0 32 -14t-7 -36l-272 -401l272 -401q14 -22 7 -36t-32 -14h-272q-31 0 -49 27z" />
<glyph unicode="&#xac;" horiz-adv-x="1331" d="M131 559v268q0 41 41 41h958q41 0 41 -41v-583q0 -41 -41 -41h-251q-41 0 -41 41v274h-666q-41 0 -41 41z" />
<glyph unicode="&#xad;" horiz-adv-x="819" d="M104 492v245q0 41 41 41h529q41 0 41 -41v-245q0 -41 -41 -41h-529q-41 0 -41 41z" />
<glyph unicode="&#xae;" horiz-adv-x="991" d="M70 1067q0 195 122.5 310.5t303.5 115.5t303.5 -115.5t122.5 -310.5q0 -131 -58.5 -229.5t-154 -147.5t-213.5 -49t-213.5 49t-154 147.5t-58.5 229.5zM174 1067q0 -153 91.5 -238.5t232.5 -85.5q138 0 228.5 85.5t90.5 238.5q0 154 -90.5 239t-228.5 85 q-141 0 -232.5 -85t-91.5 -239zM340 893v358q0 18 6 24.5t21 6.5h147q74 0 119 -35t45 -104q0 -107 -96 -127l92 -119q14 -22 9 -29.5t-30 -7.5h-55q-14 0 -20.5 5t-16.5 20l-86 119h-35v-111q0 -16 -0.5 -21t-5 -8.5t-16.5 -3.5h-53q-16 0 -20.5 8t-4.5 25zM440 1090h68 q65 0 65 53q0 49 -65 49h-68v-102z" />
<glyph unicode="&#xaf;" horiz-adv-x="624" d="M0 1278v164q0 41 41 41h584q41 0 41 -41v-164q0 -41 -41 -41h-584q-41 0 -41 41z" />
<glyph unicode="&#xb0;" horiz-adv-x="823" d="M57 1163q0 161 98 245.5t259 84.5q158 0 256 -85t98 -245q0 -157 -99 -244.5t-255 -87.5q-161 0 -259 85.5t-98 246.5zM289 1161q0 -59 35 -90t90 -31q54 0 88.5 31t34.5 90q0 58 -35 90.5t-88 32.5q-55 0 -90 -32.5t-35 -90.5z" />
<glyph unicode="&#xb1;" horiz-adv-x="1331" d="M145 63v230q0 41 41 41h959q41 0 41 -41v-230q0 -40 -41 -40h-959q-41 0 -41 40zM145 807v215q0 41 41 41h310v291q0 41 41 41h260q41 0 41 -41v-291h307q41 0 41 -41v-215q0 -41 -41 -41h-307v-289q0 -41 -41 -41h-260q-41 0 -41 41v289h-310q-41 0 -41 41z" />
<glyph unicode="&#xb2;" horiz-adv-x="700" d="M37 881v129q0 32 22 51l224 186q106 90 106 131t-57 41q-70 0 -135 -49q-35 -25 -58 8l-82 113q-22 32 9 57q129 97 301 97q126 0 202 -63.5t76 -166.5q0 -65 -26.5 -122t-94.5 -128q-53 -53 -123 -98h211q41 0 41 -41v-145q0 -41 -41 -41h-534q-41 0 -41 41z" />
<glyph unicode="&#xb3;" horiz-adv-x="727" d="M33 989l82 107q21 30 57 4q55 -41 156 -41q106 0 106 76q0 65 -115 65q-27 0 -43 -2q-39 -6 -51 27l-18 45q-12 31 12 55l23 23q49 49 96 82h-242q-41 0 -41 40v123q0 41 41 41h508q41 0 41 -41v-88q0 -35 -22 -51l-154 -127q20 0 49 -6q78 -16 123 -71t45 -152 q0 -126 -89 -197.5t-247 -71.5q-181 0 -313 103q-30 24 -4 57z" />
<glyph unicode="&#xb4;" horiz-adv-x="583" d="M26.5 1231.5q-7.5 14.5 6.5 34.5l172 264q17 26 49 26h274q26 0 33 -15.5t-10 -35.5l-227 -266q-19 -22 -52 -22h-213q-25 0 -32.5 14.5z" />
<glyph unicode="&#xb6;" horiz-adv-x="1652" d="M51 942q0 234 165 378t433 144h819q41 0 41 -41v-1667q0 -41 -41 -41h-276q-41 0 -41 41v1360h-195v-1360q0 -41 -41 -41h-276q-41 0 -41 41v631q-153 0 -277.5 68.5t-197 196t-72.5 290.5z" />
<glyph unicode="&#xb7;" horiz-adv-x="577" d="M78 659q0 91 58.5 148t152.5 57t152.5 -57t58.5 -148q0 -87 -59 -145.5t-152 -58.5t-152 58.5t-59 145.5z" />
<glyph unicode="&#xb8;" horiz-adv-x="380" d="M0 -309q0 39 45 30q28 -4 47 -4q98 0 98 52q0 47 -94 55q-24 1 -27 10.5t5 28.5l43 114q13 33 47 33h82q23 0 31 -12.5t-1 -34.5l-22 -55q180 -12 180 -162q0 -87 -76.5 -134.5t-216.5 -47.5q-56 0 -108 14q-33 9 -33 47v66z" />
<glyph unicode="&#xb9;" horiz-adv-x="555" d="M5.5 1471q2.5 16 19.5 26l186 123q19 14 51 14h174q41 0 41 -41v-712q0 -41 -41 -41h-168q-41 0 -41 41v471l-71 -45q-35 -25 -56 10l-86 123q-11 15 -8.5 31z" />
<glyph unicode="&#xbb;" horiz-adv-x="1220" d="M60.5 159q-6.5 14 7.5 36l272 401l-272 401q-14 22 -7.5 36t31.5 14h273q31 0 49 -27l266 -395q17 -29 0 -58l-266 -395q-18 -27 -49 -27h-273q-25 0 -31.5 14zM543.5 159q-6.5 14 7.5 36l272 401l-272 401q-14 22 -7.5 36t31.5 14h273q31 0 49 -27l266 -395 q17 -29 0 -58l-266 -395q-18 -27 -49 -27h-273q-25 0 -31.5 14z" />
<glyph unicode="&#xbc;" horiz-adv-x="1896" d="M46.5 1301q2.5 16 19.5 26l186 123q19 14 51 14h174q41 0 41 -41v-712q0 -41 -41 -41h-168q-41 0 -41 41v471l-71 -45q-35 -25 -56 10l-86 123q-11 15 -8.5 31zM341.5 14.5q-7.5 14.5 4.5 34.5l862 1389q16 26 49 26h193q24 0 31.5 -14.5t-4.5 -34.5l-863 -1388 q-16 -27 -49 -27h-192q-24 0 -31.5 14.5zM1112 160v133q0 24 12 51l215 422q15 29 47 29h177q23 0 31.5 -14t-1.5 -36l-207 -403h115l17 98q5 37 43 37h151q41 0 41 -41v-98h43q41 0 41 -41v-137q0 -41 -41 -41h-43v-78q0 -41 -41 -41h-170q-41 0 -41 41v78h-348 q-41 0 -41 41z" />
<glyph unicode="&#xbd;" horiz-adv-x="1830" d="M48.5 1301q2.5 16 19.5 26l186 123q19 14 51 14h174q41 0 41 -41v-712q0 -41 -41 -41h-168q-41 0 -41 41v471l-71 -45q-35 -25 -56 10l-86 123q-11 15 -8.5 31zM271.5 14.5q-7.5 14.5 4.5 34.5l863 1389q16 26 49 26h192q24 0 31.5 -14.5t-4.5 -34.5l-862 -1388 q-16 -27 -49 -27h-193q-24 0 -31.5 14.5zM1137 41v129q0 32 22 51l223 187q58 49 82.5 79t24.5 52q0 41 -57 41q-70 0 -136 -50q-34 -24 -57 9l-82 112q-23 33 8 58q128 96 301 96q126 0 202.5 -63.5t76.5 -166.5q0 -65 -26.5 -121.5t-94.5 -127.5q-56 -56 -123 -99h211 q41 0 41 -41v-145q0 -41 -41 -41h-534q-41 0 -41 41z" />
<glyph unicode="&#xbe;" horiz-adv-x="1937" d="M70 819l82 107q21 30 57 4q55 -41 156 -41q106 0 106 76q0 65 -115 65q-27 0 -43 -2q-39 -6 -51 27l-18 45q-12 31 12 55l119 105h-242q-41 0 -41 40v123q0 41 41 41h508q41 0 41 -41v-88q0 -34 -23 -51l-153 -127q20 0 49 -6q78 -16 123 -71t45 -152q0 -126 -89 -197.5 t-247 -71.5q-181 0 -313 103q-30 24 -4 57zM390.5 14.5q-7.5 14.5 4.5 34.5l862 1389q16 26 50 26h192q24 0 31.5 -14.5t-4.5 -34.5l-862 -1388q-16 -27 -50 -27h-192q-24 0 -31.5 14.5zM1159 160v133q0 24 12 51l215 422q14 29 48 29h176q23 0 31.5 -14t-1.5 -36l-206 -403 h114l17 98q5 37 43 37h151q41 0 41 -41v-98h43q41 0 41 -41v-137q0 -41 -41 -41h-43v-78q0 -41 -41 -41h-170q-41 0 -41 41v78h-348q-41 0 -41 41z" />
<glyph unicode="&#xbf;" horiz-adv-x="1073" d="M59 12q0 73 19 129.5t49 91.5t66.5 62.5t73 50.5t66.5 48t49 62.5t19 86.5v26q0 17 10 23t31 6h275q41 0 41 -41v-55q0 -68 -18 -121t-46 -86t-62.5 -59t-69 -46.5t-62.5 -42t-46 -51.5t-18 -69q0 -52 35 -85.5t113 -33.5q143 0 247 88q37 29 58 -6l135 -207 q19 -32 -6 -57q-49 -45 -118 -78.5t-145 -51.5t-158 -19.5t-159 12t-146 48t-120.5 84.5t-82 125t-30.5 166zM365 893q0 87 58.5 146t151.5 59t152 -59t59 -146q0 -91 -58.5 -148t-152.5 -57t-152 57t-58 148z" />
<glyph unicode="&#xc0;" horiz-adv-x="1404" d="M6 47l463 1385q11 32 45 32h377q34 0 45 -32l463 -1385q7 -22 -2 -34.5t-31 -12.5h-338q-39 0 -47 35l-55 201h-445l-57 -201q-8 -35 -47 -35h-338q-22 0 -31 12.5t-2 34.5zM303 1887q7 16 33 16h301q30 0 49 -25l203 -266q15 -20 7.5 -34.5t-32.5 -14.5h-239 q-35 0 -52 20l-258 268q-19 20 -12 36zM578 573h251l-122 457h-9z" />
<glyph unicode="&#xc1;" horiz-adv-x="1404" d="M6 47l463 1385q11 32 45 32h377q34 0 45 -32l463 -1385q7 -22 -2 -34.5t-31 -12.5h-338q-39 0 -47 35l-55 201h-445l-57 -201q-8 -35 -47 -35h-338q-22 0 -31 12.5t-2 34.5zM490 1577.5q-7 14.5 8 34.5l202 266q19 25 50 25h301q26 0 32.5 -16t-12.5 -36l-258 -268 q-17 -20 -51 -20h-240q-25 0 -32 14.5zM578 573h251l-122 457h-9z" />
<glyph unicode="&#xc2;" horiz-adv-x="1404" d="M6 47l463 1385q11 32 45 32h377q34 0 45 -32l463 -1385q7 -22 -2 -34.5t-31 -12.5h-338q-39 0 -47 35l-55 201h-445l-57 -201q-8 -35 -47 -35h-338q-22 0 -31 12.5t-2 34.5zM317.5 1578.5q-6.5 15.5 10.5 35.5l229 266q20 23 51 23h193q31 0 51 -23l225 -266 q17 -20 10.5 -35.5t-32.5 -15.5h-226q-33 0 -49 24l-75 101l-80 -101q-18 -24 -50 -24h-225q-26 0 -32.5 15.5zM578 573h251l-122 457h-9z" />
<glyph unicode="&#xc3;" horiz-adv-x="1404" d="M6 47l463 1385q11 32 45 32h377q34 0 45 -32l463 -1385q7 -22 -2 -34.5t-31 -12.5h-338q-39 0 -47 35l-55 201h-445l-57 -201q-8 -35 -47 -35h-338q-22 0 -31 12.5t-2 34.5zM291 1702q14 37 34.5 72.5t50 70t70 55.5t84.5 21q28 0 64 -11t51 -18t57 -28q85 -45 115 -45 q34 0 70 61q23 33 55 16l152 -77q33 -17 24 -45q-14 -39 -35.5 -76.5t-51.5 -73t-70 -57t-84 -21.5q-12 0 -24 1.5t-26.5 6t-23 7t-26.5 11t-23 10.5t-26 12.5l-23 11.5q-81 43 -109 43q-38 0 -78 -62q-21 -34 -55 -16l-152 78q-35 18 -20 53zM578 573h251l-122 457h-9z" />
<glyph unicode="&#xc4;" horiz-adv-x="1404" d="M6 47l463 1385q11 32 45 32h377q34 0 45 -32l463 -1385q7 -22 -2 -34.5t-31 -12.5h-338q-39 0 -47 35l-55 201h-445l-57 -201q-8 -35 -47 -35h-338q-22 0 -31 12.5t-2 34.5zM289 1733q0 76 50.5 126t127.5 50t127.5 -50t50.5 -126t-50.5 -126.5t-127.5 -50.5t-127.5 50.5 t-50.5 126.5zM578 573h251l-122 457h-9zM756 1733q0 77 49.5 126.5t130.5 49.5q78 0 129 -50t51 -126q0 -77 -51 -127t-129 -50q-81 0 -130.5 50t-49.5 127z" />
<glyph unicode="&#xc5;" horiz-adv-x="1404" d="M6 47l463 1385q11 32 45 32h377q34 0 45 -32l463 -1385q7 -22 -2 -34.5t-31 -12.5h-338q-39 0 -47 35l-55 201h-445l-57 -201q-8 -35 -47 -35h-338q-22 0 -31 12.5t-2 34.5zM391 1802q0 121 85.5 196t225.5 75q142 0 228 -75t86 -196q0 -122 -86 -197t-228 -75 q-141 0 -226 75t-85 197zM578 573h251l-122 457h-9zM608 1802q0 -41 25 -64.5t69 -23.5q46 0 71.5 23.5t25.5 64.5q0 39 -26 61.5t-71 22.5q-44 0 -69 -22.5t-25 -61.5z" />
<glyph unicode="&#xc6;" horiz-adv-x="1890" d="M-17 12.5q-8 12.5 1 34.5l637 1387q13 30 47 30h1065q41 0 41 -41v-276q0 -41 -41 -41h-519v-195h439q41 0 41 -41v-268q0 -41 -41 -41h-439v-201h553q41 0 41 -41v-278q0 -41 -41 -41h-905q-41 0 -41 41v199h-321l-88 -209q-11 -31 -47 -31h-351q-23 0 -31 12.5z M635 578h186v450h-12z" />
<glyph unicode="&#xc7;" horiz-adv-x="1220" d="M94 535v397q0 263 165 412t460 149q252 0 438 -125q34 -21 10 -55l-157 -244q-20 -33 -58 -12q-94 57 -219 57q-109 0 -170 -57t-61 -148v-350q0 -100 59 -154.5t164 -54.5q136 0 250 70q36 22 55 -10l160 -244q24 -34 2 -49q-189 -138 -449 -146l-28 -65 q94 -6 139 -45.5t45 -116.5q0 -89 -78 -137.5t-223 -48.5q-53 0 -109 16q-32 8 -32 45v70q0 39 45 30q28 -4 47 -4q98 0 98 52q0 23 -19 36t-73 19q-25 1 -31.5 12t2.5 31l47 117q-233 34 -356 177.5t-123 375.5z" />
<glyph unicode="&#xc8;" horiz-adv-x="1222" d="M137 41v1382q0 41 41 41h889q41 0 41 -41v-276q0 -41 -41 -41h-530v-191h450q41 0 41 -41v-268q0 -41 -41 -41h-450v-207h565q41 0 41 -41v-276q0 -41 -41 -41h-924q-41 0 -41 41zM248 1887q7 16 33 16h301q30 0 49 -25l203 -266q15 -20 7.5 -34.5t-32.5 -14.5h-240 q-33 0 -51 20l-258 268q-19 20 -12 36z" />
<glyph unicode="&#xc9;" horiz-adv-x="1222" d="M137 41v1382q0 41 41 41h889q41 0 41 -41v-276q0 -41 -41 -41h-530v-191h450q41 0 41 -41v-268q0 -41 -41 -41h-450v-207h565q41 0 41 -41v-276q0 -41 -41 -41h-924q-41 0 -41 41zM414 1577.5q-7 14.5 8 34.5l203 266q19 25 49 25h301q26 0 32.5 -16t-12.5 -36l-258 -268 q-17 -20 -51 -20h-240q-25 0 -32 14.5z" />
<glyph unicode="&#xca;" horiz-adv-x="1222" d="M137 41v1382q0 41 41 41h889q41 0 41 -41v-276q0 -41 -41 -41h-530v-191h450q41 0 41 -41v-268q0 -41 -41 -41h-450v-207h565q41 0 41 -41v-276q0 -41 -41 -41h-924q-41 0 -41 41zM243.5 1578.5q-6.5 15.5 10.5 35.5l229 266q20 23 52 23h192q31 0 51 -23l226 -266 q17 -20 10 -35.5t-33 -15.5h-225q-33 0 -49 24l-76 101l-80 -101q-18 -24 -49 -24h-226q-26 0 -32.5 15.5z" />
<glyph unicode="&#xcb;" horiz-adv-x="1222" d="M137 41v1382q0 41 41 41h889q41 0 41 -41v-276q0 -41 -41 -41h-530v-191h450q41 0 41 -41v-268q0 -41 -41 -41h-450v-207h565q41 0 41 -41v-276q0 -41 -41 -41h-924q-41 0 -41 41zM213 1733q0 76 50.5 126t127.5 50t127.5 -50t50.5 -126t-50.5 -126.5t-127.5 -50.5 t-127.5 50.5t-50.5 126.5zM680 1733q0 77 49.5 126.5t130.5 49.5q78 0 129 -50t51 -126q0 -77 -51 -127t-129 -50q-81 0 -130.5 50t-49.5 127z" />
<glyph unicode="&#xcc;" horiz-adv-x="673" d="M-61.5 1887q6.5 16 32.5 16h301q31 0 50 -25l202 -266q15 -20 8 -34.5t-32 -14.5h-240q-34 0 -51 20l-258 268q-19 20 -12.5 36zM137 41v1382q0 41 41 41h318q41 0 41 -41v-1382q0 -41 -41 -41h-318q-41 0 -41 41z" />
<glyph unicode="&#xcd;" horiz-adv-x="673" d="M123.5 1577.5q-7.5 14.5 7.5 34.5l203 266q19 25 49 25h301q26 0 33 -16t-12 -36l-259 -268q-17 -20 -51 -20h-239q-25 0 -32.5 14.5zM135 41v1382q0 41 41 41h318q41 0 41 -41v-1382q0 -41 -41 -41h-318q-41 0 -41 41z" />
<glyph unicode="&#xce;" horiz-adv-x="673" d="M-35 1578.5q-7 15.5 10 35.5l236 266q20 23 51 23h164q31 0 51 -23l234 -266q17 -20 10 -35.5t-33 -15.5h-235q-33 0 -50 26l-59 88l-61 -88q-17 -26 -50 -26h-235q-26 0 -33 15.5zM137 41v1382q0 41 41 41h318q41 0 41 -41v-1382q0 -41 -41 -41h-318q-41 0 -41 41z" />
<glyph unicode="&#xcf;" horiz-adv-x="673" d="M-35 1733q0 73 48 120.5t122 47.5t122 -47.5t48 -120.5t-48 -120.5t-122 -47.5t-122 47.5t-48 120.5zM137 41v1382q0 41 41 41h318q41 0 41 -41v-1382q0 -41 -41 -41h-318q-41 0 -41 41zM389 1733q0 74 48 121t124 47q75 0 123.5 -47.5t48.5 -120.5t-48.5 -120.5 t-123.5 -47.5q-76 0 -124 47t-48 121z" />
<glyph unicode="&#xd0;" horiz-adv-x="1421" d="M14 670v143q0 41 41 41h119v569q0 41 41 41h508q83 0 154.5 -11t141.5 -36.5t124.5 -71t96.5 -109.5t64.5 -157.5t22.5 -210.5v-272q0 -142 -33.5 -249t-88 -172t-134.5 -105t-163.5 -55t-184.5 -15h-508q-41 0 -41 41v588h-119q-41 0 -41 41zM573 375h158q94 0 140.5 47 t46.5 149v324q0 195 -187 195h-158v-236h154q41 0 41 -41v-143q0 -41 -41 -41h-154v-254z" />
<glyph unicode="&#xd1;" horiz-adv-x="1464" d="M137 41v1382q0 41 41 41h330q33 0 47 -28l164 -312q178 -343 231 -495l8 2q-26 279 -26 540v252q0 41 41 41h313q41 0 41 -41v-1382q0 -41 -41 -41h-328q-33 0 -49 29l-161 270q-71 122 -145 284.5t-107 258.5l-9 -2q45 -332 45 -602v-197q0 -41 -40 -41h-314 q-41 0 -41 41zM322 1708q14 37 34.5 72.5t50 70t70 55.5t84.5 21q28 0 64 -11t51 -18t57 -28q85 -45 115 -45q34 0 70 61q23 34 55 17l151 -78q34 -18 25 -45q-32 -88 -95.5 -158t-146.5 -70q-12 0 -24 1.5t-26.5 6t-23 7t-26.5 11t-23 10.5t-26 12.5l-23 11.5 q-81 43 -108 43q-38 0 -78 -62q-21 -34 -55 -16l-152 78q-35 18 -20 53z" />
<glyph unicode="&#xd2;" horiz-adv-x="1413" d="M92 567v334q0 280 162.5 436t452.5 156t452 -156t162 -436v-334q0 -281 -162 -438.5t-452 -157.5t-452.5 157.5t-162.5 438.5zM307 1907.5q7 15.5 33 15.5h301q30 0 49 -25l203 -266q15 -20 7.5 -34.5t-32.5 -14.5h-239q-33 0 -51 21l-259 268q-19 20 -12 35.5zM502 578 q0 -228 205 -228q204 0 204 228v313q0 223 -204 223q-205 0 -205 -223v-313z" />
<glyph unicode="&#xd3;" horiz-adv-x="1413" d="M92 567v334q0 280 162.5 436t452.5 156t452 -156t162 -436v-334q0 -281 -162 -438.5t-452 -157.5t-452.5 157.5t-162.5 438.5zM494 1597.5q-7 14.5 8 34.5l203 266q19 25 49 25h301q26 0 32.5 -15.5t-12.5 -35.5l-258 -268q-18 -21 -51 -21h-240q-25 0 -32 14.5zM502 578 q0 -228 205 -228q204 0 204 228v313q0 223 -204 223q-205 0 -205 -223v-313z" />
<glyph unicode="&#xd4;" horiz-adv-x="1413" d="M92 567v334q0 280 162.5 436t452.5 156t452 -156t162 -436v-334q0 -281 -162 -438.5t-452 -157.5t-452.5 157.5t-162.5 438.5zM321.5 1598.5q-6.5 15.5 10.5 35.5l229 267q19 22 51 22h193q32 0 51 -22l225 -267q17 -20 10.5 -35.5t-32.5 -15.5h-225q-33 0 -50 25 l-75 100l-80 -100q-19 -25 -49 -25h-226q-26 0 -32.5 15.5zM502 578q0 -228 205 -228q204 0 204 228v313q0 223 -204 223q-205 0 -205 -223v-313z" />
<glyph unicode="&#xd5;" horiz-adv-x="1413" d="M92 567v334q0 280 162.5 436t452.5 156t452 -156t162 -436v-334q0 -281 -162 -438.5t-452 -157.5t-452.5 157.5t-162.5 438.5zM295 1729q31 84 93.5 151.5t146.5 67.5q11 0 23 -1.5t22 -3.5t23.5 -7t21 -7.5t22 -9.5t20 -9.5t21 -10t19.5 -9.5q85 -45 114 -45q33 0 70 62 q23 33 55 16l152 -78q33 -17 24 -45q-32 -88 -95 -157.5t-146 -69.5q-26 0 -61.5 11.5t-50.5 18.5t-60 29q-81 43 -109 43q-39 0 -78 -61q-21 -35 -55 -17l-152 78q-35 18 -20 54zM502 578q0 -228 205 -228q204 0 204 228v313q0 223 -204 223q-205 0 -205 -223v-313z" />
<glyph unicode="&#xd6;" horiz-adv-x="1413" d="M92 567v334q0 280 162.5 436t452.5 156t452 -156t162 -436v-334q0 -281 -162 -438.5t-452 -157.5t-452.5 157.5t-162.5 438.5zM293 1753q0 76 50.5 126t127.5 50t127.5 -50t50.5 -126t-50.5 -126t-127.5 -50t-127.5 50t-50.5 126zM502 578q0 -228 205 -228q204 0 204 228 v313q0 223 -204 223q-205 0 -205 -223v-313zM760 1753q0 77 49.5 126.5t130.5 49.5q78 0 129 -50t51 -126t-51 -126t-129 -50q-81 0 -130.5 49.5t-49.5 126.5z" />
<glyph unicode="&#xd7;" horiz-adv-x="1331" d="M156 336q-28 28 0 57l256 256l-256 256q-29 29 0 58l196 196q29 29 58 0l256 -256l256 256q28 29 57 0l197 -196q29 -29 0 -58l-256 -256l256 -256q28 -29 0 -57l-197 -197q-29 -29 -57 0l-256 256l-256 -256q-29 -29 -58 0z" />
<glyph unicode="&#xd8;" horiz-adv-x="1413" d="M92 567v334q0 280 162.5 436t452.5 156q129 0 239 -35l43 82q15 29 49 29h209q23 0 32 -13.5t-1 -35.5l-104 -199q147 -153 147 -420v-334q0 -281 -162 -438.5t-452 -157.5q-114 0 -224 29l-43 -84q-14 -29 -49 -29h-209q-23 0 -31.5 14t1.5 36l100 192 q-160 157 -160 438zM502 578q0 -228 205 -228q204 0 204 228v313q0 223 -204 223q-205 0 -205 -223v-313z" />
<glyph unicode="&#xd9;" horiz-adv-x="1413" d="M125 561v862q0 41 41 41h321q41 0 41 -41v-870q0 -203 179 -203q87 0 132.5 52t45.5 151v870q0 41 41 41h321q41 0 41 -41v-862q0 -289 -148.5 -439.5t-432.5 -150.5q-286 0 -434 150.5t-148 439.5zM307 1887q7 16 33 16h301q30 0 49 -25l203 -266q15 -20 7.5 -34.5 t-32.5 -14.5h-239q-33 0 -51 20l-259 268q-19 20 -12 36z" />
<glyph unicode="&#xda;" horiz-adv-x="1413" d="M125 561v862q0 41 41 41h321q41 0 41 -41v-870q0 -203 179 -203q87 0 132.5 52t45.5 151v870q0 41 41 41h321q41 0 41 -41v-862q0 -289 -148.5 -439.5t-432.5 -150.5q-286 0 -434 150.5t-148 439.5zM494 1577.5q-7 14.5 8 34.5l203 266q19 25 49 25h301q26 0 32.5 -16 t-12.5 -36l-258 -268q-17 -20 -51 -20h-240q-25 0 -32 14.5z" />
<glyph unicode="&#xdb;" horiz-adv-x="1413" d="M125 561v862q0 41 41 41h321q41 0 41 -41v-870q0 -203 179 -203q87 0 132.5 52t45.5 151v870q0 41 41 41h321q41 0 41 -41v-862q0 -289 -148.5 -439.5t-432.5 -150.5q-286 0 -434 150.5t-148 439.5zM321.5 1578.5q-6.5 15.5 10.5 35.5l229 266q20 23 51 23h193 q31 0 51 -23l225 -266q17 -20 10.5 -35.5t-32.5 -15.5h-225q-34 0 -50 24l-75 101l-80 -101q-18 -24 -49 -24h-226q-26 0 -32.5 15.5z" />
<glyph unicode="&#xdc;" horiz-adv-x="1413" d="M125 561v862q0 41 41 41h321q41 0 41 -41v-870q0 -203 179 -203q87 0 132.5 52t45.5 151v870q0 41 41 41h321q41 0 41 -41v-862q0 -289 -148.5 -439.5t-432.5 -150.5q-286 0 -434 150.5t-148 439.5zM293 1733q0 76 50.5 126t127.5 50t127.5 -50t50.5 -126t-50.5 -126.5 t-127.5 -50.5t-127.5 50.5t-50.5 126.5zM760 1733q0 77 49.5 126.5t130.5 49.5q78 0 129 -50t51 -126q0 -77 -51 -127t-129 -50q-81 0 -130.5 50t-49.5 127z" />
<glyph unicode="&#xdd;" horiz-adv-x="1294" d="M5 1450.5q9 13.5 32 13.5h350q34 0 47 -32l213 -537l213 537q13 32 47 32h350q23 0 32 -13.5t-1 -35.5l-440 -909v-465q0 -41 -41 -41h-320q-41 0 -41 41v465l-440 909q-10 22 -1 35.5zM434.5 1577.5q-7.5 14.5 7.5 34.5l203 266q19 25 49 25h301q26 0 33 -16t-12 -36 l-258 -268q-18 -20 -51 -20h-240q-25 0 -32.5 14.5z" />
<glyph unicode="&#xde;" horiz-adv-x="1341" d="M137 41v1382q0 41 41 41h318q41 0 41 -41v-141h208q242 0 385.5 -146t143.5 -386q0 -245 -143.5 -393t-385.5 -148h-208v-168q0 -41 -41 -41h-318q-41 0 -41 41zM537 578h149q92 0 135 41.5t43 130.5q0 85 -43 124t-135 39h-149v-335z" />
<glyph unicode="&#xdf;" horiz-adv-x="1232" d="M100 41v948q0 244 135 374t381 130q233 0 365.5 -113.5t132.5 -314.5q0 -82 -45 -158t-113 -110q102 -45 160 -140t58 -213q0 -228 -118 -349.5t-331 -121.5q-59 0 -131 13q-35 8 -35 45v262q0 43 43 37q40 -4 64 -4q122 0 122 127q0 67 -33.5 100t-107.5 33h-47 q-41 0 -41 41v235q0 41 41 41h39q92 0 92 127q0 56 -33 87.5t-94 31.5q-127 0 -127 -156v-952q0 -41 -41 -41h-295q-41 0 -41 41z" />
<glyph unicode="&#xe0;" horiz-adv-x="1093" d="M37 334q0 154 112.5 232.5t331.5 78.5q81 0 146 -10v4q0 66 -30.5 100.5t-113.5 34.5q-59 0 -125 -13.5t-106 -33.5q-37 -20 -55 14l-95 199q-21 34 0 49q79 47 193.5 78t243.5 31q467 0 467 -494v-532q0 -37 -35 -45q-191 -56 -430 -56q-255 0 -379.5 93t-124.5 270z M209 1520.5q7 15.5 33 15.5h274q31 0 49 -27l172 -264q14 -20 6.5 -34.5t-32.5 -14.5h-213q-32 0 -52 23l-227 266q-17 20 -10 35.5zM422 348q0 -40 30 -62t87 -22q42 0 88 8v140q-48 10 -90 10q-115 0 -115 -74z" />
<glyph unicode="&#xe1;" horiz-adv-x="1093" d="M37 334q0 154 112.5 232.5t331.5 78.5q81 0 146 -10v4q0 66 -30.5 100.5t-113.5 34.5q-59 0 -125 -13.5t-106 -33.5q-37 -20 -55 14l-95 199q-21 34 0 49q79 47 193.5 78t243.5 31q467 0 467 -494v-532q0 -37 -35 -45q-191 -56 -430 -56q-255 0 -379.5 93t-124.5 270z M350 1210.5q-8 14.5 6 34.5l172 264q18 27 50 27h274q26 0 32.5 -15.5t-10.5 -35.5l-227 -266q-20 -23 -51 -23h-213q-25 0 -33 14.5zM422 348q0 -40 30 -62t87 -22q42 0 88 8v140q-48 10 -90 10q-115 0 -115 -74z" />
<glyph unicode="&#xe2;" horiz-adv-x="1093" d="M37 334q0 154 112.5 232.5t331.5 78.5q81 0 146 -10v4q0 66 -30.5 100.5t-113.5 34.5q-59 0 -125 -13.5t-106 -33.5q-37 -20 -55 14l-95 199q-21 34 0 49q79 47 193.5 78t243.5 31q467 0 467 -494v-532q0 -37 -35 -45q-191 -56 -430 -56q-255 0 -379.5 93t-124.5 270z M172 1211.5q-7 15.5 10 35.5l230 266q20 23 51 23h180q31 0 51 -23l226 -266q17 -20 10 -35.5t-33 -15.5h-211q-30 0 -49 25l-84 110l-88 -110q-19 -25 -49 -25h-211q-26 0 -33 15.5zM422 348q0 -40 30 -62t87 -22q42 0 88 8v140q-48 10 -90 10q-115 0 -115 -74z" />
<glyph unicode="&#xe3;" horiz-adv-x="1093" d="M37 334q0 154 112.5 232.5t331.5 78.5q81 0 146 -10v4q0 66 -30.5 100.5t-113.5 34.5q-59 0 -125 -13.5t-106 -33.5q-37 -20 -55 14l-95 199q-21 34 0 49q79 47 193.5 78t243.5 31q467 0 467 -494v-532q0 -37 -35 -45q-191 -56 -430 -56q-255 0 -379.5 93t-124.5 270z M131 1327q31 84 93.5 151.5t146.5 67.5q28 0 64 -11t51 -18t57 -28q85 -45 114 -45q34 0 70 61q23 34 55 17l152 -78q33 -17 24 -45q-14 -39 -35.5 -76.5t-51.5 -73t-70 -57t-84 -21.5q-12 0 -24 1.5t-26.5 6t-23 7t-26.5 11t-23 10.5t-26 12.5l-23 11.5q-81 43 -109 43 q-38 0 -78 -62q-21 -34 -55 -16l-151 78q-36 19 -21 53zM422 348q0 -40 30 -62t87 -22q42 0 88 8v140q-48 10 -90 10q-115 0 -115 -74z" />
<glyph unicode="&#xe4;" horiz-adv-x="1093" d="M37 334q0 154 112.5 232.5t331.5 78.5q81 0 146 -10v4q0 66 -30.5 100.5t-113.5 34.5q-59 0 -125 -13.5t-106 -33.5q-37 -20 -55 14l-95 199q-21 34 0 49q79 47 193.5 78t243.5 31q467 0 467 -494v-532q0 -37 -35 -45q-191 -56 -430 -56q-255 0 -379.5 93t-124.5 270z M137 1364q0 83 48.5 129.5t127.5 46.5q78 0 125 -45.5t47 -128.5q0 -82 -47 -128t-125 -46q-79 0 -127.5 45.5t-48.5 126.5zM422 348q0 -40 30 -62t87 -22q42 0 88 8v140q-48 10 -90 10q-115 0 -115 -74zM614 1366q0 83 49 128.5t128 45.5q78 0 125 -45.5t47 -128.5 q0 -82 -47 -128t-125 -46q-79 0 -128 46.5t-49 127.5z" />
<glyph unicode="&#xe5;" horiz-adv-x="1093" d="M37 334q0 154 112.5 232.5t331.5 78.5q81 0 146 -10v4q0 66 -30.5 100.5t-113.5 34.5q-59 0 -125 -13.5t-106 -33.5q-37 -20 -55 14l-95 199q-21 34 0 49q79 47 193.5 78t243.5 31q467 0 467 -494v-532q0 -37 -35 -45q-191 -56 -430 -56q-255 0 -379.5 93t-124.5 270z M268 1436q0 113 79 183.5t208 70.5t208 -70.5t79 -183.5q0 -114 -79 -185t-208 -71t-208 71t-79 185zM422 348q0 -40 30 -62t87 -22q42 0 88 8v140q-48 10 -90 10q-115 0 -115 -74zM463 1436q0 -38 25.5 -62t66.5 -24q43 0 67.5 23.5t24.5 62.5q0 84 -92 84q-42 0 -67 -22 t-25 -62z" />
<glyph unicode="&#xe6;" horiz-adv-x="1609" d="M39 324q0 162 118 246.5t349 84.5q62 0 121 -6v2q0 62 -39 91.5t-119 29.5q-113 0 -207 -49q-35 -18 -55 14l-121 197q-20 38 12 57q84 51 190 79t208 28q181 0 297 -90q124 90 307 90q207 0 324.5 -118t117.5 -329v-184q0 -41 -41 -41h-516v-8q0 -125 135 -125 q50 0 111 15.5t110 43.5q34 21 56 -10l131 -182q23 -33 -8 -58q-169 -131 -420 -131q-172 0 -275 70q-128 -70 -327 -70q-223 0 -341 92.5t-118 260.5zM410 342q0 -76 120 -76q63 0 113 17q-16 37 -16 86v49q-49 6 -90 6q-127 0 -127 -82zM985 647h205v31q0 66 -24.5 96.5 t-75.5 30.5q-105 0 -105 -127v-31z" />
<glyph unicode="&#xe7;" horiz-adv-x="974" d="M70 449v184q0 218 131 341.5t374 123.5q181 0 338 -92q35 -21 13 -58l-133 -200q-19 -31 -58 -15q-65 33 -141 33q-64 0 -101.5 -35t-37.5 -98v-184q0 -73 38.5 -108.5t100.5 -35.5q83 0 156 45q35 20 57 -12l133 -201q23 -33 -6 -55q-136 -98 -318 -107l-26 -67 q180 -12 180 -162q0 -87 -76.5 -134.5t-216.5 -47.5q-56 0 -108 14q-33 9 -33 47v66q0 39 45 30q28 -4 47 -4q98 0 98 52q0 47 -94 55q-24 1 -27 10.5t5 28.5l45 121q-187 29 -286 150t-99 315z" />
<glyph unicode="&#xe8;" horiz-adv-x="1097" d="M72 422v229q0 223 133 335t360 112q219 0 344 -109.5t125 -337.5v-188q0 -41 -41 -41h-540v-10q0 -64 35.5 -97.5t103.5 -33.5q131 0 233 57q34 21 56 -10l123 -168q24 -34 -7 -58q-169 -131 -419 -131q-228 0 -367 117.5t-139 333.5zM213 1520.5q7 15.5 33 15.5h274 q31 0 49 -27l172 -264q14 -20 6.5 -34.5t-32.5 -14.5h-213q-31 0 -51 23l-228 266q-17 20 -10 35.5zM453 641h219v33q0 60 -28.5 91.5t-82.5 31.5q-108 0 -108 -123v-33z" />
<glyph unicode="&#xe9;" horiz-adv-x="1097" d="M72 422v229q0 223 133 335t360 112q219 0 344 -109.5t125 -337.5v-188q0 -41 -41 -41h-540v-10q0 -64 35.5 -97.5t103.5 -33.5q131 0 233 57q34 21 56 -10l123 -168q24 -34 -7 -58q-169 -131 -419 -131q-228 0 -367 117.5t-139 333.5zM358.5 1210.5q-7.5 14.5 6.5 34.5 l172 264q18 27 49 27h274q26 0 33 -15.5t-10 -35.5l-228 -266q-20 -23 -51 -23h-213q-25 0 -32.5 14.5zM453 641h219v33q0 60 -28.5 91.5t-82.5 31.5q-108 0 -108 -123v-33z" />
<glyph unicode="&#xea;" horiz-adv-x="1097" d="M72 422v229q0 223 133 335t360 112q219 0 344 -109.5t125 -337.5v-188q0 -41 -41 -41h-540v-10q0 -64 35.5 -97.5t103.5 -33.5q131 0 233 57q34 21 56 -10l123 -168q24 -34 -7 -58q-169 -131 -419 -131q-228 0 -367 117.5t-139 333.5zM184.5 1195.5q-6.5 15.5 10.5 35.5 l229 266q20 23 51 23h180q32 0 52 -23l225 -266q17 -20 10 -35.5t-33 -15.5h-211q-31 0 -49 24l-84 111l-88 -111q-18 -24 -49 -24h-211q-26 0 -32.5 15.5zM453 641h219v33q0 60 -28.5 91.5t-82.5 31.5q-108 0 -108 -123v-33z" />
<glyph unicode="&#xeb;" horiz-adv-x="1097" d="M72 422v229q0 223 133 335t360 112q219 0 344 -109.5t125 -337.5v-188q0 -41 -41 -41h-540v-10q0 -64 35.5 -97.5t103.5 -33.5q131 0 233 57q34 21 56 -10l123 -168q24 -34 -7 -58q-169 -131 -419 -131q-228 0 -367 117.5t-139 333.5zM147 1343q0 83 49 130t128 47 q78 0 125 -45.5t47 -128.5q0 -82 -47 -128.5t-125 -46.5q-79 0 -128 45.5t-49 126.5zM453 641h219v33q0 60 -28.5 91.5t-82.5 31.5q-108 0 -108 -123v-33zM625 1346q0 83 48.5 128.5t127.5 45.5q78 0 125 -45.5t47 -128.5q0 -82 -47 -128.5t-125 -46.5t-127 46.5t-49 128.5z " />
<glyph unicode="&#xec;" horiz-adv-x="579" d="M-51 1500q7 16 33 16h274q31 0 49 -27l172 -264q14 -20 6.5 -34.5t-32.5 -14.5h-213q-33 0 -52 22l-227 266q-17 20 -10 36zM100 41v987q0 41 41 41h297q41 0 41 -41v-987q0 -41 -41 -41h-297q-41 0 -41 41z" />
<glyph unicode="&#xed;" horiz-adv-x="579" d="M90 1190.5q-8 14.5 6 34.5l172 264q18 27 49 27h275q26 0 32.5 -16t-10.5 -36l-227 -266q-19 -22 -51 -22h-213q-25 0 -33 14.5zM100 41v987q0 41 41 41h297q41 0 41 -41v-987q0 -41 -41 -41h-297q-41 0 -41 41z" />
<glyph unicode="&#xee;" horiz-adv-x="579" d="M-78 1191.5q-7 15.5 10 35.5l224 266q20 23 51 23h168q34 0 51 -23l221 -266q17 -22 10 -36.5t-34 -14.5h-201q-33 0 -49 24l-82 113l-86 -113q-18 -24 -49 -24h-201q-26 0 -33 15.5zM100 41v987q0 41 41 41h297q41 0 41 -41v-987q0 -41 -41 -41h-297q-41 0 -41 41z" />
<glyph unicode="&#xef;" horiz-adv-x="579" d="M-90 1343q0 80 46 124t122 44q74 0 119 -43.5t45 -121.5t-45 -122t-119 -44q-75 0 -121.5 43.5t-46.5 119.5zM100 41v987q0 41 41 41h297q41 0 41 -41v-987q0 -41 -41 -41h-297q-41 0 -41 41zM342 1346q0 77 47 121t121 44q75 0 120.5 -43.5t45.5 -121.5t-45.5 -122 t-120.5 -44q-74 0 -121 44t-47 122z" />
<glyph unicode="&#xf0;" horiz-adv-x="1144" d="M63 430v94q0 188 124 311t315 123q138 0 223 -73q-33 133 -137 221l-96 -86q-30 -30 -58 2l-51 53q-28 28 4 60l57 51q-91 31 -182 31q-41 0 -41 40v216q0 40 41 40q254 0 432 -100l92 84q33 30 60 -4l47 -53q27 -30 -4 -58l-68 -61q246 -232 246 -727v-143 q0 -233 -131.5 -356.5t-370.5 -123.5q-237 0 -369.5 120t-132.5 339zM449 424q0 -57 29.5 -88t86.5 -31t87 31t30 88v80q0 57 -30 89t-87 32q-56 0 -86 -31.5t-30 -89.5v-80z" />
<glyph unicode="&#xf1;" horiz-adv-x="1161" d="M98 41v926q0 35 31 47q97 38 217.5 61t228.5 23q247 0 372.5 -130.5t125.5 -357.5v-569q0 -41 -41 -41h-299q-41 0 -41 41v575q0 82 -28.5 115t-88.5 33q-58 0 -98 -12v-711q0 -41 -41 -41h-297q-41 0 -41 41zM168 1329q31 84 93.5 151.5t146.5 67.5q28 0 64 -11t51 -18 t57 -28q85 -45 114 -45q34 0 70 61q23 34 55 17l152 -78q33 -17 24 -45q-32 -88 -95 -157.5t-146 -69.5q-26 0 -61.5 11.5t-50.5 18.5t-60 29q-81 43 -109 43q-38 0 -78 -62q-21 -34 -55 -16l-152 78q-35 18 -20 53z" />
<glyph unicode="&#xf2;" d="M72 424v219q0 216 132 335.5t369 119.5t369.5 -119.5t132.5 -335.5v-219q0 -215 -132.5 -334t-369.5 -119t-369 119t-132 334zM231.5 1520.5q6.5 15.5 32.5 15.5h275q31 0 49 -27l172 -264q14 -20 6 -34.5t-33 -14.5h-213q-31 0 -51 23l-227 266q-17 20 -10.5 35.5z M457 424q0 -57 29.5 -88t86.5 -31t87 31t30 88v219q0 57 -30 89t-87 32q-56 0 -86 -31.5t-30 -89.5v-219z" />
<glyph unicode="&#xf3;" d="M72 424v219q0 216 132 335.5t369 119.5t369.5 -119.5t132.5 -335.5v-219q0 -215 -132.5 -334t-369.5 -119t-369 119t-132 334zM373 1210.5q-8 14.5 6 34.5l172 264q18 27 49 27h274q26 0 33 -15.5t-10 -35.5l-227 -266q-20 -23 -52 -23h-212q-25 0 -33 14.5zM457 424 q0 -57 29.5 -88t86.5 -31t87 31t30 88v219q0 57 -30 89t-87 32q-56 0 -86 -31.5t-30 -89.5v-219z" />
<glyph unicode="&#xf4;" d="M72 424v219q0 216 132 335.5t369 119.5t369.5 -119.5t132.5 -335.5v-219q0 -215 -132.5 -334t-369.5 -119t-369 119t-132 334zM194.5 1197.5q-6.5 15.5 10.5 35.5l229 266q20 23 51 23h181q31 0 51 -23l225 -266q17 -20 10.5 -35.5t-32.5 -15.5h-211q-32 0 -50 24 l-84 111l-88 -111q-18 -24 -49 -24h-211q-26 0 -32.5 15.5zM457 424q0 -57 29.5 -88t86.5 -31t87 31t30 88v219q0 57 -30 89t-87 32q-56 0 -86 -31.5t-30 -89.5v-219z" />
<glyph unicode="&#xf5;" d="M72 424v219q0 216 132 335.5t369 119.5t369.5 -119.5t132.5 -335.5v-219q0 -215 -132.5 -334t-369.5 -119t-369 119t-132 334zM154 1348q14 37 34.5 72.5t50 70t70 55.5t84.5 21q11 0 23 -1.5t22 -3.5t23.5 -7t21 -7.5t22 -9.5t20 -9.5t21 -10t19.5 -9.5q85 -45 115 -45 q33 0 70 62q23 33 55 16l151 -78q34 -18 25 -45q-32 -88 -95.5 -157.5t-146.5 -69.5q-26 0 -61.5 11.5t-50.5 18.5t-60 29q-81 43 -108 43q-39 0 -78 -61q-21 -34 -55 -16l-152 77q-35 18 -20 54zM457 424q0 -57 29.5 -88t86.5 -31t87 31t30 88v219q0 57 -30 89t-87 32 q-56 0 -86 -31.5t-30 -89.5v-219z" />
<glyph unicode="&#xf6;" d="M72 424v219q0 216 132 335.5t369 119.5t369.5 -119.5t132.5 -335.5v-219q0 -215 -132.5 -334t-369.5 -119t-369 119t-132 334zM160 1343q0 83 49 130t127 47t125 -45.5t47 -128.5q0 -82 -47 -128.5t-125 -46.5q-79 0 -127.5 45.5t-48.5 126.5zM457 424q0 -57 29.5 -88 t86.5 -31t87 31t30 88v219q0 57 -30 89t-87 32q-56 0 -86 -31.5t-30 -89.5v-219zM637 1346q0 83 48.5 128.5t127.5 45.5q78 0 125 -45.5t47 -128.5q0 -82 -47 -128.5t-125 -46.5t-127 46.5t-49 128.5z" />
<glyph unicode="&#xf7;" horiz-adv-x="1331" d="M145 551v266q0 41 41 41h959q41 0 41 -41v-266q0 -41 -41 -41h-959q-41 0 -41 41zM451 217q0 99 60 159t159 60q100 0 161.5 -60.5t61.5 -158.5q0 -97 -61.5 -157t-161.5 -60q-99 0 -159 60t-60 157zM451 1149q0 99 60 159t159 60q100 0 161.5 -60.5t61.5 -158.5 q0 -97 -61.5 -157t-161.5 -60q-99 0 -159 60t-60 157z" />
<glyph unicode="&#xf8;" d="M72 418v231q0 212 132.5 330.5t368.5 118.5q89 0 170 -19l64 113q15 29 49 29h160q23 0 31.5 -15t-3.5 -35l-106 -188q137 -118 137 -334v-231q0 -211 -133 -330t-369 -119q-101 0 -190 25l-66 -119q-15 -29 -49 -29h-162q-23 0 -31.5 15t3.5 35l115 202 q-121 121 -121 320zM457 430q0 -127 116 -127q117 0 117 127v207q0 63 -30 96t-87 33q-116 0 -116 -129v-207z" />
<glyph unicode="&#xf9;" horiz-adv-x="1150" d="M88 459v569q0 41 41 41h299q41 0 41 -41v-575q0 -82 27.5 -115t85.5 -33q60 0 92 14v709q0 41 41 41h297q41 0 41 -41v-926q0 -35 -31 -47q-96 -38 -214.5 -61t-225.5 -23q-245 0 -369.5 130.5t-124.5 357.5zM237.5 1500q6.5 16 32.5 16h275q31 0 49 -27l172 -264 q14 -20 6 -34.5t-33 -14.5h-213q-32 0 -51 22l-227 266q-17 20 -10.5 36z" />
<glyph unicode="&#xfa;" horiz-adv-x="1150" d="M88 459v569q0 41 41 41h299q41 0 41 -41v-575q0 -82 27.5 -115t85.5 -33q60 0 92 14v709q0 41 41 41h297q41 0 41 -41v-926q0 -35 -31 -47q-96 -38 -214.5 -61t-225.5 -23q-245 0 -369.5 130.5t-124.5 357.5zM379 1190.5q-8 14.5 6 34.5l172 264q18 27 49 27h275 q26 0 32.5 -16t-10.5 -36l-227 -266q-19 -22 -51 -22h-213q-25 0 -33 14.5z" />
<glyph unicode="&#xfb;" horiz-adv-x="1150" d="M88 459v569q0 41 41 41h299q41 0 41 -41v-575q0 -82 27.5 -115t85.5 -33q60 0 92 14v709q0 41 41 41h297q41 0 41 -41v-926q0 -35 -31 -47q-96 -38 -214.5 -61t-225.5 -23q-245 0 -369.5 130.5t-124.5 357.5zM200.5 1191.5q-6.5 15.5 10.5 35.5l229 266q20 23 52 23h180 q31 0 51 -23l225 -266q17 -20 10.5 -35.5t-32.5 -15.5h-211q-31 0 -49 24l-84 111l-88 -111q-18 -24 -50 -24h-211q-26 0 -32.5 15.5z" />
<glyph unicode="&#xfc;" horiz-adv-x="1150" d="M88 459v569q0 41 41 41h299q41 0 41 -41v-575q0 -82 27.5 -115t85.5 -33q60 0 92 14v709q0 41 41 41h297q41 0 41 -41v-926q0 -35 -31 -47q-96 -38 -214.5 -61t-225.5 -23q-245 0 -369.5 130.5t-124.5 357.5zM166 1343q0 83 49 130t127 47t125 -45.5t47 -128.5 q0 -82 -47 -128.5t-125 -46.5q-79 0 -127.5 45.5t-48.5 126.5zM643 1346q0 83 48.5 128.5t127.5 45.5q78 0 125 -45.5t47 -128.5q0 -82 -47 -128.5t-125 -46.5t-127 46.5t-49 128.5z" />
<glyph unicode="&#xfd;" horiz-adv-x="1153" d="M90 479v549q0 41 41 41h297q41 0 41 -41v-547q0 -70 25.5 -104.5t87.5 -34.5q56 0 92 18v668q0 41 41 41h297q41 0 41 -41v-897q0 -290 -122 -419.5t-392 -129.5q-133 0 -230 23t-182 76q-36 22 -14 57l127 201q19 31 55 14q100 -49 221 -49q82 0 123 32t41 107 q-74 -18 -156 -18q-206 0 -320 122.5t-114 331.5zM381 1190.5q-8 14.5 6 34.5l172 264q18 27 49 27h275q26 0 32.5 -16t-10.5 -36l-227 -266q-19 -22 -51 -22h-213q-25 0 -33 14.5z" />
<glyph unicode="&#xfe;" d="M100 -348v1771q0 41 41 41h297q41 0 41 -41v-333q56 12 127 12q208 0 340.5 -137.5t132.5 -360.5v-133q0 -223 -132.5 -360.5t-340.5 -137.5q-67 0 -127 13v-334q0 -41 -41 -41h-297q-41 0 -41 41zM479 319q51 -14 96 -14q119 0 119 131v201q0 133 -119 133 q-38 0 -96 -12v-439z" />
<glyph unicode="&#xff;" horiz-adv-x="1153" d="M90 479v549q0 41 41 41h297q41 0 41 -41v-547q0 -70 25.5 -104.5t87.5 -34.5q56 0 92 18v668q0 41 41 41h297q41 0 41 -41v-897q0 -290 -122 -419.5t-392 -129.5q-133 0 -230 23t-182 76q-36 22 -14 57l127 201q19 31 55 14q100 -49 221 -49q82 0 123 32t41 107 q-74 -18 -156 -18q-206 0 -320 122.5t-114 331.5zM168 1343q0 83 49 130t127 47t125 -45.5t47 -128.5q0 -82 -47 -128.5t-125 -46.5q-79 0 -127.5 45.5t-48.5 126.5zM645 1346q0 83 48.5 128.5t127.5 45.5q78 0 125 -45.5t47 -128.5q0 -82 -47 -128.5t-125 -46.5t-127 46.5 t-49 128.5z" />
<glyph unicode="&#x100;" horiz-adv-x="1404" d="M6 47l463 1385q11 32 45 32h377q34 0 45 -32l463 -1385q7 -22 -2 -34.5t-31 -12.5h-338q-39 0 -47 35l-55 201h-445l-57 -201q-8 -35 -47 -35h-338q-22 0 -31 12.5t-2 34.5zM346 1638v174q0 41 41 41h631q41 0 41 -41v-174q0 -41 -41 -41h-631q-41 0 -41 41zM578 573h251 l-122 457h-9z" />
<glyph unicode="&#x101;" horiz-adv-x="1093" d="M37 334q0 154 112.5 232.5t331.5 78.5q81 0 146 -10v4q0 66 -30.5 100.5t-113.5 34.5q-59 0 -125 -13.5t-106 -33.5q-37 -20 -55 14l-95 199q-21 34 0 49q79 47 193.5 78t243.5 31q467 0 467 -494v-532q0 -37 -35 -45q-191 -56 -430 -56q-255 0 -379.5 93t-124.5 270z M217 1257v164q0 41 41 41h584q41 0 41 -41v-164q0 -40 -41 -40h-584q-41 0 -41 40zM422 348q0 -40 30 -62t87 -22q42 0 88 8v140q-48 10 -90 10q-115 0 -115 -74z" />
<glyph unicode="&#x102;" horiz-adv-x="1404" d="M6 47l463 1385q11 32 45 32h377q34 0 45 -32l463 -1385q7 -22 -2 -34.5t-31 -12.5h-338q-39 0 -47 35l-55 201h-445l-57 -201q-8 -35 -47 -35h-338q-22 0 -31 12.5t-2 34.5zM315 1823q-9 37 33 47l201 45q33 8 49 -29q27 -53 104 -53q78 0 105 53q16 37 49 29l201 -45 q40 -10 35 -41q-25 -124 -129 -198.5t-261 -74.5q-155 0 -257.5 72.5t-129.5 194.5zM578 573h251l-122 457h-9z" />
<glyph unicode="&#x103;" horiz-adv-x="1093" d="M37 334q0 154 112.5 232.5t331.5 78.5q81 0 146 -10v4q0 66 -30.5 100.5t-113.5 34.5q-59 0 -125 -13.5t-106 -33.5q-37 -20 -55 14l-95 199q-21 34 0 49q79 47 193.5 78t243.5 31q467 0 467 -494v-532q0 -37 -35 -45q-191 -56 -430 -56q-255 0 -379.5 93t-124.5 270z M188 1460q-6 38 35 45l183 33q35 6 47 -33q21 -63 94 -63t94 63q12 39 47 33l182 -33q41 -7 35 -41q-17 -134 -110 -207t-248 -73q-154 0 -247 72.5t-112 203.5zM422 348q0 -40 30 -62t87 -22q42 0 88 8v140q-48 10 -90 10q-115 0 -115 -74z" />
<glyph unicode="&#x104;" horiz-adv-x="1404" d="M6 47l463 1385q11 32 45 32h377q34 0 45 -32l463 -1385q18 -47 -45 -47q-65 -28 -97 -65t-32 -74q0 -41 47 -41q34 0 71 12q41 12 52 -25l35 -120q9 -36 -21 -54q-107 -55 -244 -55q-128 0 -190 45.5t-62 126.5q0 69 39 134.5t113 115.5h-37q-39 0 -47 35l-55 201h-445 l-57 -201q-8 -35 -47 -35h-338q-22 0 -31 12.5t-2 34.5zM578 573h251l-122 457h-9z" />
<glyph unicode="&#x105;" horiz-adv-x="1091" d="M37 326q0 323 444 323q81 0 146 -10v4q0 62 -30.5 94.5t-113.5 32.5q-58 0 -122.5 -13.5t-104.5 -33.5q-38 -17 -55 16l-95 197q-22 36 15 55q180 107 418 107q465 0 465 -494v-530q0 -33 -35 -45q-95 -33 -145 -75t-50 -83q0 -51 55 -51q34 0 64 12q41 15 51 -22 l35 -123q9 -36 -21 -54q-110 -55 -243 -55q-128 0 -190 45.5t-62 126.5q0 61 34.5 120.5t100.5 100.5h-57q-254 0 -379 92t-125 263zM422 348q0 -78 117 -78q36 0 88 9v129q-48 10 -90 10q-115 0 -115 -70z" />
<glyph unicode="&#x106;" horiz-adv-x="1220" d="M94 535v397q0 263 165 412t460 149q252 0 438 -125q34 -21 10 -55l-157 -244q-20 -33 -58 -12q-94 57 -219 57q-109 0 -170 -57t-61 -148v-350q0 -100 59 -154.5t164 -54.5q136 0 250 70q36 22 55 -10l160 -244q24 -34 2 -49q-204 -146 -473 -146q-303 0 -464 148.5 t-161 415.5zM445 1597.5q-7 14.5 8 34.5l202 266q19 25 50 25h301q26 0 32.5 -15.5t-12.5 -35.5l-258 -268q-18 -21 -51 -21h-240q-25 0 -32 14.5z" />
<glyph unicode="&#x107;" horiz-adv-x="974" d="M70 449v184q0 218 131 341.5t374 123.5q181 0 338 -92q35 -21 13 -58l-133 -200q-19 -31 -58 -15q-65 33 -141 33q-64 0 -101.5 -35t-37.5 -98v-184q0 -73 38.5 -109.5t100.5 -36.5q83 0 156 45q35 20 57 -12l133 -201q23 -33 -6 -55q-153 -109 -359 -109 q-243 0 -374 126.5t-131 351.5zM336 1210.5q-8 14.5 6 34.5l172 264q18 27 49 27h275q26 0 32.5 -15.5t-10.5 -35.5l-227 -266q-20 -23 -51 -23h-213q-25 0 -33 14.5z" />
<glyph unicode="&#x10a;" horiz-adv-x="1220" d="M94 535v397q0 263 165 412t460 149q252 0 438 -125q34 -21 10 -55l-157 -244q-20 -33 -58 -12q-94 57 -219 57q-109 0 -170 -57t-61 -148v-350q0 -100 59 -154.5t164 -54.5q136 0 250 70q36 22 55 -10l160 -244q24 -34 2 -49q-204 -146 -473 -146q-303 0 -464 148.5 t-161 415.5zM479 1794q0 85 55.5 139t143.5 54t143.5 -54t55.5 -139q0 -82 -56 -137t-143 -55t-143 55t-56 137z" />
<glyph unicode="&#x10b;" horiz-adv-x="974" d="M70 449v184q0 218 131 341.5t374 123.5q181 0 338 -92q35 -21 13 -58l-133 -200q-19 -31 -58 -15q-65 33 -141 33q-64 0 -101.5 -35t-37.5 -98v-184q0 -73 38.5 -109.5t100.5 -36.5q83 0 156 45q35 20 57 -12l133 -201q23 -33 -6 -55q-153 -109 -359 -109 q-243 0 -374 126.5t-131 351.5zM354 1374q0 82 51 131t134 49q80 0 130 -49.5t50 -130.5q0 -77 -50.5 -128.5t-129.5 -51.5q-82 0 -133.5 51t-51.5 129z" />
<glyph unicode="&#x10c;" horiz-adv-x="1220" d="M94 535v397q0 263 165 412t460 149q252 0 438 -125q34 -21 10 -55l-157 -244q-20 -33 -58 -12q-94 57 -219 57q-109 0 -170 -57t-61 -148v-350q0 -100 59 -154.5t164 -54.5q136 0 250 70q36 22 55 -10l160 -244q24 -34 2 -49q-204 -146 -473 -146q-303 0 -464 148.5 t-161 415.5zM293 1907.5q7 15.5 33 15.5h225q30 0 49 -25l80 -100l76 100q17 25 49 25h225q26 0 33 -15.5t-10 -35.5l-226 -266q-20 -23 -51 -23h-192q-32 0 -52 23l-229 266q-17 20 -10 35.5z" />
<glyph unicode="&#x10d;" horiz-adv-x="974" d="M70 449v184q0 218 131 341.5t374 123.5q181 0 338 -92q35 -21 13 -58l-133 -200q-19 -31 -58 -15q-65 33 -141 33q-64 0 -101.5 -35t-37.5 -98v-184q0 -73 38.5 -109.5t100.5 -36.5q83 0 156 45q35 20 57 -12l133 -201q23 -33 -6 -55q-153 -109 -359 -109 q-243 0 -374 126.5t-131 351.5zM157.5 1520.5q6.5 15.5 32.5 15.5h211q31 0 50 -25l88 -110l84 110q19 25 49 25h211q26 0 32.5 -15.5t-10.5 -35.5l-225 -266q-20 -23 -51 -23h-180q-32 0 -52 23l-229 266q-17 20 -10.5 35.5z" />
<glyph unicode="&#x10e;" horiz-adv-x="1378" d="M137 41v1382q0 41 41 41h502q83 0 154.5 -11t141.5 -36.5t124.5 -71t96.5 -109.5t64.5 -157.5t22.5 -210.5v-272q0 -142 -33.5 -249t-88 -172t-134.5 -105t-163.5 -55t-184.5 -15h-502q-41 0 -41 41zM280.5 1907.5q6.5 15.5 32.5 15.5h226q30 0 49 -25l80 -100l75 100 q17 25 50 25h225q26 0 32.5 -15.5t-10.5 -35.5l-225 -266q-20 -23 -51 -23h-193q-31 0 -51 23l-229 266q-17 20 -10.5 35.5zM537 375h151q94 0 140 47t46 149v324q0 100 -46.5 147.5t-139.5 47.5h-151v-715z" />
<glyph unicode="&#x10f;" horiz-adv-x="1327" d="M70 449v182q0 214 118.5 340.5t317.5 126.5q91 0 164 -25v350q0 41 41 41h297q41 0 41 -41v-1329q0 -36 -33 -47q-94 -35 -216.5 -55.5t-232.5 -20.5q-224 0 -360.5 133.5t-136.5 344.5zM455 438q0 -131 118 -131q48 0 97 17v432q-46 16 -99 16q-116 0 -116 -131v-203z M1104 1067l76 360q6 37 45 37h211q22 0 31 -12.5t3 -34.5l-118 -362q-11 -33 -45 -33h-168q-21 0 -30.5 12t-4.5 33z" />
<glyph unicode="&#x110;" horiz-adv-x="1421" d="M14 670v143q0 41 41 41h119v569q0 41 41 41h508q83 0 154.5 -11t141.5 -36.5t124.5 -71t96.5 -109.5t64.5 -157.5t22.5 -210.5v-272q0 -142 -33.5 -249t-88 -172t-134.5 -105t-163.5 -55t-184.5 -15h-508q-41 0 -41 41v588h-119q-41 0 -41 41zM573 375h158q94 0 140.5 47 t46.5 149v324q0 195 -187 195h-158v-236h154q41 0 41 -41v-143q0 -41 -41 -41h-154v-254z" />
<glyph unicode="&#x111;" horiz-adv-x="1144" d="M68 449v126q0 214 118.5 340.5t317.5 126.5q94 0 164 -24v139h-185q-41 0 -41 41v102q0 41 41 41h185v82q0 41 41 41h297q41 0 41 -41v-82h96q41 0 41 -41v-102q0 -41 -41 -41h-96v-1063q0 -36 -33 -47q-94 -35 -216.5 -55.5t-232.5 -20.5q-224 0 -360.5 133.5 t-136.5 344.5zM453 438q0 -131 118 -131q48 0 97 17v376q-49 17 -99 17q-116 0 -116 -131v-148z" />
<glyph unicode="&#x112;" horiz-adv-x="1222" d="M137 41v1382q0 41 41 41h889q41 0 41 -41v-276q0 -41 -41 -41h-530v-191h450q41 0 41 -41v-268q0 -41 -41 -41h-450v-207h565q41 0 41 -41v-276q0 -41 -41 -41h-924q-41 0 -41 41zM270 1638v174q0 41 41 41h631q41 0 41 -41v-174q0 -41 -41 -41h-631q-41 0 -41 41z" />
<glyph unicode="&#x113;" horiz-adv-x="1097" d="M72 422v229q0 223 133 335t360 112q219 0 344 -109.5t125 -337.5v-188q0 -41 -41 -41h-540v-10q0 -64 35.5 -97.5t103.5 -33.5q131 0 233 57q34 21 56 -10l123 -168q24 -34 -7 -58q-169 -131 -419 -131q-228 0 -367 117.5t-139 333.5zM225 1257v164q0 41 41 41h584 q41 0 41 -41v-164q0 -40 -41 -40h-584q-41 0 -41 40zM453 641h219v33q0 60 -28.5 91.5t-82.5 31.5q-108 0 -108 -123v-33z" />
<glyph unicode="&#x116;" horiz-adv-x="1222" d="M137 41v1382q0 41 41 41h889q41 0 41 -41v-276q0 -41 -41 -41h-530v-191h450q41 0 41 -41v-268q0 -41 -41 -41h-450v-207h565q41 0 41 -41v-276q0 -41 -41 -41h-924q-41 0 -41 41zM428 1753q0 85 55.5 139t143.5 54t143 -54t55 -139q0 -83 -55.5 -137.5t-142.5 -54.5 t-143 55t-56 137z" />
<glyph unicode="&#x117;" horiz-adv-x="1097" d="M72 422v229q0 223 133 335t360 112q219 0 344 -109.5t125 -337.5v-188q0 -41 -41 -41h-540v-10q0 -64 35.5 -97.5t103.5 -33.5q131 0 233 57q34 21 56 -10l123 -168q24 -34 -7 -58q-169 -131 -419 -131q-228 0 -367 117.5t-139 333.5zM381 1374q0 82 50.5 131t133.5 49 q80 0 130 -49.5t50 -130.5q0 -77 -50.5 -128.5t-129.5 -51.5q-82 0 -133 51t-51 129zM453 641h219v33q0 60 -28.5 91.5t-82.5 31.5q-108 0 -108 -123v-33z" />
<glyph unicode="&#x118;" horiz-adv-x="1222" d="M137 41v1382q0 41 41 41h889q41 0 41 -41v-276q0 -41 -41 -41h-530v-191h450q41 0 41 -41v-268q0 -41 -41 -41h-450v-207h565q41 0 41 -41v-284q0 -31 -31 -47q-51 -26 -75.5 -59.5t-24.5 -65.5q0 -41 47 -41q33 0 71 12q40 13 52 -25l35 -120q10 -37 -23 -54 q-113 -55 -242 -55q-128 0 -190 45.5t-62 126.5q0 73 44 142t128 108h-694q-41 0 -41 41z" />
<glyph unicode="&#x119;" horiz-adv-x="1091" d="M72 422v227q0 224 131 336.5t354 112.5q220 0 345.5 -110.5t125.5 -338.5v-192q0 -41 -41 -41h-538v-8q0 -60 34.5 -91.5t100.5 -31.5q130 0 229 57q35 21 57 -10l129 -172q25 -35 -8 -58q-109 -81 -229 -108q-55 -12 -91 -42t-36 -67q0 -61 80 -61q33 0 71 10 q40 16 52 -24l32 -121q9 -36 -20 -51q-111 -54 -227 -54q-125 0 -193 52t-68 147q0 59 36.5 106t111.5 91h-21q-168 0 -292.5 123.5t-124.5 318.5zM449 639h217v29q0 131 -109 131q-108 0 -108 -131v-29z" />
<glyph unicode="&#x11a;" horiz-adv-x="1222" d="M137 41v1382q0 41 41 41h889q41 0 41 -41v-276q0 -41 -41 -41h-530v-191h450q41 0 41 -41v-268q0 -41 -41 -41h-450v-207h565q41 0 41 -41v-276q0 -41 -41 -41h-924q-41 0 -41 41zM262 1887q7 16 33 16h225q30 0 49 -25l80 -100l76 100q17 25 49 25h225q26 0 33 -16 t-10 -36l-225 -266q-19 -22 -52 -22h-192q-32 0 -51 22l-230 266q-17 20 -10 36z" />
<glyph unicode="&#x11b;" horiz-adv-x="1097" d="M72 422v229q0 223 133 335t360 112q219 0 344 -109.5t125 -337.5v-188q0 -41 -41 -41h-540v-10q0 -64 35.5 -97.5t103.5 -33.5q131 0 233 57q34 21 56 -10l123 -168q24 -34 -7 -58q-169 -131 -419 -131q-228 0 -367 117.5t-139 333.5zM184.5 1520.5q6.5 15.5 32.5 15.5 h211q30 0 49 -25l88 -110l84 110q19 25 49 25h211q26 0 33 -15.5t-10 -35.5l-225 -266q-20 -23 -52 -23h-180q-31 0 -51 23l-229 266q-17 20 -10.5 35.5zM453 641h219v33q0 60 -28.5 91.5t-82.5 31.5q-108 0 -108 -123v-33z" />
<glyph unicode="&#x11e;" horiz-adv-x="1347" d="M94 539v395q0 262 162.5 410.5t454.5 148.5q132 0 261.5 -34.5t231.5 -96.5q35 -21 10 -57l-170 -244q-19 -32 -55 -10q-111 63 -278 63q-103 0 -156 -51t-53 -143v-367q0 -97 50 -149t150 -52q96 0 177 35v170h-170q-41 0 -41 41v236q0 40 41 40h505q41 0 41 -40v-603 q0 -29 -18 -47q-101 -99 -242.5 -156t-292.5 -57q-290 0 -449 150t-159 418zM291 1843q-9 37 33 47l200 45q33 8 49 -28q28 -54 105 -54q76 0 104 54q16 36 49 28l201 -45q40 -10 35 -41q-25 -124 -128.5 -198t-260.5 -74q-155 0 -257.5 72t-129.5 194z" />
<glyph unicode="&#x11f;" horiz-adv-x="1142" d="M68 473v150q0 229 138 352t365 123q225 0 441 -82q32 -11 32 -47v-838q0 -291 -122 -420t-394 -129q-131 0 -226.5 23t-182.5 76q-33 23 -13 57l127 201q19 32 56 14q100 -49 217 -49q85 0 125.5 31.5t40.5 107.5q-70 -18 -158 -18q-209 0 -327.5 122t-118.5 326z M223 1460q-6 38 35 45l182 33q35 6 47 -33q21 -63 95 -63q73 0 94 63q12 39 47 33l182 -33q41 -7 35 -41q-17 -134 -110 -207t-248 -73q-154 0 -247 72.5t-112 203.5zM451 467q0 -125 120 -125q62 0 95 23v383q-32 16 -95 16q-61 0 -90.5 -31.5t-29.5 -97.5v-168z" />
<glyph unicode="&#x120;" horiz-adv-x="1347" d="M94 539v395q0 262 162.5 410.5t454.5 148.5q132 0 261.5 -34.5t231.5 -96.5q35 -21 10 -57l-170 -244q-19 -32 -55 -10q-111 63 -278 63q-103 0 -156 -51t-53 -143v-367q0 -97 50 -149t150 -52q96 0 177 35v170h-170q-41 0 -41 41v236q0 40 41 40h505q41 0 41 -40v-603 q0 -29 -18 -47q-101 -99 -242.5 -156t-292.5 -57q-290 0 -449 150t-159 418zM498 1774q0 85 55 138.5t143 53.5t143.5 -53.5t55.5 -138.5q0 -83 -56 -138t-143 -55t-142.5 55t-55.5 138z" />
<glyph unicode="&#x121;" horiz-adv-x="1142" d="M68 473v150q0 229 138 352t365 123q225 0 441 -82q32 -11 32 -47v-838q0 -291 -122 -420t-394 -129q-131 0 -226.5 23t-182.5 76q-33 23 -13 57l127 201q19 32 56 14q100 -49 217 -49q85 0 125.5 31.5t40.5 107.5q-70 -18 -158 -18q-209 0 -327.5 122t-118.5 326z M406 1374q0 82 50.5 131t133.5 49q80 0 130 -49.5t50 -130.5q0 -77 -50.5 -128.5t-129.5 -51.5q-82 0 -133 51t-51 129zM451 467q0 -125 120 -125q62 0 95 23v383q-32 16 -95 16q-61 0 -90.5 -31.5t-29.5 -97.5v-168z" />
<glyph unicode="&#x122;" horiz-adv-x="1347" d="M94 539v395q0 262 162.5 410.5t454.5 148.5q132 0 261.5 -34.5t231.5 -96.5q35 -21 10 -57l-170 -244q-19 -32 -55 -10q-111 63 -278 63q-103 0 -156 -51t-53 -143v-367q0 -97 50 -149t150 -52q96 0 177 35v170h-170q-41 0 -41 41v236q0 40 41 40h505q41 0 41 -40v-603 q0 -29 -18 -47q-101 -99 -242.5 -156t-292.5 -57q-290 0 -449 150t-159 418zM442 -477l80 323q6 31 47 31h258q23 0 33 -11t4 -30l-137 -323q-11 -27 -47 -27h-199q-23 0 -34 10t-5 27z" />
<glyph unicode="&#x123;" horiz-adv-x="1142" d="M68 473v150q0 229 138 352t365 123q225 0 441 -82q32 -11 32 -47v-838q0 -291 -122 -420t-394 -129q-131 0 -226.5 23t-182.5 76q-33 23 -13 57l127 201q19 32 56 14q100 -49 217 -49q85 0 125.5 31.5t40.5 107.5q-70 -18 -158 -18q-209 0 -327.5 122t-118.5 326z M414 1237l123 324q14 28 47 28h176q22 0 32 -11t5 -30l-80 -319q-7 -33 -47 -33h-219q-23 0 -33 11t-4 30zM451 467q0 -125 120 -125q62 0 95 23v383q-32 16 -95 16q-61 0 -90.5 -31.5t-29.5 -97.5v-168z" />
<glyph unicode="&#x126;" horiz-adv-x="1470" d="M6 1116v144q0 40 41 40h125v123q0 41 41 41h317q41 0 41 -41v-123h328v123q0 41 41 41h317q41 0 41 -41v-123h125q41 0 41 -40v-144q0 -41 -41 -41h-125v-1034q0 -41 -41 -41h-317q-41 0 -41 41v510h-328v-510q0 -41 -41 -41h-317q-41 0 -41 41v1034h-125q-41 0 -41 41z M571 924h328v151h-328v-151z" />
<glyph unicode="&#x127;" horiz-adv-x="1163" d="M-37 1198v102q0 41 41 41h96v82q0 41 41 41h297q41 0 41 -41v-82h185q41 0 41 -41v-102q0 -41 -41 -41h-185v-147q71 26 193 26q191 0 297 -130t106 -349v-516q0 -41 -41 -41h-299q-41 0 -41 41v522q0 71 -27.5 106.5t-95.5 35.5q-43 0 -92 -17v-647q0 -41 -41 -41h-297 q-41 0 -41 41v1116h-96q-41 0 -41 41z" />
<glyph unicode="&#x12a;" horiz-adv-x="673" d="M45 1659v174q0 41 41 41h500q41 0 41 -41v-174q0 -41 -41 -41h-500q-41 0 -41 41zM137 41v1382q0 41 41 41h318q41 0 41 -41v-1382q0 -41 -41 -41h-318q-41 0 -41 41z" />
<glyph unicode="&#x12b;" horiz-adv-x="579" d="M-18 1266v164q0 40 41 40h522q41 0 41 -40v-164q0 -41 -41 -41h-522q-41 0 -41 41zM100 41v987q0 41 41 41h297q41 0 41 -41v-987q0 -41 -41 -41h-297q-41 0 -41 41z" />
<glyph unicode="&#x12e;" horiz-adv-x="673" d="M72 -250q0 74 42 142.5t124 107.5h-10q-59 0 -75 6t-16 35v1382q0 41 41 41h318q41 0 41 -41v-1382q0 -41 -31 -41q-63 -28 -94 -65t-31 -74q0 -20 15.5 -30.5t39.5 -10.5q34 0 72 12q40 12 51 -25l35 -120q9 -36 -21 -54q-110 -55 -243 -55q-130 0 -194 46t-64 126z" />
<glyph unicode="&#x12f;" horiz-adv-x="579" d="M39 -211q0 58 38 112.5t109 98.5h-45q-41 0 -41 41v987q0 41 41 41h297q41 0 41 -41v-987q0 -28 -14 -34.5t-51 -6.5q-47 -22 -77 -54t-30 -61q0 -24 23 -36.5t61 -12.5q37 0 70 10q45 13 53 -24l33 -127q9 -37 -19 -51q-110 -60 -229 -60q-125 0 -192.5 53.5 t-67.5 151.5zM84 1397q0 91 58 148t151 57q91 0 148 -57t57 -148q0 -87 -57.5 -146t-147.5 -59q-92 0 -150.5 58.5t-58.5 146.5z" />
<glyph unicode="&#x130;" horiz-adv-x="673" d="M137 41v1382q0 41 41 41h318q41 0 41 -41v-1382q0 -41 -41 -41h-318q-41 0 -41 41zM139 1794q0 85 55.5 139t143.5 54t143.5 -54t55.5 -139q0 -82 -56 -137t-143 -55t-143 55t-56 137z" />
<glyph unicode="&#x131;" horiz-adv-x="579" d="M100 41v987q0 41 41 41h297q41 0 41 -41v-987q0 -41 -41 -41h-297q-41 0 -41 41z" />
<glyph unicode="&#x132;" horiz-adv-x="1789" d="M137 41v1382q0 41 41 41h318q41 0 41 -41v-1382q0 -41 -41 -41h-318q-41 0 -41 41zM684 164l154 239q20 36 57 11q95 -66 209 -66q84 0 122 45t38 146v884q0 41 41 41h319q41 0 41 -41v-878q0 -275 -143.5 -424.5t-403.5 -149.5q-226 0 -424 138q-34 21 -10 55z" />
<glyph unicode="&#x133;" horiz-adv-x="1234" d="M82 1397q0 91 58 148t151 57q91 0 148 -57t57 -148q0 -87 -57.5 -146t-147.5 -59q-92 0 -150.5 58.5t-58.5 146.5zM100 41v987q0 41 41 41h297q41 0 41 -41v-987q0 -41 -41 -41h-297q-41 0 -41 41zM563 -113q0 42 43 39q14 -2 43 -2q107 0 107 119v985q0 41 41 41h297 q41 0 41 -41v-1046q0 -189 -108 -294.5t-300 -105.5q-67 0 -129 12q-35 8 -35 46v247zM739 1397q0 91 58 148t151 57q91 0 148 -57t57 -148q0 -87 -57.5 -146t-147.5 -59q-92 0 -150.5 58.5t-58.5 146.5z" />
<glyph unicode="&#x136;" horiz-adv-x="1361" d="M137 41v1382q0 41 41 41h318q41 0 41 -41v-450l292 465q16 26 50 26h399q25 0 32.5 -13.5t-7.5 -35.5l-441 -579l510 -787q14 -20 6.5 -34.5t-32.5 -14.5h-381q-34 0 -50 29l-297 491l-81 -94v-385q0 -41 -41 -41h-318q-41 0 -41 41zM510 -453l86 324q6 31 49 31h268 q23 0 34 -11t5 -30l-143 -324q-13 -26 -51 -26h-207q-23 0 -34 9.5t-7 26.5z" />
<glyph unicode="&#x137;" horiz-adv-x="1107" d="M100 41v1382q0 41 41 41h291q41 0 41 -41v-675l176 292q16 29 49 29h344q26 0 33 -14.5t-8 -34.5l-305 -393l350 -578q12 -22 5 -35.5t-32 -13.5h-350q-35 0 -49 29l-168 321l-45 -47v-262q0 -41 -41 -41h-291q-41 0 -41 41zM354 -434l78 303q7 31 47 31h219 q22 0 31.5 -11t3.5 -28l-123 -305q-11 -27 -47 -27h-174q-22 0 -31.5 10t-3.5 27z" />
<glyph unicode="&#x139;" horiz-adv-x="1120" d="M137 41v1382q0 41 41 41h318q41 0 41 -41v-1050h520q41 0 41 -41v-291q0 -41 -41 -41h-879q-41 0 -41 41zM152 1577.5q-7 14.5 8 34.5l202 266q19 25 50 25h301q26 0 32.5 -16t-12.5 -36l-258 -268q-18 -20 -51 -20h-240q-25 0 -32 14.5z" />
<glyph unicode="&#x13a;" horiz-adv-x="688" d="M88.5 1577.5q-7.5 14.5 7.5 34.5l203 266q19 25 49 25h301q26 0 33 -16t-12 -36l-258 -268q-17 -20 -52 -20h-239q-25 0 -32.5 14.5zM90 371v1052q0 41 41 41h297q41 0 41 -41v-987q0 -119 106 -119q38 0 54 2q43 3 43 -38v-250q0 -37 -19 -43q-79 -17 -155 -17 q-192 0 -300 105.5t-108 294.5z" />
<glyph unicode="&#x13b;" horiz-adv-x="1120" d="M137 41v1382q0 41 41 41h318q41 0 41 -41v-1050h520q41 0 41 -41v-291q0 -41 -41 -41h-879q-41 0 -41 41zM362 -440l80 307q6 31 50 31h258q48 0 36 -39l-137 -310q-13 -24 -49 -24h-199q-23 0 -34 10t-5 25z" />
<glyph unicode="&#x13c;" horiz-adv-x="688" d="M92 371v1052q0 41 41 41h297q41 0 41 -41v-987q0 -119 107 -119q37 0 53 2q43 3 43 -38v-250q0 -37 -19 -43q-79 -17 -155 -17q-192 0 -300 105.5t-108 294.5zM197 -446l77 296q6 29 48 29h215q46 0 34 -39l-120 -297q-12 -26 -48 -26h-170q-22 0 -31.5 10.5t-4.5 26.5z " />
<glyph unicode="&#x13d;" horiz-adv-x="1126" d="M137 41v1382q0 41 41 41h318q41 0 41 -41v-1050h520q41 0 41 -41v-291q0 -41 -41 -41h-879q-41 0 -41 41zM659 1106l80 324q9 34 45 34h226q48 0 32 -47l-122 -323q-13 -33 -48 -33h-178q-44 0 -35 45z" />
<glyph unicode="&#x13e;" horiz-adv-x="729" d="M92 369v1054q0 41 41 41h297q41 0 41 -41v-989q0 -115 107 -115q29 0 53 3q43 3 43 -37v-258q0 -38 -19 -41q-69 -15 -155 -15q-192 0 -300 105.5t-108 292.5zM567 1112l80 318q9 34 45 34h226q22 0 30.5 -12.5t1.5 -34.5l-119 -317q-13 -33 -47 -33h-182q-44 0 -35 45z " />
<glyph unicode="&#x13f;" horiz-adv-x="1128" d="M137 41v1382q0 41 41 41h318q41 0 41 -41v-1050h520q41 0 41 -41v-291q0 -41 -41 -41h-879q-41 0 -41 41zM664 752q0 91 58 147.5t152 56.5t152.5 -56.5t58.5 -147.5q0 -87 -59 -146t-152 -59q-92 0 -151 58.5t-59 146.5z" />
<glyph unicode="&#x140;" horiz-adv-x="950" d="M92 369v1054q0 41 41 41h297q41 0 41 -41v-989q0 -115 107 -115q12 0 24 3q43 3 43 -39v-256q0 -37 -20 -43q-63 -13 -125 -13q-192 0 -300 105.5t-108 292.5zM567 795q0 87 52 138.5t141 51.5q86 0 136 -51.5t50 -138.5q0 -83 -50.5 -136t-135.5 -53q-88 0 -140.5 53 t-52.5 136z" />
<glyph unicode="&#x141;" horiz-adv-x="1191" d="M39 412v229q0 31 27 49l143 92v641q0 41 41 41h317q41 0 41 -41v-385l209 133q20 14 34.5 6.5t14.5 -32.5v-230q0 -32 -26 -49l-232 -149v-344h520q41 0 41 -41v-291q0 -41 -41 -41h-878q-41 0 -41 41v420l-121 -78q-20 -13 -34.5 -4.5t-14.5 33.5z" />
<glyph unicode="&#x142;" horiz-adv-x="815" d="M43 471v223q0 33 29 49l114 68v612q0 41 41 41h297q41 0 41 -41v-389l129 88q20 12 34.5 4t14.5 -32v-224q0 -33 -28 -49l-150 -100v-287q0 -115 107 -115q12 0 24 3q43 3 43 -39v-256q0 -37 -20 -43q-63 -13 -125 -13q-192 0 -300 105.5t-108 292.5v129l-94 -56 q-20 -12 -34.5 -4t-14.5 33z" />
<glyph unicode="&#x143;" horiz-adv-x="1464" d="M137 41v1382q0 41 41 41h330q33 0 47 -28l164 -312q178 -343 231 -495l8 2q-26 279 -26 540v252q0 41 41 41h313q41 0 41 -41v-1382q0 -41 -41 -41h-328q-33 0 -49 29l-161 270q-71 122 -145 284.5t-107 258.5l-9 -2q45 -332 45 -602v-197q0 -41 -40 -41h-314 q-41 0 -41 41zM520.5 1577.5q-7.5 14.5 7.5 34.5l203 266q19 25 49 25h301q26 0 33 -16t-12 -36l-258 -268q-18 -20 -51 -20h-240q-25 0 -32.5 14.5z" />
<glyph unicode="&#x144;" horiz-adv-x="1161" d="M98 41v926q0 35 31 47q97 38 217.5 61t228.5 23q247 0 372.5 -130.5t125.5 -357.5v-569q0 -41 -41 -41h-299q-41 0 -41 41v575q0 82 -28.5 115t-88.5 33q-58 0 -98 -12v-711q0 -41 -41 -41h-297q-41 0 -41 41zM391 1210.5q-8 14.5 6 34.5l172 264q18 27 49 27h275 q26 0 32.5 -15.5t-10.5 -35.5l-227 -266q-20 -23 -51 -23h-213q-25 0 -33 14.5z" />
<glyph unicode="&#x145;" horiz-adv-x="1464" d="M137 41v1382q0 41 41 41h330q33 0 47 -28l164 -312q178 -343 231 -495l8 2q-26 279 -26 540v252q0 41 41 41h313q41 0 41 -41v-1382q0 -41 -41 -41h-328q-33 0 -49 29l-161 270q-71 122 -145 284.5t-107 258.5l-9 -2q45 -332 45 -602v-197q0 -41 -40 -41h-314 q-41 0 -41 41zM526 -436l82 323q6 31 49 31h263q23 0 32.5 -11t3.5 -30l-139 -323q-13 -27 -49 -27h-203q-23 0 -34 10t-5 27z" />
<glyph unicode="&#x146;" horiz-adv-x="1161" d="M98 41v926q0 35 31 47q97 38 217.5 61t228.5 23q247 0 372.5 -130.5t125.5 -357.5v-569q0 -41 -41 -41h-299q-41 0 -41 41v575q0 82 -28.5 115t-88.5 33q-58 0 -98 -12v-711q0 -41 -41 -41h-297q-41 0 -41 41zM365 -410l81 287q6 29 48 29h225q23 0 34 -10t5 -27 l-127 -289q-13 -26 -49 -26h-181q-45 0 -36 36z" />
<glyph unicode="&#x147;" horiz-adv-x="1464" d="M137 41v1382q0 41 41 41h330q33 0 47 -28l164 -312q178 -343 231 -495l8 2q-26 279 -26 540v252q0 41 41 41h313q41 0 41 -41v-1382q0 -41 -41 -41h-328q-33 0 -49 29l-161 270q-71 122 -145 284.5t-107 258.5l-9 -2q45 -332 45 -602v-197q0 -41 -40 -41h-314 q-41 0 -41 41zM348 1887q7 16 33 16h225q30 0 49 -25l80 -100l76 100q17 25 49 25h225q26 0 33 -16t-10 -36l-225 -266q-19 -22 -52 -22h-192q-32 0 -51 22l-230 266q-17 20 -10 36z" />
<glyph unicode="&#x148;" horiz-adv-x="1161" d="M98 41v926q0 35 31 47q97 38 217.5 61t228.5 23q247 0 372.5 -130.5t125.5 -357.5v-569q0 -41 -41 -41h-299q-41 0 -41 41v575q0 82 -28.5 115t-88.5 33q-58 0 -98 -12v-711q0 -41 -41 -41h-297q-41 0 -41 41zM192.5 1520.5q6.5 15.5 32.5 15.5h211q30 0 49 -25l88 -110 l84 110q19 25 50 25h211q26 0 32.5 -15.5t-10.5 -35.5l-225 -266q-20 -23 -51 -23h-181q-31 0 -51 23l-229 266q-17 20 -10.5 35.5z" />
<glyph unicode="&#x14a;" horiz-adv-x="1464" d="M137 41v1382q0 41 41 41h330q33 0 47 -28l164 -312q178 -343 231 -495l8 2q-26 279 -26 540v252q0 41 41 41h313q41 0 41 -41v-1441q0 -189 -107.5 -294.5t-299.5 -105.5q-67 0 -129 12q-35 8 -35 46v233q0 42 43 39q14 -2 43 -2q87 0 102 84l-196 323 q-71 117 -145 274.5t-107 250.5l-9 -2q45 -332 45 -602v-197q0 -41 -40 -41h-314q-41 0 -41 41z" />
<glyph unicode="&#x14b;" horiz-adv-x="1161" d="M98 39v928q0 35 29 47q97 39 217.5 61.5t230.5 22.5q247 0 372.5 -130.5t125.5 -357.5v-628q0 -189 -106 -293.5t-301 -104.5q-63 0 -111 10q-35 6 -35 46v231q0 42 33 39q12 -2 35 -2q52 0 78 30.5t26 104.5v573q0 82 -28.5 115t-88.5 33q-63 0 -98 -14v-711 q0 -41 -41 -41h-297q-41 0 -41 41z" />
<glyph unicode="&#x14c;" horiz-adv-x="1413" d="M92 567v334q0 280 162.5 436t452.5 156t452 -156t162 -436v-334q0 -281 -162 -438.5t-452 -157.5t-452.5 157.5t-162.5 438.5zM350 1659v174q0 41 41 41h631q41 0 41 -41v-174q0 -41 -41 -41h-631q-41 0 -41 41zM502 578q0 -228 205 -228q204 0 204 228v313 q0 223 -204 223q-205 0 -205 -223v-313z" />
<glyph unicode="&#x14d;" d="M72 424v219q0 216 132 335.5t369 119.5t369.5 -119.5t132.5 -335.5v-219q0 -215 -132.5 -334t-369.5 -119t-369 119t-132 334zM240 1257v164q0 41 41 41h583q41 0 41 -41v-164q0 -40 -41 -40h-583q-41 0 -41 40zM457 424q0 -57 29.5 -88t86.5 -31t87 31t30 88v219 q0 57 -30 89t-87 32q-56 0 -86 -31.5t-30 -89.5v-219z" />
<glyph unicode="&#x150;" horiz-adv-x="1413" d="M92 567v334q0 280 162.5 436t452.5 156t452 -156t162 -436v-334q0 -281 -162 -438.5t-452 -157.5t-452.5 157.5t-162.5 438.5zM286.5 1583.5q-7.5 14.5 6.5 34.5l176 264q18 27 49 27h244q26 0 32.5 -15.5t-10.5 -35.5l-229 -267q-19 -22 -51 -22h-185q-25 0 -32.5 14.5z M502 578q0 -228 205 -228q204 0 204 228v313q0 223 -204 223q-205 0 -205 -223v-313zM753.5 1583.5q-6.5 14.5 8.5 34.5l207 266q19 25 49 25h246q26 0 32.5 -15.5t-12.5 -35.5l-262 -269q-18 -20 -51 -20h-185q-26 0 -32.5 14.5z" />
<glyph unicode="&#x151;" d="M72 424v219q0 216 132 335.5t369 119.5t369.5 -119.5t132.5 -335.5v-219q0 -215 -132.5 -334t-369.5 -119t-369 119t-132 334zM234.5 1209.5q-8.5 13.5 1.5 33.5l137 246q15 27 49 27h196q25 0 33 -13t-6 -33l-184 -249q-19 -25 -51 -25h-144q-23 0 -31.5 13.5zM457 424 q0 -57 29.5 -88t86.5 -31t87 31t30 88v219q0 57 -30 89t-87 32q-56 0 -86 -31.5t-30 -89.5v-219zM628 1210q-8 14 3 33l147 246q18 27 51 27h199q25 0 32.5 -13t-7.5 -33l-199 -251q-17 -23 -49 -23h-146q-23 0 -31 14z" />
<glyph unicode="&#x152;" horiz-adv-x="1982" d="M94 571v338q0 277 142 430.5t403 153.5q180 0 309 -109v39q0 41 41 41h838q41 0 41 -41v-286q0 -41 -41 -41h-541v-181h461q41 0 41 -41v-268q0 -41 -41 -41h-461v-194h576q41 0 41 -41v-289q0 -41 -41 -41h-873q-41 0 -41 41v39q-138 -109 -309 -109q-261 0 -403 158 t-142 442zM502 578q0 -230 200 -230q95 0 144 58.5t49 171.5v319q0 109 -49 165t-144 56q-200 0 -200 -221v-319z" />
<glyph unicode="&#x153;" horiz-adv-x="1720" d="M72 424v219q0 216 132 335.5t369 119.5q190 0 308 -97q126 97 307 97q219 0 344 -109.5t125 -337.5v-188q0 -41 -41 -41h-541v-10q0 -64 35.5 -97.5t103.5 -33.5q131 0 230 57q35 21 57 -10l125 -168q24 -34 -6 -58q-169 -131 -420 -131q-185 0 -311 99 q-129 -99 -316 -99q-237 0 -369 119t-132 334zM457 424q0 -57 29.5 -88t86.5 -31t87 31t30 88v219q0 57 -30 89t-87 32q-56 0 -86 -31.5t-30 -89.5v-219zM1075 641h219v33q0 125 -110 125q-109 0 -109 -125v-33z" />
<glyph unicode="&#x154;" horiz-adv-x="1339" d="M137 41v1382q0 41 41 41h520q263 0 409 -139.5t146 -376.5q0 -307 -258 -430l287 -469q12 -22 5 -35.5t-32 -13.5h-362q-33 0 -47 29l-221 424h-88v-412q0 -41 -41 -41h-318q-41 0 -41 41zM428.5 1577.5q-7.5 14.5 7.5 34.5l203 266q19 25 49 25h301q26 0 33 -16t-12 -36 l-258 -268q-18 -20 -52 -20h-239q-25 0 -32.5 14.5zM537 795h141q87 0 125.5 35.5t38.5 115.5q0 76 -39 113t-125 37h-141v-301z" />
<glyph unicode="&#x155;" horiz-adv-x="776" d="M98 41v920q0 32 29 49q177 88 395 88q66 0 189 -21q37 -9 37 -45v-227q0 -43 -43 -37q-46 6 -95 6q-79 0 -133 -22v-711q0 -41 -41 -41h-297q-41 0 -41 41zM231.5 1210.5q-7.5 14.5 6.5 34.5l172 264q18 27 49 27h274q26 0 33 -15.5t-10 -35.5l-228 -266q-20 -23 -51 -23 h-213q-25 0 -32.5 14.5z" />
<glyph unicode="&#x156;" horiz-adv-x="1339" d="M137 41v1382q0 41 41 41h520q263 0 409 -139.5t146 -376.5q0 -307 -258 -430l287 -469q12 -22 5 -35.5t-32 -13.5h-362q-33 0 -47 29l-221 424h-88v-412q0 -41 -41 -41h-318q-41 0 -41 41zM465 -430l80 317q6 31 47 31h254q23 0 33.5 -11t3.5 -28l-135 -319 q-11 -27 -48 -27h-196q-23 0 -33.5 10t-5.5 27zM537 795h141q87 0 125.5 35.5t38.5 115.5q0 76 -39 113t-125 37h-141v-301z" />
<glyph unicode="&#x157;" horiz-adv-x="776" d="M98 41v920q0 32 29 49q177 88 395 88q66 0 189 -21q37 -9 37 -45v-227q0 -43 -43 -37q-46 6 -95 6q-79 0 -133 -22v-711q0 -41 -41 -41h-297q-41 0 -41 41zM100 -444l78 311q7 33 47 33h219q22 0 31.5 -11t3.5 -30l-123 -316q-10 -26 -47 -26h-174q-47 0 -35 39z" />
<glyph unicode="&#x158;" horiz-adv-x="1339" d="M137 41v1382q0 41 41 41h520q263 0 409 -139.5t146 -376.5q0 -307 -258 -430l287 -469q12 -22 5 -35.5t-32 -13.5h-362q-33 0 -47 29l-221 424h-88v-412q0 -41 -41 -41h-318q-41 0 -41 41zM256 1887q7 16 33 16h225q30 0 49 -25l80 -100l76 100q17 25 49 25h225 q26 0 33 -16t-10 -36l-225 -266q-19 -22 -52 -22h-192q-32 0 -51 22l-230 266q-17 20 -10 36zM537 795h141q87 0 125.5 35.5t38.5 115.5q0 76 -39 113t-125 37h-141v-301z" />
<glyph unicode="&#x159;" horiz-adv-x="776" d="M53 1520.5q7 15.5 33 15.5h211q30 0 49 -25l88 -110l84 110q19 25 49 25h211q26 0 33 -15.5t-10 -35.5l-226 -266q-20 -23 -51 -23h-180q-31 0 -51 23l-230 266q-17 20 -10 35.5zM98 41v920q0 32 29 49q177 88 395 88q66 0 189 -21q37 -9 37 -45v-227q0 -43 -43 -37 q-46 6 -95 6q-79 0 -133 -22v-711q0 -41 -41 -41h-297q-41 0 -41 41z" />
<glyph unicode="&#x15a;" horiz-adv-x="1304" d="M78 236l170 243q11 15 26.5 17.5t30.5 -9.5q193 -133 369 -133q164 0 164 82q0 44 -54 70.5t-151 46.5q-70 14 -132.5 33.5t-137.5 59.5t-128.5 92.5t-89.5 135t-36 183.5q0 139 78 239.5t207 148.5t294 48q141 0 261.5 -35.5t248.5 -118.5q34 -21 12 -57l-161 -244 q-23 -33 -58 -12q-148 88 -317 88q-158 0 -158 -70q0 -41 41.5 -63t175.5 -55q129 -32 218 -68.5t159.5 -91.5t104.5 -133.5t34 -183.5q0 -211 -156.5 -344.5t-451.5 -133.5q-160 0 -288.5 48.5t-266.5 158.5q-31 25 -8 58zM432.5 1597.5q-7.5 14.5 7.5 34.5l203 266 q19 25 49 25h301q26 0 33 -15.5t-12 -35.5l-258 -268q-18 -21 -51 -21h-240q-25 0 -32.5 14.5z" />
<glyph unicode="&#x15b;" horiz-adv-x="1038" d="M53 164l115 192q20 36 55 15q131 -82 277 -82q106 0 106 51q0 40 -108 55q-416 63 -416 353q0 168 120 259t349 91q197 0 377 -92q37 -18 14 -58l-117 -186q-20 -32 -55 -14q-102 51 -221 51q-46 0 -68 -9.5t-22 -35.5t26.5 -38.5t116.5 -25.5q190 -31 288.5 -118.5 t98.5 -225.5q0 -188 -120 -281.5t-369 -93.5q-111 0 -224.5 34.5t-209.5 100.5q-33 20 -13 58zM332 1210.5q-8 14.5 6 34.5l172 264q18 27 49 27h275q26 0 32.5 -15.5t-10.5 -35.5l-227 -266q-20 -23 -51 -23h-213q-25 0 -33 14.5z" />
<glyph unicode="&#x15e;" horiz-adv-x="1304" d="M78 236l170 243q11 15 26.5 17.5t30.5 -9.5q193 -133 369 -133q164 0 164 82q0 44 -54 70.5t-151 46.5q-70 14 -132.5 33.5t-137.5 59.5t-128.5 92.5t-89.5 135t-36 183.5q0 139 78 239.5t207 148.5t294 48q141 0 261.5 -35.5t248.5 -118.5q34 -21 12 -57l-161 -244 q-23 -33 -58 -12q-148 88 -317 88q-158 0 -158 -70q0 -41 41.5 -63t175.5 -55q129 -32 218 -68.5t159.5 -91.5t104.5 -133.5t34 -183.5q0 -189 -125.5 -317t-365.5 -155q-2 -13 -25 -71q94 -6 139.5 -46t45.5 -116q0 -89 -78.5 -137.5t-223.5 -48.5q-52 0 -108 16 q-33 9 -33 45v70q0 39 45 30q28 -4 47 -4q99 0 99 52q0 23 -19.5 36t-73.5 19q-25 1 -31 12t3 31l43 108q-139 6 -257.5 55t-244.5 150q-31 25 -8 58z" />
<glyph unicode="&#x15f;" horiz-adv-x="1038" d="M53 164l115 192q20 36 55 15q131 -82 277 -82q106 0 106 51q0 40 -108 55q-416 63 -416 353q0 168 120 259t349 91q197 0 377 -92q37 -18 14 -58l-117 -186q-20 -32 -55 -14q-102 51 -221 51q-46 0 -68 -9.5t-22 -35.5t26.5 -38.5t116.5 -25.5q190 -31 288.5 -118.5 t98.5 -225.5q0 -342 -407 -371l-27 -67q180 -12 180 -162q0 -87 -76.5 -134.5t-216.5 -47.5q-56 0 -108 14q-33 9 -33 47v66q0 39 45 30q28 -4 47 -4q99 0 99 52q0 47 -95 55q-24 1 -27 10.5t5 28.5l41 112q-195 23 -350 131q-33 20 -13 58z" />
<glyph unicode="&#x160;" horiz-adv-x="1304" d="M78 236l170 243q11 15 26.5 17.5t30.5 -9.5q193 -133 369 -133q164 0 164 82q0 44 -54 70.5t-151 46.5q-70 14 -132.5 33.5t-137.5 59.5t-128.5 92.5t-89.5 135t-36 183.5q0 139 78 239.5t207 148.5t294 48q141 0 261.5 -35.5t248.5 -118.5q34 -21 12 -57l-161 -244 q-23 -33 -58 -12q-148 88 -317 88q-158 0 -158 -70q0 -41 41.5 -63t175.5 -55q129 -32 218 -68.5t159.5 -91.5t104.5 -133.5t34 -183.5q0 -211 -156.5 -344.5t-451.5 -133.5q-160 0 -288.5 48.5t-266.5 158.5q-31 25 -8 58zM280.5 1907.5q6.5 15.5 32.5 15.5h226 q30 0 49 -25l80 -100l75 100q17 25 50 25h225q26 0 32.5 -15.5t-10.5 -35.5l-225 -266q-20 -23 -51 -23h-193q-31 0 -51 23l-229 266q-17 20 -10.5 35.5z" />
<glyph unicode="&#x161;" horiz-adv-x="1038" d="M53 164l115 192q20 36 55 15q131 -82 277 -82q106 0 106 51q0 40 -108 55q-416 63 -416 353q0 168 120 259t349 91q197 0 377 -92q37 -18 14 -58l-117 -186q-20 -32 -55 -14q-102 51 -221 51q-46 0 -68 -9.5t-22 -35.5t26.5 -38.5t116.5 -25.5q190 -31 288.5 -118.5 t98.5 -225.5q0 -188 -120 -281.5t-369 -93.5q-111 0 -224.5 34.5t-209.5 100.5q-33 20 -13 58zM153.5 1500q6.5 16 32.5 16h211q30 0 49 -25l89 -111l83 111q19 25 50 25h211q26 0 32.5 -16t-10.5 -36l-225 -266q-19 -22 -51 -22h-181q-32 0 -51 22l-229 266 q-17 20 -10.5 36z" />
<glyph unicode="&#x162;" horiz-adv-x="1214" d="M25 1133v290q0 41 41 41h1083q41 0 41 -41v-290q0 -41 -41 -41h-342v-1051q0 -41 -41 -41h-317q-41 0 -41 41v1051h-342q-41 0 -41 41zM387 -457l78 324q6 31 47 31h252q22 0 32.5 -11t4.5 -30l-135 -324q-11 -27 -48 -27h-192q-23 0 -33.5 10t-5.5 27z" />
<glyph unicode="&#x163;" horiz-adv-x="737" d="M92 377v905q0 41 41 41h264q40 0 43 -39l27 -246h156q41 0 41 -41v-235q0 -41 -41 -41h-152v-285q0 -67 28 -99t87 -32q19 0 51 4q45 6 45 -35v-239q0 -38 -33 -47q-59 -17 -143 -17q-195 0 -304.5 107t-109.5 299zM162 -475l82 321q7 33 47 33h225q24 0 34.5 -11.5 t4.5 -31.5l-127 -321q-13 -29 -49 -29h-180q-23 0 -32.5 10.5t-4.5 28.5z" />
<glyph unicode="&#x164;" horiz-adv-x="1214" d="M25 1133v290q0 41 41 41h1083q41 0 41 -41v-290q0 -41 -41 -41h-342v-1051q0 -41 -41 -41h-317q-41 0 -41 41v1051h-342q-41 0 -41 41zM223 1887q7 16 33 16h225q30 0 49 -25l80 -100l76 100q17 25 49 25h226q26 0 32.5 -16t-10.5 -36l-225 -266q-19 -22 -51 -22h-193 q-32 0 -51 22l-230 266q-17 20 -10 36z" />
<glyph unicode="&#x165;" horiz-adv-x="737" d="M92 377v905q0 41 41 41h264q40 0 43 -39l27 -246h156q41 0 41 -41v-235q0 -41 -41 -41h-152v-285q0 -67 28 -99t87 -32q19 0 51 4q45 6 45 -35v-239q0 -35 -16 -41q-61 -23 -160 -23q-195 0 -304.5 107t-109.5 299zM582 1225l80 317q9 35 45 35h213q22 0 30.5 -12.5 t1.5 -34.5l-118 -318q-13 -32 -48 -32h-170q-43 0 -34 45z" />
<glyph unicode="&#x166;" horiz-adv-x="1230" d="M33 1133v290q0 41 41 41h1083q41 0 41 -41v-290q0 -41 -41 -41h-338v-314h154q41 0 41 -41v-143q0 -41 -41 -41h-154v-512q0 -41 -41 -41h-323q-41 0 -41 41v512h-146q-41 0 -41 41v143q0 41 41 41h146v314h-340q-41 0 -41 41z" />
<glyph unicode="&#x167;" horiz-adv-x="772" d="M23 494v96q0 41 40 41h62v651q0 41 41 41h264q40 0 43 -39l27 -246h155q41 0 41 -41v-235q0 -41 -41 -41h-151v-90h135q41 0 41 -41v-96q0 -41 -41 -41h-135v-17q0 -67 27.5 -99t86.5 -32q20 0 52 4q45 6 45 -35v-239q0 -38 -33 -47q-60 -17 -143 -17q-195 0 -304.5 107 t-109.5 299v76h-62q-40 0 -40 41z" />
<glyph unicode="&#x16a;" horiz-adv-x="1413" d="M125 561v862q0 41 41 41h321q41 0 41 -41v-870q0 -203 179 -203q87 0 132.5 52t45.5 151v870q0 41 41 41h321q41 0 41 -41v-862q0 -289 -148.5 -439.5t-432.5 -150.5q-286 0 -434 150.5t-148 439.5zM350 1638v174q0 41 41 41h631q41 0 41 -41v-174q0 -41 -41 -41h-631 q-41 0 -41 41z" />
<glyph unicode="&#x16b;" horiz-adv-x="1150" d="M88 459v569q0 41 41 41h299q41 0 41 -41v-575q0 -82 27.5 -115t85.5 -33q60 0 92 14v709q0 41 41 41h297q41 0 41 -41v-926q0 -35 -31 -47q-96 -38 -214.5 -61t-225.5 -23q-245 0 -369.5 130.5t-124.5 357.5zM248 1257v164q0 41 41 41h583q41 0 41 -41v-164 q0 -40 -41 -40h-583q-41 0 -41 40z" />
<glyph unicode="&#x16e;" horiz-adv-x="1413" d="M125 561v862q0 41 41 41h321q41 0 41 -41v-870q0 -203 179 -203q87 0 132.5 52t45.5 151v870q0 41 41 41h321q41 0 41 -41v-862q0 -289 -148.5 -439.5t-432.5 -150.5q-286 0 -434 150.5t-148 439.5zM393 1802q0 119 86 192.5t228 73.5t227.5 -73.5t85.5 -192.5 q0 -122 -85.5 -197t-227.5 -75t-228 75t-86 197zM612 1802q0 -41 25.5 -64.5t69.5 -23.5t69 23.5t25 64.5q0 37 -25 59.5t-69 22.5t-69.5 -22.5t-25.5 -59.5z" />
<glyph unicode="&#x16f;" horiz-adv-x="1150" d="M88 459v569q0 41 41 41h299q41 0 41 -41v-575q0 -82 27.5 -115t85.5 -33q60 0 92 14v709q0 41 41 41h297q41 0 41 -41v-926q0 -35 -31 -47q-96 -38 -214.5 -61t-225.5 -23q-245 0 -369.5 130.5t-124.5 357.5zM295 1407q0 111 76.5 180.5t203.5 69.5q125 0 202 -69.5 t77 -180.5q0 -113 -76.5 -182.5t-202.5 -69.5q-127 0 -203.5 69.5t-76.5 182.5zM485 1407q0 -37 25 -60.5t65 -23.5q42 0 65.5 23t23.5 61q0 40 -23 61t-66 21q-41 0 -65.5 -21.5t-24.5 -60.5z" />
<glyph unicode="&#x170;" horiz-adv-x="1413" d="M125 561v862q0 41 41 41h321q41 0 41 -41v-870q0 -203 179 -203q87 0 132.5 52t45.5 151v870q0 41 41 41h321q41 0 41 -41v-862q0 -289 -148.5 -439.5t-432.5 -150.5q-286 0 -434 150.5t-148 439.5zM286.5 1589.5q-7.5 14.5 6.5 34.5l176 264q18 27 49 27h244 q26 0 32.5 -15.5t-10.5 -35.5l-229 -267q-19 -22 -51 -22h-185q-25 0 -32.5 14.5zM753.5 1589.5q-6.5 14.5 8.5 34.5l207 266q19 25 49 25h246q26 0 32.5 -15.5t-12.5 -35.5l-262 -269q-18 -20 -51 -20h-185q-26 0 -32.5 14.5z" />
<glyph unicode="&#x171;" horiz-adv-x="1150" d="M88 459v569q0 41 41 41h299q41 0 41 -41v-575q0 -82 27.5 -115t85.5 -33q60 0 92 14v709q0 41 41 41h297q41 0 41 -41v-926q0 -35 -31 -47q-96 -38 -214.5 -61t-225.5 -23q-245 0 -369.5 130.5t-124.5 357.5zM240.5 1189.5q-8.5 13.5 1.5 35.5l135 262q15 29 47 29h194 q25 0 32.5 -14t-5.5 -36l-182 -264q-17 -26 -49 -26h-142q-23 0 -31.5 13.5zM628 1190.5q-8 14.5 3 34.5l145 262q14 29 49 29h195q25 0 32 -14t-8 -36l-194 -266q-16 -24 -49 -24h-142q-23 0 -31 14.5z" />
<glyph unicode="&#x172;" horiz-adv-x="1413" d="M125 561v862q0 41 41 41h321q41 0 41 -41v-870q0 -201 179 -201q87 0 132.5 51t45.5 150v870q0 41 41 41h321q41 0 41 -41v-862q0 -364 -235 -506q-62 -38 -101 -90t-39 -90q0 -55 54 -55q27 0 65 10q41 12 51 -23l35 -120q9 -37 -20 -54q-107 -55 -244 -55 q-128 0 -190 45.5t-62 126.5q0 61 31.5 120.5t93.5 100.5v2h-20q-286 0 -434 149.5t-148 438.5z" />
<glyph unicode="&#x173;" horiz-adv-x="1148" d="M88 457v571q0 41 41 41h299q41 0 41 -41v-575q0 -71 29 -109.5t84 -38.5q54 0 92 17v706q0 41 41 41h295q41 0 41 -41v-924q0 -36 -35 -45q-116 -38 -174 -82.5t-58 -85.5q0 -61 88 -61q34 0 72 10q39 16 51 -24l33 -121q9 -37 -18 -51q-110 -60 -230 -60q-124 0 -192 55 t-68 152q0 102 125 186q-23 -4 -63 -4q-245 0 -369.5 130t-124.5 354z" />
<glyph unicode="&#x174;" horiz-adv-x="2097" d="M8 1419q-6 20 3.5 32.5t31.5 12.5h336q39 0 45 -37l61 -284q26 -111 68.5 -330.5t62.5 -353.5h11q47 313 137 671l72 279q9 35 45 35h336q36 0 45 -35l71 -279q80 -314 137 -671h11q20 134 62.5 353.5t68.5 330.5l61 284q6 37 45 37h336q22 0 31.5 -12.5t3.5 -32.5 l-389 -1384q-8 -35 -47 -35h-361q-38 0 -47 35l-84 315q-30 113 -63.5 300t-44.5 292h-9q-11 -105 -44.5 -292t-63.5 -300l-84 -315q-9 -35 -47 -35h-361q-39 0 -47 35zM663.5 1578.5q-6.5 15.5 10.5 35.5l229 266q20 23 51 23h193q31 0 51 -23l225 -266q17 -20 10.5 -35.5 t-32.5 -15.5h-225q-34 0 -50 24l-75 101l-80 -101q-18 -24 -49 -24h-226q-26 0 -32.5 15.5z" />
<glyph unicode="&#x175;" horiz-adv-x="1601" d="M14 1024q-6 20 3.5 32.5t31.5 12.5h299q38 0 43 -37l55 -340q33 -237 41 -309h9q21 186 47 317l61 318q6 37 43 37h307q37 0 43 -37l62 -318q26 -131 47 -317h8q8 72 41 309l55 340q5 37 43 37h299q22 0 31.5 -12.5t3.5 -32.5l-260 -989q-9 -35 -45 -35h-319 q-39 0 -45 37l-72 334q-38 197 -43 223h-4q-5 -26 -43 -223l-72 -334q-6 -37 -45 -37h-320q-36 0 -45 35zM422 1191.5q-7 15.5 10 35.5l230 266q20 23 51 23h180q31 0 51 -23l225 -266q17 -20 10.5 -35.5t-32.5 -15.5h-211q-31 0 -49 24l-84 111l-88 -111q-18 -24 -49 -24 h-211q-26 0 -33 15.5z" />
<glyph unicode="&#x176;" horiz-adv-x="1294" d="M5 1450.5q9 13.5 32 13.5h350q34 0 47 -32l213 -537l213 537q13 32 47 32h350q23 0 32 -13.5t-1 -35.5l-440 -909v-465q0 -41 -41 -41h-320q-41 0 -41 41v465l-440 909q-10 22 -1 35.5zM262 1578.5q-7 15.5 10 35.5l230 266q20 23 51 23h192q32 0 52 -23l225 -266 q17 -20 10 -35.5t-33 -15.5h-225q-33 0 -49 24l-76 101l-80 -101q-18 -24 -49 -24h-225q-26 0 -33 15.5z" />
<glyph unicode="&#x177;" horiz-adv-x="1153" d="M90 479v549q0 41 41 41h297q41 0 41 -41v-547q0 -70 25.5 -104.5t87.5 -34.5q56 0 92 18v668q0 41 41 41h297q41 0 41 -41v-897q0 -290 -122 -419.5t-392 -129.5q-133 0 -230 23t-182 76q-36 22 -14 57l127 201q19 31 55 14q100 -49 221 -49q82 0 123 32t41 107 q-74 -18 -156 -18q-206 0 -320 122.5t-114 331.5zM203 1211.5q-7 15.5 10 35.5l229 266q20 23 52 23h180q31 0 51 -23l225 -266q17 -20 10.5 -35.5t-32.5 -15.5h-211q-30 0 -49 25l-84 110l-88 -110q-19 -25 -50 -25h-210q-26 0 -33 15.5z" />
<glyph unicode="&#x178;" horiz-adv-x="1294" d="M5 1450.5q9 13.5 32 13.5h350q34 0 47 -32l213 -537l213 537q13 32 47 32h350q23 0 32 -13.5t-1 -35.5l-440 -909v-465q0 -41 -41 -41h-320q-41 0 -41 41v465l-440 909q-10 22 -1 35.5zM233 1733q0 76 51 126t128 50t127.5 -50t50.5 -126t-50.5 -126.5t-127.5 -50.5 t-128 50.5t-51 126.5zM700 1733q0 77 50 126.5t131 49.5q78 0 129 -50t51 -126q0 -77 -51 -127t-129 -50q-81 0 -131 50t-50 127z" />
<glyph unicode="&#x179;" horiz-adv-x="1284" d="M66 41v197q0 25 16 51l565 805h-495q-41 0 -41 41v288q0 41 41 41h999q41 0 41 -41v-188q0 -25 -16 -51l-555 -811h548q41 0 41 -41v-291q0 -41 -41 -41h-1063q-40 0 -40 41zM428.5 1577.5q-7.5 14.5 7.5 34.5l203 266q19 25 49 25h301q26 0 33 -16t-12 -36l-258 -268 q-18 -20 -52 -20h-239q-25 0 -32.5 14.5z" />
<glyph unicode="&#x17a;" horiz-adv-x="1044" d="M59 41v166q0 26 19 51l375 479h-322q-41 0 -41 41v250q0 41 41 41h793q41 0 41 -41v-158q0 -28 -17 -51l-362 -487h352q41 0 41 -41v-250q0 -41 -41 -41h-838q-41 0 -41 41zM321.5 1210.5q-7.5 14.5 6.5 34.5l172 264q18 27 49 27h274q26 0 33 -15.5t-10 -35.5l-228 -266 q-20 -23 -51 -23h-213q-25 0 -32.5 14.5z" />
<glyph unicode="&#x17b;" horiz-adv-x="1284" d="M66 41v197q0 25 16 51l565 805h-495q-41 0 -41 41v288q0 41 41 41h999q41 0 41 -41v-188q0 -25 -16 -51l-555 -811h548q41 0 41 -41v-291q0 -41 -41 -41h-1063q-40 0 -40 41zM463 1753q0 85 55.5 139t143.5 54t143 -54t55 -139q0 -83 -55.5 -137.5t-142.5 -54.5t-143 55 t-56 137z" />
<glyph unicode="&#x17c;" horiz-adv-x="1044" d="M59 41v166q0 26 19 51l375 479h-322q-41 0 -41 41v250q0 41 41 41h793q41 0 41 -41v-158q0 -28 -17 -51l-362 -487h352q41 0 41 -41v-250q0 -41 -41 -41h-838q-41 0 -41 41zM340 1374q0 82 50.5 131t133.5 49q80 0 130.5 -49.5t50.5 -130.5q0 -77 -51 -128.5t-130 -51.5 q-82 0 -133 51t-51 129z" />
<glyph unicode="&#x17d;" horiz-adv-x="1284" d="M66 41v197q0 25 16 51l565 805h-495q-41 0 -41 41v288q0 41 41 41h999q41 0 41 -41v-188q0 -25 -16 -51l-555 -811h548q41 0 41 -41v-291q0 -41 -41 -41h-1063q-40 0 -40 41zM276.5 1907.5q6.5 15.5 32.5 15.5h226q30 0 49 -25l80 -100l75 100q17 25 49 25h226 q26 0 32.5 -15.5t-10.5 -35.5l-225 -266q-20 -23 -51 -23h-193q-31 0 -51 23l-229 266q-17 20 -10.5 35.5z" />
<glyph unicode="&#x17e;" horiz-adv-x="1044" d="M59 41v166q0 26 19 51l375 479h-322q-41 0 -41 41v250q0 41 41 41h793q41 0 41 -41v-158q0 -28 -17 -51l-362 -487h352q41 0 41 -41v-250q0 -41 -41 -41h-838q-41 0 -41 41zM164 1520.5q7 15.5 33 15.5h211q30 0 49 -25l88 -110l84 110q19 25 49 25h211q26 0 32.5 -15.5 t-10.5 -35.5l-225 -266q-20 -23 -51 -23h-180q-32 0 -52 23l-229 266q-17 20 -10 35.5z" />
<glyph unicode="&#x192;" horiz-adv-x="1085" d="M10 -186l60 223q8 37 49 31q40 -5 47 -5q41 0 63 19t31 68l72 395h-121q-41 0 -41 41v258q0 41 41 41h178l45 254q11 64 37.5 122t72.5 112.5t121 87t169 32.5q113 0 200 -20q37 -6 31 -48l-43 -225q-6 -37 -49 -31q-45 5 -58 5q-48 0 -75.5 -28.5t-34.5 -72.5l-33 -188 h150q41 0 41 -41v-258q0 -41 -41 -41h-209l-76 -445q-60 -362 -410 -362q-86 0 -188 24q-38 12 -29 52z" />
<glyph unicode="&#x218;" horiz-adv-x="1304" d="M78 236l170 243q11 15 26.5 17.5t30.5 -9.5q193 -133 369 -133q164 0 164 82q0 44 -54 70.5t-151 46.5q-70 14 -132.5 33.5t-137.5 59.5t-128.5 92.5t-89.5 135t-36 183.5q0 139 78 239.5t207 148.5t294 48q141 0 261.5 -35.5t248.5 -118.5q34 -21 12 -57l-161 -244 q-23 -33 -58 -12q-148 88 -317 88q-158 0 -158 -70q0 -41 41.5 -63t175.5 -55q129 -32 218 -68.5t159.5 -91.5t104.5 -133.5t34 -183.5q0 -211 -156.5 -344.5t-451.5 -133.5q-160 0 -288.5 48.5t-266.5 158.5q-31 25 -8 58zM436 -463l78 330q9 31 47 31h254q22 0 32 -10.5 t3 -28.5l-133 -332q-15 -29 -47 -29h-195q-23 0 -33.5 10.5t-5.5 28.5z" />
<glyph unicode="&#x219;" horiz-adv-x="1038" d="M53 164l115 192q20 36 55 15q131 -82 277 -82q106 0 106 51q0 40 -108 55q-416 63 -416 353q0 168 120 259t349 91q197 0 377 -92q37 -18 14 -58l-117 -186q-20 -32 -55 -14q-102 51 -221 51q-46 0 -68 -9.5t-22 -35.5t26.5 -38.5t116.5 -25.5q190 -31 288.5 -118.5 t98.5 -225.5q0 -188 -120 -281.5t-369 -93.5q-111 0 -224.5 34.5t-209.5 100.5q-33 20 -13 58zM305 -455l80 303q7 31 47 31h223q22 0 32 -11t3 -28l-125 -305q-11 -27 -47 -27h-176q-47 0 -37 37z" />
<glyph unicode="&#x21a;" horiz-adv-x="1214" d="M25 1133v290q0 41 41 41h1083q41 0 41 -41v-290q0 -41 -41 -41h-342v-1051q0 -41 -41 -41h-317q-41 0 -41 41v1051h-342q-41 0 -41 41zM393 -446l76 315q10 29 47 29h246q22 0 31.5 -10t3.5 -27l-131 -318q-12 -26 -45 -26h-191q-21 0 -31.5 11t-5.5 26z" />
<glyph unicode="&#x21b;" horiz-adv-x="737" d="M92 377v905q0 41 41 41h264q40 0 43 -39l27 -246h156q41 0 41 -41v-235q0 -41 -41 -41h-152v-285q0 -67 28 -99t87 -32q19 0 51 4q45 6 45 -35v-239q0 -38 -33 -47q-59 -17 -143 -17q-195 0 -304.5 107t-109.5 299zM162 -465l80 311q7 33 47 33h221q22 0 32 -11.5 t3 -29.5l-123 -315q-14 -27 -47 -27h-176q-46 0 -37 39z" />
<glyph unicode="&#x2c6;" horiz-adv-x="718" d="M43 1232.5q-7 15.5 10 35.5l230 266q19 22 51 22h180q32 0 51 -22l226 -266q17 -20 10 -35.5t-33 -15.5h-211q-31 0 -49 24l-84 111l-88 -111q-18 -24 -49 -24h-211q-26 0 -33 15.5z" />
<glyph unicode="&#x2c7;" horiz-adv-x="591" d="M43 1540.5q7 15.5 33 15.5h211q31 0 49 -24l88 -111l84 111q18 24 49 24h211q26 0 33 -15.5t-10 -35.5l-226 -266q-19 -22 -51 -22h-180q-32 0 -51 22l-230 266q-17 20 -10 35.5z" />
<glyph unicode="&#x2d8;" horiz-adv-x="516" d="M-2 1481q-6 38 35 45l182 33q35 6 47 -33q21 -64 94 -64q74 0 95 64q12 39 47 33l182 -33q41 -7 35 -41q-17 -134 -110.5 -207.5t-248.5 -73.5q-154 0 -246.5 72.5t-111.5 204.5z" />
<glyph unicode="&#x2d9;" horiz-adv-x="249" d="M39 1395q0 82 50.5 131t133.5 49q80 0 130 -49.5t50 -130.5q0 -77 -50.5 -129t-129.5 -52q-82 0 -133 51.5t-51 129.5z" />
<glyph unicode="&#x2da;" horiz-adv-x="491" d="M-14 1468q0 119 76.5 193t201.5 74q124 0 200.5 -74t76.5 -193q0 -120 -76.5 -194t-200.5 -74q-126 0 -202 74t-76 194zM174 1468q0 -40 25 -65t65 -25q42 0 65 24.5t23 65.5q0 88 -88 88q-41 0 -65.5 -23t-24.5 -65z" />
<glyph unicode="&#x2db;" horiz-adv-x="491" d="M39 -250q0 68 37 132.5t110 105.5q22 12 52 12h172q55 0 8 -35q-68 -48 -68 -104q0 -41 47 -41q35 0 72 12q40 12 51 -25l35 -120q9 -37 -20 -54q-107 -55 -244 -55q-128 0 -190 45.5t-62 126.5z" />
<glyph unicode="&#x2dc;" horiz-adv-x="733" d="M12 1348q31 84 93.5 151.5t146.5 67.5q11 0 23 -1.5t22 -3.5t23.5 -7t21 -7.5t22 -9.5t20 -9.5t21 -10t19.5 -9.5q85 -45 115 -45q19 0 34.5 15t34.5 47q23 33 56 16l151 -78q34 -18 25 -45q-32 -88 -95.5 -157.5t-146.5 -69.5q-26 0 -61.5 11.5t-50.5 18.5t-60 29 q-81 43 -109 43q-38 0 -77 -61q-21 -34 -56 -16l-151 77q-36 19 -21 54z" />
<glyph unicode="&#x2dd;" horiz-adv-x="819" d="M5 1230.5q-9 13.5 1 35.5l135 262q14 28 47 28h195q25 0 32.5 -13.5t-5.5 -35.5l-183 -264q-17 -26 -49 -26h-141q-23 0 -32 13.5zM392.5 1231.5q-8.5 14.5 2.5 34.5l146 262q14 28 49 28h194q25 0 32.5 -13.5t-7.5 -35.5l-195 -266q-16 -24 -49 -24h-141 q-23 0 -31.5 14.5z" />
<glyph unicode="&#x386;" horiz-adv-x="1603" d="M4 1139q-8 15 6 35l172 264q17 26 49 26h275q26 0 32.5 -15.5t-10.5 -35.5l-227 -266q-20 -23 -51 -23h-213q-25 0 -33 15zM205 47l463 1385q11 32 45 32h377q34 0 45 -32l462 -1385q7 -22 -1.5 -34.5t-30.5 -12.5h-338q-39 0 -47 35l-56 201h-444l-57 -201 q-8 -35 -48 -35h-337q-22 0 -31 12.5t-2 34.5zM776 573h252l-123 457h-8z" />
<glyph unicode="&#x388;" horiz-adv-x="1726" d="M-16.5 1139q-7.5 15 6.5 35l172 264q17 26 49 26h274q26 0 33 -15.5t-10 -35.5l-227 -266q-20 -23 -52 -23h-213q-25 0 -32.5 15zM641 41v1382q0 41 41 41h889q41 0 41 -41v-276q0 -41 -41 -41h-531v-191h451q41 0 41 -41v-268q0 -41 -41 -41h-451v-207h566q41 0 41 -41 v-276q0 -41 -41 -41h-924q-41 0 -41 41z" />
<glyph unicode="&#x389;" horiz-adv-x="1941" d="M-16.5 1139q-7.5 15 6.5 35l172 264q17 26 49 26h274q26 0 33 -15.5t-10 -35.5l-227 -266q-20 -23 -52 -23h-213q-25 0 -32.5 15zM643 41v1382q0 41 41 41h317q41 0 41 -41v-499h363v499q0 41 41 41h317q41 0 41 -41v-1382q0 -41 -41 -41h-317q-41 0 -41 41v510h-363 v-510q0 -41 -41 -41h-317q-41 0 -41 41z" />
<glyph unicode="&#x38a;" horiz-adv-x="1185" d="M-16.5 1139q-7.5 15 6.5 35l172 264q17 26 49 26h274q26 0 33 -15.5t-10 -35.5l-227 -266q-20 -23 -52 -23h-213q-25 0 -32.5 15zM649 41v1382q0 41 41 41h318q41 0 41 -41v-1382q0 -41 -41 -41h-318q-41 0 -41 41z" />
<glyph unicode="&#x38c;" horiz-adv-x="1798" d="M-14.5 1139q-7.5 15 6.5 35l172 264q17 26 49 26h274q26 0 33 -15.5t-10 -35.5l-227 -266q-20 -23 -52 -23h-213q-25 0 -32.5 15zM477 567v334q0 280 162.5 436t452.5 156t452 -156t162 -436v-334q0 -281 -162 -438.5t-452 -157.5t-452.5 157.5t-162.5 438.5zM887 578 q0 -228 205 -228q204 0 204 228v313q0 223 -204 223q-205 0 -205 -223v-313z" />
<glyph unicode="&#x38e;" horiz-adv-x="1966" d="M30.5 1139q-7.5 15 6.5 35l172 264q17 26 49 26h274q26 0 33 -15.5t-10 -35.5l-227 -266q-20 -23 -52 -23h-213q-25 0 -32.5 15zM679 1450.5q9 13.5 32 13.5h350q34 0 47 -32l213 -537l213 537q13 32 47 32h350q23 0 32 -13.5t-1 -35.5l-440 -909v-465q0 -41 -41 -41 h-320q-41 0 -41 41v465l-440 909q-10 22 -1 35.5z" />
<glyph unicode="&#x38f;" horiz-adv-x="1824" d="M-12.5 1139q-7.5 15 6.5 35l172 264q17 26 49 26h274q26 0 33 -15.5t-10 -35.5l-227 -266q-20 -23 -52 -23h-213q-25 0 -32.5 15zM471 41v252q0 41 41 41h92q-63 85 -98 188t-35 199v182q0 278 163.5 434t455.5 156t455 -156t163 -434v-182q0 -96 -35 -199t-98 -188h92 q41 0 41 -41v-252q0 -41 -41 -41h-473q-41 0 -41 41v258q0 31 31 47q112 59 112 281v266q0 227 -206 227q-207 0 -207 -227v-266q0 -222 112 -281q31 -16 31 -47v-258q0 -41 -41 -41h-473q-41 0 -41 41z" />
<glyph unicode="&#x390;" horiz-adv-x="579" d="M-201 1370q0 72 42.5 113t111.5 41q70 0 110.5 -40.5t40.5 -113.5t-40.5 -113t-110.5 -40q-69 0 -111.5 40.5t-42.5 112.5zM100 41v987q0 41 41 41h297q41 0 41 -41v-987q0 -41 -41 -41h-297q-41 0 -41 41zM129 1243l92 273q11 32 45 32h197q23 0 32 -13.5t-1 -35.5 l-144 -274q-14 -29 -49 -29h-139q-22 0 -31 12.5t-2 34.5zM500 1370q0 72 42 113t111 41q70 0 111 -40.5t41 -113.5t-41 -113t-111 -40q-69 0 -111 40.5t-42 112.5z" />
<glyph unicode="&#x391;" horiz-adv-x="1404" d="M6 47l463 1385q11 32 45 32h377q34 0 45 -32l463 -1385q7 -22 -2 -34.5t-31 -12.5h-338q-39 0 -47 35l-55 201h-445l-57 -201q-8 -35 -47 -35h-338q-22 0 -31 12.5t-2 34.5zM578 573h251l-122 457h-9z" />
<glyph unicode="&#x392;" horiz-adv-x="1339" d="M137 41v1382q0 41 41 41h582q214 0 332 -111.5t118 -312.5q0 -169 -143 -256q99 -39 152 -119.5t53 -197.5q0 -221 -131 -344t-371 -123h-592q-41 0 -41 41zM537 350h196q60 0 94.5 34t34.5 97q0 123 -143 123h-182v-254zM537 909h149q117 0 117 109q0 106 -117 106h-149 v-215z" />
<glyph unicode="&#x393;" horiz-adv-x="1075" d="M137 41v1382q0 41 41 41h834q41 0 41 -41v-290q0 -41 -41 -41h-475v-1051q0 -41 -41 -41h-318q-41 0 -41 41z" />
<glyph unicode="&#x394;" horiz-adv-x="1415" d="M6 47l463 1385q11 32 45 32h385q34 0 45 -32l465 -1385q7 -22 -2 -34.5t-31 -12.5h-1337q-22 0 -31 12.5t-2 34.5zM516 356h383l-186 654h-13z" />
<glyph unicode="&#x395;" horiz-adv-x="1222" d="M137 41v1382q0 41 41 41h889q41 0 41 -41v-276q0 -41 -41 -41h-530v-191h450q41 0 41 -41v-268q0 -41 -41 -41h-450v-207h565q41 0 41 -41v-276q0 -41 -41 -41h-924q-41 0 -41 41z" />
<glyph unicode="&#x396;" horiz-adv-x="1284" d="M66 41v197q0 25 16 51l565 805h-495q-41 0 -41 41v288q0 41 41 41h999q41 0 41 -41v-188q0 -25 -16 -51l-555 -811h548q41 0 41 -41v-291q0 -41 -41 -41h-1063q-40 0 -40 41z" />
<glyph unicode="&#x397;" horiz-adv-x="1435" d="M137 41v1382q0 41 41 41h318q41 0 41 -41v-499h362v499q0 41 41 41h317q41 0 41 -41v-1382q0 -41 -41 -41h-317q-41 0 -41 41v510h-362v-510q0 -41 -41 -41h-318q-41 0 -41 41z" />
<glyph unicode="&#x398;" horiz-adv-x="1421" d="M92 567v334q0 280 163.5 436t455.5 156t455 -156t163 -436v-334q0 -281 -163 -438.5t-455 -157.5t-455.5 157.5t-163.5 438.5zM502 578q0 -228 209 -228t209 228v313q0 223 -209 223t-209 -223v-313zM578 629v213q0 41 40 41h181q41 0 41 -41v-213q0 -41 -41 -41h-181 q-40 0 -40 41z" />
<glyph unicode="&#x399;" horiz-adv-x="673" d="M137 41v1382q0 41 41 41h318q41 0 41 -41v-1382q0 -41 -41 -41h-318q-41 0 -41 41z" />
<glyph unicode="&#x39a;" horiz-adv-x="1361" d="M137 41v1382q0 41 41 41h318q41 0 41 -41v-450l292 465q16 26 50 26h399q25 0 32.5 -13.5t-7.5 -35.5l-441 -579l510 -787q14 -20 6.5 -34.5t-32.5 -14.5h-381q-34 0 -50 29l-297 491l-81 -94v-385q0 -41 -41 -41h-318q-41 0 -41 41z" />
<glyph unicode="&#x39b;" horiz-adv-x="1417" d="M6 45l467 1385q11 32 45 32h381q34 0 45 -32l467 -1385q7 -22 -2 -34.5t-31 -12.5h-342q-36 0 -45 35l-170 555q-44 145 -106 420h-13q-62 -275 -106 -420l-170 -555q-9 -35 -45 -35h-342q-22 0 -31 12.5t-2 34.5z" />
<glyph unicode="&#x39c;" horiz-adv-x="1802" d="M137 41v1382q0 41 41 41h350q32 0 47 -30l132 -265q83 -168 190 -436h8q102 258 191 436l131 265q15 30 47 30h350q41 0 41 -41v-1382q0 -41 -41 -41h-311q-41 0 -41 41v149q0 312 22 666l-10 2q-57 -155 -186 -440l-35 -76q-13 -31 -47 -31h-230q-34 0 -47 31l-34 76 q-134 297 -187 440l-10 -2q22 -354 22 -666v-149q0 -41 -41 -41h-311q-41 0 -41 41z" />
<glyph unicode="&#x39d;" horiz-adv-x="1464" d="M137 41v1382q0 41 41 41h330q33 0 47 -28l164 -312q178 -343 231 -495l8 2q-26 279 -26 540v252q0 41 41 41h313q41 0 41 -41v-1382q0 -41 -41 -41h-328q-33 0 -49 29l-161 270q-71 122 -145 284.5t-107 258.5l-9 -2q45 -332 45 -602v-197q0 -41 -40 -41h-314 q-41 0 -41 41z" />
<glyph unicode="&#x39e;" horiz-adv-x="1302" d="M74 41v278q0 41 41 41h1073q41 0 41 -41v-278q0 -41 -41 -41h-1073q-41 0 -41 41zM109 1145v278q0 41 41 41h1003q41 0 41 -41v-278q0 -41 -41 -41h-1003q-41 0 -41 41zM188 606v266q0 41 41 41h844q41 0 41 -41v-266q0 -41 -41 -41h-844q-41 0 -41 41z" />
<glyph unicode="&#x39f;" horiz-adv-x="1413" d="M92 567v334q0 280 162.5 436t452.5 156t452 -156t162 -436v-334q0 -281 -162 -438.5t-452 -157.5t-452.5 157.5t-162.5 438.5zM502 578q0 -228 205 -228q204 0 204 228v313q0 223 -204 223q-205 0 -205 -223v-313z" />
<glyph unicode="&#x3a0;" horiz-adv-x="1435" d="M137 41v1382q0 41 41 41h1079q41 0 41 -41v-1382q0 -41 -41 -41h-317q-41 0 -41 41v1051h-362v-1051q0 -41 -41 -41h-318q-41 0 -41 41z" />
<glyph unicode="&#x3a1;" horiz-adv-x="1333" d="M137 41v1382q0 41 41 41h565q239 0 385 -146.5t146 -387.5t-146.5 -388t-384.5 -147h-206v-354q0 -41 -41 -41h-318q-41 0 -41 41zM537 764h145q89 0 135.5 42t46.5 124t-46.5 124t-135.5 42h-145v-332z" />
<glyph unicode="&#x3a3;" horiz-adv-x="1261" d="M72 41v160q0 25 16 51l356 506l-356 483q-16 21 -16 51v131q0 41 41 41h1017q41 0 41 -41v-276q0 -41 -41 -41h-509q92 -127 223 -320q19 -28 0 -57l-248 -356h534q41 0 41 -41v-291q0 -41 -41 -41h-1017q-41 0 -41 41z" />
<glyph unicode="&#x3a4;" horiz-adv-x="1214" d="M25 1133v290q0 41 41 41h1083q41 0 41 -41v-290q0 -41 -41 -41h-342v-1051q0 -41 -41 -41h-317q-41 0 -41 41v1051h-342q-41 0 -41 41z" />
<glyph unicode="&#x3a5;" horiz-adv-x="1294" d="M5 1450.5q9 13.5 32 13.5h350q34 0 47 -32l213 -537l213 537q13 32 47 32h350q23 0 32 -13.5t-1 -35.5l-440 -909v-465q0 -41 -41 -41h-320q-41 0 -41 41v465l-440 909q-10 22 -1 35.5z" />
<glyph unicode="&#x3a6;" horiz-adv-x="1839" d="M90 621v223q0 268 150 422.5t419 154.5h62v127q0 41 41 41h315q41 0 41 -41v-127h64q269 0 418 -154.5t149 -422.5v-223q0 -270 -149 -425t-418 -155h-64v-135q0 -41 -41 -41h-315q-41 0 -41 41v135h-62q-269 0 -419 155.5t-150 424.5zM500 592q0 -89 41.5 -130.5 t126.5 -41.5h53v622h-53q-85 0 -126.5 -41t-41.5 -129v-280zM1118 420h56q83 0 124 41.5t41 130.5v280q0 88 -41 129t-124 41h-56v-622z" />
<glyph unicode="&#x3a7;" horiz-adv-x="1323" d="M15 14.5q-9 14.5 3 34.5l385 688l-346 678q-10 22 -1 35.5t32 13.5h348q37 0 47 -30l179 -424l178 424q10 30 47 30h348q23 0 32 -13.5t-1 -35.5l-346 -678l385 -688q12 -20 3 -34.5t-32 -14.5h-365q-31 0 -47 31l-202 411l-203 -411q-15 -31 -47 -31h-365 q-23 0 -32 14.5z" />
<glyph unicode="&#x3a8;" horiz-adv-x="1773" d="M88 842v581q0 41 41 41h311q41 0 41 -41v-581q0 -96 46 -140.5t139 -44.5h24v766q0 41 41 41h311q41 0 41 -41v-766h25q93 0 138.5 44.5t45.5 140.5v581q0 41 41 41h312q41 0 41 -41v-581q0 -255 -154.5 -404t-417.5 -149h-31v-248q0 -41 -41 -41h-311q-41 0 -41 41v248 h-31q-262 0 -416.5 149.5t-154.5 403.5z" />
<glyph unicode="&#x3a9;" horiz-adv-x="1470" d="M117 41v252q0 41 41 41h92q-63 85 -98 188t-35 199v182q0 278 163 434t455 156t455.5 -156t163.5 -434v-182q0 -96 -35 -199t-98 -188h92q41 0 41 -41v-252q0 -41 -41 -41h-473q-41 0 -41 41v258q0 32 30 47q113 60 113 281v266q0 227 -207 227t-207 -227v-266 q0 -221 113 -281q31 -16 31 -47v-258q0 -41 -41 -41h-473q-41 0 -41 41z" />
<glyph unicode="&#x3aa;" horiz-adv-x="673" d="M-35 1733q0 73 48 120.5t122 47.5t122 -47.5t48 -120.5t-48 -120.5t-122 -47.5t-122 47.5t-48 120.5zM137 41v1382q0 41 41 41h318q41 0 41 -41v-1382q0 -41 -41 -41h-318q-41 0 -41 41zM389 1733q0 74 48 121t124 47q75 0 123.5 -47.5t48.5 -120.5t-48.5 -120.5 t-123.5 -47.5q-76 0 -124 47t-48 121z" />
<glyph unicode="&#x3ab;" horiz-adv-x="1294" d="M5 1450.5q9 13.5 32 13.5h350q34 0 47 -32l213 -537l213 537q13 32 47 32h350q23 0 32 -13.5t-1 -35.5l-440 -909v-465q0 -41 -41 -41h-320q-41 0 -41 41v465l-440 909q-10 22 -1 35.5zM233 1733q0 76 51 126t128 50t127.5 -50t50.5 -126t-50.5 -126.5t-127.5 -50.5 t-128 50.5t-51 126.5zM700 1733q0 77 50 126.5t131 49.5q78 0 129 -50t51 -126q0 -77 -51 -127t-129 -50q-81 0 -131 50t-50 127z" />
<glyph unicode="&#x3ac;" d="M70 422v207q0 217 136.5 343t364.5 126q92 0 213 -21.5t232 -56.5q33 -9 33 -45v-934q0 -41 -41 -41h-197q-36 0 -47 33l-19 57q-42 -55 -120 -87t-168 -32q-172 0 -279.5 123t-107.5 328zM366.5 1231.5q-7.5 14.5 6.5 34.5l172 264q17 26 49 26h274q26 0 33 -15.5 t-10 -35.5l-227 -266q-19 -22 -52 -22h-213q-25 0 -32.5 14.5zM455 410q0 -109 102 -109q74 0 113 39v410q-51 14 -99 14q-56 0 -86 -30.5t-30 -88.5v-235z" />
<glyph unicode="&#x3ad;" horiz-adv-x="1056" d="M59 311q0 179 158 252q-125 70 -125 215q0 146 124.5 233t330.5 87q257 0 440 -137q30 -24 6 -58l-116 -162q-24 -30 -58 -6q-104 74 -231 74q-123 0 -123 -70q0 -77 139 -77h98q41 0 41 -41v-154q0 -41 -41 -41h-114q-68 0 -108 -19.5t-40 -58.5q0 -37 36 -58.5 t104 -21.5q144 0 249 82q35 28 58 -6l129 -164q25 -33 -2 -57q-162 -152 -461 -152q-245 0 -369.5 91t-124.5 249zM346 1231.5q-8 14.5 6 34.5l172 264q17 26 49 26h275q26 0 32.5 -15.5t-10.5 -35.5l-227 -266q-19 -22 -51 -22h-213q-25 0 -33 14.5z" />
<glyph unicode="&#x3ae;" horiz-adv-x="1161" d="M98 41v926q0 35 31 47q97 38 217.5 61t228.5 23q247 0 372.5 -130.5t125.5 -357.5v-569q0 -41 -41 -41h-299q-41 0 -41 41v575q0 82 -28.5 115t-88.5 33q-58 0 -98 -12v-711q0 -41 -41 -41h-297q-41 0 -41 41zM428 1231.5q-8 14.5 6 34.5l172 264q17 26 49 26h275 q26 0 32.5 -15.5t-10.5 -35.5l-227 -266q-19 -22 -51 -22h-213q-25 0 -33 14.5z" />
<glyph unicode="&#x3af;" horiz-adv-x="579" d="M100 41v987q0 41 41 41h297q41 0 41 -41v-987q0 -41 -41 -41h-297q-41 0 -41 41zM135 1231.5q-8 14.5 6 34.5l172 264q17 26 49 26h275q26 0 32.5 -15.5t-10.5 -35.5l-227 -266q-19 -22 -51 -22h-213q-25 0 -33 14.5z" />
<glyph unicode="&#x3b0;" horiz-adv-x="1167" d="M41 1380q0 75 43.5 116.5t114.5 41.5q69 0 110 -41t41 -115t-41 -114.5t-110 -40.5q-71 0 -114.5 40.5t-43.5 112.5zM90 424v604q0 41 41 41h301q41 0 41 -41v-606q0 -54 29 -87.5t82 -33.5t81.5 33.5t28.5 87.5v606q0 41 41 41h301q41 0 41 -41v-604q0 -205 -135.5 -329 t-357.5 -124t-358 124t-136 329zM367.5 1230.5q-8.5 13.5 1.5 35.5l127 260q15 30 47 30h239q25 0 33 -14.5t-6 -34.5l-172 -264q-17 -26 -51 -26h-187q-23 0 -31.5 13.5zM815 1382q0 73 43.5 114.5t112.5 41.5q70 0 111.5 -41t41.5 -115t-41.5 -114.5t-111.5 -40.5 q-69 0 -112.5 41t-43.5 114z" />
<glyph unicode="&#x3b1;" d="M70 422v207q0 217 136.5 343t364.5 126q92 0 213 -21.5t232 -56.5q33 -9 33 -45v-934q0 -41 -41 -41h-197q-36 0 -47 33l-19 57q-42 -55 -120 -87t-168 -32q-172 0 -279.5 123t-107.5 328zM455 410q0 -109 102 -109q74 0 113 39v410q-51 14 -99 14q-56 0 -86 -30.5 t-30 -88.5v-235z" />
<glyph unicode="&#x3b2;" horiz-adv-x="1169" d="M100 -348v1362q0 215 129 347t338 132q222 0 358 -122t136 -320q0 -75 -42 -153t-101 -122q82 -40 137 -132.5t55 -209.5q0 -204 -116.5 -333.5t-305.5 -129.5q-108 0 -211 41v-360q0 -41 -41 -41h-295q-41 0 -41 41zM477 319q55 -22 125 -22q123 0 123 145 q0 65 -35 100.5t-96 35.5h-4q-37 0 -37 40v220q0 21 8 31t29 10h4q38 0 61 38.5t23 108.5q0 133 -103 133q-98 0 -98 -137v-703z" />
<glyph unicode="&#x3b3;" horiz-adv-x="1120" d="M8 1022q-7 22 2 34.5t31 12.5h315q37 0 45 -35l58 -192q75 -251 98 -428h6q26 195 96 428l58 192q8 35 45 35h315q22 0 32 -13t3 -34l-362 -981v-389q0 -41 -41 -41h-297q-41 0 -41 41v389z" />
<glyph unicode="&#x3b4;" horiz-adv-x="1126" d="M63 418v102q0 131 64.5 230t148.5 145q-84 73 -118.5 135t-34.5 139q0 159 113 241.5t329 82.5q218 0 393 -104q33 -17 15 -56l-115 -217q-18 -34 -55 -16q-119 65 -238 65q-86 0 -86 -49q0 -37 74.5 -77.5t210.5 -88.5q153 -55 225 -156.5t72 -273.5v-102 q0 -211 -131 -329t-367 -118q-235 0 -367.5 118t-132.5 329zM444 438q0 -62 32 -91.5t87 -29.5q54 0 85.5 29.5t31.5 91.5v90q0 59 -33 101.5t-84 42.5q-119 -14 -119 -142v-92z" />
<glyph unicode="&#x3b5;" horiz-adv-x="1056" d="M59 311q0 179 158 252q-125 70 -125 215q0 146 124.5 233t330.5 87q257 0 440 -137q30 -24 6 -58l-116 -162q-24 -30 -58 -6q-104 74 -231 74q-123 0 -123 -70q0 -77 139 -77h98q41 0 41 -41v-154q0 -41 -41 -41h-114q-68 0 -108 -19.5t-40 -58.5q0 -37 36 -58.5 t104 -21.5q144 0 249 82q35 28 58 -6l129 -164q25 -33 -2 -57q-162 -152 -461 -152q-245 0 -369.5 91t-124.5 249z" />
<glyph unicode="&#x3b6;" horiz-adv-x="1015" d="M55 461q0 217 139.5 404.5t342.5 281.5v2q-110 -8 -189 -8h-221q-41 0 -41 41v241q0 41 41 41h840q41 0 41 -41v-163q0 -32 -29 -52q-258 -166 -402.5 -349.5t-144.5 -340.5q0 -68 39 -116.5t109 -90.5q27 -16 76 -41t80.5 -42t71.5 -45t63.5 -55.5t40 -68.5t16.5 -88 q0 -94 -48.5 -190t-134.5 -182q-27 -27 -59 -2l-194 155q-31 24 -3 55q25 28 42.5 63.5t17.5 61.5q0 22 -22 43.5t-44.5 34t-75.5 38.5q-7 3 -10 5q-36 18 -50.5 25.5t-50.5 27t-53 32t-47.5 35.5t-46.5 42.5t-37 48t-31.5 57t-18 65t-7.5 75.5z" />
<glyph unicode="&#x3b7;" horiz-adv-x="1161" d="M98 41v926q0 35 31 47q97 38 217.5 61t228.5 23q247 0 372.5 -130.5t125.5 -357.5v-569q0 -41 -41 -41h-299q-41 0 -41 41v575q0 82 -28.5 115t-88.5 33q-58 0 -98 -12v-711q0 -41 -41 -41h-297q-41 0 -41 41z" />
<glyph unicode="&#x3b8;" horiz-adv-x="1200" d="M86 508v450q0 249 136 392t378 143t378 -143t136 -392v-450q0 -249 -136 -393t-378 -144t-378 144t-136 393zM465 508q0 -168 135 -168t135 168v86h-270v-86zM465 885h270v73q0 168 -135 168t-135 -168v-73z" />
<glyph unicode="&#x3b9;" horiz-adv-x="579" d="M100 41v987q0 41 41 41h297q41 0 41 -41v-987q0 -41 -41 -41h-297q-41 0 -41 41z" />
<glyph unicode="&#x3ba;" horiz-adv-x="1099" d="M100 41v987q0 41 41 41h291q41 0 41 -41v-338l180 350q15 29 47 29h326q25 0 33 -14.5t-6 -34.5l-283 -424l330 -547q12 -22 5 -35.5t-32 -13.5h-342q-33 0 -47 29l-160 313l-51 -68v-233q0 -41 -41 -41h-291q-41 0 -41 41z" />
<glyph unicode="&#x3bb;" horiz-adv-x="1163" d="M88 41v491q0 202 126 323.5t325 121.5q71 0 145 -19v54q0 77 -29.5 112t-101.5 35q-132 0 -231 -69q-37 -22 -58 8l-143 190q-24 34 6 58q188 147 455 147q87 0 157.5 -15.5t132 -52.5t103 -94t65 -143.5t23.5 -198.5v-948q0 -41 -41 -41h-297q-41 0 -41 41v588 q-36 18 -102 18q-113 0 -113 -141v-465q0 -41 -41 -41h-299q-41 0 -41 41z" />
<glyph unicode="&#x3bc;" horiz-adv-x="1177" d="M100 -348v1376q0 41 41 41h297q41 0 41 -41v-604q0 -59 31 -91t82 -32q45 0 75.5 32.5t30.5 90.5v604q0 41 41 41h297q41 0 41 -41v-987q0 -41 -41 -41h-178q-36 0 -45 33l-29 88q-30 -80 -76.5 -115t-115.5 -35q-103 0 -158 84q10 -77 10 -155v-248q0 -41 -41 -41h-262 q-41 0 -41 41z" />
<glyph unicode="&#x3bd;" horiz-adv-x="1128" d="M12 1022q-7 22 2 34.5t31 12.5h317q37 0 46 -35l90 -387q4 -17 16.5 -68t24.5 -103.5t20 -92.5h8q22 99 64 264l94 387q9 35 45 35h317q22 0 31 -12.5t2 -34.5l-338 -989q-11 -33 -47 -33h-346q-34 0 -45 33z" />
<glyph unicode="&#x3be;" horiz-adv-x="995" d="M55 453q0 125 63.5 212.5t180.5 127.5q-112 71 -158.5 147.5t-44.5 181.5q3 164 130.5 267.5t334.5 103.5q112 0 212 -25.5t208 -89.5q33 -20 14 -57l-121 -201q-19 -34 -55 -12q-103 57 -213 57q-67 0 -101 -26t-34 -74q0 -68 61 -105.5t177 -37.5h63q41 0 41 -41v-230 q0 -41 -41 -41h-102q-112 0 -172 -34.5t-60 -92.5q0 -69 121 -133q25 -13 79.5 -39.5t89 -43.5t81 -48.5t73.5 -61.5t46.5 -74t19.5 -95q0 -202 -182 -389q-29 -29 -59 -2l-195 155q-30 24 -2 55q63 67 63 132q0 16 -10.5 30.5t-36.5 30.5t-46.5 26.5t-63.5 30.5 q-45 21 -69.5 33t-68.5 37t-69.5 45t-58.5 52t-51 64t-31 75t-13 90z" />
<glyph unicode="&#x3bf;" d="M72 424v219q0 216 132 335.5t369 119.5t369.5 -119.5t132.5 -335.5v-219q0 -215 -132.5 -334t-369.5 -119t-369 119t-132 334zM457 424q0 -57 29.5 -88t86.5 -31t87 31t30 88v219q0 57 -30 89t-87 32q-56 0 -86 -31.5t-30 -89.5v-219z" />
<glyph unicode="&#x3c0;" d="M100 41v987q0 41 41 41h865q41 0 41 -41v-987q0 -41 -41 -41h-297q-41 0 -41 41v700h-189v-700q0 -41 -41 -41h-297q-41 0 -41 41z" />
<glyph unicode="&#x3c1;" horiz-adv-x="1148" d="M90 -348v997q0 212 129 330.5t361 118.5q235 0 366 -118.5t131 -330.5v-239q0 -197 -128.5 -318t-338.5 -121q-70 0 -141 23v-342q0 -41 -41 -41h-297q-41 0 -41 41zM469 326q40 -21 100 -21q125 0 125 133v197q0 129 -114 129q-111 0 -111 -129v-309z" />
<glyph unicode="&#x3c2;" horiz-adv-x="972" d="M68 477v162q0 117 39.5 207.5t107.5 144t152 80.5t180 27q209 0 379 -92q35 -18 12 -56l-133 -209q-20 -28 -55 -14q-81 33 -175 33q-59 0 -92.5 -35t-33.5 -102v-119q0 -24 7 -45t24.5 -41t32.5 -34.5t45 -33.5t48.5 -30t55.5 -31q53 -29 78.5 -44t68.5 -46.5t64 -58 t38 -66.5t17 -84q0 -199 -183 -391q-29 -29 -59 -2l-194 155q-34 26 -5 58q66 74 66 122q0 15 -8.5 29t-19.5 25t-34 24.5t-39.5 22t-48.5 24.5q-42 20 -64.5 32t-63.5 37t-65 45.5t-54.5 54.5t-47 68.5t-28.5 82t-12 100.5z" />
<glyph unicode="&#x3c3;" horiz-adv-x="1234" d="M72 418v196q0 215 132.5 335t370.5 120h592q41 0 41 -41v-246q0 -41 -41 -41h-139q51 -77 51 -209v-114q0 -211 -133 -329t-371 -118t-370.5 118t-132.5 329zM453 434q0 -62 32.5 -91.5t89.5 -29.5t90 29.5t33 91.5v168q0 125 -123 125q-122 0 -122 -125v-168z" />
<glyph unicode="&#x3c4;" horiz-adv-x="970" d="M31 782v246q0 41 41 41h827q41 0 41 -41v-246q0 -41 -41 -41h-223v-700q0 -41 -41 -41h-297q-41 0 -41 41v700h-225q-41 0 -41 41z" />
<glyph unicode="&#x3c5;" horiz-adv-x="1167" d="M90 424v604q0 41 41 41h301q41 0 41 -41v-606q0 -54 29 -87.5t82 -33.5t81.5 33.5t28.5 87.5v606q0 41 41 41h301q41 0 41 -41v-604q0 -205 -135.5 -329t-357.5 -124t-358 124t-136 329z" />
<glyph unicode="&#x3c6;" horiz-adv-x="1634" d="M68 479v109q0 99 26.5 180.5t71 136.5t104.5 92.5t126.5 54.5t138.5 17h98v354q0 41 41 41h287q40 0 40 -41v-354h99q72 0 138.5 -17t126.5 -54.5t104.5 -92.5t71 -136.5t26.5 -180.5v-109q0 -122 -39.5 -216.5t-106 -150.5t-148 -84t-173.5 -28h-99v-348q0 -41 -40 -41 h-287q-41 0 -41 41v348h-98q-92 0 -173.5 28t-148 84t-106 150.5t-39.5 216.5zM438 473q0 -145 133 -145h62v413h-66q-61 0 -95 -36t-34 -105v-127zM1001 328h62q133 0 133 145v127q0 69 -34 105t-95 36h-66v-413z" />
<glyph unicode="&#x3c7;" horiz-adv-x="1093" d="M26 13.5q-8 13.5 3 35.5l268 490l-252 481q-10 22 -2 35.5t31 13.5h334q36 0 47 -33l92 -268l92 268q11 33 47 33h338q23 0 31 -13.5t-2 -35.5l-256 -481l268 -490q10 -22 2 -35.5t-31 -13.5h-342q-36 0 -47 31l-102 245l-99 -243q-13 -33 -47 -33h-342q-23 0 -31 13.5z " />
<glyph unicode="&#x3c8;" horiz-adv-x="1593" d="M90 463v565q0 41 41 41h287q41 0 41 -41v-553q0 -75 33.5 -110t105.5 -35h14v698q0 41 41 41h287q41 0 41 -41v-698h14q72 0 106 35t34 110v553q0 41 41 41h286q41 0 41 -41v-565q0 -104 -30.5 -186.5t-79 -133t-113 -84t-127 -46.5t-127.5 -13h-45v-348q0 -41 -41 -41 h-287q-41 0 -41 41v348h-45q-64 -1 -127 11.5t-127.5 46t-113 84.5t-79 134t-30.5 187z" />
<glyph unicode="&#x3c9;" horiz-adv-x="1609" d="M72 401v244q0 179 99 297.5t269 155.5q40 6 49 -33l66 -256q9 -36 -31 -49q-84 -24 -84 -111v-239q0 -49 26.5 -74t68.5 -25q40 0 65 25t25 74v202q0 41 41 41h278q41 0 41 -41v-202q0 -49 25 -74t65 -25q42 0 68 25t26 74v239q0 87 -84 111q-39 12 -30 49l65 256 q9 39 49 33q170 -37 269.5 -156t99.5 -297v-244q0 -198 -121.5 -314t-320.5 -116q-203 0 -291 142q-88 -142 -291 -142q-199 0 -320.5 116t-121.5 314z" />
<glyph unicode="&#x3ca;" horiz-adv-x="579" d="M-90 1343q0 80 46 124t122 44q74 0 119 -43.5t45 -121.5t-45 -122t-119 -44q-75 0 -121.5 43.5t-46.5 119.5zM100 41v987q0 41 41 41h297q41 0 41 -41v-987q0 -41 -41 -41h-297q-41 0 -41 41zM342 1346q0 77 47 121t121 44q75 0 120.5 -43.5t45.5 -121.5t-45.5 -122 t-120.5 -44q-74 0 -121 44t-47 122z" />
<glyph unicode="&#x3cb;" horiz-adv-x="1167" d="M90 424v604q0 41 41 41h301q41 0 41 -41v-606q0 -54 29 -87.5t82 -33.5t81.5 33.5t28.5 87.5v606q0 41 41 41h301q41 0 41 -41v-604q0 -205 -135.5 -329t-357.5 -124t-358 124t-136 329zM170 1384q0 83 49 130t127 47t125 -46t47 -129q0 -82 -47 -128t-125 -46 q-79 0 -127.5 45.5t-48.5 126.5zM647 1386q0 83 48.5 129t127.5 46q78 0 125 -46t47 -129q0 -82 -47 -128t-125 -46t-127 46.5t-49 127.5z" />
<glyph unicode="&#x3cc;" d="M72 424v219q0 216 132 335.5t369 119.5t369.5 -119.5t132.5 -335.5v-219q0 -215 -132.5 -334t-369.5 -119t-369 119t-132 334zM436 1231.5q-8 14.5 6 34.5l172 264q17 26 50 26h274q26 0 33 -15.5t-10 -35.5l-228 -266q-19 -22 -51 -22h-213q-25 0 -33 14.5zM457 424 q0 -57 29.5 -88t86.5 -31t87 31t30 88v219q0 57 -30 89t-87 32q-56 0 -86 -31.5t-30 -89.5v-219z" />
<glyph unicode="&#x3cd;" horiz-adv-x="1167" d="M90 424v604q0 41 41 41h301q41 0 41 -41v-606q0 -54 29 -87.5t82 -33.5t81.5 33.5t28.5 87.5v606q0 41 41 41h301q41 0 41 -41v-604q0 -205 -135.5 -329t-357.5 -124t-358 124t-136 329zM381 1231.5q-8 14.5 6 34.5l172 264q17 26 49 26h275q26 0 32.5 -15.5t-10.5 -35.5 l-227 -266q-19 -22 -51 -22h-213q-25 0 -33 14.5z" />
<glyph unicode="&#x3ce;" horiz-adv-x="1609" d="M72 401v244q0 179 99 297.5t269 155.5q40 6 49 -33l66 -256q9 -36 -31 -49q-84 -24 -84 -111v-239q0 -49 26.5 -74t68.5 -25q40 0 65 25t25 74v202q0 41 41 41h278q41 0 41 -41v-202q0 -49 25 -74t65 -25q42 0 68 25t26 74v239q0 87 -84 111q-39 12 -30 49l65 256 q9 39 49 33q170 -37 269.5 -156t99.5 -297v-244q0 -198 -121.5 -314t-320.5 -116q-203 0 -291 142q-88 -142 -291 -142q-199 0 -320.5 116t-121.5 314zM602 1231.5q-8 14.5 6 34.5l172 264q17 26 49 26h275q26 0 32.5 -15.5t-10.5 -35.5l-227 -266q-19 -22 -51 -22h-213 q-25 0 -33 14.5z" />
<glyph unicode="&#x401;" horiz-adv-x="1222" d="M137 41v1382q0 41 41 41h889q41 0 41 -41v-276q0 -41 -41 -41h-530v-191h450q41 0 41 -41v-268q0 -41 -41 -41h-450v-207h565q41 0 41 -41v-276q0 -41 -41 -41h-924q-41 0 -41 41zM205 1753q0 76 50.5 126t127.5 50t127.5 -50t50.5 -126t-50.5 -126t-127.5 -50t-127.5 50 t-50.5 126zM672 1753q0 77 49.5 126.5t130.5 49.5q78 0 129 -50t51 -126t-51 -126t-129 -50q-81 0 -130.5 49.5t-49.5 126.5z" />
<glyph unicode="&#x402;" horiz-adv-x="1470" d="M23 1147v276q0 41 40 41h1084q41 0 41 -41v-276q0 -41 -41 -41h-352v-139q79 28 202 28q195 0 303.5 -130t108.5 -349v-145q0 -189 -110.5 -294.5t-307.5 -105.5q-44 0 -90 11q-33 9 -33 47v247q0 42 25 39q8 -2 27 -2q100 0 100 119v90q0 71 -27.5 106.5t-95.5 35.5 q-55 0 -102 -21v-602q0 -41 -41 -41h-308q-40 0 -40 41v1065h-343q-40 0 -40 41z" />
<glyph unicode="&#x403;" horiz-adv-x="1075" d="M137 41v1382q0 41 41 41h834q41 0 41 -41v-290q0 -41 -41 -41h-475v-1051q0 -41 -41 -41h-318q-41 0 -41 41zM348.5 1597.5q-7.5 14.5 7.5 34.5l203 266q19 25 49 25h301q26 0 33 -15.5t-12 -35.5l-258 -268q-18 -21 -51 -21h-240q-25 0 -32.5 14.5z" />
<glyph unicode="&#x404;" horiz-adv-x="1232" d="M94 535v397q0 264 161.5 412.5t455.5 148.5q248 0 434 -125q34 -21 10 -55l-158 -244q-20 -33 -57 -12q-94 57 -215 57q-109 0 -166 -56.5t-57 -148.5v-14h325q41 0 41 -41v-236q0 -40 -41 -40h-325v-19q0 -100 59 -154.5t164 -54.5q136 0 250 70q36 22 55 -10l160 -244 q24 -34 2 -49q-204 -146 -473 -146q-303 0 -464 148.5t-161 415.5z" />
<glyph unicode="&#x405;" horiz-adv-x="1304" d="M78 236l170 243q11 15 26.5 17.5t30.5 -9.5q193 -133 369 -133q164 0 164 82q0 44 -54 70.5t-151 46.5q-70 14 -132.5 33.5t-137.5 59.5t-128.5 92.5t-89.5 135t-36 183.5q0 139 78 239.5t207 148.5t294 48q141 0 261.5 -35.5t248.5 -118.5q34 -21 12 -57l-161 -244 q-23 -33 -58 -12q-148 88 -317 88q-158 0 -158 -70q0 -41 41.5 -63t175.5 -55q129 -32 218 -68.5t159.5 -91.5t104.5 -133.5t34 -183.5q0 -211 -156.5 -344.5t-451.5 -133.5q-160 0 -288.5 48.5t-266.5 158.5q-31 25 -8 58z" />
<glyph unicode="&#x406;" horiz-adv-x="673" d="M137 41v1382q0 41 41 41h318q41 0 41 -41v-1382q0 -41 -41 -41h-318q-41 0 -41 41z" />
<glyph unicode="&#x407;" horiz-adv-x="673" d="M-49 1733q0 73 48 120.5t120 47.5q74 0 122 -47.5t48 -120.5t-48 -120.5t-122 -47.5q-72 0 -120 47.5t-48 120.5zM137 41v1382q0 41 41 41h318q41 0 41 -41v-1382q0 -41 -41 -41h-318q-41 0 -41 41zM383 1733q0 74 47.5 121t124.5 47q74 0 122 -47.5t48 -120.5 t-48 -120.5t-122 -47.5q-77 0 -124.5 47t-47.5 121z" />
<glyph unicode="&#x408;" horiz-adv-x="1110" d="M4 164l154 239q20 36 57 11q95 -66 209 -66q84 0 122 45t38 146v884q0 41 41 41h319q41 0 41 -41v-878q0 -275 -143.5 -424.5t-403.5 -149.5q-226 0 -424 138q-34 21 -10 55z" />
<glyph unicode="&#x409;" horiz-adv-x="2097" d="M27 41v289q0 38 39 41q63 8 105 47.5t71 122.5q38 109 62.5 312.5t47.5 567.5q3 43 41 43h920q41 0 41 -41v-465h196q238 0 373 -124t135 -345q0 -230 -129 -359.5t-358 -129.5h-570q-40 0 -40 41v1049h-234q-14 -293 -50.5 -490.5t-103.5 -323.5q-74 -139 -196 -204.5 t-309 -71.5q-41 0 -41 41zM1354 373h180q117 0 117 106q0 111 -117 111h-180v-217z" />
<glyph unicode="&#x40a;" horiz-adv-x="2037" d="M137 41v1382q0 41 41 41h318q41 0 41 -41v-483h350v483q0 41 41 41h317q41 0 41 -41v-475h189q249 0 386.5 -118t137.5 -330q0 -235 -132.5 -367.5t-371.5 -132.5h-567q-41 0 -41 41v516h-350v-516q0 -41 -41 -41h-318q-41 0 -41 41zM1286 365h187q118 0 118 118 q0 101 -118 101h-187v-219z" />
<glyph unicode="&#x40b;" horiz-adv-x="1474" d="M23 1147v276q0 41 40 41h1084q41 0 41 -41v-276q0 -41 -41 -41h-352v-137q71 26 192 26q195 0 303.5 -130t108.5 -349v-475q0 -41 -41 -41h-307q-41 0 -41 41v481q0 71 -27.5 106.5t-95.5 35.5q-43 0 -92 -17v-606q0 -41 -41 -41h-308q-40 0 -40 41v1065h-343 q-40 0 -40 41z" />
<glyph unicode="&#x40c;" horiz-adv-x="1361" d="M137 41v1382q0 41 41 41h318q41 0 41 -41v-450l292 465q16 26 50 26h399q25 0 32.5 -13.5t-7.5 -35.5l-441 -579l510 -787q14 -20 6.5 -34.5t-32.5 -14.5h-381q-34 0 -50 29l-297 491l-81 -94v-385q0 -41 -41 -41h-318q-41 0 -41 41zM510.5 1597.5q-7.5 14.5 7.5 34.5 l203 266q19 25 49 25h301q26 0 33 -15.5t-12 -35.5l-258 -268q-18 -21 -52 -21h-239q-25 0 -32.5 14.5z" />
<glyph unicode="&#x40e;" horiz-adv-x="1261" d="M1.5 1451.5q8.5 12.5 31.5 12.5h348q34 0 47 -32l205 -531l188 531q11 32 47 32h346q23 0 32 -12.5t1 -34.5l-555 -1384q-13 -33 -47 -33h-348q-23 0 -31.5 12.5t0.5 34.5l176 416l-440 954q-9 22 -0.5 34.5zM238 1823q-9 37 32 47l201 45q33 8 49 -29q27 -53 105 -53 q77 0 104 53q16 37 49 29l201 -45q40 -10 35 -41q-25 -125 -129 -199t-260 -74q-155 0 -257.5 72.5t-129.5 194.5z" />
<glyph unicode="&#x40f;" horiz-adv-x="1435" d="M137 41v1382q0 41 41 41h318q41 0 41 -41v-1050h362v1050q0 41 41 41h317q41 0 41 -41v-1382q0 -41 -41 -41h-350v-227q0 -41 -41 -41h-297q-41 0 -41 41v227h-350q-41 0 -41 41z" />
<glyph unicode="&#x410;" horiz-adv-x="1404" d="M6 47l463 1385q11 32 45 32h377q34 0 45 -32l463 -1385q7 -22 -2 -34.5t-31 -12.5h-338q-39 0 -47 35l-55 201h-445l-57 -201q-8 -35 -47 -35h-338q-22 0 -31 12.5t-2 34.5zM578 573h251l-122 457h-9z" />
<glyph unicode="&#x411;" horiz-adv-x="1337" d="M137 41v1382q0 41 41 41h950q41 0 41 -41v-262q0 -41 -41 -41h-591v-190h206q537 0 537 -453q0 -236 -131.5 -356.5t-394.5 -120.5h-576q-41 0 -41 41zM537 352h221q55 0 83.5 34t28.5 97q0 119 -112 119h-221v-250z" />
<glyph unicode="&#x412;" horiz-adv-x="1339" d="M137 41v1382q0 41 41 41h582q214 0 332 -111.5t118 -312.5q0 -169 -143 -256q99 -39 152 -119.5t53 -197.5q0 -221 -131 -344t-371 -123h-592q-41 0 -41 41zM537 350h196q60 0 94.5 34t34.5 97q0 123 -143 123h-182v-254zM537 909h149q117 0 117 109q0 106 -117 106h-149 v-215z" />
<glyph unicode="&#x413;" horiz-adv-x="1075" d="M137 41v1382q0 41 41 41h834q41 0 41 -41v-290q0 -41 -41 -41h-475v-1051q0 -41 -41 -41h-318q-41 0 -41 41z" />
<glyph unicode="&#x414;" horiz-adv-x="1564" d="M27 -227v555q0 41 41 41h55q64 41 105.5 145t72 321.5t51.5 585.5q3 43 41 43h918q41 0 41 -41v-1052h92q41 0 41 -41v-557q0 -41 -41 -41h-311q-41 0 -41 41v227h-672v-227q0 -41 -41 -41h-311q-41 0 -41 41zM567 369h385v725h-225q-35 -591 -160 -725z" />
<glyph unicode="&#x415;" horiz-adv-x="1222" d="M137 41v1382q0 41 41 41h889q41 0 41 -41v-276q0 -41 -41 -41h-530v-191h450q41 0 41 -41v-268q0 -41 -41 -41h-450v-207h565q41 0 41 -41v-276q0 -41 -41 -41h-924q-41 0 -41 41z" />
<glyph unicode="&#x416;" horiz-adv-x="1961" d="M-3 13.5q-7 13.5 5 35.5l475 774l-416 592q-14 20 -6 34.5t33 14.5h375q35 0 49 -28l119 -211q85 -148 155 -285v483q0 41 41 41h308q41 0 41 -41v-483q70 137 155 285l119 211q14 28 49 28h375q25 0 33 -14.5t-6 -34.5l-416 -592l475 -774q12 -22 5 -35.5t-32 -13.5 h-374q-34 0 -50 29l-268 495l-65 -92v-391q0 -41 -41 -41h-308q-41 0 -41 41v391l-65 92l-268 -495q-16 -29 -50 -29h-374q-25 0 -32 13.5z" />
<glyph unicode="&#x417;" horiz-adv-x="1280" d="M37 219l151 219q10 17 26.5 19.5t31.5 -8.5q166 -117 350 -117q91 0 143 39t52 96q0 69 -52.5 97t-177.5 28h-131q-41 0 -41 41v223q0 41 41 41h113q211 0 211 125q0 123 -170 123q-172 0 -303 -86q-36 -22 -56 12l-141 203q-20 34 6 57q200 162 500 162q138 0 248.5 -35 t179.5 -95t105 -136t36 -162q0 -91 -44.5 -169t-110.5 -118q95 -47 147.5 -133t52.5 -203q0 -116 -47 -207.5t-129.5 -148t-190 -86t-233.5 -29.5q-334 0 -561 193q-26 23 -6 55z" />
<glyph unicode="&#x418;" horiz-adv-x="1464" d="M137 41v1382q0 41 41 41h314q40 0 40 -41v-252q0 -261 -26 -540l8 -2q53 152 231 495l164 312q14 28 47 28h330q41 0 41 -41v-1382q0 -41 -41 -41h-313q-41 0 -41 41v197q0 270 45 602l-8 2q-33 -96 -107 -258.5t-145 -284.5l-162 -270q-16 -29 -49 -29h-328 q-41 0 -41 41z" />
<glyph unicode="&#x419;" horiz-adv-x="1464" d="M137 41q0 -41 41 -41h328q33 0 49 29l162 270q71 122 145 284.5t107 258.5l8 -2q-45 -332 -45 -602v-197q0 -41 41 -41h313q41 0 41 41v1382q0 41 -41 41h-330q-33 0 -47 -28l-164 -312q-178 -343 -231 -495l-8 2q26 279 26 540v252q0 41 -40 41h-314q-41 0 -41 -41 v-1382zM352 1843q-9 37 33 47l201 45q33 8 49 -28q28 -54 104 -54q77 0 105 54q16 36 49 28l201 -45q39 -9 34 -41q-25 -124 -128.5 -198t-260.5 -74q-155 0 -257.5 72t-129.5 194z" />
<glyph unicode="&#x41a;" horiz-adv-x="1361" d="M137 41v1382q0 41 41 41h318q41 0 41 -41v-450l292 465q16 26 50 26h399q25 0 32.5 -13.5t-7.5 -35.5l-441 -579l510 -787q14 -20 6.5 -34.5t-32.5 -14.5h-381q-34 0 -50 29l-297 491l-81 -94v-385q0 -41 -41 -41h-318q-41 0 -41 41z" />
<glyph unicode="&#x41b;" horiz-adv-x="1490" d="M29 27v292q0 38 39 41q69 9 111.5 56t68.5 145q61 238 84 862q3 41 43 41h938q41 0 41 -41v-1382q0 -41 -41 -41h-318q-41 0 -41 41v1051h-239q-23 -428 -94 -682q-67 -222 -199.5 -319t-351.5 -105q-41 0 -41 41z" />
<glyph unicode="&#x41c;" horiz-adv-x="1802" d="M137 41v1382q0 41 41 41h350q32 0 47 -30l132 -265q83 -168 190 -436h8q102 258 191 436l131 265q15 30 47 30h350q41 0 41 -41v-1382q0 -41 -41 -41h-311q-41 0 -41 41v149q0 312 22 666l-10 2q-57 -155 -186 -440l-35 -76q-13 -31 -47 -31h-230q-34 0 -47 31l-34 76 q-134 297 -187 440l-10 -2q22 -354 22 -666v-149q0 -41 -41 -41h-311q-41 0 -41 41z" />
<glyph unicode="&#x41d;" horiz-adv-x="1435" d="M137 41v1382q0 41 41 41h318q41 0 41 -41v-499h362v499q0 41 41 41h317q41 0 41 -41v-1382q0 -41 -41 -41h-317q-41 0 -41 41v510h-362v-510q0 -41 -41 -41h-318q-41 0 -41 41z" />
<glyph unicode="&#x41e;" horiz-adv-x="1413" d="M92 567v334q0 280 162.5 436t452.5 156t452 -156t162 -436v-334q0 -281 -162 -438.5t-452 -157.5t-452.5 157.5t-162.5 438.5zM502 578q0 -228 205 -228q204 0 204 228v313q0 223 -204 223q-205 0 -205 -223v-313z" />
<glyph unicode="&#x41f;" horiz-adv-x="1435" d="M137 41v1382q0 41 41 41h1079q41 0 41 -41v-1382q0 -41 -41 -41h-317q-41 0 -41 41v1051h-362v-1051q0 -41 -41 -41h-318q-41 0 -41 41z" />
<glyph unicode="&#x420;" horiz-adv-x="1333" d="M137 41v1382q0 41 41 41h565q239 0 385 -146.5t146 -387.5t-146.5 -388t-384.5 -147h-206v-354q0 -41 -41 -41h-318q-41 0 -41 41zM537 764h145q89 0 135.5 42t46.5 124t-46.5 124t-135.5 42h-145v-332z" />
<glyph unicode="&#x421;" horiz-adv-x="1220" d="M94 535v397q0 263 165 412t460 149q252 0 438 -125q34 -21 10 -55l-157 -244q-20 -33 -58 -12q-94 57 -219 57q-109 0 -170 -57t-61 -148v-350q0 -100 59 -154.5t164 -54.5q136 0 250 70q36 22 55 -10l160 -244q24 -34 2 -49q-204 -146 -473 -146q-303 0 -464 148.5 t-161 415.5z" />
<glyph unicode="&#x422;" horiz-adv-x="1214" d="M25 1133v290q0 41 41 41h1083q41 0 41 -41v-290q0 -41 -41 -41h-342v-1051q0 -41 -41 -41h-317q-41 0 -41 41v1051h-342q-41 0 -41 41z" />
<glyph unicode="&#x423;" horiz-adv-x="1261" d="M1.5 1451.5q8.5 12.5 31.5 12.5h348q34 0 47 -32l205 -531l188 531q11 32 47 32h346q23 0 32 -12.5t1 -34.5l-555 -1384q-13 -33 -47 -33h-348q-23 0 -31.5 12.5t0.5 34.5l176 416l-440 954q-9 22 -0.5 34.5z" />
<glyph unicode="&#x424;" horiz-adv-x="1839" d="M90 621v223q0 268 150 422.5t419 154.5h62v127q0 41 41 41h315q41 0 41 -41v-127h64q269 0 418 -154.5t149 -422.5v-223q0 -270 -149 -425t-418 -155h-64v-135q0 -41 -41 -41h-315q-41 0 -41 41v135h-62q-269 0 -419 155.5t-150 424.5zM500 592q0 -89 41.5 -130.5 t126.5 -41.5h53v622h-53q-85 0 -126.5 -41t-41.5 -129v-280zM1118 420h56q83 0 124 41.5t41 130.5v280q0 88 -41 129t-124 41h-56v-622z" />
<glyph unicode="&#x425;" horiz-adv-x="1323" d="M15 14.5q-9 14.5 3 34.5l385 688l-346 678q-10 22 -1 35.5t32 13.5h348q37 0 47 -30l179 -424l178 424q10 30 47 30h348q23 0 32 -13.5t-1 -35.5l-346 -678l385 -688q12 -20 3 -34.5t-32 -14.5h-365q-31 0 -47 31l-202 411l-203 -411q-15 -31 -47 -31h-365 q-23 0 -32 14.5z" />
<glyph unicode="&#x426;" horiz-adv-x="1492" d="M137 41v1382q0 41 41 41h318q41 0 41 -41v-1044h344v1044q0 41 41 41h317q41 0 41 -41v-1044h92q41 0 41 -41v-565q0 -41 -41 -41h-297q-41 0 -41 41v227h-856q-41 0 -41 41z" />
<glyph unicode="&#x427;" horiz-adv-x="1349" d="M78 989v434q0 41 41 41h319q41 0 41 -41v-434q0 -92 39 -140t113 -48q57 0 105.5 17t76.5 40v565q0 41 41 41h317q41 0 41 -41v-1382q0 -41 -41 -41h-317q-41 0 -41 41v440q-90 -49 -233 -49q-78 0 -147 16.5t-135.5 57.5t-114 102.5t-76.5 159.5t-29 221z" />
<glyph unicode="&#x428;" horiz-adv-x="2015" d="M137 41v1382q0 41 41 41h311q41 0 41 -41v-1044h281v1044q0 41 41 41h311q41 0 41 -41v-1044h281v1044q0 41 41 41h311q41 0 41 -41v-1382q0 -41 -41 -41h-1659q-41 0 -41 41z" />
<glyph unicode="&#x429;" horiz-adv-x="2097" d="M137 41v1382q0 41 41 41h314q40 0 40 -41v-1044h281v1044q0 41 41 41h313q41 0 41 -41v-1044h281v1044q0 41 41 41h313q41 0 41 -41v-1044h92q41 0 41 -41v-565q0 -41 -41 -41h-297q-41 0 -41 41v227h-1460q-41 0 -41 41z" />
<glyph unicode="&#x42a;" horiz-adv-x="1513" d="M29 1137v286q0 41 41 41h618q41 0 41 -41v-419h205q253 0 396 -130.5t143 -361.5q0 -241 -137 -376.5t-382 -135.5h-583q-41 0 -41 41v1055h-260q-41 0 -41 41zM729 369h189q145 0 145 143q0 123 -145 123h-189v-266z" />
<glyph unicode="&#x42b;" horiz-adv-x="1964" d="M137 41v1382q0 41 41 41h318q41 0 41 -41v-419h204q253 0 396 -130.5t143 -361.5q0 -242 -137 -377t-381 -135h-584q-41 0 -41 41zM537 369h188q145 0 145 143q0 123 -145 123h-188v-266zM1427 41v1382q0 41 41 41h318q41 0 41 -41v-1382q0 -41 -41 -41h-318 q-41 0 -41 41z" />
<glyph unicode="&#x42c;" horiz-adv-x="1320" d="M137 41v1382q0 41 41 41h318q41 0 41 -41v-419h204q254 0 396.5 -130t142.5 -362q0 -242 -137 -377t-381 -135h-584q-41 0 -41 41zM537 369h188q145 0 145 143q0 123 -145 123h-188v-266z" />
<glyph unicode="&#x42d;" horiz-adv-x="1232" d="M39 117q-22 15 2 49l160 244q19 32 55 10q114 -70 250 -70q105 0 164 54.5t59 154.5v19h-326q-41 0 -41 40v236q0 41 41 41h326v14q0 92 -57 148.5t-166 56.5q-121 0 -215 -57q-38 -21 -58 12l-157 244q-24 34 10 55q186 125 434 125q294 0 455.5 -148.5t161.5 -412.5 v-397q0 -267 -161 -415.5t-464 -148.5q-269 0 -473 146z" />
<glyph unicode="&#x42e;" horiz-adv-x="1927" d="M137 41v1382q0 41 41 41h314q40 0 40 -41v-497h138q0 262 154.5 413.5t426.5 151.5t427 -148.5t155 -404.5v-395q0 -264 -155 -418t-427 -154t-426.5 156.5t-154.5 425.5h-138v-512q0 -41 -40 -41h-314q-41 0 -41 41zM1075 551q0 -93 45 -145t131 -52t131 52t45 145v371 q0 91 -44.5 140.5t-131.5 49.5t-131.5 -49.5t-44.5 -140.5v-371z" />
<glyph unicode="&#x42f;" horiz-adv-x="1351" d="M30.5 14.5q-7.5 14.5 6.5 34.5l307 459q-119 65 -183.5 177.5t-64.5 268.5q0 237 148.5 373.5t410.5 136.5h519q40 0 40 -41v-1382q0 -41 -40 -41h-318q-41 0 -41 41v412h-82l-231 -424q-14 -29 -49 -29h-390q-25 0 -32.5 14.5zM508 944q0 -69 45 -111t123 -42h139v301 h-139q-79 0 -123.5 -39.5t-44.5 -108.5z" />
<glyph unicode="&#x430;" horiz-adv-x="1093" d="M37 334q0 154 112.5 232.5t331.5 78.5q81 0 146 -10v4q0 66 -30.5 100.5t-113.5 34.5q-59 0 -125 -13.5t-106 -33.5q-37 -20 -55 14l-95 199q-21 34 0 49q79 47 193.5 78t243.5 31q467 0 467 -494v-532q0 -37 -35 -45q-191 -56 -430 -56q-255 0 -379.5 93t-124.5 270z M422 348q0 -40 30 -62t87 -22q42 0 88 8v140q-48 10 -90 10q-115 0 -115 -74z" />
<glyph unicode="&#x431;" horiz-adv-x="1140" d="M90 418v602q0 93 31 170.5t78.5 128.5t111.5 89t123.5 57t120.5 28q157 19 268 66q36 16 56 -17l127 -211q21 -38 -15 -55q-129 -70 -329 -109q-38 -8 -61.5 -15t-51 -20t-42.5 -30t-25.5 -44t-10.5 -63v-20q95 31 203 31q181 0 289 -118.5t108 -305.5v-164 q0 -112 -40 -199.5t-109.5 -140.5t-158 -80t-192.5 -27q-102 0 -188 27t-152 80t-103.5 140t-37.5 200zM471 406q0 -49 26.5 -75t71.5 -26q50 0 83.5 26.5t33.5 74.5v194q0 59 -30 90t-87 31q-56 0 -98 -25v-290z" />
<glyph unicode="&#x432;" horiz-adv-x="1132" d="M100 41v987q0 41 41 41h461q209 0 322.5 -77.5t113.5 -227.5q0 -131 -118 -201q74 -30 112.5 -92.5t38.5 -146.5q0 -154 -116.5 -239t-327.5 -85h-486q-41 0 -41 41zM473 272h121q45 0 69.5 19.5t24.5 56.5q0 34 -24.5 54t-69.5 20h-121v-150zM473 657h105q41 0 63.5 18 t22.5 50q0 34 -22.5 53t-63.5 19h-105v-140z" />
<glyph unicode="&#x433;" horiz-adv-x="884" d="M100 41v987q0 41 41 41h674q41 0 41 -41v-252q0 -41 -41 -41h-336v-694q0 -41 -41 -41h-297q-41 0 -41 41z" />
<glyph unicode="&#x434;" horiz-adv-x="1327" d="M33 -227v510q0 41 41 41h57q67 51 105 211t55 491q3 43 43 43h770q41 0 41 -41v-706h86q41 0 41 -41v-508q0 -41 -41 -41h-281q-41 0 -41 41v227h-514v-227q0 -41 -41 -41h-280q-41 0 -41 41zM524 322h252v426h-143q-13 -292 -109 -426z" />
<glyph unicode="&#x435;" horiz-adv-x="1097" d="M72 422v229q0 223 133 335t360 112q219 0 344 -109.5t125 -337.5v-188q0 -41 -41 -41h-540v-10q0 -64 35.5 -97.5t103.5 -33.5q131 0 233 57q34 21 56 -10l123 -168q24 -34 -7 -58q-169 -131 -419 -131q-228 0 -367 117.5t-139 333.5zM453 641h219v33q0 60 -28.5 91.5 t-82.5 31.5q-108 0 -108 -123v-33z" />
<glyph unicode="&#x436;" horiz-adv-x="1605" d="M14 13.5q-8 13.5 2 35.5l312 572l-277 399q-13 22 -5.5 35.5t32.5 13.5h330q32 0 47 -31l10 -18q78 -141 156 -318v326q0 41 41 41h282q41 0 41 -41v-326q78 177 156 318l10 18q15 31 47 31h330q25 0 32 -13.5t-6 -35.5l-276 -399l311 -572q11 -22 3 -35.5t-31 -13.5 h-340q-36 0 -47 31l-138 327l-51 -61v-256q0 -41 -41 -41h-282q-41 0 -41 41v256l-52 61l-137 -327q-11 -31 -47 -31h-340q-23 0 -31 13.5z" />
<glyph unicode="&#x437;" horiz-adv-x="1056" d="M41 180l129 164q23 33 57 6q105 -82 250 -82q68 0 103.5 21.5t35.5 58.5q0 39 -39.5 58.5t-107.5 19.5h-115q-41 0 -41 41v154q0 41 41 41h99q139 0 139 77q0 70 -123 70q-127 0 -231 -74q-34 -24 -58 6l-119 162q-23 33 9 58q183 137 440 137q206 0 330.5 -87 t124.5 -233q0 -145 -125 -215q157 -72 157 -252q0 -158 -124 -249t-369 -91q-299 0 -461 152q-27 24 -2 57z" />
<glyph unicode="&#x438;" horiz-adv-x="1208" d="M100 41v987q0 41 41 41h289q41 0 41 -41v-240q0 -81 -4 -245h4q20 43 73.5 148.5t55.5 109.5l123 239q15 29 47 29h297q41 0 41 -41v-987q0 -41 -41 -41h-289q-41 0 -41 41v244q0 37 6 247h-4q-55 -132 -133 -274l-125 -229q-15 -29 -49 -29h-291q-41 0 -41 41z" />
<glyph unicode="&#x439;" horiz-adv-x="1208" d="M100 41v987q0 41 41 41h289q41 0 41 -41v-240q0 -81 -4 -245h4q20 43 73.5 148.5t55.5 109.5l123 239q15 29 47 29h297q41 0 41 -41v-987q0 -41 -41 -41h-289q-41 0 -41 41v244q0 37 6 247h-4q-55 -132 -133 -274l-125 -229q-15 -29 -49 -29h-291q-41 0 -41 41zM248 1452 q-6 38 35 45l182 33q35 6 47 -33q21 -63 94 -63t94 63q12 39 48 33l182 -33q41 -7 35 -41q-17 -134 -110.5 -207t-248.5 -73q-154 0 -246.5 72t-111.5 204z" />
<glyph unicode="&#x43a;" horiz-adv-x="1099" d="M100 41v987q0 41 41 41h291q41 0 41 -41v-338l180 350q15 29 47 29h326q25 0 33 -14.5t-6 -34.5l-283 -424l330 -547q12 -22 5 -35.5t-32 -13.5h-342q-33 0 -47 29l-160 313l-51 -68v-233q0 -41 -41 -41h-291q-41 0 -41 41z" />
<glyph unicode="&#x43b;" horiz-adv-x="1189" d="M29 31v248q0 34 39 43q76 19 108 120q43 137 55 586q0 41 41 41h777q41 0 41 -41v-987q0 -41 -41 -41h-293q-41 0 -41 41v700h-144q-7 -289 -69 -477q-44 -135 -146.5 -201t-283.5 -73q-43 0 -43 41z" />
<glyph unicode="&#x43c;" horiz-adv-x="1449" d="M100 41v987q0 41 41 41h320q37 0 49 -31l211 -481h8q43 104 211 481q12 31 49 31h320q41 0 41 -41v-987q0 -41 -41 -41h-285q-41 0 -41 41v131q0 142 16 350h-6q-16 -38 -46.5 -113.5t-45.5 -113.5l-43 -105q-10 -30 -49 -30h-168q-39 0 -49 30l-43 105 q-15 38 -45.5 113.5t-46.5 113.5h-6q16 -208 16 -350v-131q0 -41 -41 -41h-285q-41 0 -41 41z" />
<glyph unicode="&#x43d;" d="M100 41v987q0 41 41 41h297q41 0 41 -41v-321h189v321q0 41 41 41h297q41 0 41 -41v-987q0 -41 -41 -41h-297q-41 0 -41 41v330h-189v-330q0 -41 -41 -41h-297q-41 0 -41 41z" />
<glyph unicode="&#x43e;" d="M72 424v219q0 216 132 335.5t369 119.5t369.5 -119.5t132.5 -335.5v-219q0 -215 -132.5 -334t-369.5 -119t-369 119t-132 334zM457 424q0 -57 29.5 -88t86.5 -31t87 31t30 88v219q0 57 -30 89t-87 32q-56 0 -86 -31.5t-30 -89.5v-219z" />
<glyph unicode="&#x43f;" d="M100 41v987q0 41 41 41h865q41 0 41 -41v-987q0 -41 -41 -41h-297q-41 0 -41 41v700h-189v-700q0 -41 -41 -41h-297q-41 0 -41 41z" />
<glyph unicode="&#x440;" d="M98 -348v1323q0 36 29 45q97 35 220.5 56.5t232.5 21.5q224 0 360.5 -133t136.5 -344v-183q0 -214 -118.5 -340.5t-317.5 -126.5q-91 0 -164 25v-344q0 -41 -41 -41h-297q-41 0 -41 41zM477 313q46 -16 98 -16q117 0 117 131v203q0 131 -119 131q-47 0 -96 -17v-432z" />
<glyph unicode="&#x441;" horiz-adv-x="974" d="M70 449v184q0 218 131 341.5t374 123.5q181 0 338 -92q35 -21 13 -58l-133 -200q-19 -31 -58 -15q-65 33 -141 33q-64 0 -101.5 -35t-37.5 -98v-184q0 -73 38.5 -109.5t100.5 -36.5q83 0 156 45q35 20 57 -12l133 -201q23 -33 -6 -55q-153 -109 -359 -109 q-243 0 -374 126.5t-131 351.5z" />
<glyph unicode="&#x442;" horiz-adv-x="970" d="M31 782v246q0 41 41 41h827q41 0 41 -41v-246q0 -41 -41 -41h-223v-700q0 -41 -41 -41h-297q-41 0 -41 41v700h-225q-41 0 -41 41z" />
<glyph unicode="&#x443;" horiz-adv-x="1153" d="M90 479v549q0 41 41 41h297q41 0 41 -41v-547q0 -70 25.5 -104.5t87.5 -34.5q56 0 92 18v668q0 41 41 41h297q41 0 41 -41v-897q0 -290 -122 -419.5t-392 -129.5q-133 0 -230 23t-182 76q-36 22 -14 57l127 201q19 31 55 14q100 -49 221 -49q82 0 123 32t41 107 q-74 -18 -156 -18q-206 0 -320 122.5t-114 331.5z" />
<glyph unicode="&#x444;" horiz-adv-x="1634" d="M68 479v109q0 99 26.5 180.5t71 136.5t104.5 92.5t126.5 54.5t138.5 17h98v354q0 41 41 41h287q40 0 40 -41v-354h99q72 0 138.5 -17t126.5 -54.5t104.5 -92.5t71 -136.5t26.5 -180.5v-109q0 -122 -39.5 -216.5t-106 -150.5t-148 -84t-173.5 -28h-99v-348q0 -41 -40 -41 h-287q-41 0 -41 41v348h-98q-92 0 -173.5 28t-148 84t-106 150.5t-39.5 216.5zM438 473q0 -145 133 -145h62v413h-66q-61 0 -95 -36t-34 -105v-127zM1001 328h62q133 0 133 145v127q0 69 -34 105t-95 36h-66v-413z" />
<glyph unicode="&#x445;" horiz-adv-x="1093" d="M26 13.5q-8 13.5 3 35.5l268 490l-252 481q-10 22 -2 35.5t31 13.5h334q36 0 47 -33l92 -268l92 268q11 33 47 33h338q23 0 31 -13.5t-2 -35.5l-256 -481l268 -490q10 -22 2 -35.5t-31 -13.5h-342q-36 0 -47 31l-102 245l-99 -243q-13 -33 -47 -33h-342q-23 0 -31 13.5z " />
<glyph unicode="&#x446;" horiz-adv-x="1228" d="M100 41v987q0 41 41 41h297q41 0 41 -41v-696h189v696q0 41 41 41h297q41 0 41 -41v-696h86q41 0 41 -41v-518q0 -41 -41 -41h-267q-41 0 -41 41v227h-684q-41 0 -41 41z" />
<glyph unicode="&#x447;" horiz-adv-x="1112" d="M66 739v289q0 41 40 41h297q41 0 41 -41v-260q0 -135 97 -135q57 0 92 14v381q0 41 41 41h297q41 0 41 -41v-987q0 -41 -41 -41h-297q-41 0 -41 41v266q-57 -18 -160 -18q-57 0 -112 14t-109 48t-94.5 84t-66 128.5t-25.5 175.5z" />
<glyph unicode="&#x448;" horiz-adv-x="1638" d="M100 41v987q0 41 41 41h283q41 0 41 -41v-696h174v696q0 41 41 41h278q41 0 41 -41v-696h175v696q0 41 40 41h283q41 0 41 -41v-987q0 -41 -41 -41h-1356q-41 0 -41 41z" />
<glyph unicode="&#x449;" horiz-adv-x="1722" d="M100 41v987q0 41 41 41h283q41 0 41 -41v-696h174v696q0 41 41 41h278q41 0 41 -41v-696h175v696q0 41 40 41h283q41 0 41 -41v-696h88q41 0 41 -41v-518q0 -41 -41 -41h-266q-41 0 -41 41v227h-1178q-41 0 -41 41z" />
<glyph unicode="&#x44a;" horiz-adv-x="1249" d="M29 797v231q0 41 41 41h536q41 0 41 -41v-293h148q87 0 162 -22t134 -65.5t92.5 -115.5t33.5 -165q0 -92 -33.5 -164t-92.5 -115.5t-134 -65.5t-162 -22h-484q-41 0 -41 41v715h-200q-41 0 -41 41zM647 293h88q47 0 74 20.5t27 59.5q0 38 -27.5 58t-73.5 20h-88v-158z " />
<glyph unicode="&#x44b;" horiz-adv-x="1652" d="M100 41v987q0 41 41 41h295q41 0 41 -41v-293h148q87 0 162 -22t134 -65.5t92.5 -115.5t33.5 -165q0 -92 -33.5 -164t-92.5 -115.5t-134 -65.5t-162 -22h-484q-41 0 -41 41zM477 293h88q47 0 74 20.5t27 59.5q0 38 -27.5 58t-73.5 20h-88v-158zM1174 41v987q0 41 40 41 h297q41 0 41 -41v-987q0 -41 -41 -41h-297q-40 0 -40 41z" />
<glyph unicode="&#x44c;" horiz-adv-x="1079" d="M100 41v987q0 41 41 41h295q41 0 41 -41v-293h148q87 0 162 -22t134 -65.5t92.5 -115.5t33.5 -165q0 -92 -33.5 -164t-92.5 -115.5t-134 -65.5t-162 -22h-484q-41 0 -41 41zM477 293h88q47 0 74 20.5t27 59.5q0 38 -27.5 58t-73.5 20h-88v-158z" />
<glyph unicode="&#x44d;" horiz-adv-x="991" d="M41 125l133 192q19 30 57 15q72 -35 172 -35q57 0 95 34.5t41 100.5h-246q-41 0 -41 41v135q0 41 41 41h246q-3 55 -41 89t-95 34q-87 0 -163 -27q-36 -12 -56 17l-131 194q-23 39 13 56q170 86 380 86q95 0 178.5 -27t151 -81t107 -144t39.5 -207v-199 q0 -120 -38.5 -212.5t-106 -147t-151 -82t-180.5 -27.5q-240 0 -393 97q-34 21 -12 57z" />
<glyph unicode="&#x44e;" horiz-adv-x="1628" d="M100 41v987q0 41 41 41h287q41 0 41 -41v-321h94h15q19 188 145.5 289.5t341.5 101.5q232 0 361.5 -119.5t129.5 -335.5v-217q0 -215 -130 -335t-361 -120q-213 0 -340 101t-147 286h-17h-92v-317q0 -41 -41 -41h-287q-41 0 -41 41zM950 432q0 -63 29.5 -96t85.5 -33 t85.5 33t29.5 96v205q0 63 -29.5 96t-85.5 33t-85.5 -33t-29.5 -96v-205z" />
<glyph unicode="&#x44f;" horiz-adv-x="1134" d="M52.5 14.5q-7.5 14.5 4.5 34.5l205 330q-85 40 -136.5 127.5t-51.5 191.5q0 166 114 268.5t301 102.5h504q41 0 41 -41v-987q0 -41 -41 -41h-295q-41 0 -41 41v295h-34l-160 -307q-15 -29 -47 -29h-332q-24 0 -31.5 14.5zM457 700q0 -84 94 -84h106v164h-106 q-46 0 -70 -21t-24 -59z" />
<glyph unicode="&#x451;" horiz-adv-x="1097" d="M72 422v229q0 223 133 335t360 112q219 0 344 -109.5t125 -337.5v-188q0 -41 -41 -41h-540v-10q0 -64 35.5 -97.5t103.5 -33.5q131 0 233 57q34 21 56 -10l123 -168q24 -34 -7 -58q-169 -131 -419 -131q-228 0 -367 117.5t-139 333.5zM141 1364q0 83 48.5 129.5 t127.5 46.5q78 0 125 -45.5t47 -128.5q0 -82 -47 -128t-125 -46q-79 0 -127.5 45.5t-48.5 126.5zM453 641h219v33q0 60 -28.5 91.5t-82.5 31.5q-108 0 -108 -123v-33zM618 1366q0 83 49 128.5t128 45.5q78 0 125 -45.5t47 -128.5q0 -82 -47 -128t-125 -46q-79 0 -128 46.5 t-49 127.5z" />
<glyph unicode="&#x452;" horiz-adv-x="1163" d="M-37 1198v102q0 41 41 41h96v82q0 41 41 41h297q41 0 41 -41v-82h185q41 0 41 -41v-102q0 -41 -41 -41h-185v-147q71 26 193 26q191 0 297 -130t106 -349v-575q0 -189 -107.5 -294.5t-299.5 -105.5q-67 0 -129 12q-35 8 -35 46v229q0 42 43 39q14 -2 43 -2q104 0 104 121 v536q0 71 -27.5 106.5t-95.5 35.5q-43 0 -92 -17v-647q0 -41 -41 -41h-297q-41 0 -41 41v1116h-96q-41 0 -41 41z" />
<glyph unicode="&#x453;" horiz-adv-x="884" d="M100 41v987q0 41 41 41h674q41 0 41 -41v-252q0 -41 -41 -41h-336v-694q0 -41 -41 -41h-297q-41 0 -41 41zM307 1190.5q-8 14.5 6 34.5l172 264q18 27 50 27h274q26 0 32.5 -16t-10.5 -36l-227 -266q-19 -22 -51 -22h-213q-25 0 -33 14.5z" />
<glyph unicode="&#x454;" horiz-adv-x="991" d="M70 440v199q0 117 39 207t106.5 144t151 81t178.5 27q211 0 381 -86q36 -17 12 -56l-131 -194q-20 -28 -55 -17q-76 27 -164 27q-57 0 -94.5 -34t-40.5 -89h245q41 0 41 -41v-135q0 -41 -41 -41h-245q3 -66 40.5 -100.5t94.5 -34.5q100 0 172 35q38 15 57 -15l133 -192 q22 -36 -12 -57q-153 -97 -393 -97q-97 0 -180.5 27.5t-150.5 82t-105.5 147t-38.5 212.5z" />
<glyph unicode="&#x455;" horiz-adv-x="1038" d="M53 164l115 192q20 36 55 15q131 -82 277 -82q106 0 106 51q0 40 -108 55q-416 63 -416 353q0 168 120 259t349 91q197 0 377 -92q37 -18 14 -58l-117 -186q-20 -32 -55 -14q-102 51 -221 51q-46 0 -68 -9.5t-22 -35.5t26.5 -38.5t116.5 -25.5q190 -31 288.5 -118.5 t98.5 -225.5q0 -188 -120 -281.5t-369 -93.5q-111 0 -224.5 34.5t-209.5 100.5q-33 20 -13 58z" />
<glyph unicode="&#x456;" horiz-adv-x="579" d="M82 1397q0 91 58 148t151 57q91 0 148 -57t57 -148q0 -87 -57.5 -146t-147.5 -59q-92 0 -150.5 58.5t-58.5 146.5zM100 41v987q0 41 41 41h297q41 0 41 -41v-987q0 -41 -41 -41h-297q-41 0 -41 41z" />
<glyph unicode="&#x457;" horiz-adv-x="579" d="M-90 1343q0 80 46 124t122 44q74 0 119 -43.5t45 -121.5t-45 -122t-119 -44q-75 0 -121.5 43.5t-46.5 119.5zM100 41v987q0 41 41 41h297q41 0 41 -41v-987q0 -41 -41 -41h-297q-41 0 -41 41zM342 1346q0 77 47 121t121 44q75 0 120.5 -43.5t45.5 -121.5t-45.5 -122 t-120.5 -44q-74 0 -121 44t-47 122z" />
<glyph unicode="&#x458;" horiz-adv-x="595" d="M-76 -113q0 42 43 39q14 -2 43 -2q107 0 107 119v985q0 41 41 41h297q41 0 41 -41v-1046q0 -189 -108 -294.5t-300 -105.5q-67 0 -129 12q-35 8 -35 46v247zM100 1397q0 91 58 148t151 57q91 0 148 -57t57 -148q0 -87 -57.5 -146t-147.5 -59q-92 0 -150.5 58.5 t-58.5 146.5z" />
<glyph unicode="&#x459;" horiz-adv-x="1701" d="M27 41v248q0 35 39 41q44 6 74 34.5t48 88.5q43 140 52 573q0 43 41 43h780q41 0 41 -41v-293h145q189 0 305.5 -96t116.5 -272q0 -179 -116 -273t-306 -94h-477q-41 0 -41 41v709h-154q-13 -304 -61 -451q-50 -151 -154 -221.5t-290 -77.5q-43 0 -43 41zM1102 297h88 q44 0 69 19.5t25 58.5q0 38 -25.5 57t-68.5 19h-88v-154z" />
<glyph unicode="&#x45a;" horiz-adv-x="1646" d="M100 41v987q0 41 41 41h297q41 0 41 -41v-321h189v321q0 41 41 41h297q41 0 41 -41v-293h145q189 0 305.5 -96t116.5 -272q0 -179 -116 -273t-306 -94h-483q-41 0 -41 41v330h-189v-330q0 -41 -41 -41h-297q-41 0 -41 41zM1047 297h88q44 0 69 19.5t25 58.5 q0 38 -25.5 57t-68.5 19h-88v-154z" />
<glyph unicode="&#x45b;" horiz-adv-x="1163" d="M-37 1198v102q0 41 41 41h96v82q0 41 41 41h297q41 0 41 -41v-82h185q41 0 41 -41v-102q0 -41 -41 -41h-185v-147q71 26 193 26q191 0 297 -130t106 -349v-516q0 -41 -41 -41h-299q-41 0 -41 41v522q0 71 -27.5 106.5t-95.5 35.5q-43 0 -92 -17v-647q0 -41 -41 -41h-297 q-41 0 -41 41v1116h-96q-41 0 -41 41z" />
<glyph unicode="&#x45c;" horiz-adv-x="1099" d="M100 41v987q0 41 41 41h291q41 0 41 -41v-338l180 350q15 29 47 29h326q25 0 33 -14.5t-6 -34.5l-283 -424l330 -547q12 -22 5 -35.5t-32 -13.5h-342q-33 0 -47 29l-160 313l-51 -68v-233q0 -41 -41 -41h-291q-41 0 -41 41zM379 1202.5q-8 14.5 6 34.5l172 264 q18 27 49 27h275q26 0 32.5 -15.5t-10.5 -35.5l-227 -267q-19 -22 -51 -22h-213q-25 0 -33 14.5z" />
<glyph unicode="&#x45d;" horiz-adv-x="1208" d="M100 41v987q0 41 41 41h289q41 0 41 -41v-240q0 -81 -4 -245h4q20 43 73.5 148.5t55.5 109.5l123 239q15 29 47 29h297q41 0 41 -41v-987q0 -41 -41 -41h-289q-41 0 -41 41v244q0 37 6 247h-4q-55 -132 -133 -274l-125 -229q-15 -29 -49 -29h-291q-41 0 -41 41z M264 1495.5q7 15.5 33 15.5h274q33 0 50 -26l172 -264q14 -20 6 -35t-33 -15h-213q-31 0 -51 23l-228 266q-17 20 -10 35.5z" />
<glyph unicode="&#x45e;" horiz-adv-x="1153" d="M90 479v549q0 41 41 41h297q41 0 41 -41v-547q0 -70 25.5 -104.5t87.5 -34.5q56 0 92 18v668q0 41 41 41h297q41 0 41 -41v-897q0 -290 -122 -419.5t-392 -129.5q-133 0 -230 23t-182 76q-36 22 -14 57l127 201q19 31 55 14q100 -49 221 -49q82 0 123 32t41 107 q-74 -18 -156 -18q-206 0 -320 122.5t-114 331.5zM223 1440q-6 38 35 45l182 33q35 6 47 -33q21 -64 95 -64q73 0 94 64q12 39 47 33l182 -33q41 -7 35 -41q-17 -134 -110 -207.5t-248 -73.5q-154 0 -247 72.5t-112 204.5z" />
<glyph unicode="&#x45f;" d="M100 41v987q0 41 41 41h297q41 0 41 -41v-694h189v694q0 41 41 41h297q41 0 41 -41v-987q0 -41 -41 -41h-258v-227q0 -41 -41 -41h-267q-41 0 -41 41v227h-258q-41 0 -41 41z" />
<glyph unicode="&#x490;" horiz-adv-x="1075" d="M137 41v1382q0 41 41 41h506v310q0 41 41 41h287q41 0 41 -41v-641q0 -41 -41 -41h-475v-1051q0 -41 -41 -41h-318q-41 0 -41 41z" />
<glyph unicode="&#x491;" horiz-adv-x="884" d="M100 41v987q0 41 41 41h383v217q0 41 41 41h250q41 0 41 -41v-510q0 -41 -41 -41h-336v-694q0 -41 -41 -41h-297q-41 0 -41 41z" />
<glyph unicode="&#x1e80;" horiz-adv-x="2097" d="M8 1419q-6 20 3.5 32.5t31.5 12.5h336q39 0 45 -37l61 -284q26 -111 68.5 -330.5t62.5 -353.5h11q47 313 137 671l72 279q9 35 45 35h336q36 0 45 -35l71 -279q80 -314 137 -671h11q20 134 62.5 353.5t68.5 330.5l61 284q6 37 45 37h336q22 0 31.5 -12.5t3.5 -32.5 l-389 -1384q-8 -35 -47 -35h-361q-38 0 -47 35l-84 315q-30 113 -63.5 300t-44.5 292h-9q-11 -105 -44.5 -292t-63.5 -300l-84 -315q-9 -35 -47 -35h-361q-39 0 -47 35zM649.5 1887q6.5 16 32.5 16h301q30 0 49 -25l203 -266q15 -20 7.5 -34.5t-32.5 -14.5h-239 q-33 0 -51 20l-258 268q-19 20 -12.5 36z" />
<glyph unicode="&#x1e81;" horiz-adv-x="1601" d="M14 1024q-6 20 3.5 32.5t31.5 12.5h299q38 0 43 -37l55 -340q33 -237 41 -309h9q21 186 47 317l61 318q6 37 43 37h307q37 0 43 -37l62 -318q26 -131 47 -317h8q8 72 41 309l55 340q5 37 43 37h299q22 0 31.5 -12.5t3.5 -32.5l-260 -989q-9 -35 -45 -35h-319 q-39 0 -45 37l-72 334q-38 197 -43 223h-4q-5 -26 -43 -223l-72 -334q-6 -37 -45 -37h-320q-36 0 -45 35zM459 1500q7 16 33 16h274q31 0 49 -27l172 -264q14 -20 6.5 -34.5t-32.5 -14.5h-213q-33 0 -52 22l-227 266q-17 20 -10 36z" />
<glyph unicode="&#x1e82;" horiz-adv-x="2097" d="M8 1419q-6 20 3.5 32.5t31.5 12.5h336q39 0 45 -37l61 -284q26 -111 68.5 -330.5t62.5 -353.5h11q47 313 137 671l72 279q9 35 45 35h336q36 0 45 -35l71 -279q80 -314 137 -671h11q20 134 62.5 353.5t68.5 330.5l61 284q6 37 45 37h336q22 0 31.5 -12.5t3.5 -32.5 l-389 -1384q-8 -35 -47 -35h-361q-38 0 -47 35l-84 315q-30 113 -63.5 300t-44.5 292h-9q-11 -105 -44.5 -292t-63.5 -300l-84 -315q-9 -35 -47 -35h-361q-39 0 -47 35zM836 1577.5q-7 14.5 8 34.5l203 266q19 25 49 25h301q26 0 32.5 -16t-12.5 -36l-258 -268 q-17 -20 -51 -20h-240q-25 0 -32 14.5z" />
<glyph unicode="&#x1e83;" horiz-adv-x="1601" d="M14 1024q-6 20 3.5 32.5t31.5 12.5h299q38 0 43 -37l55 -340q33 -237 41 -309h9q21 186 47 317l61 318q6 37 43 37h307q37 0 43 -37l62 -318q26 -131 47 -317h8q8 72 41 309l55 340q5 37 43 37h299q22 0 31.5 -12.5t3.5 -32.5l-260 -989q-9 -35 -45 -35h-319 q-39 0 -45 37l-72 334q-38 197 -43 223h-4q-5 -26 -43 -223l-72 -334q-6 -37 -45 -37h-320q-36 0 -45 35zM600 1190.5q-8 14.5 6 34.5l172 264q18 27 49 27h275q26 0 32.5 -16t-10.5 -36l-227 -266q-19 -22 -51 -22h-213q-25 0 -33 14.5z" />
<glyph unicode="&#x1e84;" horiz-adv-x="2097" d="M8 1419q-6 20 3.5 32.5t31.5 12.5h336q39 0 45 -37l61 -284q26 -111 68.5 -330.5t62.5 -353.5h11q47 313 137 671l72 279q9 35 45 35h336q36 0 45 -35l71 -279q80 -314 137 -671h11q20 134 62.5 353.5t68.5 330.5l61 284q6 37 45 37h336q22 0 31.5 -12.5t3.5 -32.5 l-389 -1384q-8 -35 -47 -35h-361q-38 0 -47 35l-84 315q-30 113 -63.5 300t-44.5 292h-9q-11 -105 -44.5 -292t-63.5 -300l-84 -315q-9 -35 -47 -35h-361q-39 0 -47 35zM594 1774q0 76 50.5 126t127.5 50t127.5 -50t50.5 -126t-50.5 -126.5t-127.5 -50.5t-127.5 50.5 t-50.5 126.5zM1143 1774q0 77 49.5 126.5t130.5 49.5q78 0 129 -50t51 -126q0 -77 -51 -127t-129 -50q-81 0 -130.5 50t-49.5 127z" />
<glyph unicode="&#x1e85;" horiz-adv-x="1601" d="M14 1024q-6 20 3.5 32.5t31.5 12.5h299q38 0 43 -37l55 -340q33 -237 41 -309h9q21 186 47 317l61 318q6 37 43 37h307q37 0 43 -37l62 -318q26 -131 47 -317h8q8 72 41 309l55 340q5 37 43 37h299q22 0 31.5 -12.5t3.5 -32.5l-260 -989q-9 -35 -45 -35h-319 q-39 0 -45 37l-72 334q-38 197 -43 223h-4q-5 -26 -43 -223l-72 -334q-6 -37 -45 -37h-320q-36 0 -45 35zM373 1364q0 83 48.5 129.5t127.5 46.5q78 0 125 -45.5t47 -128.5q0 -82 -47 -128t-125 -46q-79 0 -127.5 45.5t-48.5 126.5zM879 1366q0 83 48.5 128.5t127.5 45.5 q78 0 125 -45.5t47 -128.5q0 -82 -47 -128t-125 -46t-127 46.5t-49 127.5z" />
<glyph unicode="&#x1ef2;" horiz-adv-x="1294" d="M5 1450.5q9 13.5 32 13.5h350q34 0 47 -32l213 -537l213 537q13 32 47 32h350q23 0 32 -13.5t-1 -35.5l-440 -909v-465q0 -41 -41 -41h-320q-41 0 -41 41v465l-440 909q-10 22 -1 35.5zM248 1887q7 16 33 16h301q30 0 49 -25l203 -266q15 -20 7.5 -34.5t-32.5 -14.5h-240 q-33 0 -51 20l-258 268q-19 20 -12 36z" />
<glyph unicode="&#x1ef3;" horiz-adv-x="1153" d="M90 479v549q0 41 41 41h297q41 0 41 -41v-547q0 -70 25.5 -104.5t87.5 -34.5q56 0 92 18v668q0 41 41 41h297q41 0 41 -41v-897q0 -290 -122 -419.5t-392 -129.5q-133 0 -230 23t-182 76q-36 22 -14 57l127 201q19 31 55 14q100 -49 221 -49q82 0 123 32t41 107 q-74 -18 -156 -18q-206 0 -320 122.5t-114 331.5zM239.5 1520.5q6.5 15.5 32.5 15.5h275q31 0 49 -27l172 -264q14 -20 6 -34.5t-33 -14.5h-213q-31 0 -51 23l-227 266q-17 20 -10.5 35.5z" />
<glyph unicode="&#x2000;" horiz-adv-x="1036" />
<glyph unicode="&#x2001;" horiz-adv-x="2073" />
<glyph unicode="&#x2002;" horiz-adv-x="1036" />
<glyph unicode="&#x2003;" horiz-adv-x="2073" />
<glyph unicode="&#x2004;" horiz-adv-x="691" />
<glyph unicode="&#x2005;" horiz-adv-x="518" />
<glyph unicode="&#x2006;" horiz-adv-x="345" />
<glyph unicode="&#x2007;" horiz-adv-x="345" />
<glyph unicode="&#x2008;" horiz-adv-x="259" />
<glyph unicode="&#x2009;" horiz-adv-x="414" />
<glyph unicode="&#x200a;" horiz-adv-x="115" />
<glyph unicode="&#x2010;" horiz-adv-x="819" d="M104 492v245q0 41 41 41h529q41 0 41 -41v-245q0 -41 -41 -41h-529q-41 0 -41 41z" />
<glyph unicode="&#x2011;" horiz-adv-x="819" d="M104 492v245q0 41 41 41h529q41 0 41 -41v-245q0 -41 -41 -41h-529q-41 0 -41 41z" />
<glyph unicode="&#x2012;" horiz-adv-x="819" d="M104 492v245q0 41 41 41h529q41 0 41 -41v-245q0 -41 -41 -41h-529q-41 0 -41 41z" />
<glyph unicode="&#x2013;" horiz-adv-x="1255" d="M104 492v245q0 41 41 41h965q41 0 41 -41v-245q0 -41 -41 -41h-965q-41 0 -41 41z" />
<glyph unicode="&#x2014;" horiz-adv-x="2078" d="M104 492v245q0 41 41 41h1788q41 0 41 -41v-245q0 -41 -41 -41h-1788q-41 0 -41 41z" />
<glyph unicode="&#x2018;" horiz-adv-x="559" d="M53 872l183 560q8 32 45 32h196q21 0 30.5 -12t4.5 -33l-121 -557q-6 -37 -45 -37h-258q-22 0 -31.5 12.5t-3.5 34.5z" />
<glyph unicode="&#x2019;" horiz-adv-x="559" d="M63 870l127 557q10 37 46 37h258q22 0 31 -12.5t3 -34.5l-174 -557q-9 -35 -45 -35h-209q-22 0 -32 12.5t-5 32.5z" />
<glyph unicode="&#x201a;" horiz-adv-x="540" d="M0 -258l127 557q10 37 45 37h258q22 0 31.5 -12.5t3.5 -34.5l-174 -557q-9 -35 -45 -35h-209q-22 0 -32 12.5t-5 32.5z" />
<glyph unicode="&#x201c;" horiz-adv-x="1030" d="M55 872l174 558q12 34 45 34h209q22 0 32 -12.5t5 -32.5l-127 -557q-6 -37 -45 -37h-258q-22 0 -31.5 12.5t-3.5 34.5zM520 872l174 558q12 34 45 34h209q22 0 32 -12.5t5 -32.5l-127 -557q-6 -37 -45 -37h-258q-22 0 -31.5 12.5t-3.5 34.5z" />
<glyph unicode="&#x201d;" horiz-adv-x="1024" d="M63 870l127 557q6 37 46 37h258q22 0 31 -12.5t3 -34.5l-174 -557q-12 -35 -45 -35h-209q-22 0 -32 12.5t-5 32.5zM528 870l127 557q6 37 45 37h258q22 0 31.5 -12.5t3.5 -34.5l-174 -557q-12 -35 -45 -35h-209q-22 0 -32 12.5t-5 32.5z" />
<glyph unicode="&#x201e;" horiz-adv-x="1007" d="M0 -264l127 557q6 37 45 37h258q22 0 31.5 -12.5t3.5 -34.5l-174 -557q-12 -35 -45 -35h-209q-22 0 -32 12.5t-5 32.5zM465 -264l127 557q6 37 45 37h258q22 0 31.5 -12.5t3.5 -34.5l-174 -557q-12 -35 -45 -35h-209q-22 0 -32 12.5t-5 32.5z" />
<glyph unicode="&#x2020;" horiz-adv-x="1077" d="M76 811v246q0 41 41 41h245v387q0 41 41 41h277q41 0 41 -41v-387h240q40 0 40 -41v-246q0 -41 -40 -41h-240v-1014q0 -41 -41 -41h-277q-41 0 -41 41v1014h-245q-41 0 -41 41z" />
<glyph unicode="&#x2021;" horiz-adv-x="1077" d="M76 201v245q0 41 41 41h245v283h-245q-41 0 -41 41v246q0 41 41 41h245v387q0 41 41 41h277q41 0 41 -41v-387h240q40 0 40 -41v-246q0 -41 -40 -41h-240v-283h240q40 0 40 -41v-245q0 -41 -40 -41h-240v-404q0 -41 -41 -41h-277q-41 0 -41 41v404h-245q-41 0 -41 41z " />
<glyph unicode="&#x2022;" horiz-adv-x="839" d="M119 725q0 131 86.5 216t216.5 85t214.5 -85t84.5 -216q0 -133 -85 -219t-214 -86q-130 0 -216.5 86t-86.5 219z" />
<glyph unicode="&#x2026;" horiz-adv-x="1681" d="M68 178q0 91 58.5 148t152.5 57t152 -57t58 -148q0 -88 -58.5 -146.5t-151.5 -58.5t-152 59t-59 146zM631 178q0 91 58.5 148t152.5 57t152.5 -57t58.5 -148q0 -87 -59 -146t-152 -59t-152 59t-59 146zM1192 178q0 91 58.5 148t152.5 57t152.5 -57t58.5 -148 q0 -87 -59 -146t-152 -59t-152 59t-59 146z" />
<glyph unicode="&#x202f;" horiz-adv-x="414" />
<glyph unicode="&#x2030;" horiz-adv-x="2523" d="M57 967v202q0 143 86.5 224.5t239.5 81.5t239.5 -81.5t86.5 -224.5v-202q0 -145 -86 -226.5t-240 -81.5t-240 81.5t-86 226.5zM313 961q0 -33 18.5 -52.5t51.5 -19.5t51.5 19.5t18.5 52.5v215q0 31 -18.5 50t-51.5 19t-51.5 -19t-18.5 -50v-215zM319 14.5q-7 14.5 5 34.5 l860 1389q16 26 49 26h207q24 0 31 -14.5t-5 -34.5l-860 -1388q-16 -27 -49 -27h-207q-24 0 -31 14.5zM1090 297v203q0 143 86 224t239 81t239.5 -81t86.5 -224v-203q0 -145 -86 -226t-240 -81t-239.5 81t-85.5 226zM1346 291q0 -33 18 -52.5t51 -19.5t51.5 19.5t18.5 52.5 v215q0 31 -18.5 50t-51.5 19t-51 -19t-18 -50v-215zM1815 297v203q0 143 86 224t239 81t239.5 -81t86.5 -224v-203q0 -145 -86 -226t-240 -81t-239.5 81t-85.5 226zM2071 291q0 -33 18 -52.5t51 -19.5t51.5 19.5t18.5 52.5v215q0 31 -18.5 50t-51.5 19t-51 -19t-18 -50v-215 z" />
<glyph unicode="&#x2039;" horiz-adv-x="737" d="M59 567q-17 29 0 58l267 395q18 27 49 27h272q25 0 32 -14t-7 -36l-273 -401l273 -401q14 -22 7 -36t-32 -14h-272q-31 0 -49 27z" />
<glyph unicode="&#x203a;" horiz-adv-x="737" d="M60.5 159q-6.5 14 7.5 36l272 401l-272 401q-14 22 -7.5 36t31.5 14h273q31 0 49 -27l266 -395q17 -29 0 -58l-266 -395q-18 -27 -49 -27h-273q-25 0 -31.5 14z" />
<glyph unicode="&#x2044;" horiz-adv-x="491" d="M-324 14.5q-7 14.5 5 34.5l862 1389q16 26 49 26h192q24 0 31.5 -14.5t-4.5 -34.5l-862 -1388q-16 -27 -49 -27h-193q-24 0 -31 14.5z" />
<glyph unicode="&#x205f;" horiz-adv-x="518" />
<glyph unicode="&#x2070;" horiz-adv-x="753" d="M51 1137v202q0 143 86.5 224.5t239.5 81.5t239 -81.5t86 -224.5v-202q0 -145 -85.5 -226.5t-239.5 -81.5t-240 81.5t-86 226.5zM307 1130q0 -33 18.5 -52t51.5 -19t51 19t18 52v216q0 31 -18 50t-51 19t-51.5 -19t-18.5 -50v-216z" />
<glyph unicode="&#x2074;" horiz-adv-x="776" d="M27 999v134q0 24 12 51l215 422q14 28 47 28h176q23 0 32 -13.5t-1 -35.5l-207 -403h115l16 98q5 37 43 37h152q41 0 41 -41v-98h43q41 0 41 -41v-138q0 -41 -41 -41h-43v-77q0 -41 -41 -41h-170q-41 0 -41 41v77h-348q-41 0 -41 41z" />
<glyph unicode="&#x2075;" horiz-adv-x="727" d="M51 1227l21 368q3 39 41 39h497q41 0 41 -41v-129q0 -41 -41 -41h-327l-4 -82q43 13 114 13q301 0 301 -256q0 -133 -89 -201t-261 -68q-179 0 -289 89q-29 23 -2 57l70 96q24 29 57 6q75 -35 166 -35q47 0 71.5 19t24.5 53q0 36 -23 56t-67 20q-58 0 -102 -23 q-29 -13 -53 -8l-111 21q-38 6 -35 47z" />
<glyph unicode="&#x2076;" horiz-adv-x="722" d="M51 1122v228q0 132 90.5 213.5t239.5 81.5q121 0 252 -60q40 -19 14 -57l-78 -109q-19 -27 -55 -14q-58 22 -123 22q-98 0 -98 -77v-37q31 28 117 28q126 0 204 -64t78 -169q0 -123 -87 -201t-230 -78q-146 0 -235 82t-89 211zM293 1110q0 -59 76 -59q75 0 75 59 q0 61 -75 61q-76 0 -76 -61z" />
<glyph unicode="&#x2077;" horiz-adv-x="675" d="M25 1448v145q0 41 41 41h544q41 0 41 -41v-98q0 -31 -10 -51l-250 -574q-12 -30 -49 -30h-178q-23 0 -32.5 12.5t-0.5 34.5l227 520h-292q-41 0 -41 41z" />
<glyph unicode="&#x2078;" horiz-adv-x="745" d="M41 1079q0 64 31.5 112.5t87.5 68.5q-44 26 -69 68t-25 89q0 106 81 166.5t226 61.5q145 0 226 -60.5t81 -167.5q0 -47 -25 -89t-69 -68q56 -19 87.5 -67t31.5 -114q0 -118 -87.5 -184t-244.5 -66t-244.5 66t-87.5 184zM276 1087q0 -65 97 -65q96 0 96 65q0 66 -96 66 q-97 0 -97 -66zM285 1397q0 -68 88 -68t88 68q0 61 -88 61t-88 -61z" />
<glyph unicode="&#x2079;" horiz-adv-x="727" d="M35 1366q0 123 87 201t230 78q146 0 235 -82t89 -211v-228q0 -132 -90.5 -213.5t-239.5 -81.5q-168 0 -272 66q-39 22 -15 57l54 109q20 29 55 14q55 -28 168 -28q98 0 98 77v37q-31 -28 -117 -28q-126 0 -204 64t-78 169zM283 1364q0 -61 75 -61q76 0 76 61q0 59 -76 59 q-75 0 -75 -59z" />
<glyph unicode="&#x2080;" horiz-adv-x="753" d="M51 92v203q0 143 86.5 224t239.5 81t239 -81t86 -224v-203q0 -145 -85.5 -226t-239.5 -81t-240 81t-86 226zM307 86q0 -33 18.5 -52.5t51.5 -19.5t51 19.5t18 52.5v215q0 32 -18 51t-51 19t-51.5 -19.5t-18.5 -50.5v-215z" />
<glyph unicode="&#x2081;" horiz-adv-x="555" d="M5.5 426.5q2.5 16.5 19.5 26.5l186 122q20 15 51 15h174q41 0 41 -41v-713q0 -41 -41 -41h-168q-41 0 -41 41v471l-71 -45q-35 -25 -56 10l-86 123q-11 15 -8.5 31.5z" />
<glyph unicode="&#x2082;" horiz-adv-x="700" d="M37 -35q0 32 22 51l224 187q106 90 106 131t-57 41q-70 0 -135 -49q-35 -25 -58 8l-82 112q-23 33 9 58q128 96 301 96q126 0 202 -63t76 -166q0 -65 -26.5 -122t-94.5 -128q-53 -53 -123 -98h211q41 0 41 -41v-146q0 -41 -41 -41h-534q-41 0 -41 41v129z" />
<glyph unicode="&#x2083;" horiz-adv-x="727" d="M33 -55l82 106q11 16 25 16.5t32 -12.5q57 -41 156 -41q106 0 106 76q0 66 -115 66q-27 0 -43 -2q-40 -6 -51 26l-18 45q-13 31 12 56l23 22q49 49 96 82h-242q-41 0 -41 41v123q0 41 41 41h508q41 0 41 -41v-88q0 -35 -22 -51l-154 -127q20 -1 49 -7q78 -16 123 -71 t45 -152q0 -126 -89 -197t-247 -71q-182 0 -313 102q-31 25 -4 58z" />
<glyph unicode="&#x2084;" horiz-adv-x="776" d="M27 -45v133q0 24 12 51l215 422q14 29 47 29h176q23 0 32 -13.5t-1 -35.5l-207 -404h115l16 99q5 36 43 36h152q41 0 41 -41v-98h43q41 0 41 -41v-137q0 -41 -41 -41h-43v-78q0 -41 -41 -41h-170q-41 0 -41 41v78h-348q-41 0 -41 41z" />
<glyph unicode="&#x2085;" horiz-adv-x="727" d="M51 182l21 369q3 39 41 39h497q41 0 41 -41v-129q0 -41 -41 -41h-327l-4 -82q40 12 114 12q301 0 301 -256q0 -133 -89 -200.5t-261 -67.5q-180 0 -289 88q-29 23 -2 57l70 97q24 29 57 6q75 -35 166 -35q47 0 71.5 19t24.5 53q0 36 -23 55.5t-67 19.5q-60 0 -102 -22 q-29 -13 -53 -8l-111 20q-38 6 -35 47z" />
<glyph unicode="&#x2086;" horiz-adv-x="722" d="M51 78v227q0 132 90.5 213.5t239.5 81.5q121 0 246 -59q19 -9 22.5 -25t-8.5 -33l-78 -108q-19 -27 -55 -15q-57 23 -117 23q-98 0 -98 -78v-37q33 29 117 29q126 0 204 -64.5t78 -169.5q0 -123 -87 -200.5t-230 -77.5q-146 0 -235 82t-89 211zM293 66q0 -60 76 -60 q75 0 75 60q0 61 -75 61q-76 0 -76 -61z" />
<glyph unicode="&#x2087;" horiz-adv-x="675" d="M25 403v146q0 41 41 41h544q41 0 41 -41v-98q0 -32 -10 -52l-250 -573q-12 -31 -49 -31h-178q-23 0 -32.5 12.5t-0.5 34.5l227 520h-292q-41 0 -41 41z" />
<glyph unicode="&#x2088;" horiz-adv-x="745" d="M41 35q0 64 31.5 112t87.5 68q-44 26 -69 68.5t-25 89.5q0 106 81 165.5t226 61.5q145 0 226 -60t81 -167q0 -47 -25 -89.5t-69 -68.5q56 -19 87.5 -66.5t31.5 -113.5q0 -118 -87.5 -184t-244.5 -66t-244.5 66t-87.5 184zM276 43q0 -66 97 -66q96 0 96 66t-96 66 q-97 0 -97 -66zM285 352q0 -67 88 -67t88 67q0 62 -88 62t-88 -62z" />
<glyph unicode="&#x2089;" horiz-adv-x="727" d="M33 322q0 123 87 200.5t230 77.5q146 0 235 -82t89 -211v-227q0 -75 -26.5 -132t-73.5 -91t-104 -51t-124 -19q-141 -3 -274 57q-41 20 -15 58l64 108q19 27 55 15q60 -25 141 -25q115 0 115 80v37q-33 -29 -117 -29q-126 0 -204 64.5t-78 169.5zM281 319q0 -61 75 -61 q76 0 76 61q0 60 -76 60q-75 0 -75 -60z" />
<glyph unicode="&#x20ac;" horiz-adv-x="1409" d="M61 526v113q0 41 41 41h105v96h-105q-41 0 -41 41v113q0 41 41 41h105q12 247 172.5 384.5t445.5 137.5q283 0 492 -125q34 -21 12 -57l-158 -248q-21 -29 -57 -12q-115 59 -266 59q-191 0 -211 -139h256q41 0 41 -41v-113q0 -41 -41 -41h-260v-96h260q41 0 41 -41v-113 q0 -41 -41 -41h-256q27 -129 211 -129q157 0 276 70q38 21 58 -12l161 -248q24 -34 -10 -55q-212 -140 -499 -140q-289 0 -449.5 134.5t-175.5 379.5h-107q-41 0 -41 41z" />
<glyph unicode="&#x20bd;" horiz-adv-x="1370" d="M55 168v133q0 41 41 41h123v1081q0 41 41 41h549q229 0 367.5 -141t138.5 -373t-139.5 -373t-366.5 -141h-207v-94h191q41 0 41 -41v-133q0 -41 -41 -41h-191v-86q0 -41 -41 -41h-301q-41 0 -41 41v86h-123q-41 0 -41 41zM602 784h146q89 0 135.5 42t46.5 124t-46.5 124 t-135.5 42h-146v-332z" />
<glyph unicode="&#x2122;" horiz-adv-x="1400" d="M57 1348v92q0 24 25 24h463q24 0 24 -24v-92q0 -25 -24 -25h-154v-449q0 -24 -24 -24h-107q-24 0 -24 24v449h-154q-25 0 -25 25zM623 874v566q0 24 24 24h141q24 0 31 -20l92 -230l39 -112l39 112l92 230q7 20 31 20h141q25 0 25 -24v-566q0 -24 -25 -24h-98 q-25 0 -25 24v199l17 203h-4l-49 -133l-84 -176q-10 -23 -31 -23h-57q-21 0 -31 23l-84 176l-49 133h-4l16 -203v-199q0 -24 -25 -24h-98q-24 0 -24 24z" />
<glyph unicode="&#x2153;" horiz-adv-x="1857" d="M48.5 1301q2.5 16 19.5 26l186 123q19 14 51 14h174q41 0 41 -41v-712q0 -41 -41 -41h-168q-41 0 -41 41v471l-71 -45q-35 -25 -56 10l-86 123q-11 15 -8.5 31zM267.5 14.5q-7.5 14.5 4.5 34.5l863 1389q16 26 49 26h192q24 0 31.5 -14.5t-4.5 -34.5l-862 -1388 q-16 -27 -49 -27h-193q-24 0 -31.5 14.5zM1133 150l81 106q21 30 58 4q55 -41 155 -41q107 0 107 76q0 65 -115 65q-27 0 -43 -2q-39 -6 -51 27l-18 45q-12 31 12 55l22 23q47 47 97 82h-242q-41 0 -41 41v123q0 41 41 41h508q41 0 41 -41v-88q0 -35 -23 -52l-153 -127 q20 0 49 -6q78 -16 123 -71t45 -152q0 -126 -89 -197t-247 -71q-182 0 -313 102q-31 25 -4 58z" />
<glyph unicode="&#x2154;" horiz-adv-x="2000" d="M61 711v129q0 31 23 51l223 186q58 49 82.5 79t24.5 52q0 41 -58 41q-70 0 -135 -49q-35 -24 -57 8l-82 113q-23 32 8 57q129 97 301 97q126 0 202.5 -63.5t76.5 -166.5q0 -65 -26.5 -122t-94.5 -128q-53 -53 -123 -98h211q41 0 41 -41v-145q0 -41 -41 -41h-535 q-41 0 -41 41zM427.5 14.5q-7.5 14.5 4.5 34.5l862 1389q16 26 49 26h193q24 0 31.5 -14.5t-4.5 -34.5l-863 -1388q-16 -27 -49 -27h-192q-24 0 -31.5 14.5zM1292 150l82 106q21 30 58 4q55 -41 155 -41q107 0 107 76q0 65 -115 65q-27 0 -43 -2q-39 -6 -51 27l-19 45 q-12 30 13 55l22 23q49 49 96 82h-241q-41 0 -41 41v123q0 41 41 41h508q41 0 41 -41v-88q0 -35 -23 -52l-153 -127q20 0 49 -6q78 -16 123 -71t45 -152q0 -126 -89 -197t-247 -71q-183 0 -314 102q-31 25 -4 58z" />
<glyph unicode="&#x215b;" horiz-adv-x="1890" d="M46.5 1301q2.5 16 19.5 26l186 123q19 14 51 14h174q41 0 41 -41v-712q0 -41 -41 -41h-168q-41 0 -41 41v471l-71 -45q-35 -25 -56 10l-86 123q-11 15 -8.5 31zM308.5 14.5q-7.5 14.5 4.5 34.5l863 1389q16 26 49 26h192q24 0 31.5 -14.5t-4.5 -34.5l-862 -1388 q-16 -27 -50 -27h-192q-24 0 -31.5 14.5zM1157 240q0 64 31.5 112t87.5 68q-44 26 -69 68.5t-25 89.5q0 106 81 165.5t226 61.5q145 0 226 -60t81 -167q0 -47 -25 -89.5t-69 -68.5q56 -19 87.5 -66.5t31.5 -113.5q0 -118 -87.5 -184t-244.5 -66t-244.5 66t-87.5 184z M1393 248q0 -66 96 -66t96 66q0 65 -96 65t-96 -65zM1401 557q0 -68 88 -68t88 68q0 61 -88 61t-88 -61z" />
<glyph unicode="&#x215c;" horiz-adv-x="1949" d="M63 819l82 107q21 30 58 4q55 -41 155 -41q107 0 107 76q0 65 -115 65q-27 0 -43 -2q-39 -6 -51 27l-18 45q-12 31 12 55l119 105h-242q-41 0 -41 40v123q0 41 41 41h508q41 0 41 -41v-88q0 -34 -23 -51l-153 -127q20 0 49 -6q78 -16 123 -71t45 -152q0 -126 -89 -197.5 t-247 -71.5q-181 0 -313 103q-31 25 -5 57zM405 14.5q-7 14.5 5 34.5l862 1389q16 26 49 26h192q24 0 31.5 -14.5t-4.5 -34.5l-862 -1388q-16 -27 -49 -27h-193q-24 0 -31 14.5zM1227 240q0 64 31.5 112t87.5 68q-44 26 -69.5 68.5t-25.5 89.5q0 106 81.5 165.5t226.5 61.5 q145 0 226 -60t81 -167q0 -47 -25 -89.5t-69 -68.5q56 -19 87 -66.5t31 -113.5q0 -118 -87 -184t-244 -66t-244.5 66t-87.5 184zM1462 248q0 -66 97 -66q96 0 96 66q0 65 -96 65q-97 0 -97 -65zM1470 557q0 -68 89 -68q88 0 88 68q0 61 -88 61q-89 0 -89 -61z" />
<glyph unicode="&#x215d;" horiz-adv-x="1853" d="M74 1057l20 368q3 39 41 39h498q41 0 41 -41v-129q0 -41 -41 -41h-328l-4 -82q43 13 115 13q301 0 301 -256q0 -133 -89 -201t-261 -68q-179 0 -289 89q-29 23 -2 57l69 96q24 30 58 6q75 -35 166 -35q47 0 71.5 19t24.5 53q0 36 -23 56t-67 20q-59 0 -103 -23 q-29 -13 -53 -8l-110 21q-38 6 -35 47zM349.5 14.5q-7.5 14.5 4.5 34.5l863 1389q16 26 49 26h192q24 0 31.5 -14.5t-4.5 -34.5l-862 -1388q-16 -27 -50 -27h-192q-24 0 -31.5 14.5zM1135 240q0 64 31 112t87 68q-44 26 -69 68.5t-25 89.5q0 106 81 165.5t226 61.5 q145 0 226.5 -60t81.5 -167q0 -47 -25.5 -89.5t-69.5 -68.5q56 -19 87.5 -66.5t31.5 -113.5q0 -118 -87.5 -184t-244.5 -66t-244 66t-87 184zM1370 248q0 -66 96 -66q97 0 97 66q0 65 -97 65q-96 0 -96 -65zM1378 557q0 -68 88 -68t88 68q0 61 -88 61t-88 -61z" />
<glyph unicode="&#x215e;" horiz-adv-x="1808" d="M53 1278v145q0 41 41 41h545q41 0 41 -41v-98q0 -31 -10 -51l-250 -574q-12 -30 -49 -30h-178q-23 0 -32.5 12.5t-0.5 34.5l227 520h-293q-41 0 -41 41zM253.5 14.5q-7.5 14.5 4.5 34.5l862 1389q16 26 49 26h193q24 0 31.5 -14.5t-4.5 -34.5l-863 -1388q-16 -27 -49 -27 h-192q-24 0 -31.5 14.5zM1085 240q0 64 31.5 112t87.5 68q-44 26 -69 68.5t-25 89.5q0 106 81 165.5t226 61.5q145 0 226 -60t81 -167q0 -47 -25 -89.5t-69 -68.5q56 -19 87.5 -66.5t31.5 -113.5q0 -118 -87.5 -184t-244.5 -66t-244.5 66t-87.5 184zM1321 248q0 -66 96 -66 t96 66q0 65 -96 65t-96 -65zM1329 557q0 -68 88 -68t88 68q0 61 -88 61t-88 -61z" />
<glyph unicode="&#x2190;" horiz-adv-x="1359" d="M78 637v147q0 27 20 50l338 356q30 30 58 2l124 -125q28 -29 0 -57l-145 -146h774q41 0 41 -41v-225q0 -41 -41 -41h-774l145 -145q29 -29 0 -58l-124 -125q-28 -28 -58 2l-338 357q-20 23 -20 49z" />
<glyph unicode="&#x2191;" horiz-adv-x="1083" d="M61 899q-27 27 2 57l357 338q21 21 49 21h147q29 0 50 -21l356 -338q30 -30 2 -57l-125 -125q-29 -28 -57 0l-146 146v-775q0 -41 -41 -41h-225q-41 0 -41 41v775l-145 -146q-29 -29 -58 0z" />
<glyph unicode="&#x2192;" horiz-adv-x="1359" d="M72 598v225q0 41 41 41h774l-146 146q-29 28 0 57l125 125q28 28 58 -2l338 -356q20 -23 20 -50v-147q0 -26 -20 -49l-338 -357q-30 -30 -58 -2l-125 125q-29 29 0 58l146 145h-774q-41 0 -41 41z" />
<glyph unicode="&#x2193;" horiz-adv-x="1083" d="M61 520l125 125q29 29 58 0l145 -145v774q0 41 41 41h225q41 0 41 -41v-774l146 145q28 29 57 0l125 -125q28 -28 -2 -57l-356 -338q-21 -21 -50 -21h-147q-28 0 -49 21l-357 338q-29 29 -2 57z" />
<glyph unicode="&#x2196;" horiz-adv-x="1191" d="M94 545v491q0 28 21 49l112 113q21 21 49 21h494q41 0 41 -41v-170q0 -41 -41 -41h-207l549 -547q29 -29 0 -58l-160 -159q-28 -29 -57 0l-549 547v-205q0 -41 -41 -41h-170q-41 0 -41 41z" />
<glyph unicode="&#x2197;" horiz-adv-x="1191" d="M80 362q-29 29 0 58l549 547h-207q-41 0 -41 41v170q0 41 41 41h493q29 0 50 -21l112 -113q21 -21 21 -49v-491q0 -41 -41 -41h-170q-41 0 -41 41v205l-549 -547q-29 -29 -57 0z" />
<glyph unicode="&#x2198;" horiz-adv-x="1189" d="M78 973q-28 29 0 57l160 160q28 28 57 0l549 -547v205q0 41 41 41h170q41 0 41 -41v-492q0 -28 -21 -49l-112 -112q-21 -21 -50 -21h-493q-41 0 -41 41v170q0 41 41 41h207z" />
<glyph unicode="&#x2199;" horiz-adv-x="1189" d="M94 356v492q0 41 41 41h170q41 0 41 -41v-205l549 547q29 28 57 0l160 -160q28 -28 0 -57l-549 -547h207q41 0 41 -41v-170q0 -41 -41 -41h-494q-28 0 -49 21l-112 112q-21 21 -21 49z" />
<glyph unicode="&#x2202;" horiz-adv-x="1112" d="M61 489q0 210 114.5 346t293.5 136q125 0 219 -72q-18 69 -48 119t-82.5 90.5t-134 62t-194.5 25.5q-43 0 -43 41v215q0 41 41 41q419 -9 614 -214.5t195 -649.5v-82q0 -278 -129 -422.5t-356 -144.5q-217 0 -353.5 138.5t-136.5 370.5zM432 479q0 -85 30.5 -130.5 t88.5 -45.5q117 0 117 176q0 168 -117 168q-119 0 -119 -168z" />
<glyph unicode="&#x220f;" horiz-adv-x="1351" d="M129 -244v1729q0 41 41 41h1012q41 0 41 -41v-1729q0 -41 -41 -41h-318q-41 0 -41 41v1411h-295v-1411q0 -41 -41 -41h-317q-41 0 -41 41z" />
<glyph unicode="&#x2211;" d="M66 -68q0 25 14 50l385 624l-385 654q-14 25 -14 49v176q0 41 40 41h928q41 0 41 -41v-244q0 -41 -41 -41h-489l258 -459q12 -24 12 -51v-168q0 -24 -14 -49l-256 -432h489q41 0 41 -41v-244q0 -41 -41 -41h-928q-40 0 -40 41v176z" />
<glyph unicode="&#x221a;" horiz-adv-x="1232" d="M25 567v248q0 41 41 41h352q39 0 47 -35l86 -307q14 -51 34 -159t23 -146h10q7 89 44 274l210 1006q6 37 46 37h268q22 0 32 -12.5t5 -32.5l-420 -1731q-9 -35 -45 -35h-287q-36 0 -45 35l-240 776h-120q-41 0 -41 41z" />
<glyph unicode="&#x221e;" horiz-adv-x="1519" d="M78 666q0 93 32 169.5t84 123.5t115.5 72.5t130.5 25.5q186 0 320 -183q134 183 319 183q67 0 130.5 -25.5t116 -72.5t84.5 -123.5t32 -169.5t-32 -169.5t-84.5 -124t-116 -73t-130.5 -25.5q-185 0 -319 183q-134 -183 -320 -183q-67 0 -130.5 25.5t-115.5 73t-84 124 t-32 169.5zM344 666q0 -62 31 -89.5t76 -27.5q12 0 24.5 3t22 6.5t22.5 13t19.5 14t20.5 19t18 19t19.5 22t18.5 20.5q-3 3 -16.5 18.5t-17.5 19.5t-16 17t-17.5 17t-17 13.5t-19 13t-18.5 9t-21.5 7t-21.5 1.5q-45 0 -76 -27t-31 -89zM903 666q3 -3 16.5 -18.5t17.5 -19.5 t16.5 -17t18 -17.5t17 -14t19 -13t18.5 -9t21.5 -7t21.5 -1.5q45 0 76 27.5t31 89.5t-31 89t-76 27q-10 0 -20 -2t-18 -4t-18.5 -8.5t-16.5 -9.5t-17 -13t-15 -13.5t-15.5 -16t-14.5 -15.5t-16 -17.5t-15 -16.5z" />
<glyph unicode="&#x222b;" horiz-adv-x="884" d="M20 -4q0 41 43 41q27 -2 60 -2q74 0 107.5 38t33.5 97v909q0 117 35 207.5t96 145.5t138.5 82.5t168.5 27.5q58 0 123 -6q39 -3 39 -43v-244q0 -42 -43 -39q-27 2 -57 2q-76 0 -109.5 -38.5t-33.5 -96.5v-909q0 -118 -35 -209t-96.5 -146t-138.5 -82.5t-167 -27.5 q-61 0 -125 6q-39 3 -39 43v244z" />
<glyph unicode="&#x2248;" horiz-adv-x="1331" d="M129 504q111 162 313 162q42 0 84.5 -9t69.5 -19t70 -28q110 -47 170 -47q75 0 125 47q32 29 57 4l176 -161q27 -27 4 -64q-59 -82 -131 -119t-168 -37q-43 0 -85.5 9t-69 19t-68.5 28q-108 47 -168 47q-79 0 -135 -49q-32 -28 -58 -2l-178 161q-26 23 -8 58zM129 950 q111 162 313 162q61 0 110.5 -14t113.5 -41q110 -47 170 -47q75 0 125 47q32 29 57 4l176 -162q27 -27 4 -63q-59 -82 -131 -119t-168 -37q-98 0 -223 55q-108 47 -168 47q-79 0 -135 -49q-32 -28 -58 -2l-178 162q-26 23 -8 57z" />
<glyph unicode="&#x2260;" horiz-adv-x="1331" d="M145 299v270q0 41 41 41h248l58 123h-306q-41 0 -41 41v270q0 41 41 41h467l58 125q13 31 47 31h246q23 0 31 -12.5t-1 -34.5l-49 -109h160q41 0 41 -41v-270q0 -41 -41 -41h-322l-57 -123h379q41 0 41 -41v-270q0 -41 -41 -41h-541l-53 -115q-13 -30 -47 -30h-246 q-23 0 -31.5 13.5t0.5 35.5l45 96h-86q-41 0 -41 41z" />
<glyph unicode="&#x2264;" horiz-adv-x="1331" d="M133 63v213q0 41 41 41h952q41 0 41 -41v-213q0 -40 -41 -40h-952q-41 0 -41 40zM133 811v131q0 33 33 47l954 391q22 9 34.5 1t12.5 -31v-260q0 -35 -32 -46l-517 -167l517 -168q32 -11 32 -45v-258q0 -23 -12.5 -32.5t-34.5 -0.5l-954 391q-33 13 -33 47z" />
<glyph unicode="&#x2265;" horiz-adv-x="1331" d="M164 63v213q0 41 41 41h952q41 0 41 -41v-213q0 -40 -41 -40h-952q-41 0 -41 40zM164 406v258q0 34 33 45l516 168l-516 167q-33 11 -33 46v260q0 23 12.5 31t34.5 -1l954 -391q33 -13 33 -47v-131q0 -34 -33 -47l-954 -391q-22 -9 -34.5 0.5t-12.5 32.5z" />
<glyph unicode="&#x25ca;" horiz-adv-x="1232" d="M55 705q-16 29 0 57l398 674q16 28 49 28h229q33 0 49 -28l398 -674q16 -28 0 -57l-398 -676q-16 -29 -49 -29h-229q-33 0 -49 29zM424 733l192 -338l193 338l-193 344z" />
<glyph unicode="&#x25fc;" horiz-adv-x="1064" d="M0 0v1065h1065v-1065h-1065z" />
<glyph horiz-adv-x="579" d="M100 41v987q0 41 41 41h297q41 0 41 -41v-987q0 -41 -41 -41h-297q-41 0 -41 41zM109 1395q0 82 50.5 131t133.5 49q80 0 130 -49.5t50 -130.5q0 -77 -50.5 -129t-129.5 -52q-82 0 -133 51.5t-51 129.5z" />
<glyph d="M70 422v207q0 217 136.5 343t364.5 126q92 0 213 -21.5t232 -56.5q33 -9 33 -45v-934q0 -41 -41 -41h-197q-36 0 -47 33l-19 57q-42 -55 -120 -87t-168 -32q-172 0 -279.5 123t-107.5 328zM455 410q0 -109 102 -109q74 0 113 39v410q-51 14 -99 14q-56 0 -86 -30.5 t-30 -88.5v-235z" />
<glyph d="M70 422v207q0 217 136.5 343t364.5 126q92 0 213 -21.5t232 -56.5q33 -9 33 -45v-934q0 -41 -41 -41h-197q-36 0 -47 33l-19 57q-42 -55 -120 -87t-168 -32q-172 0 -279.5 123t-107.5 328zM393 1222.5q-8 14.5 6 34.5l172 265q17 26 50 26h274q26 0 33 -15.5t-10 -35.5 l-228 -266q-20 -23 -51 -23h-213q-25 0 -33 14.5zM455 410q0 -109 102 -109q74 0 113 39v410q-51 14 -99 14q-56 0 -86 -30.5t-30 -88.5v-235z" />
<glyph d="M70 422v207q0 217 136.5 343t364.5 126q92 0 213 -21.5t232 -56.5q33 -9 33 -45v-934q0 -41 -41 -41h-197q-36 0 -47 33l-19 57q-42 -55 -120 -87t-168 -32q-172 0 -279.5 123t-107.5 328zM231 1473q-6 38 35 45l183 32q35 6 47 -32q21 -64 94 -64t94 64q12 38 47 32 l182 -32q41 -7 35 -41q-17 -134 -110 -207.5t-248 -73.5q-154 0 -247 72.5t-112 204.5zM455 410q0 -109 102 -109q74 0 113 39v410q-51 14 -99 14q-56 0 -86 -30.5t-30 -88.5v-235z" />
<glyph d="M70 422v207q0 217 136.5 343t364.5 126q92 0 213 -21.5t232 -56.5q33 -9 33 -45v-934q0 -41 -41 -41h-197q-36 0 -47 33l-19 57q-42 -55 -120 -87t-168 -32q-172 0 -279.5 123t-107.5 328zM215 1224q-7 16 10 36l230 266q19 22 51 22h180q32 0 51 -22l226 -266 q17 -20 10 -36t-33 -16h-211q-30 0 -49 25l-84 110l-88 -110q-19 -25 -49 -25h-211q-26 0 -33 16zM455 410q0 -109 102 -109q74 0 113 39v410q-51 14 -99 14q-56 0 -86 -30.5t-30 -88.5v-235z" />
<glyph d="M70 422v207q0 217 136.5 343t364.5 126q92 0 213 -21.5t232 -56.5q33 -9 33 -45v-934q0 -41 -41 -41h-197q-36 0 -47 33l-19 57q-42 -55 -120 -87t-168 -32q-172 0 -279.5 123t-107.5 328zM180 1376q0 83 48.5 129.5t127.5 46.5q78 0 125 -45.5t47 -128.5q0 -82 -47 -128 t-125 -46q-79 0 -127.5 45.5t-48.5 126.5zM455 410q0 -109 102 -109q74 0 113 39v410q-51 14 -99 14q-56 0 -86 -30.5t-30 -88.5v-235zM657 1378q0 83 49 128.5t128 45.5q78 0 125 -45.5t47 -128.5q0 -82 -47 -128t-125 -46q-79 0 -128 46.5t-49 127.5z" />
<glyph d="M70 422v207q0 217 136.5 343t364.5 126q92 0 213 -21.5t232 -56.5q33 -9 33 -45v-934q0 -41 -41 -41h-197q-36 0 -47 33l-19 57q-42 -55 -120 -87t-168 -32q-172 0 -279.5 123t-107.5 328zM252 1532.5q7 15.5 33 15.5h274q32 0 49 -26l172 -265q14 -20 6.5 -34.5 t-32.5 -14.5h-213q-32 0 -52 23l-227 266q-17 20 -10 35.5zM455 410q0 -109 102 -109q74 0 113 39v410q-51 14 -99 14q-56 0 -86 -30.5t-30 -88.5v-235z" />
<glyph d="M70 422v207q0 217 136.5 343t364.5 126q92 0 213 -21.5t232 -56.5q33 -9 33 -45v-934q0 -41 -41 -41h-197q-36 0 -47 33l-19 57q-42 -55 -120 -87t-168 -32q-172 0 -279.5 123t-107.5 328zM260 1270v164q0 41 41 41h584q41 0 41 -41v-164q0 -41 -41 -41h-584 q-41 0 -41 41zM455 410q0 -109 102 -109q74 0 113 39v410q-51 14 -99 14q-56 0 -86 -30.5t-30 -88.5v-235z" />
<glyph d="M70 422v207q0 217 136.5 343t364.5 126q92 0 213 -21.5t232 -56.5q33 -9 33 -45v-934q0 -22 -9 -31t-30 -14q-46 -13 -71.5 -44.5t-25.5 -70.5q0 -61 60 -61q17 0 61 12q41 12 51 -25l35 -120q8 -37 -20 -54q-37 -23 -109.5 -39t-144.5 -16q-118 0 -180 46t-62 126 q0 71 45 140t133 114l-37 86q-43 -54 -120.5 -85.5t-165.5 -31.5q-173 0 -281 122.5t-108 326.5zM455 410q0 -107 104 -107q71 0 111 37v410q-51 14 -95 14q-120 0 -120 -119v-235z" />
<glyph d="M70 422v207q0 217 136.5 343t364.5 126q92 0 213 -21.5t232 -56.5q33 -9 33 -45v-934q0 -41 -41 -41h-197q-36 0 -47 33l-19 57q-42 -55 -120 -87t-168 -32q-172 0 -279.5 123t-107.5 328zM315 1442q0 110 77 179t202 69t201.5 -69t76.5 -179q0 -113 -76 -181.5 t-202 -68.5t-202.5 68.5t-76.5 181.5zM455 410q0 -109 102 -109q74 0 113 39v410q-51 14 -99 14q-56 0 -86 -30.5t-30 -88.5v-235zM504 1442q0 -38 25 -61t65 -23q43 0 66.5 22.5t23.5 61.5q0 82 -90 82q-41 0 -65.5 -21.5t-24.5 -60.5z" />
<glyph d="M70 422v207q0 217 136.5 343t364.5 126q92 0 213 -21.5t232 -56.5q33 -9 33 -45v-934q0 -41 -41 -41h-197q-36 0 -47 33l-19 57q-42 -55 -120 -87t-168 -32q-172 0 -279.5 123t-107.5 328zM174 1339q31 84 93.5 152t146.5 68q11 0 23 -1.5t22 -3.5t23.5 -7t21 -7.5 t22 -9.5t20 -9.5t21 -10t19.5 -9.5q85 -45 114 -45q33 0 70 62q23 33 55 16l152 -78q33 -17 24 -45q-32 -88 -95 -157.5t-146 -69.5q-26 0 -61.5 11.5t-50.5 18.5t-60 29q-81 43 -109 43q-39 0 -78 -61q-21 -35 -55 -17l-151 78q-36 19 -21 53zM455 410q0 -109 102 -109 q74 0 113 39v410q-51 14 -99 14q-56 0 -86 -30.5t-30 -88.5v-235z" />
<glyph horiz-adv-x="1697" d="M70 422v207q0 216 138 342.5t363 126.5q166 0 297 -101q135 101 314 101q97 0 177.5 -26t142.5 -78.5t97 -140t35 -202.5v-188q0 -41 -41 -41h-557v-51q18 -90 170 -90q127 0 219 57q34 21 56 -10l123 -168q11 -23 8.5 -33t-15.5 -25q-55 -59 -155.5 -95t-196.5 -36 q-169 0 -268 121l-12 -51q-5 -22 -13.5 -31.5t-27.5 -9.5h-142q-38 0 -47 33l-16 59q-94 -121 -279 -121q-180 0 -275 120t-95 331zM455 410q0 -51 29 -79t81 -28q62 0 94 37v399q-45 25 -84 25q-57 0 -88.5 -30.5t-31.5 -88.5v-235zM1040 641h230v33q0 58 -29.5 88.5 t-85.5 30.5q-78 0 -115 -54v-98z" />
<glyph horiz-adv-x="1515" d="M43 -227v559q0 41 41 41h84l317 1057q9 34 45 34h455q36 0 45 -34l318 -1057h84q41 0 41 -41v-559q0 -41 -41 -41h-297q-41 0 -41 41v227h-672v-227q0 -41 -41 -41h-297q-41 0 -41 41zM584 373h348l-170 676h-8z" />
<glyph horiz-adv-x="1417" d="M6 47l467 1385q11 32 45 32h381q34 0 45 -32l467 -1385q7 -22 -2 -34.5t-31 -12.5h-342q-36 0 -45 35l-170 555q-44 145 -106 420h-13q-62 -275 -106 -420l-170 -555q-9 -35 -45 -35h-342q-22 0 -31 12.5t-2 34.5z" />
<glyph horiz-adv-x="1142" d="M100 84v928q0 234 117.5 357.5t341.5 123.5q221 0 345 -115.5t124 -312.5q0 -177 -135 -285q86 -49 137 -137t51 -213q0 -216 -126 -337.5t-365 -121.5q-88 0 -212.5 17t-242.5 49q-35 8 -35 47zM477 307q46 -8 80 -8q73 0 107 38.5t34 117.5q0 71 -26.5 105t-83.5 34 q-37 0 -111 -12v-275zM477 877q62 3 88 12q84 26 84 160q0 61 -20.5 88.5t-63.5 27.5q-88 0 -88 -110v-178z" />
<glyph horiz-adv-x="1021" d="M45 303q0 78 25.5 137t78.5 102.5t117 73.5t158 60q72 22 107.5 41t35.5 41q0 39 -82 39q-131 0 -249 -70q-41 -23 -56 16l-84 189q-15 37 15 55q76 48 184 79.5t219 31.5q210 0 320 -86.5t110 -251.5q0 -62 -17.5 -110.5t-46 -83t-79.5 -65.5t-103 -52.5t-133 -49.5 q-74 -25 -104.5 -41.5t-30.5 -35.5q0 -43 76 -43q63 0 149.5 28t163.5 72q37 21 55 -17l99 -202q17 -34 -4 -49q-83 -64 -217 -102t-277 -38q-211 0 -320.5 85t-109.5 247z" />
<glyph horiz-adv-x="1144" d="M70 473v150q0 229 138 352t365 123q225 0 441 -82q33 -11 33 -47v-838q0 -291 -122.5 -420t-394.5 -129q-131 0 -226.5 23t-182.5 76q-33 23 -12 57l127 201q19 31 55 14q100 -49 217 -49q85 0 125.5 31.5t40.5 107.5q-70 -18 -158 -18q-209 0 -327.5 122t-118.5 326z M453 467q0 -125 120 -125q62 0 95 23v383q-32 16 -95 16q-61 0 -90.5 -31.5t-29.5 -97.5v-168z" />
<glyph horiz-adv-x="1605" d="M14 13.5q-8 13.5 2 35.5l312 572l-277 399q-13 22 -5.5 35.5t32.5 13.5h330q32 0 47 -31l10 -18q78 -141 156 -318v721q0 41 41 41h282q41 0 41 -41v-721q78 177 156 318l10 18q15 31 47 31h330q25 0 32 -13.5t-6 -35.5l-276 -399l311 -572q11 -22 3 -35.5t-31 -13.5 h-340q-36 0 -47 31l-138 327l-51 -61v-256q0 -41 -41 -41h-282q-41 0 -41 41v256l-52 61l-137 -327q-11 -31 -47 -31h-340q-23 0 -31 13.5z" />
<glyph horiz-adv-x="1150" d="M88 459v569q0 41 41 41h299q41 0 41 -41v-575q0 -82 27.5 -115t85.5 -33q60 0 92 14v709q0 41 41 41h297q41 0 41 -41v-926q0 -35 -31 -47q-96 -38 -214.5 -61t-225.5 -23q-245 0 -369.5 130.5t-124.5 357.5z" />
<glyph horiz-adv-x="1150" d="M88 459v569q0 41 41 41h299q41 0 41 -41v-575q0 -82 27.5 -115t85.5 -33q60 0 92 14v709q0 41 41 41h297q41 0 41 -41v-926q0 -35 -31 -47q-96 -38 -214.5 -61t-225.5 -23q-245 0 -369.5 130.5t-124.5 357.5zM215 1460q-6 38 35 45l182 33q35 6 47 -33q21 -63 94 -63 q74 0 95 63q12 39 47 33l182 -33q41 -7 35 -41q-17 -134 -110.5 -207t-248.5 -73q-154 0 -246.5 72t-111.5 204z" />
<glyph horiz-adv-x="1150" d="M88 459v569q0 41 41 41h299q41 0 41 -41v-575q0 -82 27.5 -115t85.5 -33q60 0 92 14v709q0 41 41 41h297q41 0 41 -41v-926q0 -35 -31 -47q-96 -38 -214.5 -61t-225.5 -23q-245 0 -369.5 130.5t-124.5 357.5zM237.5 1520.5q6.5 15.5 32.5 15.5h275q31 0 49 -27l172 -264 q14 -20 6 -34.5t-33 -14.5h-213q-31 0 -51 23l-227 266q-17 20 -10.5 35.5z" />
<glyph horiz-adv-x="1112" d="M100 41v1382q0 41 41 41h291q41 0 41 -41v-675l176 292q16 29 49 29h344q26 0 33 -14.5t-8 -34.5l-305 -393l350 -578q12 -22 5 -35.5t-32 -13.5h-350q-35 0 -49 29l-168 321l-45 -47v-262q0 -41 -41 -41h-291q-41 0 -41 41z" />
<glyph horiz-adv-x="1128" d="M10 47l330 989q11 33 45 33h350q36 0 47 -33l336 -989q7 -22 -2 -34.5t-31 -12.5h-317q-36 0 -45 35l-94 387q-45 179 -64 262h-8q-26 -128 -61 -262l-90 -387q-9 -35 -46 -35h-317q-22 0 -31 12.5t-2 34.5z" />
<glyph horiz-adv-x="1161" d="M98 41v926q0 35 31 47q97 38 217.5 61t228.5 23q247 0 372.5 -130.5t125.5 -357.5v-569q0 -41 -41 -41h-299q-41 0 -41 41v575q0 82 -28.5 115t-88.5 33q-58 0 -98 -12v-711q0 -41 -41 -41h-297q-41 0 -41 41z" />
<glyph horiz-adv-x="1681" d="M98 41v926q0 33 31 49q93 37 207.5 59.5t216.5 22.5q140 0 262 -80q93 41 163 60.5t144 19.5q215 0 343 -122.5t128 -336.5v-598q0 -41 -41 -41h-290q-41 0 -41 41v608q0 55 -29 85t-84 30q-46 0 -90 -16q14 -49 14 -105v-602q0 -41 -41 -41h-291q-41 0 -41 41v608 q0 115 -102 115q-48 0 -86 -14v-709q0 -41 -41 -41h-291q-41 0 -41 41z" />
<glyph horiz-adv-x="1224" d="M88 432v596q0 41 41 41h297q41 0 41 -41v-598q0 -125 111 -125q48 0 88 12v711q0 41 41 41h294q41 0 41 -41v-700h86q41 0 41 -41v-514q0 -41 -41 -41h-266q-41 0 -41 41v227q-126 -29 -241 -29q-241 0 -366.5 118.5t-125.5 342.5z" />
<glyph horiz-adv-x="1681" d="M88 430v598q0 41 41 41h291q41 0 41 -41v-608q0 -55 28.5 -85t83.5 -30q44 0 91 17q-15 52 -15 104v602q0 41 41 41h291q41 0 41 -41v-608q0 -115 102 -115q48 0 86 14v709q0 41 41 41h291q41 0 41 -41v-926q0 -34 -31 -49q-93 -37 -207.5 -59.5t-216.5 -22.5 q-140 0 -262 80q-93 -41 -163 -60.5t-144 -19.5q-215 0 -343 122.5t-128 336.5z" />
<glyph horiz-adv-x="1746" d="M88 446v582q0 41 41 41h291q41 0 41 -41v-600q0 -60 31 -91.5t88 -31.5q39 0 77 14q-16 41 -16 105v604q0 41 41 41h289q41 0 41 -41v-600q0 -60 28.5 -91.5t79.5 -31.5q40 0 72 12v711q0 41 41 41h291q41 0 41 -41v-700h86q41 0 41 -41v-514q0 -41 -41 -41h-267 q-41 0 -41 41v227q-122 -29 -217 -29q-143 0 -274 76q-98 -42 -159.5 -59t-137.5 -17q-215 0 -341 125t-126 350z" />
<glyph horiz-adv-x="1087" d="M98 94v934q0 41 41 41h295q41 0 41 -41v-301q94 12 170 12q190 0 300 -101.5t110 -264.5q0 -175 -127 -288.5t-344 -113.5q-238 0 -453 76q-33 11 -33 47zM475 293q32 -14 90 -14q52 0 79.5 24.5t27.5 69.5q0 38 -26.5 59t-74.5 21q-52 0 -96 -13v-147z" />
<glyph horiz-adv-x="1259" d="M29 797v231q0 41 41 41h540q41 0 41 -41v-301q94 12 170 12q190 0 300 -101.5t110 -264.5q0 -175 -127 -288.5t-344 -113.5q-238 0 -453 76q-33 11 -33 47v662h-204q-41 0 -41 41zM651 293q32 -14 90 -14q52 0 79.5 24.5t27.5 69.5q0 38 -26.5 59t-73.5 21q-53 0 -97 -13 v-147z" />
<glyph horiz-adv-x="1628" d="M100 41v1382q0 41 41 41h287q41 0 41 -41v-716h109q19 188 145.5 289.5t341.5 101.5q232 0 361.5 -119.5t129.5 -335.5v-217q0 -215 -130 -335t-361 -120q-213 0 -340 101t-147 286h-109v-317q0 -41 -41 -41h-287q-41 0 -41 41zM950 432q0 -63 29.5 -96t85.5 -33t85.5 33 t29.5 96v205q0 63 -29.5 96t-85.5 33t-85.5 -33t-29.5 -96v-205z" />
<glyph d="M70 422v207q0 217 136.5 343t364.5 126q92 0 213 -21.5t232 -56.5q33 -9 33 -45v-934q0 -41 -41 -41h-197q-36 0 -47 33l-19 57q-42 -55 -120 -87t-168 -32q-172 0 -279.5 123t-107.5 328zM455 410q0 -109 102 -109q74 0 113 39v410q-51 14 -99 14q-56 0 -86 -30.5 t-30 -88.5v-235z" />
<glyph horiz-adv-x="1331" d="M115 532v408q0 261 145.5 407t405.5 146t405.5 -146t145.5 -407v-408q0 -265 -145.5 -413t-405.5 -148t-405.5 148t-145.5 413zM498 514q0 -178 168 -178t168 178v442q0 177 -168 177t-168 -177v-442z" />
<glyph horiz-adv-x="1331" d="M154 1124q-21 30 12 56l362 268q21 16 52 16h266q41 0 41 -41v-1095h299q41 0 41 -41v-246q0 -41 -41 -41h-989q-41 0 -41 41v246q0 41 41 41h305v680l-150 -113q-35 -28 -57 10z" />
<glyph horiz-adv-x="1331" d="M125 41v227q0 31 20 51l267 259q226 220 294 303t68 153q0 107 -137 107q-125 0 -256 -121q-33 -33 -57 2l-154 205q-22 31 4 57q212 209 485 209q235 0 368.5 -117.5t133.5 -328.5q0 -107 -42.5 -196t-145.5 -208q-121 -143 -301 -299h473q41 0 41 -41v-262 q0 -41 -41 -41h-979q-41 0 -41 41z" />
<glyph horiz-adv-x="1331" d="M117 137q-23 20 0 58l141 219q9 12 24.5 11t32.5 -11q72 -43 139 -64.5t164 -21.5q94 0 139.5 41.5t45.5 128.5q0 151 -193 151q-64 0 -141 -22q-36 -11 -51 24l-60 137q-13 32 13 58l284 270h-434q-41 0 -41 41v266q0 41 41 41h871q41 0 41 -41v-217q0 -28 -23 -51 l-299 -278v-5q164 7 273.5 -110t109.5 -287q0 -248 -148 -376t-428 -128q-301 0 -501 166z" />
<glyph horiz-adv-x="1331" d="M72 264v217q0 24 12 51l453 902q15 30 47 30h334q23 0 31 -13.5t-3 -35.5l-422 -856h199l45 242q6 37 43 37h254q41 0 41 -41v-238h113q41 0 41 -41v-254q0 -41 -41 -41h-113v-182q0 -41 -41 -41h-301q-41 0 -41 41v182h-610q-41 0 -41 41z" />
<glyph horiz-adv-x="1331" d="M141 143q-24 27 0 58l140 209q20 25 59 4q69 -42 149 -65t148 -23q105 0 154 44t49 136q0 70 -50.5 106.5t-140.5 36.5q-123 0 -223 -53q-31 -15 -55 -8l-174 55q-33 11 -33 47l26 733q0 19 12 30t31 11h844q41 0 41 -41v-270q0 -41 -41 -41h-532l-10 -215q24 19 86.5 36 t123.5 17q219 0 347.5 -127.5t128.5 -335.5q0 -239 -153 -377.5t-413 -138.5q-328 0 -514 172z" />
</font>
</defs>
</svg>
