<?xml version="1.0" encoding="utf-8"?>
<!-- Generator: Adobe Illustrator 15.1.0, SVG Export Plug-In  -->
<!DOCTYPE svg PUBLIC "-//W3C//DTD SVG 1.1//EN" "http://www.w3.org/Graphics/SVG/1.1/DTD/svg11.dtd" [
	<!ENTITY ns_flows "http://ns.adobe.com/Flows/1.0/">
]>
<svg version="1.1"
	 xmlns="http://www.w3.org/2000/svg" xmlns:xlink="http://www.w3.org/1999/xlink" xmlns:a="http://ns.adobe.com/AdobeSVGViewerExtensions/3.0/"
	 x="0px" y="0px" width="30px" height="1400px" viewBox="-1 -7.558 30 1400"
	 overflow="visible" enable-background="new -1 -7.558 30 1400" xml:space="preserve">
<defs>
</defs>
<circle fill-rule="evenodd" clip-rule="evenodd" fill="#FFFFFF" cx="11.607" cy="1211.6" r="11.601"/>
<circle fill-rule="evenodd" clip-rule="evenodd" fill="#FFFFFF" cx="11.602" cy="1011.6" r="11.601"/>
<circle fill-rule="evenodd" clip-rule="evenodd" fill="#FFFFFF" cx="11.602" cy="811.6" r="11.601"/>
<circle fill-rule="evenodd" clip-rule="evenodd" fill="#FFFFFF" cx="11.602" cy="611.6" r="11.601"/>
<circle fill-rule="evenodd" clip-rule="evenodd" fill="#FFFFFF" cx="11.602" cy="411.607" r="11.601"/>
<circle fill-rule="evenodd" clip-rule="evenodd" fill="#FFFFFF" cx="11.601" cy="211.601" r="11.601"/>
<circle fill-rule="evenodd" clip-rule="evenodd" fill="#FFFFFF" cx="11.601" cy="11.601" r="11.601"/>
<path opacity="0.4" fill-rule="evenodd" clip-rule="evenodd" fill="#878787" d="M16.158,1214.267c0-2.03,0-1.829,0-3.721H14.68
	c-0.009-1.258,0.136-2.504-0.331-3.374c-0.381-0.705-1.144-1.398-1.903-1.609c-1.563-0.432-3.006,0.562-3.583,1.634
	c-0.459,0.853-0.324,2.092-0.332,3.35c-0.468,0-0.946,0-1.453,0c0,0.801,0,1.384,0,2.904c0,2.025-0.289,3.122,1.067,3.555
	c0.917,0.293,2.585,0.066,3.631,0.066c1.063,0,2.709,0.234,3.56-0.066C16.245,1216.683,16.158,1215.542,16.158,1214.267z
	 M13.27,1210.546c-0.637,0-1.264,0-1.894,0c-0.508,0-1.024,0-1.55,0c-0.055-1.798-0.089-3.343,1.284-3.682
	c0.862-0.213,1.734,0.252,2.04,1.094C13.397,1208.641,13.243,1209.542,13.27,1210.546z"/>
<path fill-rule="evenodd" clip-rule="evenodd" fill="#9A9999" d="M11.601,0C5.194,0,0,5.194,0,11.601s5.194,11.6,11.601,11.6
	c6.408,0,11.601-5.193,11.601-11.6S18.008,0,11.601,0z M11.606,19.583c-4.409,0-7.983-3.574-7.983-7.982
	c0-4.409,3.574-7.983,7.983-7.983c4.409,0,7.983,3.574,7.983,7.983C19.589,16.009,16.015,19.583,11.606,19.583z"/>
<path fill-rule="evenodd" clip-rule="evenodd" fill="#9A9999" d="M11.601,400.007C5.194,400.007,0,405.201,0,411.608
	c0,6.405,5.194,11.601,11.601,11.601c6.408,0,11.601-5.195,11.601-11.601C23.201,405.201,18.008,400.007,11.601,400.007z
	 M11.606,419.591c-4.409,0-7.983-3.575-7.983-7.983c0-4.409,3.574-7.983,7.983-7.983c4.409,0,7.983,3.574,7.983,7.983
	C19.589,416.016,16.015,419.591,11.606,419.591z"/>
<path fill-rule="evenodd" clip-rule="evenodd" fill="#9A9999" d="M11.601,600C5.194,600,0,605.192,0,611.601
	c0,6.406,5.194,11.601,11.601,11.601c6.408,0,11.601-5.194,11.601-11.601C23.201,605.192,18.008,600,11.601,600z M11.606,619.583
	c-4.409,0-7.983-3.572-7.983-7.981c0-4.41,3.574-7.983,7.983-7.983c4.409,0,7.983,3.573,7.983,7.983
	C19.589,616.01,16.015,619.583,11.606,619.583z"/>
<path fill-rule="evenodd" clip-rule="evenodd" fill="#9A9999" d="M11.601,800C5.194,800,0,805.194,0,811.6
	c0,6.407,5.194,11.603,11.601,11.603c6.408,0,11.601-5.195,11.601-11.603C23.201,805.194,18.008,800,11.601,800z M11.606,819.583
	c-4.409,0-7.983-3.573-7.983-7.983c0-4.407,3.574-7.983,7.983-7.983c4.409,0,7.983,3.576,7.983,7.983
	C19.589,816.01,16.015,819.583,11.606,819.583z"/>
<path fill-rule="evenodd" clip-rule="evenodd" fill="#9A9999" d="M11.601,1000C5.194,1000,0,1005.196,0,1011.601
	c0,6.407,5.194,11.603,11.601,11.603c6.408,0,11.601-5.195,11.601-11.603C23.201,1005.196,18.008,1000,11.601,1000z
	 M11.606,1019.583c-4.409,0-7.983-3.573-7.983-7.982c0-4.408,3.574-7.983,7.983-7.983c4.409,0,7.983,3.575,7.983,7.983
	C19.589,1016.01,16.015,1019.583,11.606,1019.583z"/>
<path opacity="0.5" fill-rule="evenodd" clip-rule="evenodd" fill="#878787" d="M11.601,1200C5.194,1200,0,1205.194,0,1211.602
	c0,6.406,5.194,11.601,11.601,11.601c6.408,0,11.601-5.194,11.601-11.601C23.201,1205.194,18.008,1200,11.601,1200z
	 M11.606,1219.584c-4.409,0-7.983-3.574-7.983-7.982c0-4.41,3.574-7.983,7.983-7.983c4.409,0,7.983,3.573,7.983,7.983
	C19.589,1216.01,16.015,1219.584,11.606,1219.584z"/>
<path fill-rule="evenodd" clip-rule="evenodd" fill="#9A9999" d="M11.601,200C5.194,200,0,205.193,0,211.601
	c0,6.406,5.194,11.601,11.601,11.601c6.408,0,11.601-5.195,11.601-11.601C23.201,205.193,18.008,200,11.601,200z M11.606,219.583
	c-4.409,0-7.983-3.574-7.983-7.982c0-4.409,3.574-7.984,7.983-7.984c4.409,0,7.983,3.575,7.983,7.984
	C19.589,216.009,16.015,219.583,11.606,219.583z"/>
<circle opacity="0.2" fill-rule="evenodd" clip-rule="evenodd" cx="11.601" cy="211.601" r="5.334"/>
<circle fill-rule="evenodd" clip-rule="evenodd" cx="11.601" cy="411.608" r="5.334"/>
<circle opacity="0.5" fill-rule="evenodd" clip-rule="evenodd" cx="11.601" cy="611.601" r="5.333"/>
<circle fill-rule="evenodd" clip-rule="evenodd" fill="#E30613" cx="11.601" cy="811.601" r="5.334"/>
<circle fill-rule="evenodd" clip-rule="evenodd" fill="#008D36" cx="11.601" cy="1011.602" r="5.335"/>
</svg>
