<?xml version="1.0" encoding="utf-8"?>
<!-- Generator: Adobe Illustrator 15.1.0, SVG Export Plug-In  -->
<!DOCTYPE svg PUBLIC "-//W3C//DTD SVG 1.1//EN" "http://www.w3.org/Graphics/SVG/1.1/DTD/svg11.dtd" [
	<!ENTITY ns_flows "http://ns.adobe.com/Flows/1.0/">
]>
<svg version="1.1"
	 xmlns="http://www.w3.org/2000/svg" xmlns:xlink="http://www.w3.org/1999/xlink" xmlns:a="http://ns.adobe.com/AdobeSVGViewerExtensions/3.0/"
	 x="0px" y="0px" width="30px" height="1400px" viewBox="-1 -5.964 30 1400"
	 overflow="visible" enable-background="new -1 -5.964 30 1400" xml:space="preserve">
<defs>
</defs>
<rect y="0.036" fill="#FFFFFF" width="23" height="23"/>
<path fill="#9A9999" d="M0,0v23h23V0H0z M20,20H3V3h17V20z"/>
<rect y="400.036" fill="#FFFFFF" width="23" height="23"/>
<polygon points="10.033,416.826 10.066,416.859 19.016,407.973 16.661,405.634 10.033,412.216 6.98,409.186 4.625,411.524 
	10,416.859 "/>
<path fill="#9A9999" d="M0,400.036v23h23v-23H0z M20,420.036H3v-17h17V420.036z"/>
<rect y="200.036" fill="#FFFFFF" width="23" height="23"/>
<polygon opacity="0.2" points="16.661,205.634 10.033,212.216 6.98,209.186 4.625,211.524 10,216.859 10.033,216.826 
	10.066,216.859 19.016,207.973 "/>
<path fill="#9A9999" d="M0,200.036v23h23v-23H0z M20,220.036H3v-17h17V220.036z"/>
<rect y="600.036" fill="#FFFFFF" width="23" height="23"/>
<polygon opacity="0.5" points="16.661,605.634 10.033,612.216 6.98,609.186 4.625,611.524 10,616.859 10.033,616.826 
	10.066,616.859 19.016,607.973 "/>
<path fill="#9A9999" d="M0,600.036v23h23v-23H0z M20,620.036H3v-17h17V620.036z"/>
<rect y="800.036" fill="#FFFFFF" width="23" height="23"/>
<polygon fill="#E30613" points="10.033,816.826 10.066,816.859 19.016,807.973 16.661,805.634 10.033,812.216 6.98,809.186 
	4.625,811.524 10,816.859 "/>
<path fill="#9A9999" d="M0,800.036v23h23v-23H0z M20,820.036H3v-17h17V820.036z"/>
<rect y="1000.036" fill="#FFFFFF" width="23" height="23"/>
<polygon fill="#008D36" points="10.033,1016.826 10.066,1016.859 19.016,1007.973 16.661,1005.634 10.033,1012.216 6.98,1009.186 
	4.625,1011.524 10,1016.859 "/>
<path fill="#9A9999" d="M0,1000.036v23h23v-23H0z M20,1020.036H3v-17h17V1020.036z"/>
<rect y="1200.036" fill="#FFFFFF" width="23" height="23"/>
<path opacity="0.4" fill-rule="evenodd" clip-rule="evenodd" fill="#878787" d="M16.046,1214.252c0-2.03,0-1.829,0-3.721h-1.478
	c-0.009-1.258,0.136-2.504-0.331-3.374c-0.381-0.705-1.144-1.398-1.903-1.609c-1.563-0.432-3.006,0.562-3.583,1.634
	c-0.458,0.853-0.324,2.092-0.332,3.35c-0.468,0-0.946,0-1.452,0c0,0.801,0,1.384,0,2.904c0,2.025-0.289,3.122,1.067,3.555
	c0.917,0.293,2.585,0.066,3.63,0.066c1.063,0,2.709,0.234,3.56-0.066C16.133,1216.668,16.046,1215.526,16.046,1214.252z
	 M13.158,1210.531c-0.638,0-1.265,0-1.894,0c-0.508,0-1.025,0-1.55,0c-0.055-1.798-0.09-3.343,1.283-3.682
	c0.862-0.213,1.735,0.252,2.04,1.094C13.285,1208.626,13.131,1209.527,13.158,1210.531z"/>
<path opacity="0.5" fill="#878787" d="M0,1200.036v23h23v-23H0z M20,1220.036H3v-17h17V1220.036z"/>
</svg>
