{
    "asset" : {
        "generator" : "Khronos glTF Blender I/O v1.6.16",
        "version" : "2.0"
    },
    "extensionsUsed" : [
        "KHR_materials_clearcoat"
    ],
    "scene" : 0,
    "scenes" : [
        {
            "name" : "Scene",
            "nodes" : [
                0
            ]
        }
    ],
    "nodes" : [
        {
            "mesh" : 0,
            "name" : "Cil_R_1",
            "rotation" : [
                0.6568319201469421,
                0.2469305545091629,
                -0.25126129388809204,
                0.6666820049285889
            ],
            "scale" : [
                0.20000000298023224,
                0.20000000298023224,
                0.20000000298023224
            ]
        }
    ],
    "materials" : [
        {
            "doubleSided" : true,
            "extensions" : {
                "KHR_materials_clearcoat" : {
                    "clearcoatFactor" : 0.718181848526001,
                    "clearcoatRoughnessFactor" : 0.029999999329447746
                }
            },
            "name" : "Material.001",
            "pbrMetallicRoughness" : {
                "baseColorTexture" : {
                    "index" : 0
                },
                "metallicFactor" : 0,
                "metallicRoughnessTexture" : {
                    "index" : 1
                }
            }
        },
        {
            "doubleSided" : true,
            "extensions" : {
                "KHR_materials_clearcoat" : {
                    "clearcoatFactor" : 0.6060606241226196,
                    "clearcoatRoughnessFactor" : 0.029999999329447746
                }
            },
            "name" : "Material.002",
            "pbrMetallicRoughness" : {
                "baseColorTexture" : {
                    "index" : 2
                },
                "metallicFactor" : 0.1090909093618393,
                "metallicRoughnessTexture" : {
                    "index" : 3
                }
            }
        },
        {
            "doubleSided" : true,
            "name" : "Material.005",
            "pbrMetallicRoughness" : {
                "baseColorFactor" : [
                    0.009963339194655418,
                    0.0059212143532931805,
                    0.03324597328901291,
                    1
                ],
                "metallicFactor" : 0,
                "roughnessFactor" : 0.5
            }
        }
    ],
    "meshes" : [
        {
            "name" : "Mesh.016",
            "primitives" : [
                {
                    "attributes" : {
                        "POSITION" : 0,
                        "NORMAL" : 1,
                        "TEXCOORD_0" : 2
                    },
                    "indices" : 3,
                    "material" : 0
                },
                {
                    "attributes" : {
                        "POSITION" : 4,
                        "NORMAL" : 5,
                        "TEXCOORD_0" : 6
                    },
                    "indices" : 7,
                    "material" : 1
                },
                {
                    "attributes" : {
                        "POSITION" : 8,
                        "NORMAL" : 9,
                        "TEXCOORD_0" : 10
                    },
                    "indices" : 11,
                    "material" : 2
                }
            ]
        }
    ],
    "textures" : [
        {
            "sampler" : 0,
            "source" : 0
        },
        {
            "sampler" : 0,
            "source" : 1
        },
        {
            "sampler" : 0,
            "source" : 2
        },
        {
            "sampler" : 0,
            "source" : 1
        }
    ],
    "images" : [
        {
            "bufferView" : 4,
            "mimeType" : "image/png",
            "name" : "pocrvena"
        },
        {
            "bufferView" : 5,
            "mimeType" : "image/png",
            "name" : "Plastic_roughness"
        },
        {
            "bufferView" : 10,
            "mimeType" : "image/png",
            "name" : "Plastic_albedo.tif"
        }
    ],
    "accessors" : [
        {
            "bufferView" : 0,
            "componentType" : 5126,
            "count" : 6461,
            "max" : [
                6.180466651916504,
                1.3645570278167725,
                1.6083252429962158
            ],
            "min" : [
                -6.148974418640137,
                -1.3784446716308594,
                -1.1293442249298096
            ],
            "type" : "VEC3"
        },
        {
            "bufferView" : 1,
            "componentType" : 5126,
            "count" : 6461,
            "type" : "VEC3"
        },
        {
            "bufferView" : 2,
            "componentType" : 5126,
            "count" : 6461,
            "type" : "VEC2"
        },
        {
            "bufferView" : 3,
            "componentType" : 5123,
            "count" : 36225,
            "type" : "SCALAR"
        },
        {
            "bufferView" : 6,
            "componentType" : 5126,
            "count" : 3476,
            "max" : [
                3.4909019470214844,
                1.364556908607483,
                1.6083252429962158
            ],
            "min" : [
                -2.335106611251831,
                -1.3784446716308594,
                -1.1293442249298096
            ],
            "type" : "VEC3"
        },
        {
            "bufferView" : 7,
            "componentType" : 5126,
            "count" : 3476,
            "type" : "VEC3"
        },
        {
            "bufferView" : 8,
            "componentType" : 5126,
            "count" : 3476,
            "type" : "VEC2"
        },
        {
            "bufferView" : 9,
            "componentType" : 5123,
            "count" : 18615,
            "type" : "SCALAR"
        },
        {
            "bufferView" : 11,
            "componentType" : 5126,
            "count" : 1804,
            "max" : [
                5.131752967834473,
                0.18966780602931976,
                -2.07486891746521
            ],
            "min" : [
                -5.324287414550781,
                -0.06434720009565353,
                -2.8493564128875732
            ],
            "type" : "VEC3"
        },
        {
            "bufferView" : 12,
            "componentType" : 5126,
            "count" : 1804,
            "type" : "VEC3"
        },
        {
            "bufferView" : 13,
            "componentType" : 5126,
            "count" : 1804,
            "type" : "VEC2"
        },
        {
            "bufferView" : 14,
            "componentType" : 5123,
            "count" : 5328,
            "type" : "SCALAR"
        }
    ],
    "bufferViews" : [
        {
            "buffer" : 0,
            "byteLength" : 77532,
            "byteOffset" : 0
        },
        {
            "buffer" : 0,
            "byteLength" : 77532,
            "byteOffset" : 77532
        },
        {
            "buffer" : 0,
            "byteLength" : 51688,
            "byteOffset" : 155064
        },
        {
            "buffer" : 0,
            "byteLength" : 72450,
            "byteOffset" : 206752
        },
        {
            "buffer" : 0,
            "byteLength" : 1057280,
            "byteOffset" : 279204
        },
        {
            "buffer" : 0,
            "byteLength" : 827039,
            "byteOffset" : 1336484
        },
        {
            "buffer" : 0,
            "byteLength" : 41712,
            "byteOffset" : 2163524
        },
        {
            "buffer" : 0,
            "byteLength" : 41712,
            "byteOffset" : 2205236
        },
        {
            "buffer" : 0,
            "byteLength" : 27808,
            "byteOffset" : 2246948
        },
        {
            "buffer" : 0,
            "byteLength" : 37230,
            "byteOffset" : 2274756
        },
        {
            "buffer" : 0,
            "byteLength" : 700832,
            "byteOffset" : 2311988
        },
        {
            "buffer" : 0,
            "byteLength" : 21648,
            "byteOffset" : 3012820
        },
        {
            "buffer" : 0,
            "byteLength" : 21648,
            "byteOffset" : 3034468
        },
        {
            "buffer" : 0,
            "byteLength" : 14432,
            "byteOffset" : 3056116
        },
        {
            "buffer" : 0,
            "byteLength" : 10656,
            "byteOffset" : 3070548
        }
    ],
    "samplers" : [
        {
            "magFilter" : 9729,
            "minFilter" : 9987
        }
    ],
    "buffers" : [
        {
            "byteLength" : 3081204,
            "uri" : "data:application/octet-stream;base64,"
        }
    ]
}
